G04 #@! TF.GenerationSoftware,KiCad,Pcbnew,9.0.6*
G04 #@! TF.CreationDate,2025-12-25T14:29:32+05:30*
G04 #@! TF.ProjectId,new_first_pcb,6e65775f-6669-4727-9374-5f7063622e6b,rev?*
G04 #@! TF.SameCoordinates,Original*
G04 #@! TF.FileFunction,Copper,L1,Top*
G04 #@! TF.FilePolarity,Positive*
%FSLAX46Y46*%
G04 Gerber Fmt 4.6, Leading zero omitted, Abs format (unit mm)*
G04 Created by KiCad (PCBNEW 9.0.6) date 2025-12-25 14:29:32*
%MOMM*%
%LPD*%
G01*
G04 APERTURE LIST*
G04 #@! TA.AperFunction,ComponentPad*
%ADD10C,1.600000*%
G04 #@! TD*
G04 #@! TA.AperFunction,ComponentPad*
%ADD11R,1.524000X1.524000*%
G04 #@! TD*
G04 #@! TA.AperFunction,ComponentPad*
%ADD12C,1.524000*%
G04 #@! TD*
G04 #@! TA.AperFunction,ComponentPad*
%ADD13C,2.000000*%
G04 #@! TD*
G04 #@! TA.AperFunction,ComponentPad*
%ADD14R,1.800000X1.800000*%
G04 #@! TD*
G04 #@! TA.AperFunction,ComponentPad*
%ADD15C,1.800000*%
G04 #@! TD*
G04 #@! TA.AperFunction,ComponentPad*
%ADD16R,1.600000X1.600000*%
G04 #@! TD*
G04 #@! TA.AperFunction,ComponentPad*
%ADD17O,1.600000X1.600000*%
G04 #@! TD*
G04 #@! TA.AperFunction,ViaPad*
%ADD18C,0.600000*%
G04 #@! TD*
G04 #@! TA.AperFunction,Conductor*
%ADD19C,0.200000*%
G04 #@! TD*
G04 #@! TA.AperFunction,Conductor*
%ADD20C,0.400000*%
G04 #@! TD*
G04 APERTURE END LIST*
D10*
X141224000Y-126960000D03*
X141224000Y-121960000D03*
X137880000Y-88500000D03*
X145500000Y-88500000D03*
X146812000Y-94996000D03*
X146812000Y-102616000D03*
D11*
X88420000Y-117920000D03*
D12*
X90960000Y-117920000D03*
X93500000Y-117920000D03*
X96040000Y-117920000D03*
X98580000Y-117920000D03*
D11*
X96380000Y-83180000D03*
D12*
X98920000Y-83180000D03*
X101460000Y-83180000D03*
X104000000Y-83180000D03*
D10*
X140716000Y-114768000D03*
X140716000Y-109768000D03*
D13*
X151892000Y-97028000D03*
X158392000Y-97028000D03*
X151892000Y-101528000D03*
X158392000Y-101528000D03*
D10*
X147000000Y-119500000D03*
X147000000Y-127120000D03*
D13*
X151892000Y-122428000D03*
X158392000Y-122428000D03*
X151892000Y-126928000D03*
X158392000Y-126928000D03*
X152400000Y-109728000D03*
X158900000Y-109728000D03*
X152400000Y-114228000D03*
X158900000Y-114228000D03*
D10*
X147500000Y-107000000D03*
X147500000Y-114620000D03*
D14*
X152908000Y-88392000D03*
D15*
X150368000Y-88392000D03*
D16*
X133000000Y-124000000D03*
D17*
X133000000Y-121460000D03*
X133000000Y-118920000D03*
X133000000Y-116380000D03*
X133000000Y-113840000D03*
X133000000Y-111300000D03*
X133000000Y-108760000D03*
X133000000Y-106220000D03*
X133000000Y-103680000D03*
X133000000Y-101140000D03*
X133000000Y-98600000D03*
X133000000Y-96060000D03*
X133000000Y-93520000D03*
X133000000Y-90980000D03*
X133000000Y-88440000D03*
X117760000Y-88440000D03*
X117760000Y-90980000D03*
X117760000Y-93520000D03*
X117760000Y-96060000D03*
X117760000Y-98600000D03*
X117760000Y-101140000D03*
X117760000Y-103680000D03*
X117760000Y-106220000D03*
X117760000Y-108760000D03*
X117760000Y-111300000D03*
X117760000Y-113840000D03*
X117760000Y-116380000D03*
X117760000Y-118920000D03*
X117760000Y-121460000D03*
X117760000Y-124000000D03*
D10*
X140716000Y-102576000D03*
X140716000Y-97576000D03*
D18*
X137800000Y-108900000D03*
X138500000Y-115900000D03*
X101700000Y-108700000D03*
X105300000Y-106200000D03*
D19*
X147000000Y-127120000D02*
X151700000Y-127120000D01*
X137660000Y-108760000D02*
X137800000Y-108900000D01*
X151700000Y-127120000D02*
X151892000Y-126928000D01*
X133000000Y-108760000D02*
X137660000Y-108760000D01*
X141224000Y-126960000D02*
X146840000Y-126960000D01*
X146840000Y-126960000D02*
X147000000Y-127120000D01*
X151892000Y-126928000D02*
X158392000Y-126928000D01*
X137820000Y-88440000D02*
X137880000Y-88500000D01*
X133000000Y-88440000D02*
X137820000Y-88440000D01*
X151892000Y-101528000D02*
X158392000Y-101528000D01*
X150804000Y-102616000D02*
X151892000Y-101528000D01*
X135060000Y-115900000D02*
X138500000Y-115900000D01*
X133000000Y-113840000D02*
X135060000Y-115900000D01*
X146772000Y-102576000D02*
X146812000Y-102616000D01*
X146812000Y-102616000D02*
X150804000Y-102616000D01*
X140716000Y-102576000D02*
X146772000Y-102576000D01*
X147500000Y-114620000D02*
X152008000Y-114620000D01*
X147352000Y-114768000D02*
X147500000Y-114620000D01*
X136568000Y-114768000D02*
X140716000Y-114768000D01*
X133100000Y-111300000D02*
X136568000Y-114768000D01*
X152008000Y-114620000D02*
X152400000Y-114228000D01*
X140716000Y-114768000D02*
X147352000Y-114768000D01*
X152400000Y-114228000D02*
X158900000Y-114228000D01*
X133000000Y-111300000D02*
X133100000Y-111300000D01*
X146200001Y-120299999D02*
X121679999Y-120299999D01*
X121679999Y-120299999D02*
X117760000Y-116380000D01*
D20*
X117760000Y-116380000D02*
X100120000Y-116380000D01*
D19*
X147000000Y-119500000D02*
X146200001Y-120299999D01*
D20*
X100120000Y-116380000D02*
X98580000Y-117920000D01*
D19*
X93600000Y-115743862D02*
X93600000Y-117820000D01*
X101700000Y-108700000D02*
X100643862Y-108700000D01*
X93600000Y-117820000D02*
X93500000Y-117920000D01*
X101760000Y-108760000D02*
X117760000Y-108760000D01*
X101700000Y-108700000D02*
X101760000Y-108760000D01*
X100643862Y-108700000D02*
X93600000Y-115743862D01*
X102680000Y-106200000D02*
X90960000Y-117920000D01*
X105320000Y-106220000D02*
X105300000Y-106200000D01*
X105300000Y-106200000D02*
X102680000Y-106200000D01*
X117760000Y-106220000D02*
X105320000Y-106220000D01*
X150260000Y-88500000D02*
X150368000Y-88392000D01*
X145500000Y-88500000D02*
X150260000Y-88500000D01*
G04 #@! TA.AperFunction,Conductor*
G36*
X160442539Y-81520185D02*
G01*
X160488294Y-81572989D01*
X160499500Y-81624500D01*
X160499500Y-109046664D01*
X160479815Y-109113703D01*
X160427011Y-109159458D01*
X160357853Y-109169402D01*
X160294297Y-109140377D01*
X160265015Y-109102959D01*
X160182914Y-108941828D01*
X160122658Y-108858894D01*
X160122658Y-108858893D01*
X159423787Y-109557765D01*
X159412518Y-109515708D01*
X159340110Y-109390292D01*
X159237708Y-109287890D01*
X159112292Y-109215482D01*
X159070234Y-109204212D01*
X159769105Y-108505340D01*
X159769104Y-108505338D01*
X159686174Y-108445087D01*
X159475802Y-108337897D01*
X159251247Y-108264934D01*
X159251248Y-108264934D01*
X159018052Y-108228000D01*
X158781948Y-108228000D01*
X158548752Y-108264934D01*
X158324197Y-108337897D01*
X158113830Y-108445084D01*
X158030894Y-108505340D01*
X158729766Y-109204212D01*
X158687708Y-109215482D01*
X158562292Y-109287890D01*
X158459890Y-109390292D01*
X158387482Y-109515708D01*
X158376212Y-109557766D01*
X157677340Y-108858894D01*
X157617084Y-108941830D01*
X157509897Y-109152197D01*
X157436934Y-109376752D01*
X157400000Y-109609947D01*
X157400000Y-109846052D01*
X157436934Y-110079247D01*
X157509897Y-110303802D01*
X157617087Y-110514174D01*
X157677338Y-110597104D01*
X157677340Y-110597105D01*
X158376212Y-109898233D01*
X158387482Y-109940292D01*
X158459890Y-110065708D01*
X158562292Y-110168110D01*
X158687708Y-110240518D01*
X158729765Y-110251787D01*
X158030893Y-110950658D01*
X158113828Y-111010914D01*
X158324197Y-111118102D01*
X158548752Y-111191065D01*
X158548751Y-111191065D01*
X158781948Y-111228000D01*
X159018052Y-111228000D01*
X159251247Y-111191065D01*
X159475802Y-111118102D01*
X159686163Y-111010918D01*
X159686169Y-111010914D01*
X159769104Y-110950658D01*
X159769105Y-110950658D01*
X159070233Y-110251787D01*
X159112292Y-110240518D01*
X159237708Y-110168110D01*
X159340110Y-110065708D01*
X159412518Y-109940292D01*
X159423787Y-109898234D01*
X160122658Y-110597105D01*
X160122658Y-110597104D01*
X160182914Y-110514169D01*
X160182918Y-110514163D01*
X160265015Y-110353040D01*
X160312989Y-110302244D01*
X160380810Y-110285449D01*
X160446945Y-110307986D01*
X160490397Y-110362701D01*
X160499500Y-110409335D01*
X160499500Y-113545562D01*
X160479815Y-113612601D01*
X160427011Y-113658356D01*
X160357853Y-113668300D01*
X160294297Y-113639275D01*
X160265015Y-113601857D01*
X160227895Y-113529006D01*
X160183343Y-113441567D01*
X160044517Y-113250490D01*
X159877510Y-113083483D01*
X159686433Y-112944657D01*
X159475996Y-112837433D01*
X159251368Y-112764446D01*
X159018097Y-112727500D01*
X159018092Y-112727500D01*
X158781908Y-112727500D01*
X158781903Y-112727500D01*
X158548631Y-112764446D01*
X158324003Y-112837433D01*
X158113566Y-112944657D01*
X158047330Y-112992781D01*
X157922490Y-113083483D01*
X157922488Y-113083485D01*
X157922487Y-113083485D01*
X157755485Y-113250487D01*
X157755485Y-113250488D01*
X157755483Y-113250490D01*
X157705344Y-113319500D01*
X157616657Y-113441566D01*
X157603443Y-113467500D01*
X157563147Y-113546587D01*
X157556417Y-113559795D01*
X157508442Y-113610591D01*
X157445932Y-113627500D01*
X153854068Y-113627500D01*
X153787029Y-113607815D01*
X153743583Y-113559795D01*
X153683343Y-113441567D01*
X153544517Y-113250490D01*
X153377510Y-113083483D01*
X153186433Y-112944657D01*
X152975996Y-112837433D01*
X152751368Y-112764446D01*
X152518097Y-112727500D01*
X152518092Y-112727500D01*
X152281908Y-112727500D01*
X152281903Y-112727500D01*
X152048631Y-112764446D01*
X151824003Y-112837433D01*
X151613566Y-112944657D01*
X151547330Y-112992781D01*
X151422490Y-113083483D01*
X151422488Y-113083485D01*
X151422487Y-113083485D01*
X151255485Y-113250487D01*
X151255485Y-113250488D01*
X151255483Y-113250490D01*
X151205344Y-113319500D01*
X151116657Y-113441566D01*
X151009433Y-113652003D01*
X150936446Y-113876631D01*
X150930386Y-113914898D01*
X150900457Y-113978033D01*
X150841145Y-114014964D01*
X150807913Y-114019500D01*
X148729602Y-114019500D01*
X148662563Y-113999815D01*
X148619117Y-113951795D01*
X148612287Y-113938390D01*
X148612285Y-113938387D01*
X148612284Y-113938385D01*
X148491971Y-113772786D01*
X148347213Y-113628028D01*
X148181613Y-113507715D01*
X148181612Y-113507714D01*
X148181610Y-113507713D01*
X148102688Y-113467500D01*
X147999223Y-113414781D01*
X147804534Y-113351522D01*
X147629995Y-113323878D01*
X147602352Y-113319500D01*
X147397648Y-113319500D01*
X147373329Y-113323351D01*
X147195465Y-113351522D01*
X147000776Y-113414781D01*
X146818386Y-113507715D01*
X146652786Y-113628028D01*
X146508028Y-113772786D01*
X146387715Y-113938385D01*
X146305473Y-114099795D01*
X146257498Y-114150591D01*
X146194988Y-114167500D01*
X141945602Y-114167500D01*
X141878563Y-114147815D01*
X141835117Y-114099795D01*
X141828284Y-114086385D01*
X141707971Y-113920786D01*
X141563213Y-113776028D01*
X141397613Y-113655715D01*
X141397612Y-113655714D01*
X141397610Y-113655713D01*
X141340653Y-113626691D01*
X141215223Y-113562781D01*
X141020534Y-113499522D01*
X140845995Y-113471878D01*
X140818352Y-113467500D01*
X140613648Y-113467500D01*
X140589329Y-113471351D01*
X140411465Y-113499522D01*
X140216776Y-113562781D01*
X140034386Y-113655715D01*
X139868786Y-113776028D01*
X139724028Y-113920786D01*
X139603715Y-114086385D01*
X139596883Y-114099795D01*
X139548909Y-114150591D01*
X139486398Y-114167500D01*
X136868098Y-114167500D01*
X136801059Y-114147815D01*
X136780417Y-114131181D01*
X134311142Y-111661906D01*
X134277657Y-111600583D01*
X134276350Y-111554827D01*
X134300500Y-111402351D01*
X134300500Y-111197648D01*
X134268477Y-110995465D01*
X134220391Y-110847473D01*
X134205220Y-110800781D01*
X134112287Y-110618390D01*
X134096822Y-110597104D01*
X133991971Y-110452786D01*
X133847213Y-110308028D01*
X133681614Y-110187715D01*
X133642921Y-110168000D01*
X133588917Y-110140483D01*
X133538123Y-110092511D01*
X133521328Y-110024690D01*
X133543865Y-109958555D01*
X133588917Y-109919516D01*
X133681610Y-109872287D01*
X133752668Y-109820661D01*
X133847213Y-109751971D01*
X133847215Y-109751968D01*
X133847219Y-109751966D01*
X133991966Y-109607219D01*
X133991968Y-109607215D01*
X133991971Y-109607213D01*
X134096913Y-109462770D01*
X134112287Y-109441610D01*
X134119117Y-109428204D01*
X134167091Y-109377409D01*
X134229602Y-109360500D01*
X137078702Y-109360500D01*
X137145741Y-109380185D01*
X137174555Y-109405834D01*
X137178216Y-109410295D01*
X137289707Y-109521786D01*
X137289711Y-109521789D01*
X137420814Y-109609390D01*
X137420827Y-109609397D01*
X137532351Y-109655591D01*
X137566503Y-109669737D01*
X137721153Y-109700499D01*
X137721156Y-109700500D01*
X137721158Y-109700500D01*
X137878844Y-109700500D01*
X137878845Y-109700499D01*
X138033497Y-109669737D01*
X138043287Y-109665682D01*
X139416000Y-109665682D01*
X139416000Y-109870317D01*
X139448009Y-110072417D01*
X139511244Y-110267031D01*
X139604141Y-110449350D01*
X139604147Y-110449359D01*
X139636523Y-110493921D01*
X139636524Y-110493922D01*
X140316000Y-109814446D01*
X140316000Y-109820661D01*
X140343259Y-109922394D01*
X140395920Y-110013606D01*
X140470394Y-110088080D01*
X140561606Y-110140741D01*
X140663339Y-110168000D01*
X140669553Y-110168000D01*
X139990076Y-110847474D01*
X140034650Y-110879859D01*
X140216968Y-110972755D01*
X140411582Y-111035990D01*
X140613683Y-111068000D01*
X140818317Y-111068000D01*
X141020417Y-111035990D01*
X141215031Y-110972755D01*
X141397349Y-110879859D01*
X141441921Y-110847474D01*
X141441921Y-110847473D01*
X140762447Y-110168000D01*
X140768661Y-110168000D01*
X140870394Y-110140741D01*
X140961606Y-110088080D01*
X141036080Y-110013606D01*
X141088741Y-109922394D01*
X141116000Y-109820661D01*
X141116000Y-109814447D01*
X141795474Y-110493921D01*
X141827859Y-110449349D01*
X141920755Y-110267031D01*
X141983990Y-110072417D01*
X142016000Y-109870317D01*
X142016000Y-109665682D01*
X142009473Y-109624473D01*
X142007172Y-109609947D01*
X150900000Y-109609947D01*
X150900000Y-109846052D01*
X150936934Y-110079247D01*
X151009897Y-110303802D01*
X151117087Y-110514174D01*
X151177338Y-110597104D01*
X151177340Y-110597105D01*
X151876212Y-109898233D01*
X151887482Y-109940292D01*
X151959890Y-110065708D01*
X152062292Y-110168110D01*
X152187708Y-110240518D01*
X152229765Y-110251787D01*
X151530893Y-110950658D01*
X151613828Y-111010914D01*
X151824197Y-111118102D01*
X152048752Y-111191065D01*
X152048751Y-111191065D01*
X152281948Y-111228000D01*
X152518052Y-111228000D01*
X152751247Y-111191065D01*
X152975802Y-111118102D01*
X153186163Y-111010918D01*
X153186169Y-111010914D01*
X153269104Y-110950658D01*
X153269105Y-110950658D01*
X152570233Y-110251787D01*
X152612292Y-110240518D01*
X152737708Y-110168110D01*
X152840110Y-110065708D01*
X152912518Y-109940292D01*
X152923787Y-109898234D01*
X153622658Y-110597105D01*
X153622658Y-110597104D01*
X153682914Y-110514169D01*
X153682918Y-110514163D01*
X153790102Y-110303802D01*
X153863065Y-110079247D01*
X153900000Y-109846052D01*
X153900000Y-109609947D01*
X153863065Y-109376752D01*
X153790102Y-109152197D01*
X153682914Y-108941828D01*
X153622658Y-108858894D01*
X153622658Y-108858893D01*
X152923787Y-109557765D01*
X152912518Y-109515708D01*
X152840110Y-109390292D01*
X152737708Y-109287890D01*
X152612292Y-109215482D01*
X152570234Y-109204212D01*
X153269105Y-108505340D01*
X153269104Y-108505339D01*
X153186174Y-108445087D01*
X152975802Y-108337897D01*
X152751247Y-108264934D01*
X152751248Y-108264934D01*
X152518052Y-108228000D01*
X152281948Y-108228000D01*
X152048752Y-108264934D01*
X151824197Y-108337897D01*
X151613830Y-108445084D01*
X151530894Y-108505340D01*
X152229766Y-109204212D01*
X152187708Y-109215482D01*
X152062292Y-109287890D01*
X151959890Y-109390292D01*
X151887482Y-109515708D01*
X151876212Y-109557766D01*
X151177340Y-108858894D01*
X151117084Y-108941830D01*
X151009897Y-109152197D01*
X150936934Y-109376752D01*
X150900000Y-109609947D01*
X142007172Y-109609947D01*
X141983990Y-109463582D01*
X141920755Y-109268968D01*
X141827859Y-109086650D01*
X141795474Y-109042077D01*
X141795474Y-109042076D01*
X141116000Y-109721551D01*
X141116000Y-109715339D01*
X141088741Y-109613606D01*
X141036080Y-109522394D01*
X140961606Y-109447920D01*
X140870394Y-109395259D01*
X140768661Y-109368000D01*
X140762446Y-109368000D01*
X141441922Y-108688524D01*
X141441921Y-108688523D01*
X141397355Y-108656143D01*
X141215031Y-108563244D01*
X141020417Y-108500009D01*
X140818317Y-108468000D01*
X140613683Y-108468000D01*
X140411582Y-108500009D01*
X140216968Y-108563244D01*
X140034644Y-108656143D01*
X139990077Y-108688523D01*
X139990077Y-108688524D01*
X140669554Y-109368000D01*
X140663339Y-109368000D01*
X140561606Y-109395259D01*
X140470394Y-109447920D01*
X140395920Y-109522394D01*
X140343259Y-109613606D01*
X140316000Y-109715339D01*
X140316000Y-109721553D01*
X139636524Y-109042077D01*
X139636523Y-109042077D01*
X139604143Y-109086644D01*
X139511244Y-109268968D01*
X139448009Y-109463582D01*
X139416000Y-109665682D01*
X138043287Y-109665682D01*
X138179179Y-109609394D01*
X138182443Y-109607213D01*
X138256524Y-109557714D01*
X138274478Y-109545716D01*
X138310289Y-109521789D01*
X138421789Y-109410289D01*
X138509394Y-109279179D01*
X138569737Y-109133497D01*
X138600500Y-108978842D01*
X138600500Y-108821158D01*
X138600500Y-108821155D01*
X138588330Y-108759975D01*
X138588330Y-108759974D01*
X138569738Y-108666510D01*
X138569737Y-108666503D01*
X138526966Y-108563244D01*
X138509397Y-108520827D01*
X138509390Y-108520814D01*
X138421789Y-108389711D01*
X138421786Y-108389707D01*
X138310292Y-108278213D01*
X138310288Y-108278210D01*
X138179185Y-108190609D01*
X138179172Y-108190602D01*
X138033501Y-108130264D01*
X138033489Y-108130261D01*
X137878845Y-108099500D01*
X137878842Y-108099500D01*
X137721158Y-108099500D01*
X137721155Y-108099500D01*
X137566511Y-108130260D01*
X137566501Y-108130263D01*
X137518706Y-108150061D01*
X137471254Y-108159500D01*
X134229602Y-108159500D01*
X134162563Y-108139815D01*
X134119117Y-108091795D01*
X134112284Y-108078385D01*
X133991971Y-107912786D01*
X133847213Y-107768028D01*
X133681614Y-107647715D01*
X133675006Y-107644348D01*
X133588917Y-107600483D01*
X133538123Y-107552511D01*
X133521328Y-107484690D01*
X133543865Y-107418555D01*
X133588917Y-107379516D01*
X133681610Y-107332287D01*
X133719809Y-107304534D01*
X133847213Y-107211971D01*
X133847215Y-107211968D01*
X133847219Y-107211966D01*
X133991966Y-107067219D01*
X133991968Y-107067215D01*
X133991971Y-107067213D01*
X134044732Y-106994590D01*
X134112287Y-106901610D01*
X134114306Y-106897648D01*
X146199500Y-106897648D01*
X146199500Y-107102351D01*
X146231522Y-107304534D01*
X146294781Y-107499223D01*
X146387715Y-107681613D01*
X146508028Y-107847213D01*
X146652786Y-107991971D01*
X146771734Y-108078390D01*
X146818390Y-108112287D01*
X146892526Y-108150061D01*
X147000776Y-108205218D01*
X147000778Y-108205218D01*
X147000781Y-108205220D01*
X147070891Y-108228000D01*
X147195465Y-108268477D01*
X147296557Y-108284488D01*
X147397648Y-108300500D01*
X147397649Y-108300500D01*
X147602351Y-108300500D01*
X147602352Y-108300500D01*
X147804534Y-108268477D01*
X147999219Y-108205220D01*
X148181610Y-108112287D01*
X148274590Y-108044732D01*
X148347213Y-107991971D01*
X148347215Y-107991968D01*
X148347219Y-107991966D01*
X148491966Y-107847219D01*
X148491968Y-107847215D01*
X148491971Y-107847213D01*
X148555598Y-107759636D01*
X148612287Y-107681610D01*
X148705220Y-107499219D01*
X148768477Y-107304534D01*
X148800500Y-107102352D01*
X148800500Y-106897648D01*
X148791399Y-106840185D01*
X148768477Y-106695465D01*
X148705218Y-106500776D01*
X148671503Y-106434607D01*
X148612287Y-106318390D01*
X148604556Y-106307749D01*
X148491971Y-106152786D01*
X148347213Y-106008028D01*
X148181613Y-105887715D01*
X148181612Y-105887714D01*
X148181610Y-105887713D01*
X148124653Y-105858691D01*
X147999223Y-105794781D01*
X147804534Y-105731522D01*
X147629995Y-105703878D01*
X147602352Y-105699500D01*
X147397648Y-105699500D01*
X147373329Y-105703351D01*
X147195465Y-105731522D01*
X147000776Y-105794781D01*
X146818386Y-105887715D01*
X146652786Y-106008028D01*
X146508028Y-106152786D01*
X146387715Y-106318386D01*
X146294781Y-106500776D01*
X146231522Y-106695465D01*
X146199500Y-106897648D01*
X134114306Y-106897648D01*
X134153605Y-106820520D01*
X134205218Y-106719223D01*
X134205218Y-106719222D01*
X134205220Y-106719219D01*
X134268477Y-106524534D01*
X134300500Y-106322352D01*
X134300500Y-106117648D01*
X134268477Y-105915466D01*
X134205220Y-105720781D01*
X134205218Y-105720778D01*
X134205218Y-105720776D01*
X134171503Y-105654607D01*
X134112287Y-105538390D01*
X134104556Y-105527749D01*
X133991971Y-105372786D01*
X133847213Y-105228028D01*
X133681614Y-105107715D01*
X133675006Y-105104348D01*
X133588917Y-105060483D01*
X133538123Y-105012511D01*
X133521328Y-104944690D01*
X133543865Y-104878555D01*
X133588917Y-104839516D01*
X133681610Y-104792287D01*
X133702770Y-104776913D01*
X133847213Y-104671971D01*
X133847215Y-104671968D01*
X133847219Y-104671966D01*
X133991966Y-104527219D01*
X133991968Y-104527215D01*
X133991971Y-104527213D01*
X134044732Y-104454590D01*
X134112287Y-104361610D01*
X134205220Y-104179219D01*
X134268477Y-103984534D01*
X134300500Y-103782352D01*
X134300500Y-103577648D01*
X134298967Y-103567971D01*
X134268477Y-103375465D01*
X134238824Y-103284205D01*
X134205220Y-103180781D01*
X134205218Y-103180778D01*
X134205218Y-103180776D01*
X134151433Y-103075219D01*
X134112287Y-102998390D01*
X134102350Y-102984713D01*
X133991971Y-102832786D01*
X133847213Y-102688028D01*
X133690651Y-102574280D01*
X133690642Y-102574275D01*
X133681610Y-102567713D01*
X133588058Y-102520046D01*
X133587262Y-102519625D01*
X133562879Y-102495892D01*
X133539327Y-102473648D01*
X139415500Y-102473648D01*
X139415500Y-102678351D01*
X139447522Y-102880534D01*
X139510781Y-103075223D01*
X139571001Y-103193409D01*
X139582766Y-103216500D01*
X139603715Y-103257613D01*
X139724028Y-103423213D01*
X139868786Y-103567971D01*
X140023749Y-103680556D01*
X140034390Y-103688287D01*
X140150607Y-103747503D01*
X140216776Y-103781218D01*
X140216778Y-103781218D01*
X140216781Y-103781220D01*
X140321137Y-103815127D01*
X140411465Y-103844477D01*
X140512557Y-103860488D01*
X140613648Y-103876500D01*
X140613649Y-103876500D01*
X140818351Y-103876500D01*
X140818352Y-103876500D01*
X141020534Y-103844477D01*
X141215219Y-103781220D01*
X141397610Y-103688287D01*
X141490590Y-103620732D01*
X141563213Y-103567971D01*
X141563215Y-103567968D01*
X141563219Y-103567966D01*
X141707966Y-103423219D01*
X141707968Y-103423215D01*
X141707971Y-103423213D01*
X141828284Y-103257614D01*
X141828285Y-103257613D01*
X141828287Y-103257610D01*
X141835117Y-103244204D01*
X141883091Y-103193409D01*
X141945602Y-103176500D01*
X145562017Y-103176500D01*
X145629056Y-103196185D01*
X145672501Y-103244204D01*
X145679334Y-103257614D01*
X145699715Y-103297614D01*
X145820028Y-103463213D01*
X145964786Y-103607971D01*
X146075330Y-103688284D01*
X146130390Y-103728287D01*
X146246607Y-103787503D01*
X146312776Y-103821218D01*
X146312778Y-103821218D01*
X146312781Y-103821220D01*
X146384359Y-103844477D01*
X146507465Y-103884477D01*
X146608557Y-103900488D01*
X146709648Y-103916500D01*
X146709649Y-103916500D01*
X146914351Y-103916500D01*
X146914352Y-103916500D01*
X147116534Y-103884477D01*
X147311219Y-103821220D01*
X147493610Y-103728287D01*
X147586590Y-103660732D01*
X147659213Y-103607971D01*
X147659215Y-103607968D01*
X147659219Y-103607966D01*
X147803966Y-103463219D01*
X147803968Y-103463215D01*
X147803971Y-103463213D01*
X147924284Y-103297614D01*
X147924283Y-103297614D01*
X147924287Y-103297610D01*
X147931117Y-103284204D01*
X147979091Y-103233409D01*
X148041602Y-103216500D01*
X150717331Y-103216500D01*
X150717347Y-103216501D01*
X150724943Y-103216501D01*
X150883054Y-103216501D01*
X150883057Y-103216501D01*
X151035785Y-103175577D01*
X151085904Y-103146639D01*
X151172716Y-103096520D01*
X151284520Y-102984716D01*
X151284520Y-102984714D01*
X151288436Y-102980799D01*
X151349759Y-102947314D01*
X151414436Y-102950549D01*
X151540632Y-102991553D01*
X151628110Y-103005408D01*
X151773903Y-103028500D01*
X151773908Y-103028500D01*
X152010097Y-103028500D01*
X152243368Y-102991553D01*
X152276465Y-102980799D01*
X152467992Y-102918568D01*
X152678433Y-102811343D01*
X152869510Y-102672517D01*
X153036517Y-102505510D01*
X153175343Y-102314433D01*
X153235583Y-102196204D01*
X153283558Y-102145409D01*
X153346068Y-102128500D01*
X156937932Y-102128500D01*
X157004971Y-102148185D01*
X157048416Y-102196203D01*
X157108657Y-102314433D01*
X157247483Y-102505510D01*
X157414490Y-102672517D01*
X157605567Y-102811343D01*
X157704991Y-102862002D01*
X157816003Y-102918566D01*
X157816005Y-102918566D01*
X157816008Y-102918568D01*
X157904479Y-102947314D01*
X158040631Y-102991553D01*
X158273903Y-103028500D01*
X158273908Y-103028500D01*
X158510097Y-103028500D01*
X158743368Y-102991553D01*
X158776465Y-102980799D01*
X158967992Y-102918568D01*
X159178433Y-102811343D01*
X159369510Y-102672517D01*
X159536517Y-102505510D01*
X159675343Y-102314433D01*
X159782568Y-102103992D01*
X159855553Y-101879368D01*
X159856704Y-101872102D01*
X159892500Y-101646097D01*
X159892500Y-101409902D01*
X159855553Y-101176631D01*
X159782566Y-100952003D01*
X159675342Y-100741566D01*
X159602117Y-100640781D01*
X159536517Y-100550490D01*
X159369510Y-100383483D01*
X159178433Y-100244657D01*
X158967996Y-100137433D01*
X158743368Y-100064446D01*
X158510097Y-100027500D01*
X158510092Y-100027500D01*
X158273908Y-100027500D01*
X158273903Y-100027500D01*
X158040631Y-100064446D01*
X157816003Y-100137433D01*
X157605566Y-100244657D01*
X157539330Y-100292781D01*
X157414490Y-100383483D01*
X157414488Y-100383485D01*
X157414487Y-100383485D01*
X157247485Y-100550487D01*
X157247485Y-100550488D01*
X157247483Y-100550490D01*
X157187862Y-100632550D01*
X157108657Y-100741566D01*
X157076060Y-100805540D01*
X157060814Y-100835465D01*
X157048417Y-100859795D01*
X157000442Y-100910591D01*
X156937932Y-100927500D01*
X153346068Y-100927500D01*
X153279029Y-100907815D01*
X153235583Y-100859795D01*
X153223187Y-100835466D01*
X153175343Y-100741567D01*
X153036517Y-100550490D01*
X152869510Y-100383483D01*
X152678433Y-100244657D01*
X152467996Y-100137433D01*
X152243368Y-100064446D01*
X152010097Y-100027500D01*
X152010092Y-100027500D01*
X151773908Y-100027500D01*
X151773903Y-100027500D01*
X151540631Y-100064446D01*
X151316003Y-100137433D01*
X151105566Y-100244657D01*
X151039330Y-100292781D01*
X150914490Y-100383483D01*
X150914488Y-100383485D01*
X150914487Y-100383485D01*
X150747485Y-100550487D01*
X150747485Y-100550488D01*
X150747483Y-100550490D01*
X150687862Y-100632550D01*
X150608657Y-100741566D01*
X150501433Y-100952003D01*
X150428446Y-101176631D01*
X150391500Y-101409902D01*
X150391500Y-101646097D01*
X150427296Y-101872102D01*
X150418342Y-101941395D01*
X150373345Y-101994847D01*
X150306594Y-102015487D01*
X150304823Y-102015500D01*
X148041602Y-102015500D01*
X147974563Y-101995815D01*
X147931117Y-101947795D01*
X147924284Y-101934385D01*
X147803971Y-101768786D01*
X147659213Y-101624028D01*
X147493613Y-101503715D01*
X147493612Y-101503714D01*
X147493610Y-101503713D01*
X147415106Y-101463713D01*
X147311223Y-101410781D01*
X147116534Y-101347522D01*
X146941995Y-101319878D01*
X146914352Y-101315500D01*
X146709648Y-101315500D01*
X146685329Y-101319351D01*
X146507465Y-101347522D01*
X146312776Y-101410781D01*
X146130386Y-101503715D01*
X145964786Y-101624028D01*
X145820032Y-101768782D01*
X145820028Y-101768787D01*
X145706981Y-101924385D01*
X145651652Y-101967051D01*
X145606663Y-101975500D01*
X141945602Y-101975500D01*
X141878563Y-101955815D01*
X141835117Y-101907795D01*
X141828284Y-101894385D01*
X141707971Y-101728786D01*
X141563213Y-101584028D01*
X141397613Y-101463715D01*
X141397612Y-101463714D01*
X141397610Y-101463713D01*
X141340653Y-101434691D01*
X141215223Y-101370781D01*
X141020534Y-101307522D01*
X140845995Y-101279878D01*
X140818352Y-101275500D01*
X140613648Y-101275500D01*
X140589329Y-101279351D01*
X140411465Y-101307522D01*
X140216776Y-101370781D01*
X140034386Y-101463715D01*
X139868786Y-101584028D01*
X139724028Y-101728786D01*
X139603715Y-101894386D01*
X139510781Y-102076776D01*
X139447522Y-102271465D01*
X139415500Y-102473648D01*
X133539327Y-102473648D01*
X133538123Y-102472511D01*
X133537889Y-102471567D01*
X133537194Y-102470891D01*
X133529511Y-102437737D01*
X133521328Y-102404690D01*
X133521641Y-102403770D01*
X133521422Y-102402825D01*
X133532878Y-102370793D01*
X133543865Y-102338555D01*
X133544654Y-102337870D01*
X133544953Y-102337037D01*
X133550905Y-102332454D01*
X133588917Y-102299516D01*
X133681610Y-102252287D01*
X133758801Y-102196205D01*
X133847213Y-102131971D01*
X133847215Y-102131968D01*
X133847219Y-102131966D01*
X133991966Y-101987219D01*
X133991968Y-101987215D01*
X133991971Y-101987213D01*
X134049670Y-101907795D01*
X134112287Y-101821610D01*
X134205220Y-101639219D01*
X134268477Y-101444534D01*
X134300500Y-101242352D01*
X134300500Y-101037648D01*
X134279936Y-100907815D01*
X134268477Y-100835465D01*
X134205218Y-100640776D01*
X134159213Y-100550487D01*
X134112287Y-100458390D01*
X134057866Y-100383485D01*
X133991971Y-100292786D01*
X133847213Y-100148028D01*
X133681614Y-100027715D01*
X133675006Y-100024348D01*
X133588917Y-99980483D01*
X133538123Y-99932511D01*
X133521328Y-99864690D01*
X133543865Y-99798555D01*
X133588917Y-99759516D01*
X133681610Y-99712287D01*
X133702770Y-99696913D01*
X133847213Y-99591971D01*
X133847215Y-99591968D01*
X133847219Y-99591966D01*
X133991966Y-99447219D01*
X133991968Y-99447215D01*
X133991971Y-99447213D01*
X134044732Y-99374590D01*
X134112287Y-99281610D01*
X134205220Y-99099219D01*
X134268477Y-98904534D01*
X134300500Y-98702352D01*
X134300500Y-98497648D01*
X134287901Y-98418102D01*
X134268477Y-98295465D01*
X134239127Y-98205137D01*
X134205220Y-98100781D01*
X134205218Y-98100778D01*
X134205218Y-98100776D01*
X134171503Y-98034607D01*
X134112287Y-97918390D01*
X134084698Y-97880417D01*
X133991971Y-97752786D01*
X133847217Y-97608032D01*
X133847212Y-97608028D01*
X133793702Y-97569150D01*
X133793679Y-97569135D01*
X133681609Y-97487712D01*
X133654073Y-97473682D01*
X139416000Y-97473682D01*
X139416000Y-97678317D01*
X139448009Y-97880417D01*
X139511244Y-98075031D01*
X139604141Y-98257350D01*
X139604147Y-98257359D01*
X139636523Y-98301921D01*
X139636524Y-98301922D01*
X140316000Y-97622446D01*
X140316000Y-97628661D01*
X140343259Y-97730394D01*
X140395920Y-97821606D01*
X140470394Y-97896080D01*
X140561606Y-97948741D01*
X140663339Y-97976000D01*
X140669553Y-97976000D01*
X139990076Y-98655474D01*
X140034650Y-98687859D01*
X140216968Y-98780755D01*
X140411582Y-98843990D01*
X140613683Y-98876000D01*
X140818317Y-98876000D01*
X141020417Y-98843990D01*
X141215031Y-98780755D01*
X141397349Y-98687859D01*
X141441921Y-98655474D01*
X140762447Y-97976000D01*
X140768661Y-97976000D01*
X140870394Y-97948741D01*
X140961606Y-97896080D01*
X141036080Y-97821606D01*
X141088741Y-97730394D01*
X141116000Y-97628661D01*
X141116000Y-97622447D01*
X141795474Y-98301921D01*
X141827861Y-98257347D01*
X141827861Y-98257346D01*
X141884032Y-98147105D01*
X141884032Y-98147104D01*
X141920755Y-98075031D01*
X141983990Y-97880417D01*
X142016000Y-97678317D01*
X142016000Y-97473682D01*
X141983990Y-97271582D01*
X141920754Y-97076965D01*
X141861856Y-96961371D01*
X141861855Y-96961370D01*
X141835653Y-96909947D01*
X150392000Y-96909947D01*
X150392000Y-97146052D01*
X150428934Y-97379247D01*
X150501897Y-97603802D01*
X150609087Y-97814174D01*
X150669338Y-97897104D01*
X150669340Y-97897105D01*
X151368212Y-97198233D01*
X151379482Y-97240292D01*
X151451890Y-97365708D01*
X151554292Y-97468110D01*
X151679708Y-97540518D01*
X151721765Y-97551787D01*
X151022893Y-98250658D01*
X151105828Y-98310914D01*
X151316197Y-98418102D01*
X151540752Y-98491065D01*
X151540751Y-98491065D01*
X151773948Y-98528000D01*
X152010052Y-98528000D01*
X152243247Y-98491065D01*
X152467802Y-98418102D01*
X152678163Y-98310918D01*
X152678169Y-98310914D01*
X152761104Y-98250658D01*
X152761105Y-98250658D01*
X152062233Y-97551787D01*
X152104292Y-97540518D01*
X152229708Y-97468110D01*
X152332110Y-97365708D01*
X152404518Y-97240292D01*
X152415787Y-97198234D01*
X153114658Y-97897105D01*
X153114658Y-97897104D01*
X153174914Y-97814169D01*
X153174918Y-97814163D01*
X153282102Y-97603802D01*
X153355065Y-97379247D01*
X153392000Y-97146052D01*
X153392000Y-96909947D01*
X156892000Y-96909947D01*
X156892000Y-97146052D01*
X156928934Y-97379247D01*
X157001897Y-97603802D01*
X157109087Y-97814174D01*
X157169338Y-97897104D01*
X157169340Y-97897105D01*
X157868212Y-97198233D01*
X157879482Y-97240292D01*
X157951890Y-97365708D01*
X158054292Y-97468110D01*
X158179708Y-97540518D01*
X158221765Y-97551787D01*
X157522893Y-98250658D01*
X157605828Y-98310914D01*
X157816197Y-98418102D01*
X158040752Y-98491065D01*
X158040751Y-98491065D01*
X158273948Y-98528000D01*
X158510052Y-98528000D01*
X158743247Y-98491065D01*
X158967802Y-98418102D01*
X159178163Y-98310918D01*
X159178169Y-98310914D01*
X159261104Y-98250658D01*
X159261105Y-98250658D01*
X158562233Y-97551787D01*
X158604292Y-97540518D01*
X158729708Y-97468110D01*
X158832110Y-97365708D01*
X158904518Y-97240292D01*
X158915787Y-97198234D01*
X159614658Y-97897105D01*
X159614658Y-97897104D01*
X159674914Y-97814169D01*
X159674918Y-97814163D01*
X159782102Y-97603802D01*
X159855065Y-97379247D01*
X159892000Y-97146052D01*
X159892000Y-96909947D01*
X159855065Y-96676752D01*
X159782102Y-96452197D01*
X159674914Y-96241828D01*
X159614658Y-96158894D01*
X159614658Y-96158893D01*
X158915787Y-96857765D01*
X158904518Y-96815708D01*
X158832110Y-96690292D01*
X158729708Y-96587890D01*
X158604292Y-96515482D01*
X158562234Y-96504212D01*
X159261105Y-95805340D01*
X159261104Y-95805338D01*
X159178174Y-95745087D01*
X158967802Y-95637897D01*
X158743247Y-95564934D01*
X158743248Y-95564934D01*
X158510052Y-95528000D01*
X158273948Y-95528000D01*
X158040752Y-95564934D01*
X157816197Y-95637897D01*
X157605830Y-95745084D01*
X157522894Y-95805340D01*
X158221766Y-96504212D01*
X158179708Y-96515482D01*
X158054292Y-96587890D01*
X157951890Y-96690292D01*
X157879482Y-96815708D01*
X157868212Y-96857765D01*
X157169340Y-96158894D01*
X157109084Y-96241830D01*
X157001897Y-96452197D01*
X156928934Y-96676752D01*
X156892000Y-96909947D01*
X153392000Y-96909947D01*
X153355065Y-96676752D01*
X153282102Y-96452197D01*
X153174914Y-96241828D01*
X153114658Y-96158894D01*
X153114658Y-96158893D01*
X152415787Y-96857765D01*
X152404518Y-96815708D01*
X152332110Y-96690292D01*
X152229708Y-96587890D01*
X152104292Y-96515482D01*
X152062234Y-96504212D01*
X152761105Y-95805340D01*
X152761104Y-95805339D01*
X152678174Y-95745087D01*
X152467802Y-95637897D01*
X152243247Y-95564934D01*
X152243248Y-95564934D01*
X152010052Y-95528000D01*
X151773948Y-95528000D01*
X151540752Y-95564934D01*
X151316197Y-95637897D01*
X151105830Y-95745084D01*
X151022894Y-95805340D01*
X151721766Y-96504212D01*
X151679708Y-96515482D01*
X151554292Y-96587890D01*
X151451890Y-96690292D01*
X151379482Y-96815708D01*
X151368212Y-96857766D01*
X150669340Y-96158894D01*
X150609084Y-96241830D01*
X150501897Y-96452197D01*
X150428934Y-96676752D01*
X150392000Y-96909947D01*
X141835653Y-96909947D01*
X141827859Y-96894650D01*
X141795474Y-96850077D01*
X141795474Y-96850076D01*
X141116000Y-97529551D01*
X141116000Y-97523339D01*
X141088741Y-97421606D01*
X141036080Y-97330394D01*
X140961606Y-97255920D01*
X140870394Y-97203259D01*
X140768661Y-97176000D01*
X140762446Y-97176000D01*
X141441922Y-96496524D01*
X141441921Y-96496523D01*
X141397359Y-96464147D01*
X141397350Y-96464141D01*
X141215031Y-96371244D01*
X141020417Y-96308009D01*
X140818317Y-96276000D01*
X140613683Y-96276000D01*
X140411582Y-96308009D01*
X140216968Y-96371244D01*
X140034644Y-96464143D01*
X139990077Y-96496523D01*
X139990077Y-96496524D01*
X140669554Y-97176000D01*
X140663339Y-97176000D01*
X140561606Y-97203259D01*
X140470394Y-97255920D01*
X140395920Y-97330394D01*
X140343259Y-97421606D01*
X140316000Y-97523339D01*
X140316000Y-97529553D01*
X139636524Y-96850077D01*
X139636523Y-96850077D01*
X139604143Y-96894644D01*
X139511244Y-97076968D01*
X139448009Y-97271582D01*
X139416000Y-97473682D01*
X133654073Y-97473682D01*
X133635546Y-97464242D01*
X133588917Y-97440483D01*
X133538123Y-97392511D01*
X133521328Y-97324690D01*
X133543865Y-97258555D01*
X133588917Y-97219516D01*
X133681610Y-97172287D01*
X133717720Y-97146052D01*
X133847213Y-97051971D01*
X133847215Y-97051968D01*
X133847219Y-97051966D01*
X133991966Y-96907219D01*
X133991968Y-96907215D01*
X133991971Y-96907213D01*
X134058452Y-96815708D01*
X134112287Y-96741610D01*
X134205220Y-96559219D01*
X134268477Y-96364534D01*
X134300500Y-96162352D01*
X134300500Y-95957648D01*
X134282375Y-95843212D01*
X134268477Y-95755465D01*
X134239127Y-95665137D01*
X134205220Y-95560781D01*
X134205218Y-95560778D01*
X134205218Y-95560776D01*
X134171503Y-95494607D01*
X134112287Y-95378390D01*
X134055722Y-95300534D01*
X133991971Y-95212786D01*
X133847217Y-95068032D01*
X133847212Y-95068028D01*
X133743200Y-94992459D01*
X133743189Y-94992452D01*
X133681610Y-94947713D01*
X133585326Y-94898654D01*
X133581873Y-94896602D01*
X133579126Y-94893648D01*
X145511500Y-94893648D01*
X145511500Y-95098351D01*
X145543522Y-95300534D01*
X145606781Y-95495223D01*
X145670691Y-95620653D01*
X145699712Y-95677609D01*
X145699715Y-95677613D01*
X145820028Y-95843213D01*
X145964786Y-95987971D01*
X146119749Y-96100556D01*
X146130390Y-96108287D01*
X146246607Y-96167503D01*
X146312776Y-96201218D01*
X146312778Y-96201218D01*
X146312781Y-96201220D01*
X146417137Y-96235127D01*
X146507465Y-96264477D01*
X146580218Y-96276000D01*
X146709648Y-96296500D01*
X146709649Y-96296500D01*
X146914351Y-96296500D01*
X146914352Y-96296500D01*
X147116534Y-96264477D01*
X147311219Y-96201220D01*
X147493610Y-96108287D01*
X147586590Y-96040732D01*
X147659213Y-95987971D01*
X147659215Y-95987968D01*
X147659219Y-95987966D01*
X147803966Y-95843219D01*
X147811054Y-95833462D01*
X147850103Y-95779717D01*
X147850105Y-95779714D01*
X147875265Y-95745084D01*
X147924287Y-95677610D01*
X148017220Y-95495219D01*
X148080477Y-95300534D01*
X148112500Y-95098352D01*
X148112500Y-94893648D01*
X148095842Y-94788477D01*
X148080477Y-94691465D01*
X148051127Y-94601137D01*
X148017220Y-94496781D01*
X148017218Y-94496778D01*
X148017218Y-94496776D01*
X147983503Y-94430607D01*
X147924287Y-94314390D01*
X147916556Y-94303749D01*
X147803971Y-94148786D01*
X147659213Y-94004028D01*
X147493613Y-93883715D01*
X147493612Y-93883714D01*
X147493610Y-93883713D01*
X147436653Y-93854691D01*
X147311223Y-93790781D01*
X147116534Y-93727522D01*
X146941995Y-93699878D01*
X146914352Y-93695500D01*
X146709648Y-93695500D01*
X146685329Y-93699351D01*
X146507465Y-93727522D01*
X146312776Y-93790781D01*
X146130386Y-93883715D01*
X145964786Y-94004028D01*
X145820028Y-94148786D01*
X145699715Y-94314386D01*
X145606781Y-94496776D01*
X145543522Y-94691465D01*
X145511500Y-94893648D01*
X133579126Y-94893648D01*
X133560714Y-94873847D01*
X133538123Y-94852511D01*
X133537124Y-94848477D01*
X133534295Y-94845435D01*
X133528797Y-94814852D01*
X133521328Y-94784690D01*
X133522668Y-94780757D01*
X133521933Y-94776667D01*
X133533841Y-94747968D01*
X133543865Y-94718555D01*
X133547272Y-94715602D01*
X133548712Y-94712133D01*
X133561546Y-94703234D01*
X133588917Y-94679516D01*
X133681610Y-94632287D01*
X133702770Y-94616913D01*
X133847213Y-94511971D01*
X133847215Y-94511968D01*
X133847219Y-94511966D01*
X133991966Y-94367219D01*
X133991968Y-94367215D01*
X133991971Y-94367213D01*
X134044732Y-94294590D01*
X134112287Y-94201610D01*
X134205220Y-94019219D01*
X134268477Y-93824534D01*
X134300500Y-93622352D01*
X134300500Y-93417648D01*
X134268477Y-93215466D01*
X134205220Y-93020781D01*
X134205218Y-93020778D01*
X134205218Y-93020776D01*
X134171503Y-92954607D01*
X134112287Y-92838390D01*
X134104556Y-92827749D01*
X133991971Y-92672786D01*
X133847213Y-92528028D01*
X133681614Y-92407715D01*
X133675006Y-92404348D01*
X133588917Y-92360483D01*
X133538123Y-92312511D01*
X133521328Y-92244690D01*
X133543865Y-92178555D01*
X133588917Y-92139516D01*
X133681610Y-92092287D01*
X133702770Y-92076913D01*
X133847213Y-91971971D01*
X133847215Y-91971968D01*
X133847219Y-91971966D01*
X133991966Y-91827219D01*
X133991968Y-91827215D01*
X133991971Y-91827213D01*
X134044732Y-91754590D01*
X134112287Y-91661610D01*
X134205220Y-91479219D01*
X134268477Y-91284534D01*
X134300500Y-91082352D01*
X134300500Y-90877648D01*
X134268477Y-90675466D01*
X134205220Y-90480781D01*
X134205218Y-90480778D01*
X134205218Y-90480776D01*
X134171503Y-90414607D01*
X134112287Y-90298390D01*
X134104556Y-90287749D01*
X133991971Y-90132786D01*
X133847213Y-89988028D01*
X133681614Y-89867715D01*
X133675006Y-89864348D01*
X133588917Y-89820483D01*
X133538123Y-89772511D01*
X133521328Y-89704690D01*
X133543865Y-89638555D01*
X133588917Y-89599516D01*
X133681610Y-89552287D01*
X133764629Y-89491971D01*
X133847213Y-89431971D01*
X133847215Y-89431968D01*
X133847219Y-89431966D01*
X133991966Y-89287219D01*
X133991968Y-89287215D01*
X133991971Y-89287213D01*
X134096913Y-89142770D01*
X134112287Y-89121610D01*
X134119117Y-89108204D01*
X134167091Y-89057409D01*
X134229602Y-89040500D01*
X136619826Y-89040500D01*
X136686865Y-89060185D01*
X136730311Y-89108205D01*
X136767715Y-89181613D01*
X136888028Y-89347213D01*
X137032786Y-89491971D01*
X137180811Y-89599515D01*
X137198390Y-89612287D01*
X137314607Y-89671503D01*
X137380776Y-89705218D01*
X137380778Y-89705218D01*
X137380781Y-89705220D01*
X137473512Y-89735350D01*
X137575465Y-89768477D01*
X137657348Y-89781446D01*
X137777648Y-89800500D01*
X137777649Y-89800500D01*
X137982351Y-89800500D01*
X137982352Y-89800500D01*
X138184534Y-89768477D01*
X138379219Y-89705220D01*
X138561610Y-89612287D01*
X138669245Y-89534086D01*
X138727213Y-89491971D01*
X138727215Y-89491968D01*
X138727219Y-89491966D01*
X138871966Y-89347219D01*
X138871968Y-89347215D01*
X138871971Y-89347213D01*
X138924732Y-89274590D01*
X138992287Y-89181610D01*
X139085220Y-88999219D01*
X139148477Y-88804534D01*
X139180500Y-88602352D01*
X139180500Y-88397648D01*
X144199500Y-88397648D01*
X144199500Y-88602351D01*
X144231522Y-88804534D01*
X144294781Y-88999223D01*
X144387715Y-89181613D01*
X144508028Y-89347213D01*
X144652786Y-89491971D01*
X144800811Y-89599515D01*
X144818390Y-89612287D01*
X144934607Y-89671503D01*
X145000776Y-89705218D01*
X145000778Y-89705218D01*
X145000781Y-89705220D01*
X145093512Y-89735350D01*
X145195465Y-89768477D01*
X145277348Y-89781446D01*
X145397648Y-89800500D01*
X145397649Y-89800500D01*
X145602351Y-89800500D01*
X145602352Y-89800500D01*
X145804534Y-89768477D01*
X145999219Y-89705220D01*
X146181610Y-89612287D01*
X146289245Y-89534086D01*
X146347213Y-89491971D01*
X146347215Y-89491968D01*
X146347219Y-89491966D01*
X146491966Y-89347219D01*
X146491968Y-89347215D01*
X146491971Y-89347213D01*
X146612284Y-89181614D01*
X146612285Y-89181613D01*
X146612287Y-89181610D01*
X146619117Y-89168204D01*
X146667091Y-89117409D01*
X146729602Y-89100500D01*
X149088461Y-89100500D01*
X149155500Y-89120185D01*
X149188777Y-89151612D01*
X149210575Y-89181614D01*
X149299758Y-89304365D01*
X149455636Y-89460243D01*
X149455641Y-89460247D01*
X149582321Y-89552284D01*
X149633978Y-89589815D01*
X149750501Y-89649187D01*
X149830393Y-89689895D01*
X149830396Y-89689896D01*
X149935221Y-89723955D01*
X150040049Y-89758015D01*
X150257778Y-89792500D01*
X150257779Y-89792500D01*
X150478221Y-89792500D01*
X150478222Y-89792500D01*
X150695951Y-89758015D01*
X150905606Y-89689895D01*
X151102022Y-89589815D01*
X151280365Y-89460242D01*
X151330924Y-89409682D01*
X151392245Y-89376198D01*
X151461936Y-89381182D01*
X151517870Y-89423053D01*
X151534786Y-89454030D01*
X151564646Y-89534087D01*
X151564649Y-89534093D01*
X151650809Y-89649187D01*
X151650812Y-89649190D01*
X151765906Y-89735350D01*
X151765913Y-89735354D01*
X151900620Y-89785596D01*
X151900627Y-89785598D01*
X151960155Y-89791999D01*
X151960172Y-89792000D01*
X152658000Y-89792000D01*
X152658000Y-88767277D01*
X152734306Y-88811333D01*
X152848756Y-88842000D01*
X152967244Y-88842000D01*
X153081694Y-88811333D01*
X153158000Y-88767277D01*
X153158000Y-89792000D01*
X153855828Y-89792000D01*
X153855844Y-89791999D01*
X153915372Y-89785598D01*
X153915379Y-89785596D01*
X154050086Y-89735354D01*
X154050093Y-89735350D01*
X154165187Y-89649190D01*
X154165190Y-89649187D01*
X154251350Y-89534093D01*
X154251354Y-89534086D01*
X154301596Y-89399379D01*
X154301598Y-89399372D01*
X154307999Y-89339844D01*
X154308000Y-89339827D01*
X154308000Y-88642000D01*
X153283278Y-88642000D01*
X153327333Y-88565694D01*
X153358000Y-88451244D01*
X153358000Y-88332756D01*
X153327333Y-88218306D01*
X153283278Y-88142000D01*
X154308000Y-88142000D01*
X154308000Y-87444172D01*
X154307999Y-87444155D01*
X154301598Y-87384627D01*
X154301596Y-87384620D01*
X154251354Y-87249913D01*
X154251350Y-87249906D01*
X154165190Y-87134812D01*
X154165187Y-87134809D01*
X154050093Y-87048649D01*
X154050086Y-87048645D01*
X153915379Y-86998403D01*
X153915372Y-86998401D01*
X153855844Y-86992000D01*
X153158000Y-86992000D01*
X153158000Y-88016722D01*
X153081694Y-87972667D01*
X152967244Y-87942000D01*
X152848756Y-87942000D01*
X152734306Y-87972667D01*
X152658000Y-88016722D01*
X152658000Y-86992000D01*
X151960155Y-86992000D01*
X151900627Y-86998401D01*
X151900620Y-86998403D01*
X151765913Y-87048645D01*
X151765906Y-87048649D01*
X151650812Y-87134809D01*
X151650809Y-87134812D01*
X151564649Y-87249906D01*
X151564643Y-87249918D01*
X151534785Y-87329969D01*
X151492914Y-87385903D01*
X151427449Y-87410319D01*
X151359176Y-87395467D01*
X151330923Y-87374316D01*
X151280363Y-87323756D01*
X151280358Y-87323752D01*
X151102025Y-87194187D01*
X151102024Y-87194186D01*
X151102022Y-87194185D01*
X150994698Y-87139500D01*
X150905606Y-87094104D01*
X150905603Y-87094103D01*
X150695952Y-87025985D01*
X150587086Y-87008742D01*
X150478222Y-86991500D01*
X150257778Y-86991500D01*
X150185201Y-87002995D01*
X150040047Y-87025985D01*
X149830396Y-87094103D01*
X149830393Y-87094104D01*
X149633974Y-87194187D01*
X149455641Y-87323752D01*
X149455636Y-87323756D01*
X149299756Y-87479636D01*
X149299752Y-87479641D01*
X149170187Y-87657973D01*
X149140990Y-87715274D01*
X149081618Y-87831797D01*
X149033646Y-87882591D01*
X148971136Y-87899500D01*
X146729602Y-87899500D01*
X146662563Y-87879815D01*
X146619117Y-87831795D01*
X146612284Y-87818385D01*
X146491971Y-87652786D01*
X146347213Y-87508028D01*
X146181613Y-87387715D01*
X146181612Y-87387714D01*
X146181610Y-87387713D01*
X146124653Y-87358691D01*
X145999223Y-87294781D01*
X145804534Y-87231522D01*
X145629995Y-87203878D01*
X145602352Y-87199500D01*
X145397648Y-87199500D01*
X145373329Y-87203351D01*
X145195465Y-87231522D01*
X145000776Y-87294781D01*
X144818386Y-87387715D01*
X144652786Y-87508028D01*
X144508028Y-87652786D01*
X144387715Y-87818386D01*
X144294781Y-88000776D01*
X144231522Y-88195465D01*
X144199500Y-88397648D01*
X139180500Y-88397648D01*
X139148477Y-88195466D01*
X139128981Y-88135465D01*
X139085218Y-88000776D01*
X139051503Y-87934607D01*
X138992287Y-87818390D01*
X138948692Y-87758386D01*
X138871971Y-87652786D01*
X138727213Y-87508028D01*
X138561613Y-87387715D01*
X138561612Y-87387714D01*
X138561610Y-87387713D01*
X138504653Y-87358691D01*
X138379223Y-87294781D01*
X138184534Y-87231522D01*
X138009995Y-87203878D01*
X137982352Y-87199500D01*
X137777648Y-87199500D01*
X137753329Y-87203351D01*
X137575465Y-87231522D01*
X137380776Y-87294781D01*
X137198386Y-87387715D01*
X137032786Y-87508028D01*
X136888030Y-87652784D01*
X136812140Y-87757240D01*
X136789512Y-87788384D01*
X136734184Y-87831051D01*
X136689195Y-87839500D01*
X134229602Y-87839500D01*
X134162563Y-87819815D01*
X134119117Y-87771795D01*
X134112284Y-87758385D01*
X133991971Y-87592786D01*
X133847213Y-87448028D01*
X133681613Y-87327715D01*
X133681612Y-87327714D01*
X133681610Y-87327713D01*
X133624653Y-87298691D01*
X133499223Y-87234781D01*
X133304534Y-87171522D01*
X133129995Y-87143878D01*
X133102352Y-87139500D01*
X132897648Y-87139500D01*
X132873329Y-87143351D01*
X132695465Y-87171522D01*
X132500776Y-87234781D01*
X132318386Y-87327715D01*
X132152786Y-87448028D01*
X132008028Y-87592786D01*
X131887715Y-87758386D01*
X131794781Y-87940776D01*
X131731522Y-88135465D01*
X131699500Y-88337648D01*
X131699500Y-88542351D01*
X131731522Y-88744534D01*
X131794781Y-88939223D01*
X131846385Y-89040500D01*
X131885572Y-89117409D01*
X131887715Y-89121613D01*
X132008028Y-89287213D01*
X132152786Y-89431971D01*
X132293348Y-89534093D01*
X132318390Y-89552287D01*
X132392037Y-89589812D01*
X132411080Y-89599515D01*
X132461876Y-89647490D01*
X132478671Y-89715311D01*
X132456134Y-89781446D01*
X132411080Y-89820485D01*
X132318386Y-89867715D01*
X132152786Y-89988028D01*
X132008028Y-90132786D01*
X131887715Y-90298386D01*
X131794781Y-90480776D01*
X131731522Y-90675465D01*
X131699500Y-90877648D01*
X131699500Y-91082351D01*
X131731522Y-91284534D01*
X131794781Y-91479223D01*
X131887715Y-91661613D01*
X132008028Y-91827213D01*
X132152786Y-91971971D01*
X132307749Y-92084556D01*
X132318390Y-92092287D01*
X132409840Y-92138883D01*
X132411080Y-92139515D01*
X132461876Y-92187490D01*
X132478671Y-92255311D01*
X132456134Y-92321446D01*
X132411080Y-92360485D01*
X132318386Y-92407715D01*
X132152786Y-92528028D01*
X132008028Y-92672786D01*
X131887715Y-92838386D01*
X131794781Y-93020776D01*
X131731522Y-93215465D01*
X131699500Y-93417648D01*
X131699500Y-93622351D01*
X131731522Y-93824534D01*
X131794781Y-94019223D01*
X131887715Y-94201613D01*
X132008028Y-94367213D01*
X132152786Y-94511971D01*
X132307749Y-94624556D01*
X132318390Y-94632287D01*
X132409840Y-94678883D01*
X132411080Y-94679515D01*
X132461876Y-94727490D01*
X132478671Y-94795311D01*
X132456134Y-94861446D01*
X132411080Y-94900485D01*
X132318386Y-94947715D01*
X132152786Y-95068028D01*
X132008028Y-95212786D01*
X131887715Y-95378386D01*
X131794781Y-95560776D01*
X131731522Y-95755465D01*
X131699500Y-95957648D01*
X131699500Y-96162351D01*
X131731522Y-96364534D01*
X131794781Y-96559223D01*
X131887715Y-96741613D01*
X132008028Y-96907213D01*
X132152786Y-97051971D01*
X132282280Y-97146052D01*
X132318390Y-97172287D01*
X132409840Y-97218883D01*
X132411080Y-97219515D01*
X132461876Y-97267490D01*
X132478671Y-97335311D01*
X132456134Y-97401446D01*
X132411080Y-97440485D01*
X132318386Y-97487715D01*
X132152786Y-97608028D01*
X132008028Y-97752786D01*
X131887715Y-97918386D01*
X131794781Y-98100776D01*
X131731522Y-98295465D01*
X131699500Y-98497648D01*
X131699500Y-98702351D01*
X131731522Y-98904534D01*
X131794781Y-99099223D01*
X131887715Y-99281613D01*
X132008028Y-99447213D01*
X132152786Y-99591971D01*
X132307749Y-99704556D01*
X132318390Y-99712287D01*
X132409840Y-99758883D01*
X132411080Y-99759515D01*
X132461876Y-99807490D01*
X132478671Y-99875311D01*
X132456134Y-99941446D01*
X132411080Y-99980485D01*
X132318386Y-100027715D01*
X132152786Y-100148028D01*
X132008028Y-100292786D01*
X131887715Y-100458386D01*
X131794781Y-100640776D01*
X131731522Y-100835465D01*
X131699500Y-101037648D01*
X131699500Y-101242351D01*
X131731522Y-101444534D01*
X131794781Y-101639223D01*
X131887715Y-101821613D01*
X132008028Y-101987213D01*
X132152786Y-102131971D01*
X132307749Y-102244556D01*
X132318390Y-102252287D01*
X132409840Y-102298883D01*
X132411080Y-102299515D01*
X132461876Y-102347490D01*
X132478671Y-102415311D01*
X132456134Y-102481446D01*
X132411080Y-102520485D01*
X132318386Y-102567715D01*
X132152786Y-102688028D01*
X132008028Y-102832786D01*
X131887715Y-102998386D01*
X131794781Y-103180776D01*
X131731522Y-103375465D01*
X131699500Y-103577648D01*
X131699500Y-103782351D01*
X131731522Y-103984534D01*
X131794781Y-104179223D01*
X131887715Y-104361613D01*
X132008028Y-104527213D01*
X132152786Y-104671971D01*
X132307749Y-104784556D01*
X132318390Y-104792287D01*
X132409840Y-104838883D01*
X132411080Y-104839515D01*
X132461876Y-104887490D01*
X132478671Y-104955311D01*
X132456134Y-105021446D01*
X132411080Y-105060485D01*
X132318386Y-105107715D01*
X132152786Y-105228028D01*
X132008028Y-105372786D01*
X131887715Y-105538386D01*
X131794781Y-105720776D01*
X131731522Y-105915465D01*
X131699500Y-106117648D01*
X131699500Y-106322351D01*
X131731522Y-106524534D01*
X131794781Y-106719223D01*
X131846843Y-106821398D01*
X131885694Y-106897648D01*
X131887715Y-106901613D01*
X132008028Y-107067213D01*
X132152786Y-107211971D01*
X132280191Y-107304534D01*
X132318390Y-107332287D01*
X132409840Y-107378883D01*
X132411080Y-107379515D01*
X132461876Y-107427490D01*
X132478671Y-107495311D01*
X132456134Y-107561446D01*
X132411080Y-107600485D01*
X132318386Y-107647715D01*
X132152786Y-107768028D01*
X132008028Y-107912786D01*
X131887715Y-108078386D01*
X131794781Y-108260776D01*
X131731522Y-108455465D01*
X131699500Y-108657648D01*
X131699500Y-108862351D01*
X131731522Y-109064534D01*
X131794781Y-109259223D01*
X131887715Y-109441613D01*
X132008028Y-109607213D01*
X132152786Y-109751971D01*
X132247332Y-109820661D01*
X132318390Y-109872287D01*
X132409840Y-109918883D01*
X132411080Y-109919515D01*
X132461876Y-109967490D01*
X132478671Y-110035311D01*
X132456134Y-110101446D01*
X132411080Y-110140485D01*
X132318386Y-110187715D01*
X132152786Y-110308028D01*
X132008028Y-110452786D01*
X131887715Y-110618386D01*
X131794781Y-110800776D01*
X131731522Y-110995465D01*
X131699500Y-111197648D01*
X131699500Y-111402351D01*
X131731522Y-111604534D01*
X131794781Y-111799223D01*
X131887715Y-111981613D01*
X132008028Y-112147213D01*
X132152786Y-112291971D01*
X132307749Y-112404556D01*
X132318390Y-112412287D01*
X132409840Y-112458883D01*
X132411080Y-112459515D01*
X132461876Y-112507490D01*
X132478671Y-112575311D01*
X132456134Y-112641446D01*
X132411080Y-112680485D01*
X132318386Y-112727715D01*
X132152786Y-112848028D01*
X132008028Y-112992786D01*
X131887715Y-113158386D01*
X131794781Y-113340776D01*
X131731522Y-113535465D01*
X131699500Y-113737648D01*
X131699500Y-113942351D01*
X131731522Y-114144534D01*
X131794781Y-114339223D01*
X131887715Y-114521613D01*
X132008028Y-114687213D01*
X132152786Y-114831971D01*
X132307749Y-114944556D01*
X132318390Y-114952287D01*
X132390424Y-114988990D01*
X132411629Y-114999795D01*
X132462425Y-115047770D01*
X132479220Y-115115591D01*
X132456682Y-115181726D01*
X132411629Y-115220765D01*
X132318650Y-115268140D01*
X132153105Y-115388417D01*
X132153104Y-115388417D01*
X132008417Y-115533104D01*
X132008417Y-115533105D01*
X131888140Y-115698650D01*
X131795244Y-115880970D01*
X131732009Y-116075586D01*
X131723391Y-116130000D01*
X132566988Y-116130000D01*
X132534075Y-116187007D01*
X132500000Y-116314174D01*
X132500000Y-116445826D01*
X132534075Y-116572993D01*
X132566988Y-116630000D01*
X131723391Y-116630000D01*
X131732009Y-116684413D01*
X131795244Y-116879029D01*
X131888140Y-117061349D01*
X132008417Y-117226894D01*
X132008417Y-117226895D01*
X132153104Y-117371582D01*
X132318652Y-117491861D01*
X132411628Y-117539234D01*
X132462425Y-117587208D01*
X132479220Y-117655029D01*
X132456683Y-117721164D01*
X132411630Y-117760203D01*
X132318388Y-117807713D01*
X132152786Y-117928028D01*
X132008028Y-118072786D01*
X131887715Y-118238386D01*
X131794781Y-118420776D01*
X131731522Y-118615465D01*
X131703961Y-118789482D01*
X131699500Y-118817648D01*
X131699500Y-119022352D01*
X131703878Y-119049995D01*
X131731522Y-119224534D01*
X131794781Y-119419223D01*
X131845725Y-119519204D01*
X131858621Y-119587873D01*
X131832345Y-119652614D01*
X131775238Y-119692871D01*
X131735240Y-119699499D01*
X121980097Y-119699499D01*
X121913058Y-119679814D01*
X121892416Y-119663180D01*
X120502789Y-118273553D01*
X119054076Y-116824841D01*
X119020592Y-116763519D01*
X119023828Y-116698841D01*
X119026912Y-116689349D01*
X119028477Y-116684534D01*
X119060500Y-116482352D01*
X119060500Y-116277648D01*
X119037667Y-116133489D01*
X119028477Y-116075465D01*
X118976038Y-115914075D01*
X118965220Y-115880781D01*
X118965218Y-115880778D01*
X118965218Y-115880776D01*
X118903664Y-115759971D01*
X118872287Y-115698390D01*
X118849116Y-115666498D01*
X118751971Y-115532786D01*
X118607213Y-115388028D01*
X118441614Y-115267715D01*
X118420229Y-115256819D01*
X118348917Y-115220483D01*
X118298123Y-115172511D01*
X118281328Y-115104690D01*
X118303865Y-115038555D01*
X118348917Y-114999516D01*
X118441610Y-114952287D01*
X118563399Y-114863803D01*
X118607213Y-114831971D01*
X118607215Y-114831968D01*
X118607219Y-114831966D01*
X118751966Y-114687219D01*
X118751968Y-114687215D01*
X118751971Y-114687213D01*
X118804732Y-114614590D01*
X118872287Y-114521610D01*
X118965220Y-114339219D01*
X119028477Y-114144534D01*
X119060500Y-113942352D01*
X119060500Y-113737648D01*
X119039936Y-113607815D01*
X119028477Y-113535465D01*
X118965218Y-113340776D01*
X118919213Y-113250487D01*
X118872287Y-113158390D01*
X118817866Y-113083485D01*
X118751971Y-112992786D01*
X118607213Y-112848028D01*
X118441614Y-112727715D01*
X118435006Y-112724348D01*
X118348917Y-112680483D01*
X118298123Y-112632511D01*
X118281328Y-112564690D01*
X118303865Y-112498555D01*
X118348917Y-112459516D01*
X118441610Y-112412287D01*
X118462770Y-112396913D01*
X118607213Y-112291971D01*
X118607215Y-112291968D01*
X118607219Y-112291966D01*
X118751966Y-112147219D01*
X118751968Y-112147215D01*
X118751971Y-112147213D01*
X118804732Y-112074590D01*
X118872287Y-111981610D01*
X118965220Y-111799219D01*
X119028477Y-111604534D01*
X119060500Y-111402352D01*
X119060500Y-111197648D01*
X119047901Y-111118102D01*
X119028477Y-110995465D01*
X118980391Y-110847473D01*
X118965220Y-110800781D01*
X118965218Y-110800778D01*
X118965218Y-110800776D01*
X118931503Y-110734607D01*
X118872287Y-110618390D01*
X118856822Y-110597104D01*
X118751971Y-110452786D01*
X118607213Y-110308028D01*
X118441614Y-110187715D01*
X118402921Y-110168000D01*
X118348917Y-110140483D01*
X118298123Y-110092511D01*
X118281328Y-110024690D01*
X118303865Y-109958555D01*
X118348917Y-109919516D01*
X118441610Y-109872287D01*
X118512668Y-109820661D01*
X118607213Y-109751971D01*
X118607215Y-109751968D01*
X118607219Y-109751966D01*
X118751966Y-109607219D01*
X118751968Y-109607215D01*
X118751971Y-109607213D01*
X118829502Y-109500499D01*
X118872287Y-109441610D01*
X118965220Y-109259219D01*
X119028477Y-109064534D01*
X119060500Y-108862352D01*
X119060500Y-108657648D01*
X119038827Y-108520814D01*
X119028477Y-108455465D01*
X118999127Y-108365137D01*
X118965220Y-108260781D01*
X118965218Y-108260778D01*
X118965218Y-108260776D01*
X118931503Y-108194607D01*
X118872287Y-108078390D01*
X118864556Y-108067749D01*
X118751971Y-107912786D01*
X118607213Y-107768028D01*
X118441614Y-107647715D01*
X118435006Y-107644348D01*
X118348917Y-107600483D01*
X118298123Y-107552511D01*
X118281328Y-107484690D01*
X118303865Y-107418555D01*
X118348917Y-107379516D01*
X118441610Y-107332287D01*
X118479809Y-107304534D01*
X118607213Y-107211971D01*
X118607215Y-107211968D01*
X118607219Y-107211966D01*
X118751966Y-107067219D01*
X118751968Y-107067215D01*
X118751971Y-107067213D01*
X118804732Y-106994590D01*
X118872287Y-106901610D01*
X118965220Y-106719219D01*
X119028477Y-106524534D01*
X119060500Y-106322352D01*
X119060500Y-106117648D01*
X119028477Y-105915466D01*
X118965220Y-105720781D01*
X118965218Y-105720778D01*
X118965218Y-105720776D01*
X118931503Y-105654607D01*
X118872287Y-105538390D01*
X118864556Y-105527749D01*
X118751971Y-105372786D01*
X118607213Y-105228028D01*
X118441614Y-105107715D01*
X118435006Y-105104348D01*
X118348917Y-105060483D01*
X118298123Y-105012511D01*
X118281328Y-104944690D01*
X118303865Y-104878555D01*
X118348917Y-104839516D01*
X118441610Y-104792287D01*
X118462770Y-104776913D01*
X118607213Y-104671971D01*
X118607215Y-104671968D01*
X118607219Y-104671966D01*
X118751966Y-104527219D01*
X118751968Y-104527215D01*
X118751971Y-104527213D01*
X118804732Y-104454590D01*
X118872287Y-104361610D01*
X118965220Y-104179219D01*
X119028477Y-103984534D01*
X119060500Y-103782352D01*
X119060500Y-103577648D01*
X119058967Y-103567971D01*
X119028477Y-103375465D01*
X118998824Y-103284205D01*
X118965220Y-103180781D01*
X118965218Y-103180778D01*
X118965218Y-103180776D01*
X118911433Y-103075219D01*
X118872287Y-102998390D01*
X118862350Y-102984713D01*
X118751971Y-102832786D01*
X118607213Y-102688028D01*
X118441614Y-102567715D01*
X118435006Y-102564348D01*
X118348917Y-102520483D01*
X118298123Y-102472511D01*
X118281328Y-102404690D01*
X118303865Y-102338555D01*
X118348917Y-102299516D01*
X118441610Y-102252287D01*
X118518801Y-102196205D01*
X118607213Y-102131971D01*
X118607215Y-102131968D01*
X118607219Y-102131966D01*
X118751966Y-101987219D01*
X118751968Y-101987215D01*
X118751971Y-101987213D01*
X118809670Y-101907795D01*
X118872287Y-101821610D01*
X118965220Y-101639219D01*
X119028477Y-101444534D01*
X119060500Y-101242352D01*
X119060500Y-101037648D01*
X119039936Y-100907815D01*
X119028477Y-100835465D01*
X118965218Y-100640776D01*
X118919213Y-100550487D01*
X118872287Y-100458390D01*
X118817866Y-100383485D01*
X118751971Y-100292786D01*
X118607213Y-100148028D01*
X118441614Y-100027715D01*
X118435006Y-100024348D01*
X118348917Y-99980483D01*
X118298123Y-99932511D01*
X118281328Y-99864690D01*
X118303865Y-99798555D01*
X118348917Y-99759516D01*
X118441610Y-99712287D01*
X118462770Y-99696913D01*
X118607213Y-99591971D01*
X118607215Y-99591968D01*
X118607219Y-99591966D01*
X118751966Y-99447219D01*
X118751968Y-99447215D01*
X118751971Y-99447213D01*
X118804732Y-99374590D01*
X118872287Y-99281610D01*
X118965220Y-99099219D01*
X119028477Y-98904534D01*
X119060500Y-98702352D01*
X119060500Y-98497648D01*
X119047901Y-98418102D01*
X119028477Y-98295465D01*
X118999127Y-98205137D01*
X118965220Y-98100781D01*
X118965218Y-98100778D01*
X118965218Y-98100776D01*
X118931503Y-98034607D01*
X118872287Y-97918390D01*
X118844698Y-97880417D01*
X118751971Y-97752786D01*
X118607213Y-97608028D01*
X118441614Y-97487715D01*
X118435006Y-97484348D01*
X118348917Y-97440483D01*
X118298123Y-97392511D01*
X118281328Y-97324690D01*
X118303865Y-97258555D01*
X118348917Y-97219516D01*
X118441610Y-97172287D01*
X118477720Y-97146052D01*
X118607213Y-97051971D01*
X118607215Y-97051968D01*
X118607219Y-97051966D01*
X118751966Y-96907219D01*
X118751968Y-96907215D01*
X118751971Y-96907213D01*
X118818452Y-96815708D01*
X118872287Y-96741610D01*
X118965220Y-96559219D01*
X119028477Y-96364534D01*
X119060500Y-96162352D01*
X119060500Y-95957648D01*
X119042375Y-95843212D01*
X119028477Y-95755465D01*
X118999127Y-95665137D01*
X118965220Y-95560781D01*
X118965218Y-95560778D01*
X118965218Y-95560776D01*
X118931503Y-95494607D01*
X118872287Y-95378390D01*
X118815722Y-95300534D01*
X118751971Y-95212786D01*
X118607213Y-95068028D01*
X118441614Y-94947715D01*
X118435006Y-94944348D01*
X118348917Y-94900483D01*
X118298123Y-94852511D01*
X118281328Y-94784690D01*
X118303865Y-94718555D01*
X118348917Y-94679516D01*
X118441610Y-94632287D01*
X118462770Y-94616913D01*
X118607213Y-94511971D01*
X118607215Y-94511968D01*
X118607219Y-94511966D01*
X118751966Y-94367219D01*
X118751968Y-94367215D01*
X118751971Y-94367213D01*
X118804732Y-94294590D01*
X118872287Y-94201610D01*
X118965220Y-94019219D01*
X119028477Y-93824534D01*
X119060500Y-93622352D01*
X119060500Y-93417648D01*
X119028477Y-93215466D01*
X118965220Y-93020781D01*
X118965218Y-93020778D01*
X118965218Y-93020776D01*
X118931503Y-92954607D01*
X118872287Y-92838390D01*
X118864556Y-92827749D01*
X118751971Y-92672786D01*
X118607213Y-92528028D01*
X118441614Y-92407715D01*
X118435006Y-92404348D01*
X118348917Y-92360483D01*
X118298123Y-92312511D01*
X118281328Y-92244690D01*
X118303865Y-92178555D01*
X118348917Y-92139516D01*
X118441610Y-92092287D01*
X118462770Y-92076913D01*
X118607213Y-91971971D01*
X118607215Y-91971968D01*
X118607219Y-91971966D01*
X118751966Y-91827219D01*
X118751968Y-91827215D01*
X118751971Y-91827213D01*
X118804732Y-91754590D01*
X118872287Y-91661610D01*
X118965220Y-91479219D01*
X119028477Y-91284534D01*
X119060500Y-91082352D01*
X119060500Y-90877648D01*
X119028477Y-90675466D01*
X118965220Y-90480781D01*
X118965218Y-90480778D01*
X118965218Y-90480776D01*
X118931503Y-90414607D01*
X118872287Y-90298390D01*
X118864556Y-90287749D01*
X118751971Y-90132786D01*
X118607213Y-89988028D01*
X118441614Y-89867715D01*
X118435006Y-89864348D01*
X118348917Y-89820483D01*
X118298123Y-89772511D01*
X118281328Y-89704690D01*
X118303865Y-89638555D01*
X118348917Y-89599516D01*
X118441610Y-89552287D01*
X118524629Y-89491971D01*
X118607213Y-89431971D01*
X118607215Y-89431968D01*
X118607219Y-89431966D01*
X118751966Y-89287219D01*
X118751968Y-89287215D01*
X118751971Y-89287213D01*
X118828692Y-89181614D01*
X118872287Y-89121610D01*
X118965220Y-88939219D01*
X119028477Y-88744534D01*
X119060500Y-88542352D01*
X119060500Y-88337648D01*
X119028477Y-88135466D01*
X118965220Y-87940781D01*
X118965218Y-87940778D01*
X118965218Y-87940776D01*
X118931503Y-87874607D01*
X118872287Y-87758390D01*
X118864556Y-87747749D01*
X118751971Y-87592786D01*
X118607213Y-87448028D01*
X118441613Y-87327715D01*
X118441612Y-87327714D01*
X118441610Y-87327713D01*
X118384653Y-87298691D01*
X118259223Y-87234781D01*
X118064534Y-87171522D01*
X117889995Y-87143878D01*
X117862352Y-87139500D01*
X117657648Y-87139500D01*
X117633329Y-87143351D01*
X117455465Y-87171522D01*
X117260776Y-87234781D01*
X117078386Y-87327715D01*
X116912786Y-87448028D01*
X116768028Y-87592786D01*
X116647715Y-87758386D01*
X116554781Y-87940776D01*
X116491522Y-88135465D01*
X116459500Y-88337648D01*
X116459500Y-88542351D01*
X116491522Y-88744534D01*
X116554781Y-88939223D01*
X116606385Y-89040500D01*
X116645572Y-89117409D01*
X116647715Y-89121613D01*
X116768028Y-89287213D01*
X116912786Y-89431971D01*
X117053348Y-89534093D01*
X117078390Y-89552287D01*
X117152037Y-89589812D01*
X117171080Y-89599515D01*
X117221876Y-89647490D01*
X117238671Y-89715311D01*
X117216134Y-89781446D01*
X117171080Y-89820485D01*
X117078386Y-89867715D01*
X116912786Y-89988028D01*
X116768028Y-90132786D01*
X116647715Y-90298386D01*
X116554781Y-90480776D01*
X116491522Y-90675465D01*
X116459500Y-90877648D01*
X116459500Y-91082351D01*
X116491522Y-91284534D01*
X116554781Y-91479223D01*
X116647715Y-91661613D01*
X116768028Y-91827213D01*
X116912786Y-91971971D01*
X117067749Y-92084556D01*
X117078390Y-92092287D01*
X117169840Y-92138883D01*
X117171080Y-92139515D01*
X117221876Y-92187490D01*
X117238671Y-92255311D01*
X117216134Y-92321446D01*
X117171080Y-92360485D01*
X117078386Y-92407715D01*
X116912786Y-92528028D01*
X116768028Y-92672786D01*
X116647715Y-92838386D01*
X116554781Y-93020776D01*
X116491522Y-93215465D01*
X116459500Y-93417648D01*
X116459500Y-93622351D01*
X116491522Y-93824534D01*
X116554781Y-94019223D01*
X116647715Y-94201613D01*
X116768028Y-94367213D01*
X116912786Y-94511971D01*
X117067749Y-94624556D01*
X117078390Y-94632287D01*
X117169840Y-94678883D01*
X117171080Y-94679515D01*
X117221876Y-94727490D01*
X117238671Y-94795311D01*
X117216134Y-94861446D01*
X117171080Y-94900485D01*
X117078386Y-94947715D01*
X116912786Y-95068028D01*
X116768028Y-95212786D01*
X116647715Y-95378386D01*
X116554781Y-95560776D01*
X116491522Y-95755465D01*
X116459500Y-95957648D01*
X116459500Y-96162351D01*
X116491522Y-96364534D01*
X116554781Y-96559223D01*
X116647715Y-96741613D01*
X116768028Y-96907213D01*
X116912786Y-97051971D01*
X117042280Y-97146052D01*
X117078390Y-97172287D01*
X117169840Y-97218883D01*
X117171080Y-97219515D01*
X117221876Y-97267490D01*
X117238671Y-97335311D01*
X117216134Y-97401446D01*
X117171080Y-97440485D01*
X117078386Y-97487715D01*
X116912786Y-97608028D01*
X116768028Y-97752786D01*
X116647715Y-97918386D01*
X116554781Y-98100776D01*
X116491522Y-98295465D01*
X116459500Y-98497648D01*
X116459500Y-98702351D01*
X116491522Y-98904534D01*
X116554781Y-99099223D01*
X116647715Y-99281613D01*
X116768028Y-99447213D01*
X116912786Y-99591971D01*
X117067749Y-99704556D01*
X117078390Y-99712287D01*
X117169840Y-99758883D01*
X117171080Y-99759515D01*
X117221876Y-99807490D01*
X117238671Y-99875311D01*
X117216134Y-99941446D01*
X117171080Y-99980485D01*
X117078386Y-100027715D01*
X116912786Y-100148028D01*
X116768028Y-100292786D01*
X116647715Y-100458386D01*
X116554781Y-100640776D01*
X116491522Y-100835465D01*
X116459500Y-101037648D01*
X116459500Y-101242351D01*
X116491522Y-101444534D01*
X116554781Y-101639223D01*
X116647715Y-101821613D01*
X116768028Y-101987213D01*
X116912786Y-102131971D01*
X117067749Y-102244556D01*
X117078390Y-102252287D01*
X117169840Y-102298883D01*
X117171080Y-102299515D01*
X117221876Y-102347490D01*
X117238671Y-102415311D01*
X117216134Y-102481446D01*
X117171080Y-102520485D01*
X117078386Y-102567715D01*
X116912786Y-102688028D01*
X116768028Y-102832786D01*
X116647715Y-102998386D01*
X116554781Y-103180776D01*
X116491522Y-103375465D01*
X116459500Y-103577648D01*
X116459500Y-103782351D01*
X116491522Y-103984534D01*
X116554781Y-104179223D01*
X116647715Y-104361613D01*
X116768028Y-104527213D01*
X116912786Y-104671971D01*
X117067749Y-104784556D01*
X117078390Y-104792287D01*
X117169840Y-104838883D01*
X117171080Y-104839515D01*
X117221876Y-104887490D01*
X117238671Y-104955311D01*
X117216134Y-105021446D01*
X117171080Y-105060485D01*
X117078386Y-105107715D01*
X116912786Y-105228028D01*
X116768028Y-105372786D01*
X116647715Y-105538385D01*
X116640883Y-105551795D01*
X116592909Y-105602591D01*
X116530398Y-105619500D01*
X105902941Y-105619500D01*
X105835902Y-105599815D01*
X105815260Y-105583181D01*
X105810292Y-105578213D01*
X105810288Y-105578210D01*
X105679185Y-105490609D01*
X105679172Y-105490602D01*
X105533501Y-105430264D01*
X105533489Y-105430261D01*
X105378845Y-105399500D01*
X105378842Y-105399500D01*
X105221158Y-105399500D01*
X105221155Y-105399500D01*
X105066510Y-105430261D01*
X105066498Y-105430264D01*
X104920827Y-105490602D01*
X104920814Y-105490609D01*
X104789125Y-105578602D01*
X104722447Y-105599480D01*
X104720234Y-105599500D01*
X102766669Y-105599500D01*
X102766653Y-105599499D01*
X102759057Y-105599499D01*
X102600943Y-105599499D01*
X102493587Y-105628265D01*
X102448210Y-105640424D01*
X102448209Y-105640425D01*
X102398096Y-105669359D01*
X102398095Y-105669360D01*
X102354689Y-105694420D01*
X102311285Y-105719479D01*
X102311282Y-105719481D01*
X102199478Y-105831286D01*
X91374526Y-116656237D01*
X91313203Y-116689722D01*
X91260478Y-116689158D01*
X91260448Y-116689349D01*
X91259156Y-116689144D01*
X91257903Y-116689131D01*
X91255636Y-116688586D01*
X91086196Y-116661750D01*
X91059361Y-116657500D01*
X90860639Y-116657500D01*
X90795214Y-116667862D01*
X90664362Y-116688587D01*
X90475370Y-116749993D01*
X90475367Y-116749994D01*
X90298305Y-116840213D01*
X90137533Y-116957021D01*
X89997021Y-117097533D01*
X89997021Y-117097534D01*
X89997019Y-117097536D01*
X89959772Y-117148802D01*
X89906817Y-117221688D01*
X89851487Y-117264353D01*
X89781873Y-117270332D01*
X89720078Y-117237726D01*
X89685721Y-117176887D01*
X89682499Y-117148802D01*
X89682499Y-117110129D01*
X89682498Y-117110123D01*
X89682497Y-117110116D01*
X89676091Y-117050517D01*
X89659704Y-117006582D01*
X89625797Y-116915671D01*
X89625793Y-116915664D01*
X89539547Y-116800455D01*
X89539544Y-116800452D01*
X89424335Y-116714206D01*
X89424328Y-116714202D01*
X89289482Y-116663908D01*
X89289483Y-116663908D01*
X89229883Y-116657501D01*
X89229881Y-116657500D01*
X89229873Y-116657500D01*
X89229864Y-116657500D01*
X87610129Y-116657500D01*
X87610123Y-116657501D01*
X87550516Y-116663908D01*
X87415671Y-116714202D01*
X87415664Y-116714206D01*
X87300455Y-116800452D01*
X87300452Y-116800455D01*
X87214206Y-116915664D01*
X87214202Y-116915671D01*
X87163908Y-117050517D01*
X87158569Y-117100185D01*
X87157501Y-117110123D01*
X87157500Y-117110135D01*
X87157500Y-118729870D01*
X87157501Y-118729876D01*
X87163908Y-118789483D01*
X87214202Y-118924328D01*
X87214206Y-118924335D01*
X87300452Y-119039544D01*
X87300455Y-119039547D01*
X87415664Y-119125793D01*
X87415671Y-119125797D01*
X87550517Y-119176091D01*
X87550516Y-119176091D01*
X87557444Y-119176835D01*
X87610127Y-119182500D01*
X89229872Y-119182499D01*
X89289483Y-119176091D01*
X89424331Y-119125796D01*
X89539546Y-119039546D01*
X89625796Y-118924331D01*
X89676091Y-118789483D01*
X89682500Y-118729873D01*
X89682499Y-118691197D01*
X89702182Y-118624161D01*
X89754985Y-118578405D01*
X89824143Y-118568460D01*
X89887699Y-118597483D01*
X89906817Y-118618312D01*
X89997019Y-118742464D01*
X90137536Y-118882981D01*
X90298306Y-118999787D01*
X90376333Y-119039544D01*
X90475367Y-119090005D01*
X90475370Y-119090006D01*
X90569866Y-119120709D01*
X90664364Y-119151413D01*
X90860639Y-119182500D01*
X90860640Y-119182500D01*
X91059360Y-119182500D01*
X91059361Y-119182500D01*
X91255636Y-119151413D01*
X91444632Y-119090005D01*
X91621694Y-118999787D01*
X91782464Y-118882981D01*
X91922981Y-118742464D01*
X92039787Y-118581694D01*
X92119515Y-118425218D01*
X92167490Y-118374423D01*
X92235311Y-118357628D01*
X92301446Y-118380165D01*
X92340484Y-118425218D01*
X92420213Y-118581694D01*
X92537019Y-118742464D01*
X92677536Y-118882981D01*
X92838306Y-118999787D01*
X92916333Y-119039544D01*
X93015367Y-119090005D01*
X93015370Y-119090006D01*
X93109866Y-119120709D01*
X93204364Y-119151413D01*
X93400639Y-119182500D01*
X93400640Y-119182500D01*
X93599360Y-119182500D01*
X93599361Y-119182500D01*
X93795636Y-119151413D01*
X93984632Y-119090005D01*
X94161694Y-118999787D01*
X94322464Y-118882981D01*
X94462981Y-118742464D01*
X94579787Y-118581694D01*
X94659796Y-118424667D01*
X94707769Y-118373872D01*
X94775590Y-118357077D01*
X94841725Y-118379614D01*
X94880765Y-118424668D01*
X94960641Y-118581432D01*
X94987730Y-118618715D01*
X95659000Y-117947445D01*
X95659000Y-117970160D01*
X95684964Y-118067061D01*
X95735124Y-118153940D01*
X95806060Y-118224876D01*
X95892939Y-118275036D01*
X95989840Y-118301000D01*
X96012553Y-118301000D01*
X95341283Y-118972268D01*
X95341283Y-118972269D01*
X95378567Y-118999358D01*
X95555562Y-119089542D01*
X95744477Y-119150924D01*
X95940679Y-119182000D01*
X96139321Y-119182000D01*
X96335520Y-119150924D01*
X96335523Y-119150924D01*
X96524437Y-119089542D01*
X96701425Y-118999362D01*
X96738716Y-118972268D01*
X96067448Y-118301000D01*
X96090160Y-118301000D01*
X96187061Y-118275036D01*
X96273940Y-118224876D01*
X96344876Y-118153940D01*
X96395036Y-118067061D01*
X96421000Y-117970160D01*
X96421000Y-117947447D01*
X97092268Y-118618715D01*
X97119364Y-118581422D01*
X97199234Y-118424669D01*
X97247208Y-118373872D01*
X97315029Y-118357077D01*
X97381164Y-118379614D01*
X97420203Y-118424667D01*
X97500213Y-118581694D01*
X97617019Y-118742464D01*
X97757536Y-118882981D01*
X97918306Y-118999787D01*
X97996333Y-119039544D01*
X98095367Y-119090005D01*
X98095370Y-119090006D01*
X98189866Y-119120709D01*
X98284364Y-119151413D01*
X98480639Y-119182500D01*
X98480640Y-119182500D01*
X98679360Y-119182500D01*
X98679361Y-119182500D01*
X98875636Y-119151413D01*
X99064632Y-119090005D01*
X99241694Y-118999787D01*
X99402464Y-118882981D01*
X99542981Y-118742464D01*
X99659787Y-118581694D01*
X99750005Y-118404632D01*
X99811413Y-118215636D01*
X99842500Y-118019361D01*
X99842500Y-117820639D01*
X99828799Y-117734140D01*
X99837753Y-117664851D01*
X99863588Y-117627067D01*
X100373838Y-117116819D01*
X100435161Y-117083334D01*
X100461519Y-117080500D01*
X116598256Y-117080500D01*
X116665295Y-117100185D01*
X116698575Y-117131616D01*
X116768030Y-117227215D01*
X116912786Y-117371971D01*
X117065500Y-117482922D01*
X117078390Y-117492287D01*
X117169840Y-117538883D01*
X117171080Y-117539515D01*
X117221876Y-117587490D01*
X117238671Y-117655311D01*
X117216134Y-117721446D01*
X117171080Y-117760485D01*
X117078386Y-117807715D01*
X116912786Y-117928028D01*
X116768028Y-118072786D01*
X116647715Y-118238386D01*
X116554781Y-118420776D01*
X116491522Y-118615465D01*
X116463961Y-118789482D01*
X116459500Y-118817648D01*
X116459500Y-119022352D01*
X116463878Y-119049995D01*
X116491522Y-119224534D01*
X116554781Y-119419223D01*
X116647715Y-119601613D01*
X116768028Y-119767213D01*
X116912786Y-119911971D01*
X117032875Y-119999219D01*
X117078390Y-120032287D01*
X117150424Y-120068990D01*
X117171629Y-120079795D01*
X117222425Y-120127770D01*
X117239220Y-120195591D01*
X117216682Y-120261726D01*
X117171629Y-120300765D01*
X117078650Y-120348140D01*
X116913105Y-120468417D01*
X116913104Y-120468417D01*
X116768417Y-120613104D01*
X116768417Y-120613105D01*
X116648140Y-120778650D01*
X116555244Y-120960970D01*
X116492009Y-121155586D01*
X116483391Y-121210000D01*
X117326988Y-121210000D01*
X117294075Y-121267007D01*
X117260000Y-121394174D01*
X117260000Y-121525826D01*
X117294075Y-121652993D01*
X117326988Y-121710000D01*
X116483391Y-121710000D01*
X116492009Y-121764413D01*
X116555244Y-121959029D01*
X116648140Y-122141349D01*
X116768417Y-122306894D01*
X116768417Y-122306895D01*
X116913104Y-122451582D01*
X117078652Y-122571861D01*
X117171628Y-122619234D01*
X117222425Y-122667208D01*
X117239220Y-122735029D01*
X117216683Y-122801164D01*
X117171630Y-122840203D01*
X117078388Y-122887713D01*
X116912786Y-123008028D01*
X116768028Y-123152786D01*
X116647715Y-123318386D01*
X116554781Y-123500776D01*
X116491522Y-123695465D01*
X116459500Y-123897648D01*
X116459500Y-124102351D01*
X116491522Y-124304534D01*
X116554781Y-124499223D01*
X116647715Y-124681613D01*
X116768028Y-124847213D01*
X116912786Y-124991971D01*
X117067749Y-125104556D01*
X117078390Y-125112287D01*
X117167212Y-125157544D01*
X117260776Y-125205218D01*
X117260778Y-125205218D01*
X117260781Y-125205220D01*
X117365137Y-125239127D01*
X117455465Y-125268477D01*
X117556557Y-125284488D01*
X117657648Y-125300500D01*
X117657649Y-125300500D01*
X117862351Y-125300500D01*
X117862352Y-125300500D01*
X118064534Y-125268477D01*
X118259219Y-125205220D01*
X118441610Y-125112287D01*
X118537901Y-125042328D01*
X118607213Y-124991971D01*
X118607215Y-124991968D01*
X118607219Y-124991966D01*
X118751966Y-124847219D01*
X118751968Y-124847215D01*
X118751971Y-124847213D01*
X118804732Y-124774590D01*
X118872287Y-124681610D01*
X118965220Y-124499219D01*
X119028477Y-124304534D01*
X119060500Y-124102352D01*
X119060500Y-123897648D01*
X119047901Y-123818102D01*
X119028477Y-123695465D01*
X118965218Y-123500776D01*
X118931503Y-123434607D01*
X118872287Y-123318390D01*
X118829865Y-123260000D01*
X118751971Y-123152786D01*
X118607213Y-123008028D01*
X118441611Y-122887713D01*
X118348369Y-122840203D01*
X118297574Y-122792229D01*
X118280779Y-122724407D01*
X118303317Y-122658273D01*
X118348371Y-122619234D01*
X118441347Y-122571861D01*
X118606894Y-122451582D01*
X118606895Y-122451582D01*
X118751582Y-122306895D01*
X118751582Y-122306894D01*
X118871859Y-122141349D01*
X118964755Y-121959029D01*
X119027990Y-121764413D01*
X119036609Y-121710000D01*
X118193012Y-121710000D01*
X118225925Y-121652993D01*
X118260000Y-121525826D01*
X118260000Y-121394174D01*
X118225925Y-121267007D01*
X118193012Y-121210000D01*
X119036609Y-121210000D01*
X119027990Y-121155586D01*
X118964755Y-120960970D01*
X118871859Y-120778650D01*
X118751582Y-120613105D01*
X118751582Y-120613104D01*
X118606895Y-120468417D01*
X118441349Y-120348140D01*
X118348370Y-120300765D01*
X118297574Y-120252790D01*
X118280779Y-120184969D01*
X118303316Y-120118835D01*
X118348370Y-120079795D01*
X118441610Y-120032287D01*
X118487125Y-119999219D01*
X118607213Y-119911971D01*
X118607215Y-119911968D01*
X118607219Y-119911966D01*
X118751966Y-119767219D01*
X118751968Y-119767215D01*
X118751971Y-119767213D01*
X118827554Y-119663180D01*
X118872287Y-119601610D01*
X118965220Y-119419219D01*
X119028477Y-119224534D01*
X119060500Y-119022352D01*
X119060500Y-118829097D01*
X119080185Y-118762058D01*
X119132989Y-118716303D01*
X119202147Y-118706359D01*
X119265703Y-118735384D01*
X119272179Y-118741414D01*
X121311283Y-120780519D01*
X121311285Y-120780520D01*
X121311289Y-120780523D01*
X121345891Y-120800500D01*
X121448215Y-120859576D01*
X121600942Y-120900500D01*
X121600944Y-120900500D01*
X121766653Y-120900500D01*
X121766669Y-120900499D01*
X131643695Y-120900499D01*
X131710734Y-120920184D01*
X131756489Y-120972988D01*
X131766433Y-121042146D01*
X131761626Y-121062817D01*
X131731523Y-121155461D01*
X131731523Y-121155464D01*
X131699500Y-121357648D01*
X131699500Y-121562351D01*
X131731522Y-121764534D01*
X131794781Y-121959223D01*
X131887715Y-122141613D01*
X132008028Y-122307213D01*
X132152784Y-122451969D01*
X132189068Y-122478330D01*
X132231735Y-122533659D01*
X132237715Y-122603273D01*
X132205109Y-122665068D01*
X132144271Y-122699426D01*
X132129440Y-122701938D01*
X132092519Y-122705907D01*
X131957671Y-122756202D01*
X131957664Y-122756206D01*
X131842455Y-122842452D01*
X131842452Y-122842455D01*
X131756206Y-122957664D01*
X131756202Y-122957671D01*
X131705908Y-123092517D01*
X131699501Y-123152116D01*
X131699501Y-123152123D01*
X131699500Y-123152135D01*
X131699500Y-124847870D01*
X131699501Y-124847876D01*
X131705908Y-124907483D01*
X131756202Y-125042328D01*
X131756206Y-125042335D01*
X131842452Y-125157544D01*
X131842455Y-125157547D01*
X131957664Y-125243793D01*
X131957671Y-125243797D01*
X132092517Y-125294091D01*
X132092516Y-125294091D01*
X132099444Y-125294835D01*
X132152127Y-125300500D01*
X133847872Y-125300499D01*
X133907483Y-125294091D01*
X134042331Y-125243796D01*
X134157546Y-125157546D01*
X134243796Y-125042331D01*
X134294091Y-124907483D01*
X134300500Y-124847873D01*
X134300499Y-123152128D01*
X134294091Y-123092517D01*
X134262579Y-123008028D01*
X134243797Y-122957671D01*
X134243793Y-122957664D01*
X134157547Y-122842455D01*
X134157544Y-122842452D01*
X134042335Y-122756206D01*
X134042328Y-122756202D01*
X133907482Y-122705908D01*
X133907483Y-122705908D01*
X133870560Y-122701939D01*
X133806009Y-122675201D01*
X133766160Y-122617809D01*
X133763667Y-122547984D01*
X133799319Y-122487895D01*
X133810930Y-122478331D01*
X133847219Y-122451966D01*
X133991966Y-122307219D01*
X133991968Y-122307215D01*
X133991971Y-122307213D01*
X134058452Y-122215708D01*
X134112287Y-122141610D01*
X134205220Y-121959219D01*
X134268477Y-121764534D01*
X134300500Y-121562352D01*
X134300500Y-121357648D01*
X134268477Y-121155466D01*
X134268476Y-121155462D01*
X134268476Y-121155461D01*
X134238374Y-121062817D01*
X134236379Y-120992976D01*
X134272459Y-120933143D01*
X134335160Y-120902315D01*
X134356305Y-120900499D01*
X140466690Y-120900499D01*
X140533729Y-120920184D01*
X140554371Y-120936818D01*
X141177554Y-121560000D01*
X141171339Y-121560000D01*
X141069606Y-121587259D01*
X140978394Y-121639920D01*
X140903920Y-121714394D01*
X140851259Y-121805606D01*
X140824000Y-121907339D01*
X140824000Y-121913553D01*
X140144524Y-121234077D01*
X140144523Y-121234077D01*
X140112143Y-121278644D01*
X140019244Y-121460968D01*
X139956009Y-121655582D01*
X139924000Y-121857682D01*
X139924000Y-122062317D01*
X139956009Y-122264417D01*
X140019244Y-122459031D01*
X140112141Y-122641350D01*
X140112147Y-122641359D01*
X140144523Y-122685921D01*
X140144524Y-122685922D01*
X140824000Y-122006446D01*
X140824000Y-122012661D01*
X140851259Y-122114394D01*
X140903920Y-122205606D01*
X140978394Y-122280080D01*
X141069606Y-122332741D01*
X141171339Y-122360000D01*
X141177553Y-122360000D01*
X140498076Y-123039474D01*
X140542650Y-123071859D01*
X140724968Y-123164755D01*
X140919582Y-123227990D01*
X141121683Y-123260000D01*
X141326317Y-123260000D01*
X141528417Y-123227990D01*
X141723031Y-123164755D01*
X141905349Y-123071859D01*
X141949921Y-123039474D01*
X141270447Y-122360000D01*
X141276661Y-122360000D01*
X141378394Y-122332741D01*
X141469606Y-122280080D01*
X141544080Y-122205606D01*
X141596741Y-122114394D01*
X141624000Y-122012661D01*
X141624000Y-122006447D01*
X142303474Y-122685921D01*
X142335859Y-122641349D01*
X142428754Y-122459031D01*
X142477196Y-122309947D01*
X150392000Y-122309947D01*
X150392000Y-122546052D01*
X150428934Y-122779247D01*
X150501897Y-123003802D01*
X150609087Y-123214174D01*
X150669338Y-123297104D01*
X150669340Y-123297105D01*
X151368212Y-122598233D01*
X151379482Y-122640292D01*
X151451890Y-122765708D01*
X151554292Y-122868110D01*
X151679708Y-122940518D01*
X151721765Y-122951787D01*
X151022893Y-123650658D01*
X151105828Y-123710914D01*
X151316197Y-123818102D01*
X151540752Y-123891065D01*
X151540751Y-123891065D01*
X151773948Y-123928000D01*
X152010052Y-123928000D01*
X152243247Y-123891065D01*
X152467802Y-123818102D01*
X152678163Y-123710918D01*
X152678169Y-123710914D01*
X152761104Y-123650658D01*
X152761105Y-123650658D01*
X152062233Y-122951787D01*
X152104292Y-122940518D01*
X152229708Y-122868110D01*
X152332110Y-122765708D01*
X152404518Y-122640292D01*
X152415787Y-122598234D01*
X153114658Y-123297105D01*
X153114658Y-123297104D01*
X153174914Y-123214169D01*
X153174918Y-123214163D01*
X153282102Y-123003802D01*
X153355065Y-122779247D01*
X153392000Y-122546052D01*
X153392000Y-122309947D01*
X156892000Y-122309947D01*
X156892000Y-122546052D01*
X156928934Y-122779247D01*
X157001897Y-123003802D01*
X157109087Y-123214174D01*
X157169338Y-123297104D01*
X157169340Y-123297105D01*
X157868212Y-122598233D01*
X157879482Y-122640292D01*
X157951890Y-122765708D01*
X158054292Y-122868110D01*
X158179708Y-122940518D01*
X158221765Y-122951787D01*
X157522893Y-123650658D01*
X157605828Y-123710914D01*
X157816197Y-123818102D01*
X158040752Y-123891065D01*
X158040751Y-123891065D01*
X158273948Y-123928000D01*
X158510052Y-123928000D01*
X158743247Y-123891065D01*
X158967802Y-123818102D01*
X159178163Y-123710918D01*
X159178169Y-123710914D01*
X159261104Y-123650658D01*
X159261105Y-123650658D01*
X158562233Y-122951787D01*
X158604292Y-122940518D01*
X158729708Y-122868110D01*
X158832110Y-122765708D01*
X158904518Y-122640292D01*
X158915787Y-122598234D01*
X159614658Y-123297105D01*
X159614658Y-123297104D01*
X159674914Y-123214169D01*
X159674918Y-123214163D01*
X159782102Y-123003802D01*
X159855065Y-122779247D01*
X159892000Y-122546052D01*
X159892000Y-122309947D01*
X159855065Y-122076752D01*
X159782102Y-121852197D01*
X159674914Y-121641828D01*
X159614658Y-121558894D01*
X159614658Y-121558893D01*
X158915787Y-122257765D01*
X158904518Y-122215708D01*
X158832110Y-122090292D01*
X158729708Y-121987890D01*
X158604292Y-121915482D01*
X158562234Y-121904212D01*
X159261105Y-121205340D01*
X159261104Y-121205338D01*
X159178174Y-121145087D01*
X158967802Y-121037897D01*
X158743247Y-120964934D01*
X158743248Y-120964934D01*
X158510052Y-120928000D01*
X158273948Y-120928000D01*
X158040752Y-120964934D01*
X157816197Y-121037897D01*
X157605830Y-121145084D01*
X157522894Y-121205340D01*
X158221766Y-121904212D01*
X158179708Y-121915482D01*
X158054292Y-121987890D01*
X157951890Y-122090292D01*
X157879482Y-122215708D01*
X157868212Y-122257765D01*
X157169340Y-121558894D01*
X157109084Y-121641830D01*
X157001897Y-121852197D01*
X156928934Y-122076752D01*
X156892000Y-122309947D01*
X153392000Y-122309947D01*
X153355065Y-122076752D01*
X153282102Y-121852197D01*
X153174914Y-121641828D01*
X153114658Y-121558894D01*
X153114658Y-121558893D01*
X152415787Y-122257765D01*
X152404518Y-122215708D01*
X152332110Y-122090292D01*
X152229708Y-121987890D01*
X152104292Y-121915482D01*
X152062234Y-121904212D01*
X152761105Y-121205340D01*
X152761104Y-121205339D01*
X152678174Y-121145087D01*
X152467802Y-121037897D01*
X152243247Y-120964934D01*
X152243248Y-120964934D01*
X152010052Y-120928000D01*
X151773948Y-120928000D01*
X151540752Y-120964934D01*
X151316197Y-121037897D01*
X151105830Y-121145084D01*
X151022894Y-121205340D01*
X151721766Y-121904212D01*
X151679708Y-121915482D01*
X151554292Y-121987890D01*
X151451890Y-122090292D01*
X151379482Y-122215708D01*
X151368212Y-122257766D01*
X150669340Y-121558894D01*
X150609084Y-121641830D01*
X150501897Y-121852197D01*
X150428934Y-122076752D01*
X150392000Y-122309947D01*
X142477196Y-122309947D01*
X142491230Y-122266756D01*
X142491231Y-122266753D01*
X142491232Y-122266752D01*
X142491988Y-122264423D01*
X142491989Y-122264418D01*
X142524000Y-122062317D01*
X142524000Y-121857682D01*
X142491990Y-121655582D01*
X142428755Y-121460968D01*
X142351269Y-121308894D01*
X142351268Y-121308892D01*
X142335861Y-121278652D01*
X142303474Y-121234077D01*
X142303474Y-121234076D01*
X141624000Y-121913551D01*
X141624000Y-121907339D01*
X141596741Y-121805606D01*
X141544080Y-121714394D01*
X141469606Y-121639920D01*
X141378394Y-121587259D01*
X141276661Y-121560000D01*
X141270446Y-121560000D01*
X141893629Y-120936818D01*
X141954952Y-120903333D01*
X141981310Y-120900499D01*
X146113332Y-120900499D01*
X146113348Y-120900500D01*
X146120944Y-120900500D01*
X146279055Y-120900500D01*
X146279058Y-120900500D01*
X146431786Y-120859576D01*
X146481905Y-120830638D01*
X146568717Y-120780519D01*
X146570116Y-120779119D01*
X146578641Y-120774141D01*
X146605257Y-120767543D01*
X146630841Y-120757649D01*
X146640609Y-120758780D01*
X146646458Y-120757331D01*
X146655927Y-120760555D01*
X146679488Y-120763285D01*
X146695466Y-120768477D01*
X146695471Y-120768477D01*
X146695472Y-120768478D01*
X146743744Y-120776123D01*
X146897648Y-120800500D01*
X146897649Y-120800500D01*
X147102351Y-120800500D01*
X147102352Y-120800500D01*
X147304534Y-120768477D01*
X147499219Y-120705220D01*
X147681610Y-120612287D01*
X147774590Y-120544732D01*
X147847213Y-120491971D01*
X147847215Y-120491968D01*
X147847219Y-120491966D01*
X147991966Y-120347219D01*
X147991968Y-120347215D01*
X147991971Y-120347213D01*
X148102129Y-120195591D01*
X148112287Y-120181610D01*
X148205220Y-119999219D01*
X148268477Y-119804534D01*
X148300500Y-119602352D01*
X148300500Y-119397648D01*
X148268477Y-119195466D01*
X148264263Y-119182498D01*
X148217816Y-119039547D01*
X148205220Y-119000781D01*
X148205218Y-119000778D01*
X148205218Y-119000776D01*
X148166265Y-118924328D01*
X148112287Y-118818390D01*
X148071360Y-118762058D01*
X147991971Y-118652786D01*
X147847213Y-118508028D01*
X147681613Y-118387715D01*
X147681612Y-118387714D01*
X147681610Y-118387713D01*
X147621484Y-118357077D01*
X147499223Y-118294781D01*
X147304534Y-118231522D01*
X147129995Y-118203878D01*
X147102352Y-118199500D01*
X146897648Y-118199500D01*
X146873329Y-118203351D01*
X146695465Y-118231522D01*
X146500776Y-118294781D01*
X146318386Y-118387715D01*
X146152786Y-118508028D01*
X146008028Y-118652786D01*
X145887715Y-118818386D01*
X145794781Y-119000776D01*
X145731522Y-119195465D01*
X145699500Y-119397648D01*
X145699500Y-119575499D01*
X145679815Y-119642538D01*
X145627011Y-119688293D01*
X145575500Y-119699499D01*
X134264760Y-119699499D01*
X134197721Y-119679814D01*
X134151966Y-119627010D01*
X134142022Y-119557852D01*
X134154275Y-119519204D01*
X134205218Y-119419223D01*
X134205218Y-119419222D01*
X134205220Y-119419219D01*
X134268477Y-119224534D01*
X134300500Y-119022352D01*
X134300500Y-118817648D01*
X134288426Y-118741416D01*
X134268477Y-118615465D01*
X134205218Y-118420776D01*
X134144188Y-118301000D01*
X134112287Y-118238390D01*
X134084032Y-118199500D01*
X133991971Y-118072786D01*
X133847213Y-117928028D01*
X133681611Y-117807713D01*
X133588369Y-117760203D01*
X133537574Y-117712229D01*
X133520779Y-117644407D01*
X133543317Y-117578273D01*
X133588371Y-117539234D01*
X133681347Y-117491861D01*
X133846894Y-117371582D01*
X133846895Y-117371582D01*
X133991582Y-117226895D01*
X133991582Y-117226894D01*
X134111859Y-117061349D01*
X134204755Y-116879029D01*
X134267990Y-116684413D01*
X134276609Y-116630000D01*
X133433012Y-116630000D01*
X133465925Y-116572993D01*
X133500000Y-116445826D01*
X133500000Y-116314174D01*
X133465925Y-116187007D01*
X133433012Y-116130000D01*
X134281143Y-116130000D01*
X134285089Y-116124729D01*
X134305432Y-116117141D01*
X134323614Y-116105272D01*
X134337521Y-116105172D01*
X134350553Y-116100312D01*
X134371769Y-116104927D01*
X134393482Y-116104772D01*
X134406633Y-116112511D01*
X134418826Y-116115164D01*
X134447080Y-116136315D01*
X134575139Y-116264374D01*
X134575149Y-116264385D01*
X134579479Y-116268715D01*
X134579480Y-116268716D01*
X134691284Y-116380520D01*
X134742845Y-116410288D01*
X134778095Y-116430639D01*
X134778097Y-116430641D01*
X134816151Y-116452611D01*
X134828215Y-116459577D01*
X134980943Y-116500501D01*
X134980946Y-116500501D01*
X135146653Y-116500501D01*
X135146669Y-116500500D01*
X137920234Y-116500500D01*
X137987273Y-116520185D01*
X137989125Y-116521398D01*
X138120814Y-116609390D01*
X138120827Y-116609397D01*
X138236960Y-116657500D01*
X138266503Y-116669737D01*
X138365099Y-116689349D01*
X138421153Y-116700499D01*
X138421156Y-116700500D01*
X138421158Y-116700500D01*
X138578844Y-116700500D01*
X138578845Y-116700499D01*
X138733497Y-116669737D01*
X138879179Y-116609394D01*
X139010289Y-116521789D01*
X139121789Y-116410289D01*
X139209394Y-116279179D01*
X139269737Y-116133497D01*
X139300500Y-115978842D01*
X139300500Y-115821158D01*
X139300500Y-115821155D01*
X139300499Y-115821153D01*
X139277677Y-115706420D01*
X139269737Y-115666503D01*
X139248492Y-115615213D01*
X139217319Y-115539952D01*
X139213811Y-115507326D01*
X139209142Y-115474853D01*
X139210095Y-115472765D01*
X139209850Y-115470483D01*
X139224533Y-115441150D01*
X139238167Y-115411297D01*
X139240099Y-115410055D01*
X139241126Y-115408004D01*
X139269328Y-115391270D01*
X139296945Y-115373523D01*
X139299975Y-115373087D01*
X139301215Y-115372352D01*
X139331880Y-115368500D01*
X139486398Y-115368500D01*
X139553437Y-115388185D01*
X139596882Y-115436204D01*
X139602821Y-115447859D01*
X139603715Y-115449614D01*
X139724028Y-115615213D01*
X139868786Y-115759971D01*
X139973278Y-115835887D01*
X140034390Y-115880287D01*
X140150607Y-115939503D01*
X140216776Y-115973218D01*
X140216778Y-115973218D01*
X140216781Y-115973220D01*
X140321137Y-116007127D01*
X140411465Y-116036477D01*
X140512557Y-116052488D01*
X140613648Y-116068500D01*
X140613649Y-116068500D01*
X140818351Y-116068500D01*
X140818352Y-116068500D01*
X141020534Y-116036477D01*
X141215219Y-115973220D01*
X141397610Y-115880287D01*
X141490590Y-115812732D01*
X141563213Y-115759971D01*
X141563215Y-115759968D01*
X141563219Y-115759966D01*
X141707966Y-115615219D01*
X141707968Y-115615215D01*
X141707971Y-115615213D01*
X141828284Y-115449614D01*
X141828283Y-115449614D01*
X141828287Y-115449610D01*
X141835117Y-115436204D01*
X141883091Y-115385409D01*
X141945602Y-115368500D01*
X146373129Y-115368500D01*
X146440168Y-115388185D01*
X146473447Y-115419615D01*
X146508028Y-115467213D01*
X146652786Y-115611971D01*
X146771734Y-115698390D01*
X146818390Y-115732287D01*
X146934607Y-115791503D01*
X147000776Y-115825218D01*
X147000778Y-115825218D01*
X147000781Y-115825220D01*
X147033608Y-115835886D01*
X147195465Y-115888477D01*
X147296557Y-115904488D01*
X147397648Y-115920500D01*
X147397649Y-115920500D01*
X147602351Y-115920500D01*
X147602352Y-115920500D01*
X147804534Y-115888477D01*
X147999219Y-115825220D01*
X148181610Y-115732287D01*
X148274590Y-115664732D01*
X148347213Y-115611971D01*
X148347215Y-115611968D01*
X148347219Y-115611966D01*
X148491966Y-115467219D01*
X148491968Y-115467215D01*
X148491971Y-115467213D01*
X148612284Y-115301614D01*
X148612283Y-115301614D01*
X148612287Y-115301610D01*
X148619117Y-115288204D01*
X148667091Y-115237409D01*
X148729602Y-115220500D01*
X151219111Y-115220500D01*
X151286150Y-115240185D01*
X151306792Y-115256819D01*
X151422490Y-115372517D01*
X151613567Y-115511343D01*
X151712991Y-115562002D01*
X151824003Y-115618566D01*
X151824005Y-115618566D01*
X151824008Y-115618568D01*
X151944412Y-115657689D01*
X152048631Y-115691553D01*
X152281903Y-115728500D01*
X152281908Y-115728500D01*
X152518097Y-115728500D01*
X152751368Y-115691553D01*
X152814466Y-115671051D01*
X152975992Y-115618568D01*
X153186433Y-115511343D01*
X153377510Y-115372517D01*
X153544517Y-115205510D01*
X153683343Y-115014433D01*
X153743583Y-114896204D01*
X153791558Y-114845409D01*
X153854068Y-114828500D01*
X157445932Y-114828500D01*
X157512971Y-114848185D01*
X157556416Y-114896203D01*
X157616657Y-115014433D01*
X157755483Y-115205510D01*
X157922490Y-115372517D01*
X158113567Y-115511343D01*
X158212991Y-115562002D01*
X158324003Y-115618566D01*
X158324005Y-115618566D01*
X158324008Y-115618568D01*
X158444412Y-115657689D01*
X158548631Y-115691553D01*
X158781903Y-115728500D01*
X158781908Y-115728500D01*
X159018097Y-115728500D01*
X159251368Y-115691553D01*
X159314466Y-115671051D01*
X159475992Y-115618568D01*
X159686433Y-115511343D01*
X159877510Y-115372517D01*
X160044517Y-115205510D01*
X160183343Y-115014433D01*
X160265015Y-114854141D01*
X160312989Y-114803346D01*
X160380810Y-114786551D01*
X160446945Y-114809088D01*
X160490397Y-114863803D01*
X160499500Y-114910437D01*
X160499500Y-132375500D01*
X160479815Y-132442539D01*
X160427011Y-132488294D01*
X160375500Y-132499500D01*
X85624500Y-132499500D01*
X85557461Y-132479815D01*
X85511706Y-132427011D01*
X85500500Y-132375500D01*
X85500500Y-126857648D01*
X139923500Y-126857648D01*
X139923500Y-127062351D01*
X139955522Y-127264534D01*
X140018781Y-127459223D01*
X140111715Y-127641613D01*
X140232028Y-127807213D01*
X140376786Y-127951971D01*
X140531749Y-128064556D01*
X140542390Y-128072287D01*
X140658607Y-128131503D01*
X140724776Y-128165218D01*
X140724778Y-128165218D01*
X140724781Y-128165220D01*
X140829137Y-128199127D01*
X140919465Y-128228477D01*
X141020557Y-128244488D01*
X141121648Y-128260500D01*
X141121649Y-128260500D01*
X141326351Y-128260500D01*
X141326352Y-128260500D01*
X141528534Y-128228477D01*
X141723219Y-128165220D01*
X141905610Y-128072287D01*
X141998590Y-128004732D01*
X142071213Y-127951971D01*
X142071215Y-127951968D01*
X142071219Y-127951966D01*
X142215966Y-127807219D01*
X142215968Y-127807215D01*
X142215971Y-127807213D01*
X142336284Y-127641614D01*
X142336285Y-127641613D01*
X142336287Y-127641610D01*
X142343117Y-127628204D01*
X142391091Y-127577409D01*
X142453602Y-127560500D01*
X145688873Y-127560500D01*
X145755912Y-127580185D01*
X145799358Y-127628205D01*
X145843294Y-127714433D01*
X145872429Y-127771614D01*
X145887715Y-127801613D01*
X146008028Y-127967213D01*
X146152786Y-128111971D01*
X146289561Y-128211342D01*
X146318390Y-128232287D01*
X146434607Y-128291503D01*
X146500776Y-128325218D01*
X146500778Y-128325218D01*
X146500781Y-128325220D01*
X146605137Y-128359127D01*
X146695465Y-128388477D01*
X146796557Y-128404488D01*
X146897648Y-128420500D01*
X146897649Y-128420500D01*
X147102351Y-128420500D01*
X147102352Y-128420500D01*
X147304534Y-128388477D01*
X147499219Y-128325220D01*
X147681610Y-128232287D01*
X147774590Y-128164732D01*
X147847213Y-128111971D01*
X147847215Y-128111968D01*
X147847219Y-128111966D01*
X147991966Y-127967219D01*
X147991968Y-127967215D01*
X147991971Y-127967213D01*
X148112284Y-127801614D01*
X148112285Y-127801613D01*
X148112287Y-127801610D01*
X148119117Y-127788204D01*
X148167091Y-127737409D01*
X148229602Y-127720500D01*
X150549884Y-127720500D01*
X150616923Y-127740185D01*
X150650200Y-127771612D01*
X150747483Y-127905510D01*
X150914490Y-128072517D01*
X151105567Y-128211343D01*
X151146672Y-128232287D01*
X151316003Y-128318566D01*
X151316005Y-128318566D01*
X151316008Y-128318568D01*
X151436412Y-128357689D01*
X151540631Y-128391553D01*
X151773903Y-128428500D01*
X151773908Y-128428500D01*
X152010097Y-128428500D01*
X152243368Y-128391553D01*
X152252835Y-128388477D01*
X152467992Y-128318568D01*
X152678433Y-128211343D01*
X152869510Y-128072517D01*
X153036517Y-127905510D01*
X153175343Y-127714433D01*
X153235583Y-127596204D01*
X153283558Y-127545409D01*
X153346068Y-127528500D01*
X156937932Y-127528500D01*
X157004971Y-127548185D01*
X157048416Y-127596203D01*
X157108657Y-127714433D01*
X157247483Y-127905510D01*
X157414490Y-128072517D01*
X157605567Y-128211343D01*
X157646672Y-128232287D01*
X157816003Y-128318566D01*
X157816005Y-128318566D01*
X157816008Y-128318568D01*
X157936412Y-128357689D01*
X158040631Y-128391553D01*
X158273903Y-128428500D01*
X158273908Y-128428500D01*
X158510097Y-128428500D01*
X158743368Y-128391553D01*
X158752835Y-128388477D01*
X158967992Y-128318568D01*
X159178433Y-128211343D01*
X159369510Y-128072517D01*
X159536517Y-127905510D01*
X159675343Y-127714433D01*
X159782568Y-127503992D01*
X159855553Y-127279368D01*
X159892500Y-127046097D01*
X159892500Y-126809902D01*
X159855553Y-126576631D01*
X159782566Y-126352003D01*
X159675342Y-126141566D01*
X159536517Y-125950490D01*
X159369510Y-125783483D01*
X159178433Y-125644657D01*
X158967996Y-125537433D01*
X158743368Y-125464446D01*
X158510097Y-125427500D01*
X158510092Y-125427500D01*
X158273908Y-125427500D01*
X158273903Y-125427500D01*
X158040631Y-125464446D01*
X157816003Y-125537433D01*
X157605566Y-125644657D01*
X157496550Y-125723862D01*
X157414490Y-125783483D01*
X157414488Y-125783485D01*
X157414487Y-125783485D01*
X157247485Y-125950487D01*
X157247485Y-125950488D01*
X157247483Y-125950490D01*
X157187862Y-126032550D01*
X157108657Y-126141566D01*
X157048417Y-126259795D01*
X157000442Y-126310591D01*
X156937932Y-126327500D01*
X153346068Y-126327500D01*
X153279029Y-126307815D01*
X153235583Y-126259795D01*
X153175342Y-126141566D01*
X153036517Y-125950490D01*
X152869510Y-125783483D01*
X152678433Y-125644657D01*
X152467996Y-125537433D01*
X152243368Y-125464446D01*
X152010097Y-125427500D01*
X152010092Y-125427500D01*
X151773908Y-125427500D01*
X151773903Y-125427500D01*
X151540631Y-125464446D01*
X151316003Y-125537433D01*
X151105566Y-125644657D01*
X150996550Y-125723862D01*
X150914490Y-125783483D01*
X150914488Y-125783485D01*
X150914487Y-125783485D01*
X150747485Y-125950487D01*
X150747485Y-125950488D01*
X150747483Y-125950490D01*
X150687862Y-126032550D01*
X150608657Y-126141566D01*
X150501433Y-126352003D01*
X150474850Y-126433819D01*
X150435412Y-126491494D01*
X150371053Y-126518692D01*
X150356919Y-126519500D01*
X148229602Y-126519500D01*
X148162563Y-126499815D01*
X148119117Y-126451795D01*
X148112284Y-126438385D01*
X147991971Y-126272786D01*
X147847213Y-126128028D01*
X147681613Y-126007715D01*
X147681612Y-126007714D01*
X147681610Y-126007713D01*
X147603724Y-125968028D01*
X147499223Y-125914781D01*
X147304534Y-125851522D01*
X147129995Y-125823878D01*
X147102352Y-125819500D01*
X146897648Y-125819500D01*
X146873329Y-125823351D01*
X146695465Y-125851522D01*
X146500776Y-125914781D01*
X146318386Y-126007715D01*
X146152786Y-126128028D01*
X146008036Y-126272778D01*
X146008036Y-126272779D01*
X146008034Y-126272781D01*
X145982164Y-126308386D01*
X145926836Y-126351051D01*
X145881848Y-126359500D01*
X142453602Y-126359500D01*
X142386563Y-126339815D01*
X142343117Y-126291795D01*
X142336284Y-126278385D01*
X142215971Y-126112786D01*
X142071213Y-125968028D01*
X141905613Y-125847715D01*
X141905612Y-125847714D01*
X141905610Y-125847713D01*
X141848653Y-125818691D01*
X141723223Y-125754781D01*
X141528534Y-125691522D01*
X141353995Y-125663878D01*
X141326352Y-125659500D01*
X141121648Y-125659500D01*
X141097329Y-125663351D01*
X140919465Y-125691522D01*
X140724776Y-125754781D01*
X140542386Y-125847715D01*
X140376786Y-125968028D01*
X140232028Y-126112786D01*
X140111715Y-126278386D01*
X140018781Y-126460776D01*
X139955522Y-126655465D01*
X139923500Y-126857648D01*
X85500500Y-126857648D01*
X85500500Y-82370155D01*
X95118000Y-82370155D01*
X95118000Y-82930000D01*
X96091184Y-82930000D01*
X96075124Y-82946060D01*
X96024964Y-83032939D01*
X95999000Y-83129840D01*
X95999000Y-83230160D01*
X96024964Y-83327061D01*
X96075124Y-83413940D01*
X96091184Y-83430000D01*
X95118000Y-83430000D01*
X95118000Y-83989844D01*
X95124401Y-84049372D01*
X95124403Y-84049379D01*
X95174645Y-84184086D01*
X95174649Y-84184093D01*
X95260809Y-84299187D01*
X95260812Y-84299190D01*
X95375906Y-84385350D01*
X95375913Y-84385354D01*
X95510620Y-84435596D01*
X95510627Y-84435598D01*
X95570155Y-84441999D01*
X95570172Y-84442000D01*
X96130000Y-84442000D01*
X96130000Y-83468816D01*
X96146060Y-83484876D01*
X96232939Y-83535036D01*
X96329840Y-83561000D01*
X96430160Y-83561000D01*
X96527061Y-83535036D01*
X96613940Y-83484876D01*
X96630000Y-83468816D01*
X96630000Y-84442000D01*
X97189828Y-84442000D01*
X97189844Y-84441999D01*
X97249372Y-84435598D01*
X97249379Y-84435596D01*
X97384086Y-84385354D01*
X97384093Y-84385350D01*
X97499187Y-84299190D01*
X97499190Y-84299187D01*
X97585350Y-84184093D01*
X97585354Y-84184086D01*
X97635596Y-84049379D01*
X97635598Y-84049372D01*
X97641999Y-83989844D01*
X97642000Y-83989827D01*
X97642000Y-83950510D01*
X97661685Y-83883471D01*
X97714489Y-83837716D01*
X97783647Y-83827772D01*
X97847203Y-83856797D01*
X97866318Y-83877625D01*
X97919272Y-83950510D01*
X97957019Y-84002464D01*
X98097536Y-84142981D01*
X98258306Y-84259787D01*
X98345149Y-84304035D01*
X98435367Y-84350005D01*
X98435370Y-84350006D01*
X98529866Y-84380709D01*
X98624364Y-84411413D01*
X98820639Y-84442500D01*
X98820640Y-84442500D01*
X99019360Y-84442500D01*
X99019361Y-84442500D01*
X99215636Y-84411413D01*
X99404632Y-84350005D01*
X99581694Y-84259787D01*
X99742464Y-84142981D01*
X99882981Y-84002464D01*
X99999787Y-83841694D01*
X100079515Y-83685218D01*
X100127490Y-83634423D01*
X100195311Y-83617628D01*
X100261446Y-83640165D01*
X100300484Y-83685218D01*
X100380213Y-83841694D01*
X100497019Y-84002464D01*
X100637536Y-84142981D01*
X100798306Y-84259787D01*
X100885149Y-84304035D01*
X100975367Y-84350005D01*
X100975370Y-84350006D01*
X101069866Y-84380709D01*
X101164364Y-84411413D01*
X101360639Y-84442500D01*
X101360640Y-84442500D01*
X101559360Y-84442500D01*
X101559361Y-84442500D01*
X101755636Y-84411413D01*
X101944632Y-84350005D01*
X102121694Y-84259787D01*
X102282464Y-84142981D01*
X102422981Y-84002464D01*
X102539787Y-83841694D01*
X102619515Y-83685218D01*
X102667490Y-83634423D01*
X102735311Y-83617628D01*
X102801446Y-83640165D01*
X102840484Y-83685218D01*
X102920213Y-83841694D01*
X103037019Y-84002464D01*
X103177536Y-84142981D01*
X103338306Y-84259787D01*
X103425149Y-84304035D01*
X103515367Y-84350005D01*
X103515370Y-84350006D01*
X103609866Y-84380709D01*
X103704364Y-84411413D01*
X103900639Y-84442500D01*
X103900640Y-84442500D01*
X104099360Y-84442500D01*
X104099361Y-84442500D01*
X104295636Y-84411413D01*
X104484632Y-84350005D01*
X104661694Y-84259787D01*
X104822464Y-84142981D01*
X104962981Y-84002464D01*
X105079787Y-83841694D01*
X105170005Y-83664632D01*
X105231413Y-83475636D01*
X105262500Y-83279361D01*
X105262500Y-83080639D01*
X105231413Y-82884364D01*
X105170005Y-82695368D01*
X105170005Y-82695367D01*
X105124035Y-82605149D01*
X105079787Y-82518306D01*
X104962981Y-82357536D01*
X104822464Y-82217019D01*
X104661694Y-82100213D01*
X104584360Y-82060809D01*
X104484632Y-82009994D01*
X104484629Y-82009993D01*
X104295637Y-81948587D01*
X104197498Y-81933043D01*
X104099361Y-81917500D01*
X103900639Y-81917500D01*
X103835214Y-81927862D01*
X103704362Y-81948587D01*
X103515370Y-82009993D01*
X103515367Y-82009994D01*
X103338305Y-82100213D01*
X103177533Y-82217021D01*
X103037021Y-82357533D01*
X102920213Y-82518305D01*
X102840485Y-82674780D01*
X102792510Y-82725576D01*
X102724689Y-82742371D01*
X102658554Y-82719833D01*
X102619515Y-82674780D01*
X102600179Y-82636832D01*
X102539787Y-82518306D01*
X102422981Y-82357536D01*
X102282464Y-82217019D01*
X102121694Y-82100213D01*
X102044360Y-82060809D01*
X101944632Y-82009994D01*
X101944629Y-82009993D01*
X101755637Y-81948587D01*
X101657498Y-81933043D01*
X101559361Y-81917500D01*
X101360639Y-81917500D01*
X101295214Y-81927862D01*
X101164362Y-81948587D01*
X100975370Y-82009993D01*
X100975367Y-82009994D01*
X100798305Y-82100213D01*
X100637533Y-82217021D01*
X100497021Y-82357533D01*
X100380213Y-82518305D01*
X100300485Y-82674780D01*
X100252510Y-82725576D01*
X100184689Y-82742371D01*
X100118554Y-82719833D01*
X100079515Y-82674780D01*
X100060179Y-82636832D01*
X99999787Y-82518306D01*
X99882981Y-82357536D01*
X99742464Y-82217019D01*
X99581694Y-82100213D01*
X99504360Y-82060809D01*
X99404632Y-82009994D01*
X99404629Y-82009993D01*
X99215637Y-81948587D01*
X99117498Y-81933043D01*
X99019361Y-81917500D01*
X98820639Y-81917500D01*
X98755214Y-81927862D01*
X98624362Y-81948587D01*
X98435370Y-82009993D01*
X98435367Y-82009994D01*
X98258305Y-82100213D01*
X98097533Y-82217021D01*
X97957021Y-82357533D01*
X97957021Y-82357534D01*
X97957019Y-82357536D01*
X97919273Y-82409489D01*
X97866318Y-82482375D01*
X97810988Y-82525040D01*
X97741374Y-82531019D01*
X97679579Y-82498413D01*
X97645222Y-82437574D01*
X97642000Y-82409489D01*
X97642000Y-82370172D01*
X97641999Y-82370155D01*
X97635598Y-82310627D01*
X97635596Y-82310620D01*
X97585354Y-82175913D01*
X97585350Y-82175906D01*
X97499190Y-82060812D01*
X97499187Y-82060809D01*
X97384093Y-81974649D01*
X97384086Y-81974645D01*
X97249379Y-81924403D01*
X97249372Y-81924401D01*
X97189844Y-81918000D01*
X96630000Y-81918000D01*
X96630000Y-82891184D01*
X96613940Y-82875124D01*
X96527061Y-82824964D01*
X96430160Y-82799000D01*
X96329840Y-82799000D01*
X96232939Y-82824964D01*
X96146060Y-82875124D01*
X96130000Y-82891184D01*
X96130000Y-81918000D01*
X95570155Y-81918000D01*
X95510627Y-81924401D01*
X95510620Y-81924403D01*
X95375913Y-81974645D01*
X95375906Y-81974649D01*
X95260812Y-82060809D01*
X95260809Y-82060812D01*
X95174649Y-82175906D01*
X95174645Y-82175913D01*
X95124403Y-82310620D01*
X95124401Y-82310627D01*
X95118000Y-82370155D01*
X85500500Y-82370155D01*
X85500500Y-81624500D01*
X85520185Y-81557461D01*
X85572989Y-81511706D01*
X85624500Y-81500500D01*
X160375500Y-81500500D01*
X160442539Y-81520185D01*
G37*
G04 #@! TD.AperFunction*
G04 #@! TA.AperFunction,Conductor*
G36*
X101187273Y-109320185D02*
G01*
X101189125Y-109321398D01*
X101320814Y-109409390D01*
X101320827Y-109409397D01*
X101451643Y-109463582D01*
X101466503Y-109469737D01*
X101621153Y-109500499D01*
X101621156Y-109500500D01*
X101621158Y-109500500D01*
X101778844Y-109500500D01*
X101778845Y-109500499D01*
X101933497Y-109469737D01*
X102079179Y-109409394D01*
X102121078Y-109381397D01*
X102187755Y-109360520D01*
X102189969Y-109360500D01*
X116530398Y-109360500D01*
X116597437Y-109380185D01*
X116640883Y-109428205D01*
X116647715Y-109441614D01*
X116768028Y-109607213D01*
X116912786Y-109751971D01*
X117007332Y-109820661D01*
X117078390Y-109872287D01*
X117169840Y-109918883D01*
X117171080Y-109919515D01*
X117221876Y-109967490D01*
X117238671Y-110035311D01*
X117216134Y-110101446D01*
X117171080Y-110140485D01*
X117078386Y-110187715D01*
X116912786Y-110308028D01*
X116768028Y-110452786D01*
X116647715Y-110618386D01*
X116554781Y-110800776D01*
X116491522Y-110995465D01*
X116459500Y-111197648D01*
X116459500Y-111402351D01*
X116491522Y-111604534D01*
X116554781Y-111799223D01*
X116647715Y-111981613D01*
X116768028Y-112147213D01*
X116912786Y-112291971D01*
X117067749Y-112404556D01*
X117078390Y-112412287D01*
X117169840Y-112458883D01*
X117171080Y-112459515D01*
X117221876Y-112507490D01*
X117238671Y-112575311D01*
X117216134Y-112641446D01*
X117171080Y-112680485D01*
X117078386Y-112727715D01*
X116912786Y-112848028D01*
X116768028Y-112992786D01*
X116647715Y-113158386D01*
X116554781Y-113340776D01*
X116491522Y-113535465D01*
X116459500Y-113737648D01*
X116459500Y-113942351D01*
X116491522Y-114144534D01*
X116554781Y-114339223D01*
X116647715Y-114521613D01*
X116768028Y-114687213D01*
X116912786Y-114831971D01*
X117067749Y-114944556D01*
X117078390Y-114952287D01*
X117169840Y-114998883D01*
X117171080Y-114999515D01*
X117221876Y-115047490D01*
X117238671Y-115115311D01*
X117216134Y-115181446D01*
X117171080Y-115220485D01*
X117078386Y-115267715D01*
X116912786Y-115388028D01*
X116768030Y-115532784D01*
X116698575Y-115628384D01*
X116643245Y-115671051D01*
X116598256Y-115679500D01*
X100051004Y-115679500D01*
X99915677Y-115706418D01*
X99915667Y-115706421D01*
X99788192Y-115759222D01*
X99673454Y-115835887D01*
X98872934Y-116636407D01*
X98811611Y-116669892D01*
X98765854Y-116671199D01*
X98679365Y-116657500D01*
X98679361Y-116657500D01*
X98480639Y-116657500D01*
X98415214Y-116667862D01*
X98284362Y-116688587D01*
X98095370Y-116749993D01*
X98095367Y-116749994D01*
X97918305Y-116840213D01*
X97757533Y-116957021D01*
X97617021Y-117097533D01*
X97500213Y-117258305D01*
X97420204Y-117415331D01*
X97372229Y-117466127D01*
X97304408Y-117482922D01*
X97238273Y-117460384D01*
X97199234Y-117415331D01*
X97119358Y-117258567D01*
X97092268Y-117221283D01*
X96421000Y-117892551D01*
X96421000Y-117869840D01*
X96395036Y-117772939D01*
X96344876Y-117686060D01*
X96273940Y-117615124D01*
X96187061Y-117564964D01*
X96090160Y-117539000D01*
X96067447Y-117539000D01*
X96738716Y-116867731D01*
X96738715Y-116867730D01*
X96701432Y-116840641D01*
X96524437Y-116750457D01*
X96335522Y-116689075D01*
X96139321Y-116658000D01*
X95940679Y-116658000D01*
X95744479Y-116689075D01*
X95744476Y-116689075D01*
X95555562Y-116750457D01*
X95378564Y-116840643D01*
X95341283Y-116867729D01*
X95341282Y-116867730D01*
X96012554Y-117539000D01*
X95989840Y-117539000D01*
X95892939Y-117564964D01*
X95806060Y-117615124D01*
X95735124Y-117686060D01*
X95684964Y-117772939D01*
X95659000Y-117869840D01*
X95659000Y-117892552D01*
X94987730Y-117221282D01*
X94987729Y-117221283D01*
X94960641Y-117258566D01*
X94880764Y-117415332D01*
X94832790Y-117466127D01*
X94764969Y-117482922D01*
X94698834Y-117460384D01*
X94659796Y-117415332D01*
X94579787Y-117258306D01*
X94462981Y-117097536D01*
X94322464Y-116957019D01*
X94248201Y-116903063D01*
X94244968Y-116900361D01*
X94227810Y-116874674D01*
X94208949Y-116850214D01*
X94207962Y-116844959D01*
X94206159Y-116842260D01*
X94206024Y-116834641D01*
X94200500Y-116805226D01*
X94200500Y-116043959D01*
X94220185Y-115976920D01*
X94236819Y-115956278D01*
X100856278Y-109336819D01*
X100917601Y-109303334D01*
X100943959Y-109300500D01*
X101120234Y-109300500D01*
X101187273Y-109320185D01*
G37*
G04 #@! TD.AperFunction*
M02*
