G04 #@! TF.GenerationSoftware,KiCad,Pcbnew,9.0.6*
G04 #@! TF.CreationDate,2025-12-25T14:29:32+05:30*
G04 #@! TF.ProjectId,new_first_pcb,6e65775f-6669-4727-9374-5f7063622e6b,rev?*
G04 #@! TF.SameCoordinates,Original*
G04 #@! TF.FileFunction,Copper,L2,Inr*
G04 #@! TF.FilePolarity,Positive*
%FSLAX46Y46*%
G04 Gerber Fmt 4.6, Leading zero omitted, Abs format (unit mm)*
G04 Created by KiCad (PCBNEW 9.0.6) date 2025-12-25 14:29:32*
%MOMM*%
%LPD*%
G01*
G04 APERTURE LIST*
G04 #@! TA.AperFunction,ComponentPad*
%ADD10C,1.600000*%
G04 #@! TD*
G04 #@! TA.AperFunction,ComponentPad*
%ADD11R,1.524000X1.524000*%
G04 #@! TD*
G04 #@! TA.AperFunction,ComponentPad*
%ADD12C,1.524000*%
G04 #@! TD*
G04 #@! TA.AperFunction,ComponentPad*
%ADD13C,2.000000*%
G04 #@! TD*
G04 #@! TA.AperFunction,ComponentPad*
%ADD14R,1.800000X1.800000*%
G04 #@! TD*
G04 #@! TA.AperFunction,ComponentPad*
%ADD15C,1.800000*%
G04 #@! TD*
G04 #@! TA.AperFunction,ComponentPad*
%ADD16R,1.600000X1.600000*%
G04 #@! TD*
G04 #@! TA.AperFunction,ComponentPad*
%ADD17O,1.600000X1.600000*%
G04 #@! TD*
G04 #@! TA.AperFunction,ViaPad*
%ADD18C,0.600000*%
G04 #@! TD*
G04 APERTURE END LIST*
D10*
X141224000Y-126960000D03*
X141224000Y-121960000D03*
X137880000Y-88500000D03*
X145500000Y-88500000D03*
X146812000Y-94996000D03*
X146812000Y-102616000D03*
D11*
X88420000Y-117920000D03*
D12*
X90960000Y-117920000D03*
X93500000Y-117920000D03*
X96040000Y-117920000D03*
X98580000Y-117920000D03*
D11*
X96380000Y-83180000D03*
D12*
X98920000Y-83180000D03*
X101460000Y-83180000D03*
X104000000Y-83180000D03*
D10*
X140716000Y-114768000D03*
X140716000Y-109768000D03*
D13*
X151892000Y-97028000D03*
X158392000Y-97028000D03*
X151892000Y-101528000D03*
X158392000Y-101528000D03*
D10*
X147000000Y-119500000D03*
X147000000Y-127120000D03*
D13*
X151892000Y-122428000D03*
X158392000Y-122428000D03*
X151892000Y-126928000D03*
X158392000Y-126928000D03*
X152400000Y-109728000D03*
X158900000Y-109728000D03*
X152400000Y-114228000D03*
X158900000Y-114228000D03*
D10*
X147500000Y-107000000D03*
X147500000Y-114620000D03*
D14*
X152908000Y-88392000D03*
D15*
X150368000Y-88392000D03*
D16*
X133000000Y-124000000D03*
D17*
X133000000Y-121460000D03*
X133000000Y-118920000D03*
X133000000Y-116380000D03*
X133000000Y-113840000D03*
X133000000Y-111300000D03*
X133000000Y-108760000D03*
X133000000Y-106220000D03*
X133000000Y-103680000D03*
X133000000Y-101140000D03*
X133000000Y-98600000D03*
X133000000Y-96060000D03*
X133000000Y-93520000D03*
X133000000Y-90980000D03*
X133000000Y-88440000D03*
X117760000Y-88440000D03*
X117760000Y-90980000D03*
X117760000Y-93520000D03*
X117760000Y-96060000D03*
X117760000Y-98600000D03*
X117760000Y-101140000D03*
X117760000Y-103680000D03*
X117760000Y-106220000D03*
X117760000Y-108760000D03*
X117760000Y-111300000D03*
X117760000Y-113840000D03*
X117760000Y-116380000D03*
X117760000Y-118920000D03*
X117760000Y-121460000D03*
X117760000Y-124000000D03*
D10*
X140716000Y-102576000D03*
X140716000Y-97576000D03*
D18*
X137800000Y-108900000D03*
X138500000Y-115900000D03*
X101700000Y-108700000D03*
X105300000Y-106200000D03*
M02*
