%TF.GenerationSoftware,KiCad,Pcbnew,9.0.6*%
%TF.CreationDate,2025-12-25T14:27:43+05:30*%
%TF.ProjectId,new_first_pcb,6e65775f-6669-4727-9374-5f7063622e6b,rev?*%
%TF.SameCoordinates,Original*%
%TF.FileFunction,Drillmap*%
%TF.FilePolarity,Positive*%
%FSLAX45Y45*%
G04 Gerber Fmt 4.5, Leading zero omitted, Abs format (unit mm)*
G04 Created by KiCad (PCBNEW 9.0.6) date 2025-12-25 14:27:43*
%MOMM*%
%LPD*%
G01*
G04 APERTURE LIST*
%ADD10C,0.038100*%
%ADD11C,0.200000*%
%ADD12C,0.100000*%
%ADD13C,0.110000*%
G04 APERTURE END LIST*
D10*
X8500000Y-13300000D02*
X16100000Y-13300000D01*
X16100000Y-8100000D02*
X8500000Y-8100000D01*
X8500000Y-8100000D02*
X8500000Y-13300000D01*
X16100000Y-13300000D02*
X16100000Y-8100000D01*
D11*
D12*
X10155000Y-10855000D02*
X10185000Y-10885000D01*
X10185000Y-10855000D02*
X10155000Y-10885000D01*
X10515000Y-10605000D02*
X10545000Y-10635000D01*
X10545000Y-10605000D02*
X10515000Y-10635000D01*
X13765000Y-10875000D02*
X13795000Y-10905000D01*
X13795000Y-10875000D02*
X13765000Y-10905000D01*
X13835000Y-11575000D02*
X13865000Y-11605000D01*
X13865000Y-11575000D02*
X13835000Y-11605000D01*
X8880100Y-11792000D02*
G75*
G02*
X8803900Y-11792000I-38100J0D01*
G01*
X8803900Y-11792000D02*
G75*
G02*
X8880100Y-11792000I38100J0D01*
G01*
X9134100Y-11792000D02*
G75*
G02*
X9057900Y-11792000I-38100J0D01*
G01*
X9057900Y-11792000D02*
G75*
G02*
X9134100Y-11792000I38100J0D01*
G01*
X9388100Y-11792000D02*
G75*
G02*
X9311900Y-11792000I-38100J0D01*
G01*
X9311900Y-11792000D02*
G75*
G02*
X9388100Y-11792000I38100J0D01*
G01*
X9642100Y-11792000D02*
G75*
G02*
X9565900Y-11792000I-38100J0D01*
G01*
X9565900Y-11792000D02*
G75*
G02*
X9642100Y-11792000I38100J0D01*
G01*
X9676100Y-8318000D02*
G75*
G02*
X9599900Y-8318000I-38100J0D01*
G01*
X9599900Y-8318000D02*
G75*
G02*
X9676100Y-8318000I38100J0D01*
G01*
X9896100Y-11792000D02*
G75*
G02*
X9819900Y-11792000I-38100J0D01*
G01*
X9819900Y-11792000D02*
G75*
G02*
X9896100Y-11792000I38100J0D01*
G01*
X9930100Y-8318000D02*
G75*
G02*
X9853900Y-8318000I-38100J0D01*
G01*
X9853900Y-8318000D02*
G75*
G02*
X9930100Y-8318000I38100J0D01*
G01*
X10184100Y-8318000D02*
G75*
G02*
X10107900Y-8318000I-38100J0D01*
G01*
X10107900Y-8318000D02*
G75*
G02*
X10184100Y-8318000I38100J0D01*
G01*
X10438100Y-8318000D02*
G75*
G02*
X10361900Y-8318000I-38100J0D01*
G01*
X10361900Y-8318000D02*
G75*
G02*
X10438100Y-8318000I38100J0D01*
G01*
X13788000Y-8810000D02*
X13788000Y-8890000D01*
X13748000Y-8850000D02*
X13828000Y-8850000D01*
X14071600Y-9717600D02*
X14071600Y-9797600D01*
X14031600Y-9757600D02*
X14111600Y-9757600D01*
X14071600Y-10217600D02*
X14071600Y-10297600D01*
X14031600Y-10257600D02*
X14111600Y-10257600D01*
X14071600Y-10936800D02*
X14071600Y-11016800D01*
X14031600Y-10976800D02*
X14111600Y-10976800D01*
X14071600Y-11436800D02*
X14071600Y-11516800D01*
X14031600Y-11476800D02*
X14111600Y-11476800D01*
X14122400Y-12156000D02*
X14122400Y-12236000D01*
X14082400Y-12196000D02*
X14162400Y-12196000D01*
X14122400Y-12656000D02*
X14122400Y-12736000D01*
X14082400Y-12696000D02*
X14162400Y-12696000D01*
X14550000Y-8810000D02*
X14550000Y-8890000D01*
X14510000Y-8850000D02*
X14590000Y-8850000D01*
X14681200Y-9459600D02*
X14681200Y-9539600D01*
X14641200Y-9499600D02*
X14721200Y-9499600D01*
X14681200Y-10221600D02*
X14681200Y-10301600D01*
X14641200Y-10261600D02*
X14721200Y-10261600D01*
X14700000Y-11910000D02*
X14700000Y-11990000D01*
X14660000Y-11950000D02*
X14740000Y-11950000D01*
X14700000Y-12672000D02*
X14700000Y-12752000D01*
X14660000Y-12712000D02*
X14740000Y-12712000D01*
X14750000Y-10660000D02*
X14750000Y-10740000D01*
X14710000Y-10700000D02*
X14790000Y-10700000D01*
X14750000Y-11422000D02*
X14750000Y-11502000D01*
X14710000Y-11462000D02*
X14790000Y-11462000D01*
X15068620Y-8871020D02*
X15068620Y-8807380D01*
X15004980Y-8807380D01*
X15004980Y-8871020D01*
X15068620Y-8871020D01*
X15322620Y-8871020D02*
X15322620Y-8807380D01*
X15258980Y-8807380D01*
X15258980Y-8871020D01*
X15322620Y-8871020D01*
X11776000Y-8894000D02*
X11826000Y-8844000D01*
X11776000Y-8794000D01*
X11726000Y-8844000D01*
X11776000Y-8894000D01*
X11776000Y-9148000D02*
X11826000Y-9098000D01*
X11776000Y-9048000D01*
X11726000Y-9098000D01*
X11776000Y-9148000D01*
X11776000Y-9402000D02*
X11826000Y-9352000D01*
X11776000Y-9302000D01*
X11726000Y-9352000D01*
X11776000Y-9402000D01*
X11776000Y-9656000D02*
X11826000Y-9606000D01*
X11776000Y-9556000D01*
X11726000Y-9606000D01*
X11776000Y-9656000D01*
X11776000Y-9910000D02*
X11826000Y-9860000D01*
X11776000Y-9810000D01*
X11726000Y-9860000D01*
X11776000Y-9910000D01*
X11776000Y-10164000D02*
X11826000Y-10114000D01*
X11776000Y-10064000D01*
X11726000Y-10114000D01*
X11776000Y-10164000D01*
X11776000Y-10418000D02*
X11826000Y-10368000D01*
X11776000Y-10318000D01*
X11726000Y-10368000D01*
X11776000Y-10418000D01*
X11776000Y-10672000D02*
X11826000Y-10622000D01*
X11776000Y-10572000D01*
X11726000Y-10622000D01*
X11776000Y-10672000D01*
X11776000Y-10926000D02*
X11826000Y-10876000D01*
X11776000Y-10826000D01*
X11726000Y-10876000D01*
X11776000Y-10926000D01*
X11776000Y-11180000D02*
X11826000Y-11130000D01*
X11776000Y-11080000D01*
X11726000Y-11130000D01*
X11776000Y-11180000D01*
X11776000Y-11434000D02*
X11826000Y-11384000D01*
X11776000Y-11334000D01*
X11726000Y-11384000D01*
X11776000Y-11434000D01*
X11776000Y-11688000D02*
X11826000Y-11638000D01*
X11776000Y-11588000D01*
X11726000Y-11638000D01*
X11776000Y-11688000D01*
X11776000Y-11942000D02*
X11826000Y-11892000D01*
X11776000Y-11842000D01*
X11726000Y-11892000D01*
X11776000Y-11942000D01*
X11776000Y-12196000D02*
X11826000Y-12146000D01*
X11776000Y-12096000D01*
X11726000Y-12146000D01*
X11776000Y-12196000D01*
X11776000Y-12450000D02*
X11826000Y-12400000D01*
X11776000Y-12350000D01*
X11726000Y-12400000D01*
X11776000Y-12450000D01*
X13300000Y-8894000D02*
X13350000Y-8844000D01*
X13300000Y-8794000D01*
X13250000Y-8844000D01*
X13300000Y-8894000D01*
X13300000Y-9148000D02*
X13350000Y-9098000D01*
X13300000Y-9048000D01*
X13250000Y-9098000D01*
X13300000Y-9148000D01*
X13300000Y-9402000D02*
X13350000Y-9352000D01*
X13300000Y-9302000D01*
X13250000Y-9352000D01*
X13300000Y-9402000D01*
X13300000Y-9656000D02*
X13350000Y-9606000D01*
X13300000Y-9556000D01*
X13250000Y-9606000D01*
X13300000Y-9656000D01*
X13300000Y-9910000D02*
X13350000Y-9860000D01*
X13300000Y-9810000D01*
X13250000Y-9860000D01*
X13300000Y-9910000D01*
X13300000Y-10164000D02*
X13350000Y-10114000D01*
X13300000Y-10064000D01*
X13250000Y-10114000D01*
X13300000Y-10164000D01*
X13300000Y-10418000D02*
X13350000Y-10368000D01*
X13300000Y-10318000D01*
X13250000Y-10368000D01*
X13300000Y-10418000D01*
X13300000Y-10672000D02*
X13350000Y-10622000D01*
X13300000Y-10572000D01*
X13250000Y-10622000D01*
X13300000Y-10672000D01*
X13300000Y-10926000D02*
X13350000Y-10876000D01*
X13300000Y-10826000D01*
X13250000Y-10876000D01*
X13300000Y-10926000D01*
X13300000Y-11180000D02*
X13350000Y-11130000D01*
X13300000Y-11080000D01*
X13250000Y-11130000D01*
X13300000Y-11180000D01*
X13300000Y-11434000D02*
X13350000Y-11384000D01*
X13300000Y-11334000D01*
X13250000Y-11384000D01*
X13300000Y-11434000D01*
X13300000Y-11688000D02*
X13350000Y-11638000D01*
X13300000Y-11588000D01*
X13250000Y-11638000D01*
X13300000Y-11688000D01*
X13300000Y-11942000D02*
X13350000Y-11892000D01*
X13300000Y-11842000D01*
X13250000Y-11892000D01*
X13300000Y-11942000D01*
X13300000Y-12196000D02*
X13350000Y-12146000D01*
X13300000Y-12096000D01*
X13250000Y-12146000D01*
X13300000Y-12196000D01*
X13300000Y-12450000D02*
X13350000Y-12400000D01*
X13300000Y-12350000D01*
X13250000Y-12400000D01*
X13300000Y-12450000D01*
D13*
X15134200Y-9647800D02*
X15244200Y-9757800D01*
X15244200Y-9647800D02*
X15134200Y-9757800D01*
X15244200Y-9702800D02*
G75*
G02*
X15134200Y-9702800I-55000J0D01*
G01*
X15134200Y-9702800D02*
G75*
G02*
X15244200Y-9702800I55000J0D01*
G01*
X15134200Y-10097800D02*
X15244200Y-10207800D01*
X15244200Y-10097800D02*
X15134200Y-10207800D01*
X15244200Y-10152800D02*
G75*
G02*
X15134200Y-10152800I-55000J0D01*
G01*
X15134200Y-10152800D02*
G75*
G02*
X15244200Y-10152800I55000J0D01*
G01*
X15134200Y-12187800D02*
X15244200Y-12297800D01*
X15244200Y-12187800D02*
X15134200Y-12297800D01*
X15244200Y-12242800D02*
G75*
G02*
X15134200Y-12242800I-55000J0D01*
G01*
X15134200Y-12242800D02*
G75*
G02*
X15244200Y-12242800I55000J0D01*
G01*
X15134200Y-12637800D02*
X15244200Y-12747800D01*
X15244200Y-12637800D02*
X15134200Y-12747800D01*
X15244200Y-12692800D02*
G75*
G02*
X15134200Y-12692800I-55000J0D01*
G01*
X15134200Y-12692800D02*
G75*
G02*
X15244200Y-12692800I55000J0D01*
G01*
X15185000Y-10917800D02*
X15295000Y-11027800D01*
X15295000Y-10917800D02*
X15185000Y-11027800D01*
X15295000Y-10972800D02*
G75*
G02*
X15185000Y-10972800I-55000J0D01*
G01*
X15185000Y-10972800D02*
G75*
G02*
X15295000Y-10972800I55000J0D01*
G01*
X15185000Y-11367800D02*
X15295000Y-11477800D01*
X15295000Y-11367800D02*
X15185000Y-11477800D01*
X15295000Y-11422800D02*
G75*
G02*
X15185000Y-11422800I-55000J0D01*
G01*
X15185000Y-11422800D02*
G75*
G02*
X15295000Y-11422800I55000J0D01*
G01*
X15784200Y-9647800D02*
X15894200Y-9757800D01*
X15894200Y-9647800D02*
X15784200Y-9757800D01*
X15894200Y-9702800D02*
G75*
G02*
X15784200Y-9702800I-55000J0D01*
G01*
X15784200Y-9702800D02*
G75*
G02*
X15894200Y-9702800I55000J0D01*
G01*
X15784200Y-10097800D02*
X15894200Y-10207800D01*
X15894200Y-10097800D02*
X15784200Y-10207800D01*
X15894200Y-10152800D02*
G75*
G02*
X15784200Y-10152800I-55000J0D01*
G01*
X15784200Y-10152800D02*
G75*
G02*
X15894200Y-10152800I55000J0D01*
G01*
X15784200Y-12187800D02*
X15894200Y-12297800D01*
X15894200Y-12187800D02*
X15784200Y-12297800D01*
X15894200Y-12242800D02*
G75*
G02*
X15784200Y-12242800I-55000J0D01*
G01*
X15784200Y-12242800D02*
G75*
G02*
X15894200Y-12242800I55000J0D01*
G01*
X15784200Y-12637800D02*
X15894200Y-12747800D01*
X15894200Y-12637800D02*
X15784200Y-12747800D01*
X15894200Y-12692800D02*
G75*
G02*
X15784200Y-12692800I-55000J0D01*
G01*
X15784200Y-12692800D02*
G75*
G02*
X15894200Y-12692800I55000J0D01*
G01*
X15835000Y-10917800D02*
X15945000Y-11027800D01*
X15945000Y-10917800D02*
X15835000Y-11027800D01*
X15945000Y-10972800D02*
G75*
G02*
X15835000Y-10972800I-55000J0D01*
G01*
X15835000Y-10972800D02*
G75*
G02*
X15945000Y-10972800I55000J0D01*
G01*
X15835000Y-11367800D02*
X15945000Y-11477800D01*
X15945000Y-11367800D02*
X15835000Y-11477800D01*
X15945000Y-11422800D02*
G75*
G02*
X15835000Y-11422800I-55000J0D01*
G01*
X15835000Y-11422800D02*
G75*
G02*
X15945000Y-11422800I55000J0D01*
G01*
D11*
X8758872Y-13613389D02*
X8758872Y-13413389D01*
X8758872Y-13413389D02*
X8806491Y-13413389D01*
X8806491Y-13413389D02*
X8835062Y-13422913D01*
X8835062Y-13422913D02*
X8854110Y-13441960D01*
X8854110Y-13441960D02*
X8863634Y-13461008D01*
X8863634Y-13461008D02*
X8873158Y-13499103D01*
X8873158Y-13499103D02*
X8873158Y-13527674D01*
X8873158Y-13527674D02*
X8863634Y-13565770D01*
X8863634Y-13565770D02*
X8854110Y-13584817D01*
X8854110Y-13584817D02*
X8835062Y-13603865D01*
X8835062Y-13603865D02*
X8806491Y-13613389D01*
X8806491Y-13613389D02*
X8758872Y-13613389D01*
X8958872Y-13613389D02*
X8958872Y-13480055D01*
X8958872Y-13518151D02*
X8968396Y-13499103D01*
X8968396Y-13499103D02*
X8977919Y-13489579D01*
X8977919Y-13489579D02*
X8996967Y-13480055D01*
X8996967Y-13480055D02*
X9016015Y-13480055D01*
X9082681Y-13613389D02*
X9082681Y-13480055D01*
X9082681Y-13413389D02*
X9073158Y-13422913D01*
X9073158Y-13422913D02*
X9082681Y-13432436D01*
X9082681Y-13432436D02*
X9092205Y-13422913D01*
X9092205Y-13422913D02*
X9082681Y-13413389D01*
X9082681Y-13413389D02*
X9082681Y-13432436D01*
X9206491Y-13613389D02*
X9187443Y-13603865D01*
X9187443Y-13603865D02*
X9177919Y-13584817D01*
X9177919Y-13584817D02*
X9177919Y-13413389D01*
X9311253Y-13613389D02*
X9292205Y-13603865D01*
X9292205Y-13603865D02*
X9282681Y-13584817D01*
X9282681Y-13584817D02*
X9282681Y-13413389D01*
X9539824Y-13613389D02*
X9539824Y-13413389D01*
X9539824Y-13413389D02*
X9606491Y-13556246D01*
X9606491Y-13556246D02*
X9673158Y-13413389D01*
X9673158Y-13413389D02*
X9673158Y-13613389D01*
X9854110Y-13613389D02*
X9854110Y-13508627D01*
X9854110Y-13508627D02*
X9844586Y-13489579D01*
X9844586Y-13489579D02*
X9825539Y-13480055D01*
X9825539Y-13480055D02*
X9787443Y-13480055D01*
X9787443Y-13480055D02*
X9768396Y-13489579D01*
X9854110Y-13603865D02*
X9835062Y-13613389D01*
X9835062Y-13613389D02*
X9787443Y-13613389D01*
X9787443Y-13613389D02*
X9768396Y-13603865D01*
X9768396Y-13603865D02*
X9758872Y-13584817D01*
X9758872Y-13584817D02*
X9758872Y-13565770D01*
X9758872Y-13565770D02*
X9768396Y-13546722D01*
X9768396Y-13546722D02*
X9787443Y-13537198D01*
X9787443Y-13537198D02*
X9835062Y-13537198D01*
X9835062Y-13537198D02*
X9854110Y-13527674D01*
X9949348Y-13480055D02*
X9949348Y-13680055D01*
X9949348Y-13489579D02*
X9968396Y-13480055D01*
X9968396Y-13480055D02*
X10006491Y-13480055D01*
X10006491Y-13480055D02*
X10025539Y-13489579D01*
X10025539Y-13489579D02*
X10035062Y-13499103D01*
X10035062Y-13499103D02*
X10044586Y-13518151D01*
X10044586Y-13518151D02*
X10044586Y-13575293D01*
X10044586Y-13575293D02*
X10035062Y-13594341D01*
X10035062Y-13594341D02*
X10025539Y-13603865D01*
X10025539Y-13603865D02*
X10006491Y-13613389D01*
X10006491Y-13613389D02*
X9968396Y-13613389D01*
X9968396Y-13613389D02*
X9949348Y-13603865D01*
X10130300Y-13594341D02*
X10139824Y-13603865D01*
X10139824Y-13603865D02*
X10130300Y-13613389D01*
X10130300Y-13613389D02*
X10120777Y-13603865D01*
X10120777Y-13603865D02*
X10130300Y-13594341D01*
X10130300Y-13594341D02*
X10130300Y-13613389D01*
X10130300Y-13489579D02*
X10139824Y-13499103D01*
X10139824Y-13499103D02*
X10130300Y-13508627D01*
X10130300Y-13508627D02*
X10120777Y-13499103D01*
X10120777Y-13499103D02*
X10130300Y-13489579D01*
X10130300Y-13489579D02*
X10130300Y-13508627D01*
D12*
X8468095Y-13926905D02*
X8498095Y-13956905D01*
X8498095Y-13926905D02*
X8468095Y-13956905D01*
D11*
X8796967Y-13833389D02*
X8816015Y-13833389D01*
X8816015Y-13833389D02*
X8835062Y-13842913D01*
X8835062Y-13842913D02*
X8844586Y-13852436D01*
X8844586Y-13852436D02*
X8854110Y-13871484D01*
X8854110Y-13871484D02*
X8863634Y-13909579D01*
X8863634Y-13909579D02*
X8863634Y-13957198D01*
X8863634Y-13957198D02*
X8854110Y-13995293D01*
X8854110Y-13995293D02*
X8844586Y-14014341D01*
X8844586Y-14014341D02*
X8835062Y-14023865D01*
X8835062Y-14023865D02*
X8816015Y-14033389D01*
X8816015Y-14033389D02*
X8796967Y-14033389D01*
X8796967Y-14033389D02*
X8777919Y-14023865D01*
X8777919Y-14023865D02*
X8768396Y-14014341D01*
X8768396Y-14014341D02*
X8758872Y-13995293D01*
X8758872Y-13995293D02*
X8749348Y-13957198D01*
X8749348Y-13957198D02*
X8749348Y-13909579D01*
X8749348Y-13909579D02*
X8758872Y-13871484D01*
X8758872Y-13871484D02*
X8768396Y-13852436D01*
X8768396Y-13852436D02*
X8777919Y-13842913D01*
X8777919Y-13842913D02*
X8796967Y-13833389D01*
X8949348Y-14014341D02*
X8958872Y-14023865D01*
X8958872Y-14023865D02*
X8949348Y-14033389D01*
X8949348Y-14033389D02*
X8939824Y-14023865D01*
X8939824Y-14023865D02*
X8949348Y-14014341D01*
X8949348Y-14014341D02*
X8949348Y-14033389D01*
X9025539Y-13833389D02*
X9149348Y-13833389D01*
X9149348Y-13833389D02*
X9082681Y-13909579D01*
X9082681Y-13909579D02*
X9111253Y-13909579D01*
X9111253Y-13909579D02*
X9130300Y-13919103D01*
X9130300Y-13919103D02*
X9139824Y-13928627D01*
X9139824Y-13928627D02*
X9149348Y-13947674D01*
X9149348Y-13947674D02*
X9149348Y-13995293D01*
X9149348Y-13995293D02*
X9139824Y-14014341D01*
X9139824Y-14014341D02*
X9130300Y-14023865D01*
X9130300Y-14023865D02*
X9111253Y-14033389D01*
X9111253Y-14033389D02*
X9054110Y-14033389D01*
X9054110Y-14033389D02*
X9035062Y-14023865D01*
X9035062Y-14023865D02*
X9025539Y-14014341D01*
X9273158Y-13833389D02*
X9292205Y-13833389D01*
X9292205Y-13833389D02*
X9311253Y-13842913D01*
X9311253Y-13842913D02*
X9320777Y-13852436D01*
X9320777Y-13852436D02*
X9330300Y-13871484D01*
X9330300Y-13871484D02*
X9339824Y-13909579D01*
X9339824Y-13909579D02*
X9339824Y-13957198D01*
X9339824Y-13957198D02*
X9330300Y-13995293D01*
X9330300Y-13995293D02*
X9320777Y-14014341D01*
X9320777Y-14014341D02*
X9311253Y-14023865D01*
X9311253Y-14023865D02*
X9292205Y-14033389D01*
X9292205Y-14033389D02*
X9273158Y-14033389D01*
X9273158Y-14033389D02*
X9254110Y-14023865D01*
X9254110Y-14023865D02*
X9244586Y-14014341D01*
X9244586Y-14014341D02*
X9235062Y-13995293D01*
X9235062Y-13995293D02*
X9225539Y-13957198D01*
X9225539Y-13957198D02*
X9225539Y-13909579D01*
X9225539Y-13909579D02*
X9235062Y-13871484D01*
X9235062Y-13871484D02*
X9244586Y-13852436D01*
X9244586Y-13852436D02*
X9254110Y-13842913D01*
X9254110Y-13842913D02*
X9273158Y-13833389D01*
X9463634Y-13833389D02*
X9482681Y-13833389D01*
X9482681Y-13833389D02*
X9501729Y-13842913D01*
X9501729Y-13842913D02*
X9511253Y-13852436D01*
X9511253Y-13852436D02*
X9520777Y-13871484D01*
X9520777Y-13871484D02*
X9530300Y-13909579D01*
X9530300Y-13909579D02*
X9530300Y-13957198D01*
X9530300Y-13957198D02*
X9520777Y-13995293D01*
X9520777Y-13995293D02*
X9511253Y-14014341D01*
X9511253Y-14014341D02*
X9501729Y-14023865D01*
X9501729Y-14023865D02*
X9482681Y-14033389D01*
X9482681Y-14033389D02*
X9463634Y-14033389D01*
X9463634Y-14033389D02*
X9444586Y-14023865D01*
X9444586Y-14023865D02*
X9435062Y-14014341D01*
X9435062Y-14014341D02*
X9425539Y-13995293D01*
X9425539Y-13995293D02*
X9416015Y-13957198D01*
X9416015Y-13957198D02*
X9416015Y-13909579D01*
X9416015Y-13909579D02*
X9425539Y-13871484D01*
X9425539Y-13871484D02*
X9435062Y-13852436D01*
X9435062Y-13852436D02*
X9444586Y-13842913D01*
X9444586Y-13842913D02*
X9463634Y-13833389D01*
X9616015Y-14033389D02*
X9616015Y-13900055D01*
X9616015Y-13919103D02*
X9625539Y-13909579D01*
X9625539Y-13909579D02*
X9644586Y-13900055D01*
X9644586Y-13900055D02*
X9673158Y-13900055D01*
X9673158Y-13900055D02*
X9692205Y-13909579D01*
X9692205Y-13909579D02*
X9701729Y-13928627D01*
X9701729Y-13928627D02*
X9701729Y-14033389D01*
X9701729Y-13928627D02*
X9711253Y-13909579D01*
X9711253Y-13909579D02*
X9730300Y-13900055D01*
X9730300Y-13900055D02*
X9758872Y-13900055D01*
X9758872Y-13900055D02*
X9777920Y-13909579D01*
X9777920Y-13909579D02*
X9787443Y-13928627D01*
X9787443Y-13928627D02*
X9787443Y-14033389D01*
X9882681Y-14033389D02*
X9882681Y-13900055D01*
X9882681Y-13919103D02*
X9892205Y-13909579D01*
X9892205Y-13909579D02*
X9911253Y-13900055D01*
X9911253Y-13900055D02*
X9939824Y-13900055D01*
X9939824Y-13900055D02*
X9958872Y-13909579D01*
X9958872Y-13909579D02*
X9968396Y-13928627D01*
X9968396Y-13928627D02*
X9968396Y-14033389D01*
X9968396Y-13928627D02*
X9977920Y-13909579D01*
X9977920Y-13909579D02*
X9996967Y-13900055D01*
X9996967Y-13900055D02*
X10025539Y-13900055D01*
X10025539Y-13900055D02*
X10044586Y-13909579D01*
X10044586Y-13909579D02*
X10054110Y-13928627D01*
X10054110Y-13928627D02*
X10054110Y-14033389D01*
X10444586Y-13823865D02*
X10273158Y-14081008D01*
X10701729Y-13833389D02*
X10720777Y-13833389D01*
X10720777Y-13833389D02*
X10739824Y-13842913D01*
X10739824Y-13842913D02*
X10749348Y-13852436D01*
X10749348Y-13852436D02*
X10758872Y-13871484D01*
X10758872Y-13871484D02*
X10768396Y-13909579D01*
X10768396Y-13909579D02*
X10768396Y-13957198D01*
X10768396Y-13957198D02*
X10758872Y-13995293D01*
X10758872Y-13995293D02*
X10749348Y-14014341D01*
X10749348Y-14014341D02*
X10739824Y-14023865D01*
X10739824Y-14023865D02*
X10720777Y-14033389D01*
X10720777Y-14033389D02*
X10701729Y-14033389D01*
X10701729Y-14033389D02*
X10682682Y-14023865D01*
X10682682Y-14023865D02*
X10673158Y-14014341D01*
X10673158Y-14014341D02*
X10663634Y-13995293D01*
X10663634Y-13995293D02*
X10654110Y-13957198D01*
X10654110Y-13957198D02*
X10654110Y-13909579D01*
X10654110Y-13909579D02*
X10663634Y-13871484D01*
X10663634Y-13871484D02*
X10673158Y-13852436D01*
X10673158Y-13852436D02*
X10682682Y-13842913D01*
X10682682Y-13842913D02*
X10701729Y-13833389D01*
X10854110Y-14014341D02*
X10863634Y-14023865D01*
X10863634Y-14023865D02*
X10854110Y-14033389D01*
X10854110Y-14033389D02*
X10844586Y-14023865D01*
X10844586Y-14023865D02*
X10854110Y-14014341D01*
X10854110Y-14014341D02*
X10854110Y-14033389D01*
X10987443Y-13833389D02*
X11006491Y-13833389D01*
X11006491Y-13833389D02*
X11025539Y-13842913D01*
X11025539Y-13842913D02*
X11035063Y-13852436D01*
X11035063Y-13852436D02*
X11044586Y-13871484D01*
X11044586Y-13871484D02*
X11054110Y-13909579D01*
X11054110Y-13909579D02*
X11054110Y-13957198D01*
X11054110Y-13957198D02*
X11044586Y-13995293D01*
X11044586Y-13995293D02*
X11035063Y-14014341D01*
X11035063Y-14014341D02*
X11025539Y-14023865D01*
X11025539Y-14023865D02*
X11006491Y-14033389D01*
X11006491Y-14033389D02*
X10987443Y-14033389D01*
X10987443Y-14033389D02*
X10968396Y-14023865D01*
X10968396Y-14023865D02*
X10958872Y-14014341D01*
X10958872Y-14014341D02*
X10949348Y-13995293D01*
X10949348Y-13995293D02*
X10939824Y-13957198D01*
X10939824Y-13957198D02*
X10939824Y-13909579D01*
X10939824Y-13909579D02*
X10949348Y-13871484D01*
X10949348Y-13871484D02*
X10958872Y-13852436D01*
X10958872Y-13852436D02*
X10968396Y-13842913D01*
X10968396Y-13842913D02*
X10987443Y-13833389D01*
X11244586Y-14033389D02*
X11130301Y-14033389D01*
X11187443Y-14033389D02*
X11187443Y-13833389D01*
X11187443Y-13833389D02*
X11168396Y-13861960D01*
X11168396Y-13861960D02*
X11149348Y-13881008D01*
X11149348Y-13881008D02*
X11130301Y-13890532D01*
X11435062Y-14033389D02*
X11320777Y-14033389D01*
X11377920Y-14033389D02*
X11377920Y-13833389D01*
X11377920Y-13833389D02*
X11358872Y-13861960D01*
X11358872Y-13861960D02*
X11339824Y-13881008D01*
X11339824Y-13881008D02*
X11320777Y-13890532D01*
X11549348Y-13919103D02*
X11530301Y-13909579D01*
X11530301Y-13909579D02*
X11520777Y-13900055D01*
X11520777Y-13900055D02*
X11511253Y-13881008D01*
X11511253Y-13881008D02*
X11511253Y-13871484D01*
X11511253Y-13871484D02*
X11520777Y-13852436D01*
X11520777Y-13852436D02*
X11530301Y-13842913D01*
X11530301Y-13842913D02*
X11549348Y-13833389D01*
X11549348Y-13833389D02*
X11587443Y-13833389D01*
X11587443Y-13833389D02*
X11606491Y-13842913D01*
X11606491Y-13842913D02*
X11616015Y-13852436D01*
X11616015Y-13852436D02*
X11625539Y-13871484D01*
X11625539Y-13871484D02*
X11625539Y-13881008D01*
X11625539Y-13881008D02*
X11616015Y-13900055D01*
X11616015Y-13900055D02*
X11606491Y-13909579D01*
X11606491Y-13909579D02*
X11587443Y-13919103D01*
X11587443Y-13919103D02*
X11549348Y-13919103D01*
X11549348Y-13919103D02*
X11530301Y-13928627D01*
X11530301Y-13928627D02*
X11520777Y-13938151D01*
X11520777Y-13938151D02*
X11511253Y-13957198D01*
X11511253Y-13957198D02*
X11511253Y-13995293D01*
X11511253Y-13995293D02*
X11520777Y-14014341D01*
X11520777Y-14014341D02*
X11530301Y-14023865D01*
X11530301Y-14023865D02*
X11549348Y-14033389D01*
X11549348Y-14033389D02*
X11587443Y-14033389D01*
X11587443Y-14033389D02*
X11606491Y-14023865D01*
X11606491Y-14023865D02*
X11616015Y-14014341D01*
X11616015Y-14014341D02*
X11625539Y-13995293D01*
X11625539Y-13995293D02*
X11625539Y-13957198D01*
X11625539Y-13957198D02*
X11616015Y-13938151D01*
X11616015Y-13938151D02*
X11606491Y-13928627D01*
X11606491Y-13928627D02*
X11587443Y-13919103D01*
X11701729Y-13833389D02*
X11701729Y-13871484D01*
X11777920Y-13833389D02*
X11777920Y-13871484D01*
X12073158Y-14109579D02*
X12063634Y-14100055D01*
X12063634Y-14100055D02*
X12044586Y-14071484D01*
X12044586Y-14071484D02*
X12035063Y-14052436D01*
X12035063Y-14052436D02*
X12025539Y-14023865D01*
X12025539Y-14023865D02*
X12016015Y-13976246D01*
X12016015Y-13976246D02*
X12016015Y-13938151D01*
X12016015Y-13938151D02*
X12025539Y-13890532D01*
X12025539Y-13890532D02*
X12035063Y-13861960D01*
X12035063Y-13861960D02*
X12044586Y-13842913D01*
X12044586Y-13842913D02*
X12063634Y-13814341D01*
X12063634Y-13814341D02*
X12073158Y-13804817D01*
X12235063Y-13900055D02*
X12235063Y-14033389D01*
X12187443Y-13823865D02*
X12139824Y-13966722D01*
X12139824Y-13966722D02*
X12263634Y-13966722D01*
X12492205Y-14033389D02*
X12492205Y-13833389D01*
X12577920Y-14033389D02*
X12577920Y-13928627D01*
X12577920Y-13928627D02*
X12568396Y-13909579D01*
X12568396Y-13909579D02*
X12549348Y-13900055D01*
X12549348Y-13900055D02*
X12520777Y-13900055D01*
X12520777Y-13900055D02*
X12501729Y-13909579D01*
X12501729Y-13909579D02*
X12492205Y-13919103D01*
X12701729Y-14033389D02*
X12682682Y-14023865D01*
X12682682Y-14023865D02*
X12673158Y-14014341D01*
X12673158Y-14014341D02*
X12663634Y-13995293D01*
X12663634Y-13995293D02*
X12663634Y-13938151D01*
X12663634Y-13938151D02*
X12673158Y-13919103D01*
X12673158Y-13919103D02*
X12682682Y-13909579D01*
X12682682Y-13909579D02*
X12701729Y-13900055D01*
X12701729Y-13900055D02*
X12730301Y-13900055D01*
X12730301Y-13900055D02*
X12749348Y-13909579D01*
X12749348Y-13909579D02*
X12758872Y-13919103D01*
X12758872Y-13919103D02*
X12768396Y-13938151D01*
X12768396Y-13938151D02*
X12768396Y-13995293D01*
X12768396Y-13995293D02*
X12758872Y-14014341D01*
X12758872Y-14014341D02*
X12749348Y-14023865D01*
X12749348Y-14023865D02*
X12730301Y-14033389D01*
X12730301Y-14033389D02*
X12701729Y-14033389D01*
X12882682Y-14033389D02*
X12863634Y-14023865D01*
X12863634Y-14023865D02*
X12854110Y-14004817D01*
X12854110Y-14004817D02*
X12854110Y-13833389D01*
X13035063Y-14023865D02*
X13016015Y-14033389D01*
X13016015Y-14033389D02*
X12977920Y-14033389D01*
X12977920Y-14033389D02*
X12958872Y-14023865D01*
X12958872Y-14023865D02*
X12949348Y-14004817D01*
X12949348Y-14004817D02*
X12949348Y-13928627D01*
X12949348Y-13928627D02*
X12958872Y-13909579D01*
X12958872Y-13909579D02*
X12977920Y-13900055D01*
X12977920Y-13900055D02*
X13016015Y-13900055D01*
X13016015Y-13900055D02*
X13035063Y-13909579D01*
X13035063Y-13909579D02*
X13044586Y-13928627D01*
X13044586Y-13928627D02*
X13044586Y-13947674D01*
X13044586Y-13947674D02*
X12949348Y-13966722D01*
X13120777Y-14023865D02*
X13139825Y-14033389D01*
X13139825Y-14033389D02*
X13177920Y-14033389D01*
X13177920Y-14033389D02*
X13196967Y-14023865D01*
X13196967Y-14023865D02*
X13206491Y-14004817D01*
X13206491Y-14004817D02*
X13206491Y-13995293D01*
X13206491Y-13995293D02*
X13196967Y-13976246D01*
X13196967Y-13976246D02*
X13177920Y-13966722D01*
X13177920Y-13966722D02*
X13149348Y-13966722D01*
X13149348Y-13966722D02*
X13130301Y-13957198D01*
X13130301Y-13957198D02*
X13120777Y-13938151D01*
X13120777Y-13938151D02*
X13120777Y-13928627D01*
X13120777Y-13928627D02*
X13130301Y-13909579D01*
X13130301Y-13909579D02*
X13149348Y-13900055D01*
X13149348Y-13900055D02*
X13177920Y-13900055D01*
X13177920Y-13900055D02*
X13196967Y-13909579D01*
X13273158Y-14109579D02*
X13282682Y-14100055D01*
X13282682Y-14100055D02*
X13301729Y-14071484D01*
X13301729Y-14071484D02*
X13311253Y-14052436D01*
X13311253Y-14052436D02*
X13320777Y-14023865D01*
X13320777Y-14023865D02*
X13330301Y-13976246D01*
X13330301Y-13976246D02*
X13330301Y-13938151D01*
X13330301Y-13938151D02*
X13320777Y-13890532D01*
X13320777Y-13890532D02*
X13311253Y-13861960D01*
X13311253Y-13861960D02*
X13301729Y-13842913D01*
X13301729Y-13842913D02*
X13282682Y-13814341D01*
X13282682Y-13814341D02*
X13273158Y-13804817D01*
D12*
X8498095Y-14205905D02*
G75*
G02*
X8421895Y-14205905I-38100J0D01*
G01*
X8421895Y-14205905D02*
G75*
G02*
X8498095Y-14205905I38100J0D01*
G01*
D11*
X8796967Y-14097389D02*
X8816015Y-14097389D01*
X8816015Y-14097389D02*
X8835062Y-14106913D01*
X8835062Y-14106913D02*
X8844586Y-14116436D01*
X8844586Y-14116436D02*
X8854110Y-14135484D01*
X8854110Y-14135484D02*
X8863634Y-14173579D01*
X8863634Y-14173579D02*
X8863634Y-14221198D01*
X8863634Y-14221198D02*
X8854110Y-14259293D01*
X8854110Y-14259293D02*
X8844586Y-14278341D01*
X8844586Y-14278341D02*
X8835062Y-14287865D01*
X8835062Y-14287865D02*
X8816015Y-14297389D01*
X8816015Y-14297389D02*
X8796967Y-14297389D01*
X8796967Y-14297389D02*
X8777919Y-14287865D01*
X8777919Y-14287865D02*
X8768396Y-14278341D01*
X8768396Y-14278341D02*
X8758872Y-14259293D01*
X8758872Y-14259293D02*
X8749348Y-14221198D01*
X8749348Y-14221198D02*
X8749348Y-14173579D01*
X8749348Y-14173579D02*
X8758872Y-14135484D01*
X8758872Y-14135484D02*
X8768396Y-14116436D01*
X8768396Y-14116436D02*
X8777919Y-14106913D01*
X8777919Y-14106913D02*
X8796967Y-14097389D01*
X8949348Y-14278341D02*
X8958872Y-14287865D01*
X8958872Y-14287865D02*
X8949348Y-14297389D01*
X8949348Y-14297389D02*
X8939824Y-14287865D01*
X8939824Y-14287865D02*
X8949348Y-14278341D01*
X8949348Y-14278341D02*
X8949348Y-14297389D01*
X9025539Y-14097389D02*
X9158872Y-14097389D01*
X9158872Y-14097389D02*
X9073158Y-14297389D01*
X9320777Y-14097389D02*
X9282681Y-14097389D01*
X9282681Y-14097389D02*
X9263634Y-14106913D01*
X9263634Y-14106913D02*
X9254110Y-14116436D01*
X9254110Y-14116436D02*
X9235062Y-14145008D01*
X9235062Y-14145008D02*
X9225539Y-14183103D01*
X9225539Y-14183103D02*
X9225539Y-14259293D01*
X9225539Y-14259293D02*
X9235062Y-14278341D01*
X9235062Y-14278341D02*
X9244586Y-14287865D01*
X9244586Y-14287865D02*
X9263634Y-14297389D01*
X9263634Y-14297389D02*
X9301729Y-14297389D01*
X9301729Y-14297389D02*
X9320777Y-14287865D01*
X9320777Y-14287865D02*
X9330300Y-14278341D01*
X9330300Y-14278341D02*
X9339824Y-14259293D01*
X9339824Y-14259293D02*
X9339824Y-14211674D01*
X9339824Y-14211674D02*
X9330300Y-14192627D01*
X9330300Y-14192627D02*
X9320777Y-14183103D01*
X9320777Y-14183103D02*
X9301729Y-14173579D01*
X9301729Y-14173579D02*
X9263634Y-14173579D01*
X9263634Y-14173579D02*
X9244586Y-14183103D01*
X9244586Y-14183103D02*
X9235062Y-14192627D01*
X9235062Y-14192627D02*
X9225539Y-14211674D01*
X9416015Y-14116436D02*
X9425539Y-14106913D01*
X9425539Y-14106913D02*
X9444586Y-14097389D01*
X9444586Y-14097389D02*
X9492205Y-14097389D01*
X9492205Y-14097389D02*
X9511253Y-14106913D01*
X9511253Y-14106913D02*
X9520777Y-14116436D01*
X9520777Y-14116436D02*
X9530300Y-14135484D01*
X9530300Y-14135484D02*
X9530300Y-14154532D01*
X9530300Y-14154532D02*
X9520777Y-14183103D01*
X9520777Y-14183103D02*
X9406491Y-14297389D01*
X9406491Y-14297389D02*
X9530300Y-14297389D01*
X9616015Y-14297389D02*
X9616015Y-14164055D01*
X9616015Y-14183103D02*
X9625539Y-14173579D01*
X9625539Y-14173579D02*
X9644586Y-14164055D01*
X9644586Y-14164055D02*
X9673158Y-14164055D01*
X9673158Y-14164055D02*
X9692205Y-14173579D01*
X9692205Y-14173579D02*
X9701729Y-14192627D01*
X9701729Y-14192627D02*
X9701729Y-14297389D01*
X9701729Y-14192627D02*
X9711253Y-14173579D01*
X9711253Y-14173579D02*
X9730300Y-14164055D01*
X9730300Y-14164055D02*
X9758872Y-14164055D01*
X9758872Y-14164055D02*
X9777920Y-14173579D01*
X9777920Y-14173579D02*
X9787443Y-14192627D01*
X9787443Y-14192627D02*
X9787443Y-14297389D01*
X9882681Y-14297389D02*
X9882681Y-14164055D01*
X9882681Y-14183103D02*
X9892205Y-14173579D01*
X9892205Y-14173579D02*
X9911253Y-14164055D01*
X9911253Y-14164055D02*
X9939824Y-14164055D01*
X9939824Y-14164055D02*
X9958872Y-14173579D01*
X9958872Y-14173579D02*
X9968396Y-14192627D01*
X9968396Y-14192627D02*
X9968396Y-14297389D01*
X9968396Y-14192627D02*
X9977920Y-14173579D01*
X9977920Y-14173579D02*
X9996967Y-14164055D01*
X9996967Y-14164055D02*
X10025539Y-14164055D01*
X10025539Y-14164055D02*
X10044586Y-14173579D01*
X10044586Y-14173579D02*
X10054110Y-14192627D01*
X10054110Y-14192627D02*
X10054110Y-14297389D01*
X10444586Y-14087865D02*
X10273158Y-14345008D01*
X10701729Y-14097389D02*
X10720777Y-14097389D01*
X10720777Y-14097389D02*
X10739824Y-14106913D01*
X10739824Y-14106913D02*
X10749348Y-14116436D01*
X10749348Y-14116436D02*
X10758872Y-14135484D01*
X10758872Y-14135484D02*
X10768396Y-14173579D01*
X10768396Y-14173579D02*
X10768396Y-14221198D01*
X10768396Y-14221198D02*
X10758872Y-14259293D01*
X10758872Y-14259293D02*
X10749348Y-14278341D01*
X10749348Y-14278341D02*
X10739824Y-14287865D01*
X10739824Y-14287865D02*
X10720777Y-14297389D01*
X10720777Y-14297389D02*
X10701729Y-14297389D01*
X10701729Y-14297389D02*
X10682682Y-14287865D01*
X10682682Y-14287865D02*
X10673158Y-14278341D01*
X10673158Y-14278341D02*
X10663634Y-14259293D01*
X10663634Y-14259293D02*
X10654110Y-14221198D01*
X10654110Y-14221198D02*
X10654110Y-14173579D01*
X10654110Y-14173579D02*
X10663634Y-14135484D01*
X10663634Y-14135484D02*
X10673158Y-14116436D01*
X10673158Y-14116436D02*
X10682682Y-14106913D01*
X10682682Y-14106913D02*
X10701729Y-14097389D01*
X10854110Y-14278341D02*
X10863634Y-14287865D01*
X10863634Y-14287865D02*
X10854110Y-14297389D01*
X10854110Y-14297389D02*
X10844586Y-14287865D01*
X10844586Y-14287865D02*
X10854110Y-14278341D01*
X10854110Y-14278341D02*
X10854110Y-14297389D01*
X10987443Y-14097389D02*
X11006491Y-14097389D01*
X11006491Y-14097389D02*
X11025539Y-14106913D01*
X11025539Y-14106913D02*
X11035063Y-14116436D01*
X11035063Y-14116436D02*
X11044586Y-14135484D01*
X11044586Y-14135484D02*
X11054110Y-14173579D01*
X11054110Y-14173579D02*
X11054110Y-14221198D01*
X11054110Y-14221198D02*
X11044586Y-14259293D01*
X11044586Y-14259293D02*
X11035063Y-14278341D01*
X11035063Y-14278341D02*
X11025539Y-14287865D01*
X11025539Y-14287865D02*
X11006491Y-14297389D01*
X11006491Y-14297389D02*
X10987443Y-14297389D01*
X10987443Y-14297389D02*
X10968396Y-14287865D01*
X10968396Y-14287865D02*
X10958872Y-14278341D01*
X10958872Y-14278341D02*
X10949348Y-14259293D01*
X10949348Y-14259293D02*
X10939824Y-14221198D01*
X10939824Y-14221198D02*
X10939824Y-14173579D01*
X10939824Y-14173579D02*
X10949348Y-14135484D01*
X10949348Y-14135484D02*
X10958872Y-14116436D01*
X10958872Y-14116436D02*
X10968396Y-14106913D01*
X10968396Y-14106913D02*
X10987443Y-14097389D01*
X11120777Y-14097389D02*
X11244586Y-14097389D01*
X11244586Y-14097389D02*
X11177920Y-14173579D01*
X11177920Y-14173579D02*
X11206491Y-14173579D01*
X11206491Y-14173579D02*
X11225539Y-14183103D01*
X11225539Y-14183103D02*
X11235062Y-14192627D01*
X11235062Y-14192627D02*
X11244586Y-14211674D01*
X11244586Y-14211674D02*
X11244586Y-14259293D01*
X11244586Y-14259293D02*
X11235062Y-14278341D01*
X11235062Y-14278341D02*
X11225539Y-14287865D01*
X11225539Y-14287865D02*
X11206491Y-14297389D01*
X11206491Y-14297389D02*
X11149348Y-14297389D01*
X11149348Y-14297389D02*
X11130301Y-14287865D01*
X11130301Y-14287865D02*
X11120777Y-14278341D01*
X11368396Y-14097389D02*
X11387443Y-14097389D01*
X11387443Y-14097389D02*
X11406491Y-14106913D01*
X11406491Y-14106913D02*
X11416015Y-14116436D01*
X11416015Y-14116436D02*
X11425539Y-14135484D01*
X11425539Y-14135484D02*
X11435062Y-14173579D01*
X11435062Y-14173579D02*
X11435062Y-14221198D01*
X11435062Y-14221198D02*
X11425539Y-14259293D01*
X11425539Y-14259293D02*
X11416015Y-14278341D01*
X11416015Y-14278341D02*
X11406491Y-14287865D01*
X11406491Y-14287865D02*
X11387443Y-14297389D01*
X11387443Y-14297389D02*
X11368396Y-14297389D01*
X11368396Y-14297389D02*
X11349348Y-14287865D01*
X11349348Y-14287865D02*
X11339824Y-14278341D01*
X11339824Y-14278341D02*
X11330301Y-14259293D01*
X11330301Y-14259293D02*
X11320777Y-14221198D01*
X11320777Y-14221198D02*
X11320777Y-14173579D01*
X11320777Y-14173579D02*
X11330301Y-14135484D01*
X11330301Y-14135484D02*
X11339824Y-14116436D01*
X11339824Y-14116436D02*
X11349348Y-14106913D01*
X11349348Y-14106913D02*
X11368396Y-14097389D01*
X11558872Y-14097389D02*
X11577920Y-14097389D01*
X11577920Y-14097389D02*
X11596967Y-14106913D01*
X11596967Y-14106913D02*
X11606491Y-14116436D01*
X11606491Y-14116436D02*
X11616015Y-14135484D01*
X11616015Y-14135484D02*
X11625539Y-14173579D01*
X11625539Y-14173579D02*
X11625539Y-14221198D01*
X11625539Y-14221198D02*
X11616015Y-14259293D01*
X11616015Y-14259293D02*
X11606491Y-14278341D01*
X11606491Y-14278341D02*
X11596967Y-14287865D01*
X11596967Y-14287865D02*
X11577920Y-14297389D01*
X11577920Y-14297389D02*
X11558872Y-14297389D01*
X11558872Y-14297389D02*
X11539824Y-14287865D01*
X11539824Y-14287865D02*
X11530301Y-14278341D01*
X11530301Y-14278341D02*
X11520777Y-14259293D01*
X11520777Y-14259293D02*
X11511253Y-14221198D01*
X11511253Y-14221198D02*
X11511253Y-14173579D01*
X11511253Y-14173579D02*
X11520777Y-14135484D01*
X11520777Y-14135484D02*
X11530301Y-14116436D01*
X11530301Y-14116436D02*
X11539824Y-14106913D01*
X11539824Y-14106913D02*
X11558872Y-14097389D01*
X11701729Y-14097389D02*
X11701729Y-14135484D01*
X11777920Y-14097389D02*
X11777920Y-14135484D01*
X12073158Y-14373579D02*
X12063634Y-14364055D01*
X12063634Y-14364055D02*
X12044586Y-14335484D01*
X12044586Y-14335484D02*
X12035063Y-14316436D01*
X12035063Y-14316436D02*
X12025539Y-14287865D01*
X12025539Y-14287865D02*
X12016015Y-14240246D01*
X12016015Y-14240246D02*
X12016015Y-14202151D01*
X12016015Y-14202151D02*
X12025539Y-14154532D01*
X12025539Y-14154532D02*
X12035063Y-14125960D01*
X12035063Y-14125960D02*
X12044586Y-14106913D01*
X12044586Y-14106913D02*
X12063634Y-14078341D01*
X12063634Y-14078341D02*
X12073158Y-14068817D01*
X12158872Y-14297389D02*
X12196967Y-14297389D01*
X12196967Y-14297389D02*
X12216015Y-14287865D01*
X12216015Y-14287865D02*
X12225539Y-14278341D01*
X12225539Y-14278341D02*
X12244586Y-14249770D01*
X12244586Y-14249770D02*
X12254110Y-14211674D01*
X12254110Y-14211674D02*
X12254110Y-14135484D01*
X12254110Y-14135484D02*
X12244586Y-14116436D01*
X12244586Y-14116436D02*
X12235063Y-14106913D01*
X12235063Y-14106913D02*
X12216015Y-14097389D01*
X12216015Y-14097389D02*
X12177920Y-14097389D01*
X12177920Y-14097389D02*
X12158872Y-14106913D01*
X12158872Y-14106913D02*
X12149348Y-14116436D01*
X12149348Y-14116436D02*
X12139824Y-14135484D01*
X12139824Y-14135484D02*
X12139824Y-14183103D01*
X12139824Y-14183103D02*
X12149348Y-14202151D01*
X12149348Y-14202151D02*
X12158872Y-14211674D01*
X12158872Y-14211674D02*
X12177920Y-14221198D01*
X12177920Y-14221198D02*
X12216015Y-14221198D01*
X12216015Y-14221198D02*
X12235063Y-14211674D01*
X12235063Y-14211674D02*
X12244586Y-14202151D01*
X12244586Y-14202151D02*
X12254110Y-14183103D01*
X12492205Y-14297389D02*
X12492205Y-14097389D01*
X12577920Y-14297389D02*
X12577920Y-14192627D01*
X12577920Y-14192627D02*
X12568396Y-14173579D01*
X12568396Y-14173579D02*
X12549348Y-14164055D01*
X12549348Y-14164055D02*
X12520777Y-14164055D01*
X12520777Y-14164055D02*
X12501729Y-14173579D01*
X12501729Y-14173579D02*
X12492205Y-14183103D01*
X12701729Y-14297389D02*
X12682682Y-14287865D01*
X12682682Y-14287865D02*
X12673158Y-14278341D01*
X12673158Y-14278341D02*
X12663634Y-14259293D01*
X12663634Y-14259293D02*
X12663634Y-14202151D01*
X12663634Y-14202151D02*
X12673158Y-14183103D01*
X12673158Y-14183103D02*
X12682682Y-14173579D01*
X12682682Y-14173579D02*
X12701729Y-14164055D01*
X12701729Y-14164055D02*
X12730301Y-14164055D01*
X12730301Y-14164055D02*
X12749348Y-14173579D01*
X12749348Y-14173579D02*
X12758872Y-14183103D01*
X12758872Y-14183103D02*
X12768396Y-14202151D01*
X12768396Y-14202151D02*
X12768396Y-14259293D01*
X12768396Y-14259293D02*
X12758872Y-14278341D01*
X12758872Y-14278341D02*
X12749348Y-14287865D01*
X12749348Y-14287865D02*
X12730301Y-14297389D01*
X12730301Y-14297389D02*
X12701729Y-14297389D01*
X12882682Y-14297389D02*
X12863634Y-14287865D01*
X12863634Y-14287865D02*
X12854110Y-14268817D01*
X12854110Y-14268817D02*
X12854110Y-14097389D01*
X13035063Y-14287865D02*
X13016015Y-14297389D01*
X13016015Y-14297389D02*
X12977920Y-14297389D01*
X12977920Y-14297389D02*
X12958872Y-14287865D01*
X12958872Y-14287865D02*
X12949348Y-14268817D01*
X12949348Y-14268817D02*
X12949348Y-14192627D01*
X12949348Y-14192627D02*
X12958872Y-14173579D01*
X12958872Y-14173579D02*
X12977920Y-14164055D01*
X12977920Y-14164055D02*
X13016015Y-14164055D01*
X13016015Y-14164055D02*
X13035063Y-14173579D01*
X13035063Y-14173579D02*
X13044586Y-14192627D01*
X13044586Y-14192627D02*
X13044586Y-14211674D01*
X13044586Y-14211674D02*
X12949348Y-14230722D01*
X13120777Y-14287865D02*
X13139825Y-14297389D01*
X13139825Y-14297389D02*
X13177920Y-14297389D01*
X13177920Y-14297389D02*
X13196967Y-14287865D01*
X13196967Y-14287865D02*
X13206491Y-14268817D01*
X13206491Y-14268817D02*
X13206491Y-14259293D01*
X13206491Y-14259293D02*
X13196967Y-14240246D01*
X13196967Y-14240246D02*
X13177920Y-14230722D01*
X13177920Y-14230722D02*
X13149348Y-14230722D01*
X13149348Y-14230722D02*
X13130301Y-14221198D01*
X13130301Y-14221198D02*
X13120777Y-14202151D01*
X13120777Y-14202151D02*
X13120777Y-14192627D01*
X13120777Y-14192627D02*
X13130301Y-14173579D01*
X13130301Y-14173579D02*
X13149348Y-14164055D01*
X13149348Y-14164055D02*
X13177920Y-14164055D01*
X13177920Y-14164055D02*
X13196967Y-14173579D01*
X13273158Y-14373579D02*
X13282682Y-14364055D01*
X13282682Y-14364055D02*
X13301729Y-14335484D01*
X13301729Y-14335484D02*
X13311253Y-14316436D01*
X13311253Y-14316436D02*
X13320777Y-14287865D01*
X13320777Y-14287865D02*
X13330301Y-14240246D01*
X13330301Y-14240246D02*
X13330301Y-14202151D01*
X13330301Y-14202151D02*
X13320777Y-14154532D01*
X13320777Y-14154532D02*
X13311253Y-14125960D01*
X13311253Y-14125960D02*
X13301729Y-14106913D01*
X13301729Y-14106913D02*
X13282682Y-14078341D01*
X13282682Y-14078341D02*
X13273158Y-14068817D01*
D12*
X8458095Y-14429905D02*
X8458095Y-14509905D01*
X8418095Y-14469905D02*
X8498095Y-14469905D01*
D11*
X8796967Y-14361389D02*
X8816015Y-14361389D01*
X8816015Y-14361389D02*
X8835062Y-14370913D01*
X8835062Y-14370913D02*
X8844586Y-14380436D01*
X8844586Y-14380436D02*
X8854110Y-14399484D01*
X8854110Y-14399484D02*
X8863634Y-14437579D01*
X8863634Y-14437579D02*
X8863634Y-14485198D01*
X8863634Y-14485198D02*
X8854110Y-14523293D01*
X8854110Y-14523293D02*
X8844586Y-14542341D01*
X8844586Y-14542341D02*
X8835062Y-14551865D01*
X8835062Y-14551865D02*
X8816015Y-14561389D01*
X8816015Y-14561389D02*
X8796967Y-14561389D01*
X8796967Y-14561389D02*
X8777919Y-14551865D01*
X8777919Y-14551865D02*
X8768396Y-14542341D01*
X8768396Y-14542341D02*
X8758872Y-14523293D01*
X8758872Y-14523293D02*
X8749348Y-14485198D01*
X8749348Y-14485198D02*
X8749348Y-14437579D01*
X8749348Y-14437579D02*
X8758872Y-14399484D01*
X8758872Y-14399484D02*
X8768396Y-14380436D01*
X8768396Y-14380436D02*
X8777919Y-14370913D01*
X8777919Y-14370913D02*
X8796967Y-14361389D01*
X8949348Y-14542341D02*
X8958872Y-14551865D01*
X8958872Y-14551865D02*
X8949348Y-14561389D01*
X8949348Y-14561389D02*
X8939824Y-14551865D01*
X8939824Y-14551865D02*
X8949348Y-14542341D01*
X8949348Y-14542341D02*
X8949348Y-14561389D01*
X9073158Y-14447103D02*
X9054110Y-14437579D01*
X9054110Y-14437579D02*
X9044586Y-14428055D01*
X9044586Y-14428055D02*
X9035062Y-14409008D01*
X9035062Y-14409008D02*
X9035062Y-14399484D01*
X9035062Y-14399484D02*
X9044586Y-14380436D01*
X9044586Y-14380436D02*
X9054110Y-14370913D01*
X9054110Y-14370913D02*
X9073158Y-14361389D01*
X9073158Y-14361389D02*
X9111253Y-14361389D01*
X9111253Y-14361389D02*
X9130300Y-14370913D01*
X9130300Y-14370913D02*
X9139824Y-14380436D01*
X9139824Y-14380436D02*
X9149348Y-14399484D01*
X9149348Y-14399484D02*
X9149348Y-14409008D01*
X9149348Y-14409008D02*
X9139824Y-14428055D01*
X9139824Y-14428055D02*
X9130300Y-14437579D01*
X9130300Y-14437579D02*
X9111253Y-14447103D01*
X9111253Y-14447103D02*
X9073158Y-14447103D01*
X9073158Y-14447103D02*
X9054110Y-14456627D01*
X9054110Y-14456627D02*
X9044586Y-14466151D01*
X9044586Y-14466151D02*
X9035062Y-14485198D01*
X9035062Y-14485198D02*
X9035062Y-14523293D01*
X9035062Y-14523293D02*
X9044586Y-14542341D01*
X9044586Y-14542341D02*
X9054110Y-14551865D01*
X9054110Y-14551865D02*
X9073158Y-14561389D01*
X9073158Y-14561389D02*
X9111253Y-14561389D01*
X9111253Y-14561389D02*
X9130300Y-14551865D01*
X9130300Y-14551865D02*
X9139824Y-14542341D01*
X9139824Y-14542341D02*
X9149348Y-14523293D01*
X9149348Y-14523293D02*
X9149348Y-14485198D01*
X9149348Y-14485198D02*
X9139824Y-14466151D01*
X9139824Y-14466151D02*
X9130300Y-14456627D01*
X9130300Y-14456627D02*
X9111253Y-14447103D01*
X9273158Y-14361389D02*
X9292205Y-14361389D01*
X9292205Y-14361389D02*
X9311253Y-14370913D01*
X9311253Y-14370913D02*
X9320777Y-14380436D01*
X9320777Y-14380436D02*
X9330300Y-14399484D01*
X9330300Y-14399484D02*
X9339824Y-14437579D01*
X9339824Y-14437579D02*
X9339824Y-14485198D01*
X9339824Y-14485198D02*
X9330300Y-14523293D01*
X9330300Y-14523293D02*
X9320777Y-14542341D01*
X9320777Y-14542341D02*
X9311253Y-14551865D01*
X9311253Y-14551865D02*
X9292205Y-14561389D01*
X9292205Y-14561389D02*
X9273158Y-14561389D01*
X9273158Y-14561389D02*
X9254110Y-14551865D01*
X9254110Y-14551865D02*
X9244586Y-14542341D01*
X9244586Y-14542341D02*
X9235062Y-14523293D01*
X9235062Y-14523293D02*
X9225539Y-14485198D01*
X9225539Y-14485198D02*
X9225539Y-14437579D01*
X9225539Y-14437579D02*
X9235062Y-14399484D01*
X9235062Y-14399484D02*
X9244586Y-14380436D01*
X9244586Y-14380436D02*
X9254110Y-14370913D01*
X9254110Y-14370913D02*
X9273158Y-14361389D01*
X9463634Y-14361389D02*
X9482681Y-14361389D01*
X9482681Y-14361389D02*
X9501729Y-14370913D01*
X9501729Y-14370913D02*
X9511253Y-14380436D01*
X9511253Y-14380436D02*
X9520777Y-14399484D01*
X9520777Y-14399484D02*
X9530300Y-14437579D01*
X9530300Y-14437579D02*
X9530300Y-14485198D01*
X9530300Y-14485198D02*
X9520777Y-14523293D01*
X9520777Y-14523293D02*
X9511253Y-14542341D01*
X9511253Y-14542341D02*
X9501729Y-14551865D01*
X9501729Y-14551865D02*
X9482681Y-14561389D01*
X9482681Y-14561389D02*
X9463634Y-14561389D01*
X9463634Y-14561389D02*
X9444586Y-14551865D01*
X9444586Y-14551865D02*
X9435062Y-14542341D01*
X9435062Y-14542341D02*
X9425539Y-14523293D01*
X9425539Y-14523293D02*
X9416015Y-14485198D01*
X9416015Y-14485198D02*
X9416015Y-14437579D01*
X9416015Y-14437579D02*
X9425539Y-14399484D01*
X9425539Y-14399484D02*
X9435062Y-14380436D01*
X9435062Y-14380436D02*
X9444586Y-14370913D01*
X9444586Y-14370913D02*
X9463634Y-14361389D01*
X9616015Y-14561389D02*
X9616015Y-14428055D01*
X9616015Y-14447103D02*
X9625539Y-14437579D01*
X9625539Y-14437579D02*
X9644586Y-14428055D01*
X9644586Y-14428055D02*
X9673158Y-14428055D01*
X9673158Y-14428055D02*
X9692205Y-14437579D01*
X9692205Y-14437579D02*
X9701729Y-14456627D01*
X9701729Y-14456627D02*
X9701729Y-14561389D01*
X9701729Y-14456627D02*
X9711253Y-14437579D01*
X9711253Y-14437579D02*
X9730300Y-14428055D01*
X9730300Y-14428055D02*
X9758872Y-14428055D01*
X9758872Y-14428055D02*
X9777920Y-14437579D01*
X9777920Y-14437579D02*
X9787443Y-14456627D01*
X9787443Y-14456627D02*
X9787443Y-14561389D01*
X9882681Y-14561389D02*
X9882681Y-14428055D01*
X9882681Y-14447103D02*
X9892205Y-14437579D01*
X9892205Y-14437579D02*
X9911253Y-14428055D01*
X9911253Y-14428055D02*
X9939824Y-14428055D01*
X9939824Y-14428055D02*
X9958872Y-14437579D01*
X9958872Y-14437579D02*
X9968396Y-14456627D01*
X9968396Y-14456627D02*
X9968396Y-14561389D01*
X9968396Y-14456627D02*
X9977920Y-14437579D01*
X9977920Y-14437579D02*
X9996967Y-14428055D01*
X9996967Y-14428055D02*
X10025539Y-14428055D01*
X10025539Y-14428055D02*
X10044586Y-14437579D01*
X10044586Y-14437579D02*
X10054110Y-14456627D01*
X10054110Y-14456627D02*
X10054110Y-14561389D01*
X10444586Y-14351865D02*
X10273158Y-14609008D01*
X10701729Y-14361389D02*
X10720777Y-14361389D01*
X10720777Y-14361389D02*
X10739824Y-14370913D01*
X10739824Y-14370913D02*
X10749348Y-14380436D01*
X10749348Y-14380436D02*
X10758872Y-14399484D01*
X10758872Y-14399484D02*
X10768396Y-14437579D01*
X10768396Y-14437579D02*
X10768396Y-14485198D01*
X10768396Y-14485198D02*
X10758872Y-14523293D01*
X10758872Y-14523293D02*
X10749348Y-14542341D01*
X10749348Y-14542341D02*
X10739824Y-14551865D01*
X10739824Y-14551865D02*
X10720777Y-14561389D01*
X10720777Y-14561389D02*
X10701729Y-14561389D01*
X10701729Y-14561389D02*
X10682682Y-14551865D01*
X10682682Y-14551865D02*
X10673158Y-14542341D01*
X10673158Y-14542341D02*
X10663634Y-14523293D01*
X10663634Y-14523293D02*
X10654110Y-14485198D01*
X10654110Y-14485198D02*
X10654110Y-14437579D01*
X10654110Y-14437579D02*
X10663634Y-14399484D01*
X10663634Y-14399484D02*
X10673158Y-14380436D01*
X10673158Y-14380436D02*
X10682682Y-14370913D01*
X10682682Y-14370913D02*
X10701729Y-14361389D01*
X10854110Y-14542341D02*
X10863634Y-14551865D01*
X10863634Y-14551865D02*
X10854110Y-14561389D01*
X10854110Y-14561389D02*
X10844586Y-14551865D01*
X10844586Y-14551865D02*
X10854110Y-14542341D01*
X10854110Y-14542341D02*
X10854110Y-14561389D01*
X10987443Y-14361389D02*
X11006491Y-14361389D01*
X11006491Y-14361389D02*
X11025539Y-14370913D01*
X11025539Y-14370913D02*
X11035063Y-14380436D01*
X11035063Y-14380436D02*
X11044586Y-14399484D01*
X11044586Y-14399484D02*
X11054110Y-14437579D01*
X11054110Y-14437579D02*
X11054110Y-14485198D01*
X11054110Y-14485198D02*
X11044586Y-14523293D01*
X11044586Y-14523293D02*
X11035063Y-14542341D01*
X11035063Y-14542341D02*
X11025539Y-14551865D01*
X11025539Y-14551865D02*
X11006491Y-14561389D01*
X11006491Y-14561389D02*
X10987443Y-14561389D01*
X10987443Y-14561389D02*
X10968396Y-14551865D01*
X10968396Y-14551865D02*
X10958872Y-14542341D01*
X10958872Y-14542341D02*
X10949348Y-14523293D01*
X10949348Y-14523293D02*
X10939824Y-14485198D01*
X10939824Y-14485198D02*
X10939824Y-14437579D01*
X10939824Y-14437579D02*
X10949348Y-14399484D01*
X10949348Y-14399484D02*
X10958872Y-14380436D01*
X10958872Y-14380436D02*
X10968396Y-14370913D01*
X10968396Y-14370913D02*
X10987443Y-14361389D01*
X11120777Y-14361389D02*
X11244586Y-14361389D01*
X11244586Y-14361389D02*
X11177920Y-14437579D01*
X11177920Y-14437579D02*
X11206491Y-14437579D01*
X11206491Y-14437579D02*
X11225539Y-14447103D01*
X11225539Y-14447103D02*
X11235062Y-14456627D01*
X11235062Y-14456627D02*
X11244586Y-14475674D01*
X11244586Y-14475674D02*
X11244586Y-14523293D01*
X11244586Y-14523293D02*
X11235062Y-14542341D01*
X11235062Y-14542341D02*
X11225539Y-14551865D01*
X11225539Y-14551865D02*
X11206491Y-14561389D01*
X11206491Y-14561389D02*
X11149348Y-14561389D01*
X11149348Y-14561389D02*
X11130301Y-14551865D01*
X11130301Y-14551865D02*
X11120777Y-14542341D01*
X11435062Y-14561389D02*
X11320777Y-14561389D01*
X11377920Y-14561389D02*
X11377920Y-14361389D01*
X11377920Y-14361389D02*
X11358872Y-14389960D01*
X11358872Y-14389960D02*
X11339824Y-14409008D01*
X11339824Y-14409008D02*
X11320777Y-14418532D01*
X11616015Y-14361389D02*
X11520777Y-14361389D01*
X11520777Y-14361389D02*
X11511253Y-14456627D01*
X11511253Y-14456627D02*
X11520777Y-14447103D01*
X11520777Y-14447103D02*
X11539824Y-14437579D01*
X11539824Y-14437579D02*
X11587443Y-14437579D01*
X11587443Y-14437579D02*
X11606491Y-14447103D01*
X11606491Y-14447103D02*
X11616015Y-14456627D01*
X11616015Y-14456627D02*
X11625539Y-14475674D01*
X11625539Y-14475674D02*
X11625539Y-14523293D01*
X11625539Y-14523293D02*
X11616015Y-14542341D01*
X11616015Y-14542341D02*
X11606491Y-14551865D01*
X11606491Y-14551865D02*
X11587443Y-14561389D01*
X11587443Y-14561389D02*
X11539824Y-14561389D01*
X11539824Y-14561389D02*
X11520777Y-14551865D01*
X11520777Y-14551865D02*
X11511253Y-14542341D01*
X11701729Y-14361389D02*
X11701729Y-14399484D01*
X11777920Y-14361389D02*
X11777920Y-14399484D01*
X12073158Y-14637579D02*
X12063634Y-14628055D01*
X12063634Y-14628055D02*
X12044586Y-14599484D01*
X12044586Y-14599484D02*
X12035063Y-14580436D01*
X12035063Y-14580436D02*
X12025539Y-14551865D01*
X12025539Y-14551865D02*
X12016015Y-14504246D01*
X12016015Y-14504246D02*
X12016015Y-14466151D01*
X12016015Y-14466151D02*
X12025539Y-14418532D01*
X12025539Y-14418532D02*
X12035063Y-14389960D01*
X12035063Y-14389960D02*
X12044586Y-14370913D01*
X12044586Y-14370913D02*
X12063634Y-14342341D01*
X12063634Y-14342341D02*
X12073158Y-14332817D01*
X12254110Y-14561389D02*
X12139824Y-14561389D01*
X12196967Y-14561389D02*
X12196967Y-14361389D01*
X12196967Y-14361389D02*
X12177920Y-14389960D01*
X12177920Y-14389960D02*
X12158872Y-14409008D01*
X12158872Y-14409008D02*
X12139824Y-14418532D01*
X12425539Y-14428055D02*
X12425539Y-14561389D01*
X12377920Y-14351865D02*
X12330301Y-14494722D01*
X12330301Y-14494722D02*
X12454110Y-14494722D01*
X12682682Y-14561389D02*
X12682682Y-14361389D01*
X12768396Y-14561389D02*
X12768396Y-14456627D01*
X12768396Y-14456627D02*
X12758872Y-14437579D01*
X12758872Y-14437579D02*
X12739825Y-14428055D01*
X12739825Y-14428055D02*
X12711253Y-14428055D01*
X12711253Y-14428055D02*
X12692205Y-14437579D01*
X12692205Y-14437579D02*
X12682682Y-14447103D01*
X12892205Y-14561389D02*
X12873158Y-14551865D01*
X12873158Y-14551865D02*
X12863634Y-14542341D01*
X12863634Y-14542341D02*
X12854110Y-14523293D01*
X12854110Y-14523293D02*
X12854110Y-14466151D01*
X12854110Y-14466151D02*
X12863634Y-14447103D01*
X12863634Y-14447103D02*
X12873158Y-14437579D01*
X12873158Y-14437579D02*
X12892205Y-14428055D01*
X12892205Y-14428055D02*
X12920777Y-14428055D01*
X12920777Y-14428055D02*
X12939825Y-14437579D01*
X12939825Y-14437579D02*
X12949348Y-14447103D01*
X12949348Y-14447103D02*
X12958872Y-14466151D01*
X12958872Y-14466151D02*
X12958872Y-14523293D01*
X12958872Y-14523293D02*
X12949348Y-14542341D01*
X12949348Y-14542341D02*
X12939825Y-14551865D01*
X12939825Y-14551865D02*
X12920777Y-14561389D01*
X12920777Y-14561389D02*
X12892205Y-14561389D01*
X13073158Y-14561389D02*
X13054110Y-14551865D01*
X13054110Y-14551865D02*
X13044586Y-14532817D01*
X13044586Y-14532817D02*
X13044586Y-14361389D01*
X13225539Y-14551865D02*
X13206491Y-14561389D01*
X13206491Y-14561389D02*
X13168396Y-14561389D01*
X13168396Y-14561389D02*
X13149348Y-14551865D01*
X13149348Y-14551865D02*
X13139825Y-14532817D01*
X13139825Y-14532817D02*
X13139825Y-14456627D01*
X13139825Y-14456627D02*
X13149348Y-14437579D01*
X13149348Y-14437579D02*
X13168396Y-14428055D01*
X13168396Y-14428055D02*
X13206491Y-14428055D01*
X13206491Y-14428055D02*
X13225539Y-14437579D01*
X13225539Y-14437579D02*
X13235063Y-14456627D01*
X13235063Y-14456627D02*
X13235063Y-14475674D01*
X13235063Y-14475674D02*
X13139825Y-14494722D01*
X13311253Y-14551865D02*
X13330301Y-14561389D01*
X13330301Y-14561389D02*
X13368396Y-14561389D01*
X13368396Y-14561389D02*
X13387444Y-14551865D01*
X13387444Y-14551865D02*
X13396967Y-14532817D01*
X13396967Y-14532817D02*
X13396967Y-14523293D01*
X13396967Y-14523293D02*
X13387444Y-14504246D01*
X13387444Y-14504246D02*
X13368396Y-14494722D01*
X13368396Y-14494722D02*
X13339825Y-14494722D01*
X13339825Y-14494722D02*
X13320777Y-14485198D01*
X13320777Y-14485198D02*
X13311253Y-14466151D01*
X13311253Y-14466151D02*
X13311253Y-14456627D01*
X13311253Y-14456627D02*
X13320777Y-14437579D01*
X13320777Y-14437579D02*
X13339825Y-14428055D01*
X13339825Y-14428055D02*
X13368396Y-14428055D01*
X13368396Y-14428055D02*
X13387444Y-14437579D01*
X13463634Y-14637579D02*
X13473158Y-14628055D01*
X13473158Y-14628055D02*
X13492206Y-14599484D01*
X13492206Y-14599484D02*
X13501729Y-14580436D01*
X13501729Y-14580436D02*
X13511253Y-14551865D01*
X13511253Y-14551865D02*
X13520777Y-14504246D01*
X13520777Y-14504246D02*
X13520777Y-14466151D01*
X13520777Y-14466151D02*
X13511253Y-14418532D01*
X13511253Y-14418532D02*
X13501729Y-14389960D01*
X13501729Y-14389960D02*
X13492206Y-14370913D01*
X13492206Y-14370913D02*
X13473158Y-14342341D01*
X13473158Y-14342341D02*
X13463634Y-14332817D01*
D12*
X8484915Y-14765725D02*
X8484915Y-14702085D01*
X8421275Y-14702085D01*
X8421275Y-14765725D01*
X8484915Y-14765725D01*
D11*
X8796967Y-14625389D02*
X8816015Y-14625389D01*
X8816015Y-14625389D02*
X8835062Y-14634913D01*
X8835062Y-14634913D02*
X8844586Y-14644436D01*
X8844586Y-14644436D02*
X8854110Y-14663484D01*
X8854110Y-14663484D02*
X8863634Y-14701579D01*
X8863634Y-14701579D02*
X8863634Y-14749198D01*
X8863634Y-14749198D02*
X8854110Y-14787293D01*
X8854110Y-14787293D02*
X8844586Y-14806341D01*
X8844586Y-14806341D02*
X8835062Y-14815865D01*
X8835062Y-14815865D02*
X8816015Y-14825389D01*
X8816015Y-14825389D02*
X8796967Y-14825389D01*
X8796967Y-14825389D02*
X8777919Y-14815865D01*
X8777919Y-14815865D02*
X8768396Y-14806341D01*
X8768396Y-14806341D02*
X8758872Y-14787293D01*
X8758872Y-14787293D02*
X8749348Y-14749198D01*
X8749348Y-14749198D02*
X8749348Y-14701579D01*
X8749348Y-14701579D02*
X8758872Y-14663484D01*
X8758872Y-14663484D02*
X8768396Y-14644436D01*
X8768396Y-14644436D02*
X8777919Y-14634913D01*
X8777919Y-14634913D02*
X8796967Y-14625389D01*
X8949348Y-14806341D02*
X8958872Y-14815865D01*
X8958872Y-14815865D02*
X8949348Y-14825389D01*
X8949348Y-14825389D02*
X8939824Y-14815865D01*
X8939824Y-14815865D02*
X8949348Y-14806341D01*
X8949348Y-14806341D02*
X8949348Y-14825389D01*
X9054110Y-14825389D02*
X9092205Y-14825389D01*
X9092205Y-14825389D02*
X9111253Y-14815865D01*
X9111253Y-14815865D02*
X9120777Y-14806341D01*
X9120777Y-14806341D02*
X9139824Y-14777770D01*
X9139824Y-14777770D02*
X9149348Y-14739674D01*
X9149348Y-14739674D02*
X9149348Y-14663484D01*
X9149348Y-14663484D02*
X9139824Y-14644436D01*
X9139824Y-14644436D02*
X9130300Y-14634913D01*
X9130300Y-14634913D02*
X9111253Y-14625389D01*
X9111253Y-14625389D02*
X9073158Y-14625389D01*
X9073158Y-14625389D02*
X9054110Y-14634913D01*
X9054110Y-14634913D02*
X9044586Y-14644436D01*
X9044586Y-14644436D02*
X9035062Y-14663484D01*
X9035062Y-14663484D02*
X9035062Y-14711103D01*
X9035062Y-14711103D02*
X9044586Y-14730151D01*
X9044586Y-14730151D02*
X9054110Y-14739674D01*
X9054110Y-14739674D02*
X9073158Y-14749198D01*
X9073158Y-14749198D02*
X9111253Y-14749198D01*
X9111253Y-14749198D02*
X9130300Y-14739674D01*
X9130300Y-14739674D02*
X9139824Y-14730151D01*
X9139824Y-14730151D02*
X9149348Y-14711103D01*
X9273158Y-14625389D02*
X9292205Y-14625389D01*
X9292205Y-14625389D02*
X9311253Y-14634913D01*
X9311253Y-14634913D02*
X9320777Y-14644436D01*
X9320777Y-14644436D02*
X9330300Y-14663484D01*
X9330300Y-14663484D02*
X9339824Y-14701579D01*
X9339824Y-14701579D02*
X9339824Y-14749198D01*
X9339824Y-14749198D02*
X9330300Y-14787293D01*
X9330300Y-14787293D02*
X9320777Y-14806341D01*
X9320777Y-14806341D02*
X9311253Y-14815865D01*
X9311253Y-14815865D02*
X9292205Y-14825389D01*
X9292205Y-14825389D02*
X9273158Y-14825389D01*
X9273158Y-14825389D02*
X9254110Y-14815865D01*
X9254110Y-14815865D02*
X9244586Y-14806341D01*
X9244586Y-14806341D02*
X9235062Y-14787293D01*
X9235062Y-14787293D02*
X9225539Y-14749198D01*
X9225539Y-14749198D02*
X9225539Y-14701579D01*
X9225539Y-14701579D02*
X9235062Y-14663484D01*
X9235062Y-14663484D02*
X9244586Y-14644436D01*
X9244586Y-14644436D02*
X9254110Y-14634913D01*
X9254110Y-14634913D02*
X9273158Y-14625389D01*
X9463634Y-14625389D02*
X9482681Y-14625389D01*
X9482681Y-14625389D02*
X9501729Y-14634913D01*
X9501729Y-14634913D02*
X9511253Y-14644436D01*
X9511253Y-14644436D02*
X9520777Y-14663484D01*
X9520777Y-14663484D02*
X9530300Y-14701579D01*
X9530300Y-14701579D02*
X9530300Y-14749198D01*
X9530300Y-14749198D02*
X9520777Y-14787293D01*
X9520777Y-14787293D02*
X9511253Y-14806341D01*
X9511253Y-14806341D02*
X9501729Y-14815865D01*
X9501729Y-14815865D02*
X9482681Y-14825389D01*
X9482681Y-14825389D02*
X9463634Y-14825389D01*
X9463634Y-14825389D02*
X9444586Y-14815865D01*
X9444586Y-14815865D02*
X9435062Y-14806341D01*
X9435062Y-14806341D02*
X9425539Y-14787293D01*
X9425539Y-14787293D02*
X9416015Y-14749198D01*
X9416015Y-14749198D02*
X9416015Y-14701579D01*
X9416015Y-14701579D02*
X9425539Y-14663484D01*
X9425539Y-14663484D02*
X9435062Y-14644436D01*
X9435062Y-14644436D02*
X9444586Y-14634913D01*
X9444586Y-14634913D02*
X9463634Y-14625389D01*
X9616015Y-14825389D02*
X9616015Y-14692055D01*
X9616015Y-14711103D02*
X9625539Y-14701579D01*
X9625539Y-14701579D02*
X9644586Y-14692055D01*
X9644586Y-14692055D02*
X9673158Y-14692055D01*
X9673158Y-14692055D02*
X9692205Y-14701579D01*
X9692205Y-14701579D02*
X9701729Y-14720627D01*
X9701729Y-14720627D02*
X9701729Y-14825389D01*
X9701729Y-14720627D02*
X9711253Y-14701579D01*
X9711253Y-14701579D02*
X9730300Y-14692055D01*
X9730300Y-14692055D02*
X9758872Y-14692055D01*
X9758872Y-14692055D02*
X9777920Y-14701579D01*
X9777920Y-14701579D02*
X9787443Y-14720627D01*
X9787443Y-14720627D02*
X9787443Y-14825389D01*
X9882681Y-14825389D02*
X9882681Y-14692055D01*
X9882681Y-14711103D02*
X9892205Y-14701579D01*
X9892205Y-14701579D02*
X9911253Y-14692055D01*
X9911253Y-14692055D02*
X9939824Y-14692055D01*
X9939824Y-14692055D02*
X9958872Y-14701579D01*
X9958872Y-14701579D02*
X9968396Y-14720627D01*
X9968396Y-14720627D02*
X9968396Y-14825389D01*
X9968396Y-14720627D02*
X9977920Y-14701579D01*
X9977920Y-14701579D02*
X9996967Y-14692055D01*
X9996967Y-14692055D02*
X10025539Y-14692055D01*
X10025539Y-14692055D02*
X10044586Y-14701579D01*
X10044586Y-14701579D02*
X10054110Y-14720627D01*
X10054110Y-14720627D02*
X10054110Y-14825389D01*
X10444586Y-14615865D02*
X10273158Y-14873008D01*
X10701729Y-14625389D02*
X10720777Y-14625389D01*
X10720777Y-14625389D02*
X10739824Y-14634913D01*
X10739824Y-14634913D02*
X10749348Y-14644436D01*
X10749348Y-14644436D02*
X10758872Y-14663484D01*
X10758872Y-14663484D02*
X10768396Y-14701579D01*
X10768396Y-14701579D02*
X10768396Y-14749198D01*
X10768396Y-14749198D02*
X10758872Y-14787293D01*
X10758872Y-14787293D02*
X10749348Y-14806341D01*
X10749348Y-14806341D02*
X10739824Y-14815865D01*
X10739824Y-14815865D02*
X10720777Y-14825389D01*
X10720777Y-14825389D02*
X10701729Y-14825389D01*
X10701729Y-14825389D02*
X10682682Y-14815865D01*
X10682682Y-14815865D02*
X10673158Y-14806341D01*
X10673158Y-14806341D02*
X10663634Y-14787293D01*
X10663634Y-14787293D02*
X10654110Y-14749198D01*
X10654110Y-14749198D02*
X10654110Y-14701579D01*
X10654110Y-14701579D02*
X10663634Y-14663484D01*
X10663634Y-14663484D02*
X10673158Y-14644436D01*
X10673158Y-14644436D02*
X10682682Y-14634913D01*
X10682682Y-14634913D02*
X10701729Y-14625389D01*
X10854110Y-14806341D02*
X10863634Y-14815865D01*
X10863634Y-14815865D02*
X10854110Y-14825389D01*
X10854110Y-14825389D02*
X10844586Y-14815865D01*
X10844586Y-14815865D02*
X10854110Y-14806341D01*
X10854110Y-14806341D02*
X10854110Y-14825389D01*
X10987443Y-14625389D02*
X11006491Y-14625389D01*
X11006491Y-14625389D02*
X11025539Y-14634913D01*
X11025539Y-14634913D02*
X11035063Y-14644436D01*
X11035063Y-14644436D02*
X11044586Y-14663484D01*
X11044586Y-14663484D02*
X11054110Y-14701579D01*
X11054110Y-14701579D02*
X11054110Y-14749198D01*
X11054110Y-14749198D02*
X11044586Y-14787293D01*
X11044586Y-14787293D02*
X11035063Y-14806341D01*
X11035063Y-14806341D02*
X11025539Y-14815865D01*
X11025539Y-14815865D02*
X11006491Y-14825389D01*
X11006491Y-14825389D02*
X10987443Y-14825389D01*
X10987443Y-14825389D02*
X10968396Y-14815865D01*
X10968396Y-14815865D02*
X10958872Y-14806341D01*
X10958872Y-14806341D02*
X10949348Y-14787293D01*
X10949348Y-14787293D02*
X10939824Y-14749198D01*
X10939824Y-14749198D02*
X10939824Y-14701579D01*
X10939824Y-14701579D02*
X10949348Y-14663484D01*
X10949348Y-14663484D02*
X10958872Y-14644436D01*
X10958872Y-14644436D02*
X10968396Y-14634913D01*
X10968396Y-14634913D02*
X10987443Y-14625389D01*
X11120777Y-14625389D02*
X11244586Y-14625389D01*
X11244586Y-14625389D02*
X11177920Y-14701579D01*
X11177920Y-14701579D02*
X11206491Y-14701579D01*
X11206491Y-14701579D02*
X11225539Y-14711103D01*
X11225539Y-14711103D02*
X11235062Y-14720627D01*
X11235062Y-14720627D02*
X11244586Y-14739674D01*
X11244586Y-14739674D02*
X11244586Y-14787293D01*
X11244586Y-14787293D02*
X11235062Y-14806341D01*
X11235062Y-14806341D02*
X11225539Y-14815865D01*
X11225539Y-14815865D02*
X11206491Y-14825389D01*
X11206491Y-14825389D02*
X11149348Y-14825389D01*
X11149348Y-14825389D02*
X11130301Y-14815865D01*
X11130301Y-14815865D02*
X11120777Y-14806341D01*
X11425539Y-14625389D02*
X11330301Y-14625389D01*
X11330301Y-14625389D02*
X11320777Y-14720627D01*
X11320777Y-14720627D02*
X11330301Y-14711103D01*
X11330301Y-14711103D02*
X11349348Y-14701579D01*
X11349348Y-14701579D02*
X11396967Y-14701579D01*
X11396967Y-14701579D02*
X11416015Y-14711103D01*
X11416015Y-14711103D02*
X11425539Y-14720627D01*
X11425539Y-14720627D02*
X11435062Y-14739674D01*
X11435062Y-14739674D02*
X11435062Y-14787293D01*
X11435062Y-14787293D02*
X11425539Y-14806341D01*
X11425539Y-14806341D02*
X11416015Y-14815865D01*
X11416015Y-14815865D02*
X11396967Y-14825389D01*
X11396967Y-14825389D02*
X11349348Y-14825389D01*
X11349348Y-14825389D02*
X11330301Y-14815865D01*
X11330301Y-14815865D02*
X11320777Y-14806341D01*
X11606491Y-14692055D02*
X11606491Y-14825389D01*
X11558872Y-14615865D02*
X11511253Y-14758722D01*
X11511253Y-14758722D02*
X11635062Y-14758722D01*
X11701729Y-14625389D02*
X11701729Y-14663484D01*
X11777920Y-14625389D02*
X11777920Y-14663484D01*
X12073158Y-14901579D02*
X12063634Y-14892055D01*
X12063634Y-14892055D02*
X12044586Y-14863484D01*
X12044586Y-14863484D02*
X12035063Y-14844436D01*
X12035063Y-14844436D02*
X12025539Y-14815865D01*
X12025539Y-14815865D02*
X12016015Y-14768246D01*
X12016015Y-14768246D02*
X12016015Y-14730151D01*
X12016015Y-14730151D02*
X12025539Y-14682532D01*
X12025539Y-14682532D02*
X12035063Y-14653960D01*
X12035063Y-14653960D02*
X12044586Y-14634913D01*
X12044586Y-14634913D02*
X12063634Y-14606341D01*
X12063634Y-14606341D02*
X12073158Y-14596817D01*
X12139824Y-14644436D02*
X12149348Y-14634913D01*
X12149348Y-14634913D02*
X12168396Y-14625389D01*
X12168396Y-14625389D02*
X12216015Y-14625389D01*
X12216015Y-14625389D02*
X12235063Y-14634913D01*
X12235063Y-14634913D02*
X12244586Y-14644436D01*
X12244586Y-14644436D02*
X12254110Y-14663484D01*
X12254110Y-14663484D02*
X12254110Y-14682532D01*
X12254110Y-14682532D02*
X12244586Y-14711103D01*
X12244586Y-14711103D02*
X12130301Y-14825389D01*
X12130301Y-14825389D02*
X12254110Y-14825389D01*
X12492205Y-14825389D02*
X12492205Y-14625389D01*
X12577920Y-14825389D02*
X12577920Y-14720627D01*
X12577920Y-14720627D02*
X12568396Y-14701579D01*
X12568396Y-14701579D02*
X12549348Y-14692055D01*
X12549348Y-14692055D02*
X12520777Y-14692055D01*
X12520777Y-14692055D02*
X12501729Y-14701579D01*
X12501729Y-14701579D02*
X12492205Y-14711103D01*
X12701729Y-14825389D02*
X12682682Y-14815865D01*
X12682682Y-14815865D02*
X12673158Y-14806341D01*
X12673158Y-14806341D02*
X12663634Y-14787293D01*
X12663634Y-14787293D02*
X12663634Y-14730151D01*
X12663634Y-14730151D02*
X12673158Y-14711103D01*
X12673158Y-14711103D02*
X12682682Y-14701579D01*
X12682682Y-14701579D02*
X12701729Y-14692055D01*
X12701729Y-14692055D02*
X12730301Y-14692055D01*
X12730301Y-14692055D02*
X12749348Y-14701579D01*
X12749348Y-14701579D02*
X12758872Y-14711103D01*
X12758872Y-14711103D02*
X12768396Y-14730151D01*
X12768396Y-14730151D02*
X12768396Y-14787293D01*
X12768396Y-14787293D02*
X12758872Y-14806341D01*
X12758872Y-14806341D02*
X12749348Y-14815865D01*
X12749348Y-14815865D02*
X12730301Y-14825389D01*
X12730301Y-14825389D02*
X12701729Y-14825389D01*
X12882682Y-14825389D02*
X12863634Y-14815865D01*
X12863634Y-14815865D02*
X12854110Y-14796817D01*
X12854110Y-14796817D02*
X12854110Y-14625389D01*
X13035063Y-14815865D02*
X13016015Y-14825389D01*
X13016015Y-14825389D02*
X12977920Y-14825389D01*
X12977920Y-14825389D02*
X12958872Y-14815865D01*
X12958872Y-14815865D02*
X12949348Y-14796817D01*
X12949348Y-14796817D02*
X12949348Y-14720627D01*
X12949348Y-14720627D02*
X12958872Y-14701579D01*
X12958872Y-14701579D02*
X12977920Y-14692055D01*
X12977920Y-14692055D02*
X13016015Y-14692055D01*
X13016015Y-14692055D02*
X13035063Y-14701579D01*
X13035063Y-14701579D02*
X13044586Y-14720627D01*
X13044586Y-14720627D02*
X13044586Y-14739674D01*
X13044586Y-14739674D02*
X12949348Y-14758722D01*
X13120777Y-14815865D02*
X13139825Y-14825389D01*
X13139825Y-14825389D02*
X13177920Y-14825389D01*
X13177920Y-14825389D02*
X13196967Y-14815865D01*
X13196967Y-14815865D02*
X13206491Y-14796817D01*
X13206491Y-14796817D02*
X13206491Y-14787293D01*
X13206491Y-14787293D02*
X13196967Y-14768246D01*
X13196967Y-14768246D02*
X13177920Y-14758722D01*
X13177920Y-14758722D02*
X13149348Y-14758722D01*
X13149348Y-14758722D02*
X13130301Y-14749198D01*
X13130301Y-14749198D02*
X13120777Y-14730151D01*
X13120777Y-14730151D02*
X13120777Y-14720627D01*
X13120777Y-14720627D02*
X13130301Y-14701579D01*
X13130301Y-14701579D02*
X13149348Y-14692055D01*
X13149348Y-14692055D02*
X13177920Y-14692055D01*
X13177920Y-14692055D02*
X13196967Y-14701579D01*
X13273158Y-14901579D02*
X13282682Y-14892055D01*
X13282682Y-14892055D02*
X13301729Y-14863484D01*
X13301729Y-14863484D02*
X13311253Y-14844436D01*
X13311253Y-14844436D02*
X13320777Y-14815865D01*
X13320777Y-14815865D02*
X13330301Y-14768246D01*
X13330301Y-14768246D02*
X13330301Y-14730151D01*
X13330301Y-14730151D02*
X13320777Y-14682532D01*
X13320777Y-14682532D02*
X13311253Y-14653960D01*
X13311253Y-14653960D02*
X13301729Y-14634913D01*
X13301729Y-14634913D02*
X13282682Y-14606341D01*
X13282682Y-14606341D02*
X13273158Y-14596817D01*
D12*
X8448095Y-15047905D02*
X8498095Y-14997905D01*
X8448095Y-14947905D01*
X8398095Y-14997905D01*
X8448095Y-15047905D01*
D11*
X8863634Y-15089389D02*
X8749348Y-15089389D01*
X8806491Y-15089389D02*
X8806491Y-14889389D01*
X8806491Y-14889389D02*
X8787443Y-14917960D01*
X8787443Y-14917960D02*
X8768396Y-14937008D01*
X8768396Y-14937008D02*
X8749348Y-14946532D01*
X8949348Y-15070341D02*
X8958872Y-15079865D01*
X8958872Y-15079865D02*
X8949348Y-15089389D01*
X8949348Y-15089389D02*
X8939824Y-15079865D01*
X8939824Y-15079865D02*
X8949348Y-15070341D01*
X8949348Y-15070341D02*
X8949348Y-15089389D01*
X9082681Y-14889389D02*
X9101729Y-14889389D01*
X9101729Y-14889389D02*
X9120777Y-14898913D01*
X9120777Y-14898913D02*
X9130300Y-14908436D01*
X9130300Y-14908436D02*
X9139824Y-14927484D01*
X9139824Y-14927484D02*
X9149348Y-14965579D01*
X9149348Y-14965579D02*
X9149348Y-15013198D01*
X9149348Y-15013198D02*
X9139824Y-15051293D01*
X9139824Y-15051293D02*
X9130300Y-15070341D01*
X9130300Y-15070341D02*
X9120777Y-15079865D01*
X9120777Y-15079865D02*
X9101729Y-15089389D01*
X9101729Y-15089389D02*
X9082681Y-15089389D01*
X9082681Y-15089389D02*
X9063634Y-15079865D01*
X9063634Y-15079865D02*
X9054110Y-15070341D01*
X9054110Y-15070341D02*
X9044586Y-15051293D01*
X9044586Y-15051293D02*
X9035062Y-15013198D01*
X9035062Y-15013198D02*
X9035062Y-14965579D01*
X9035062Y-14965579D02*
X9044586Y-14927484D01*
X9044586Y-14927484D02*
X9054110Y-14908436D01*
X9054110Y-14908436D02*
X9063634Y-14898913D01*
X9063634Y-14898913D02*
X9082681Y-14889389D01*
X9273158Y-14889389D02*
X9292205Y-14889389D01*
X9292205Y-14889389D02*
X9311253Y-14898913D01*
X9311253Y-14898913D02*
X9320777Y-14908436D01*
X9320777Y-14908436D02*
X9330300Y-14927484D01*
X9330300Y-14927484D02*
X9339824Y-14965579D01*
X9339824Y-14965579D02*
X9339824Y-15013198D01*
X9339824Y-15013198D02*
X9330300Y-15051293D01*
X9330300Y-15051293D02*
X9320777Y-15070341D01*
X9320777Y-15070341D02*
X9311253Y-15079865D01*
X9311253Y-15079865D02*
X9292205Y-15089389D01*
X9292205Y-15089389D02*
X9273158Y-15089389D01*
X9273158Y-15089389D02*
X9254110Y-15079865D01*
X9254110Y-15079865D02*
X9244586Y-15070341D01*
X9244586Y-15070341D02*
X9235062Y-15051293D01*
X9235062Y-15051293D02*
X9225539Y-15013198D01*
X9225539Y-15013198D02*
X9225539Y-14965579D01*
X9225539Y-14965579D02*
X9235062Y-14927484D01*
X9235062Y-14927484D02*
X9244586Y-14908436D01*
X9244586Y-14908436D02*
X9254110Y-14898913D01*
X9254110Y-14898913D02*
X9273158Y-14889389D01*
X9463634Y-14889389D02*
X9482681Y-14889389D01*
X9482681Y-14889389D02*
X9501729Y-14898913D01*
X9501729Y-14898913D02*
X9511253Y-14908436D01*
X9511253Y-14908436D02*
X9520777Y-14927484D01*
X9520777Y-14927484D02*
X9530300Y-14965579D01*
X9530300Y-14965579D02*
X9530300Y-15013198D01*
X9530300Y-15013198D02*
X9520777Y-15051293D01*
X9520777Y-15051293D02*
X9511253Y-15070341D01*
X9511253Y-15070341D02*
X9501729Y-15079865D01*
X9501729Y-15079865D02*
X9482681Y-15089389D01*
X9482681Y-15089389D02*
X9463634Y-15089389D01*
X9463634Y-15089389D02*
X9444586Y-15079865D01*
X9444586Y-15079865D02*
X9435062Y-15070341D01*
X9435062Y-15070341D02*
X9425539Y-15051293D01*
X9425539Y-15051293D02*
X9416015Y-15013198D01*
X9416015Y-15013198D02*
X9416015Y-14965579D01*
X9416015Y-14965579D02*
X9425539Y-14927484D01*
X9425539Y-14927484D02*
X9435062Y-14908436D01*
X9435062Y-14908436D02*
X9444586Y-14898913D01*
X9444586Y-14898913D02*
X9463634Y-14889389D01*
X9616015Y-15089389D02*
X9616015Y-14956055D01*
X9616015Y-14975103D02*
X9625539Y-14965579D01*
X9625539Y-14965579D02*
X9644586Y-14956055D01*
X9644586Y-14956055D02*
X9673158Y-14956055D01*
X9673158Y-14956055D02*
X9692205Y-14965579D01*
X9692205Y-14965579D02*
X9701729Y-14984627D01*
X9701729Y-14984627D02*
X9701729Y-15089389D01*
X9701729Y-14984627D02*
X9711253Y-14965579D01*
X9711253Y-14965579D02*
X9730300Y-14956055D01*
X9730300Y-14956055D02*
X9758872Y-14956055D01*
X9758872Y-14956055D02*
X9777920Y-14965579D01*
X9777920Y-14965579D02*
X9787443Y-14984627D01*
X9787443Y-14984627D02*
X9787443Y-15089389D01*
X9882681Y-15089389D02*
X9882681Y-14956055D01*
X9882681Y-14975103D02*
X9892205Y-14965579D01*
X9892205Y-14965579D02*
X9911253Y-14956055D01*
X9911253Y-14956055D02*
X9939824Y-14956055D01*
X9939824Y-14956055D02*
X9958872Y-14965579D01*
X9958872Y-14965579D02*
X9968396Y-14984627D01*
X9968396Y-14984627D02*
X9968396Y-15089389D01*
X9968396Y-14984627D02*
X9977920Y-14965579D01*
X9977920Y-14965579D02*
X9996967Y-14956055D01*
X9996967Y-14956055D02*
X10025539Y-14956055D01*
X10025539Y-14956055D02*
X10044586Y-14965579D01*
X10044586Y-14965579D02*
X10054110Y-14984627D01*
X10054110Y-14984627D02*
X10054110Y-15089389D01*
X10444586Y-14879865D02*
X10273158Y-15137008D01*
X10701729Y-14889389D02*
X10720777Y-14889389D01*
X10720777Y-14889389D02*
X10739824Y-14898913D01*
X10739824Y-14898913D02*
X10749348Y-14908436D01*
X10749348Y-14908436D02*
X10758872Y-14927484D01*
X10758872Y-14927484D02*
X10768396Y-14965579D01*
X10768396Y-14965579D02*
X10768396Y-15013198D01*
X10768396Y-15013198D02*
X10758872Y-15051293D01*
X10758872Y-15051293D02*
X10749348Y-15070341D01*
X10749348Y-15070341D02*
X10739824Y-15079865D01*
X10739824Y-15079865D02*
X10720777Y-15089389D01*
X10720777Y-15089389D02*
X10701729Y-15089389D01*
X10701729Y-15089389D02*
X10682682Y-15079865D01*
X10682682Y-15079865D02*
X10673158Y-15070341D01*
X10673158Y-15070341D02*
X10663634Y-15051293D01*
X10663634Y-15051293D02*
X10654110Y-15013198D01*
X10654110Y-15013198D02*
X10654110Y-14965579D01*
X10654110Y-14965579D02*
X10663634Y-14927484D01*
X10663634Y-14927484D02*
X10673158Y-14908436D01*
X10673158Y-14908436D02*
X10682682Y-14898913D01*
X10682682Y-14898913D02*
X10701729Y-14889389D01*
X10854110Y-15070341D02*
X10863634Y-15079865D01*
X10863634Y-15079865D02*
X10854110Y-15089389D01*
X10854110Y-15089389D02*
X10844586Y-15079865D01*
X10844586Y-15079865D02*
X10854110Y-15070341D01*
X10854110Y-15070341D02*
X10854110Y-15089389D01*
X10987443Y-14889389D02*
X11006491Y-14889389D01*
X11006491Y-14889389D02*
X11025539Y-14898913D01*
X11025539Y-14898913D02*
X11035063Y-14908436D01*
X11035063Y-14908436D02*
X11044586Y-14927484D01*
X11044586Y-14927484D02*
X11054110Y-14965579D01*
X11054110Y-14965579D02*
X11054110Y-15013198D01*
X11054110Y-15013198D02*
X11044586Y-15051293D01*
X11044586Y-15051293D02*
X11035063Y-15070341D01*
X11035063Y-15070341D02*
X11025539Y-15079865D01*
X11025539Y-15079865D02*
X11006491Y-15089389D01*
X11006491Y-15089389D02*
X10987443Y-15089389D01*
X10987443Y-15089389D02*
X10968396Y-15079865D01*
X10968396Y-15079865D02*
X10958872Y-15070341D01*
X10958872Y-15070341D02*
X10949348Y-15051293D01*
X10949348Y-15051293D02*
X10939824Y-15013198D01*
X10939824Y-15013198D02*
X10939824Y-14965579D01*
X10939824Y-14965579D02*
X10949348Y-14927484D01*
X10949348Y-14927484D02*
X10958872Y-14908436D01*
X10958872Y-14908436D02*
X10968396Y-14898913D01*
X10968396Y-14898913D02*
X10987443Y-14889389D01*
X11120777Y-14889389D02*
X11244586Y-14889389D01*
X11244586Y-14889389D02*
X11177920Y-14965579D01*
X11177920Y-14965579D02*
X11206491Y-14965579D01*
X11206491Y-14965579D02*
X11225539Y-14975103D01*
X11225539Y-14975103D02*
X11235062Y-14984627D01*
X11235062Y-14984627D02*
X11244586Y-15003674D01*
X11244586Y-15003674D02*
X11244586Y-15051293D01*
X11244586Y-15051293D02*
X11235062Y-15070341D01*
X11235062Y-15070341D02*
X11225539Y-15079865D01*
X11225539Y-15079865D02*
X11206491Y-15089389D01*
X11206491Y-15089389D02*
X11149348Y-15089389D01*
X11149348Y-15089389D02*
X11130301Y-15079865D01*
X11130301Y-15079865D02*
X11120777Y-15070341D01*
X11339824Y-15089389D02*
X11377920Y-15089389D01*
X11377920Y-15089389D02*
X11396967Y-15079865D01*
X11396967Y-15079865D02*
X11406491Y-15070341D01*
X11406491Y-15070341D02*
X11425539Y-15041770D01*
X11425539Y-15041770D02*
X11435062Y-15003674D01*
X11435062Y-15003674D02*
X11435062Y-14927484D01*
X11435062Y-14927484D02*
X11425539Y-14908436D01*
X11425539Y-14908436D02*
X11416015Y-14898913D01*
X11416015Y-14898913D02*
X11396967Y-14889389D01*
X11396967Y-14889389D02*
X11358872Y-14889389D01*
X11358872Y-14889389D02*
X11339824Y-14898913D01*
X11339824Y-14898913D02*
X11330301Y-14908436D01*
X11330301Y-14908436D02*
X11320777Y-14927484D01*
X11320777Y-14927484D02*
X11320777Y-14975103D01*
X11320777Y-14975103D02*
X11330301Y-14994151D01*
X11330301Y-14994151D02*
X11339824Y-15003674D01*
X11339824Y-15003674D02*
X11358872Y-15013198D01*
X11358872Y-15013198D02*
X11396967Y-15013198D01*
X11396967Y-15013198D02*
X11416015Y-15003674D01*
X11416015Y-15003674D02*
X11425539Y-14994151D01*
X11425539Y-14994151D02*
X11435062Y-14975103D01*
X11606491Y-14956055D02*
X11606491Y-15089389D01*
X11558872Y-14879865D02*
X11511253Y-15022722D01*
X11511253Y-15022722D02*
X11635062Y-15022722D01*
X11701729Y-14889389D02*
X11701729Y-14927484D01*
X11777920Y-14889389D02*
X11777920Y-14927484D01*
X12073158Y-15165579D02*
X12063634Y-15156055D01*
X12063634Y-15156055D02*
X12044586Y-15127484D01*
X12044586Y-15127484D02*
X12035063Y-15108436D01*
X12035063Y-15108436D02*
X12025539Y-15079865D01*
X12025539Y-15079865D02*
X12016015Y-15032246D01*
X12016015Y-15032246D02*
X12016015Y-14994151D01*
X12016015Y-14994151D02*
X12025539Y-14946532D01*
X12025539Y-14946532D02*
X12035063Y-14917960D01*
X12035063Y-14917960D02*
X12044586Y-14898913D01*
X12044586Y-14898913D02*
X12063634Y-14870341D01*
X12063634Y-14870341D02*
X12073158Y-14860817D01*
X12130301Y-14889389D02*
X12254110Y-14889389D01*
X12254110Y-14889389D02*
X12187443Y-14965579D01*
X12187443Y-14965579D02*
X12216015Y-14965579D01*
X12216015Y-14965579D02*
X12235063Y-14975103D01*
X12235063Y-14975103D02*
X12244586Y-14984627D01*
X12244586Y-14984627D02*
X12254110Y-15003674D01*
X12254110Y-15003674D02*
X12254110Y-15051293D01*
X12254110Y-15051293D02*
X12244586Y-15070341D01*
X12244586Y-15070341D02*
X12235063Y-15079865D01*
X12235063Y-15079865D02*
X12216015Y-15089389D01*
X12216015Y-15089389D02*
X12158872Y-15089389D01*
X12158872Y-15089389D02*
X12139824Y-15079865D01*
X12139824Y-15079865D02*
X12130301Y-15070341D01*
X12377920Y-14889389D02*
X12396967Y-14889389D01*
X12396967Y-14889389D02*
X12416015Y-14898913D01*
X12416015Y-14898913D02*
X12425539Y-14908436D01*
X12425539Y-14908436D02*
X12435063Y-14927484D01*
X12435063Y-14927484D02*
X12444586Y-14965579D01*
X12444586Y-14965579D02*
X12444586Y-15013198D01*
X12444586Y-15013198D02*
X12435063Y-15051293D01*
X12435063Y-15051293D02*
X12425539Y-15070341D01*
X12425539Y-15070341D02*
X12416015Y-15079865D01*
X12416015Y-15079865D02*
X12396967Y-15089389D01*
X12396967Y-15089389D02*
X12377920Y-15089389D01*
X12377920Y-15089389D02*
X12358872Y-15079865D01*
X12358872Y-15079865D02*
X12349348Y-15070341D01*
X12349348Y-15070341D02*
X12339824Y-15051293D01*
X12339824Y-15051293D02*
X12330301Y-15013198D01*
X12330301Y-15013198D02*
X12330301Y-14965579D01*
X12330301Y-14965579D02*
X12339824Y-14927484D01*
X12339824Y-14927484D02*
X12349348Y-14908436D01*
X12349348Y-14908436D02*
X12358872Y-14898913D01*
X12358872Y-14898913D02*
X12377920Y-14889389D01*
X12682682Y-15089389D02*
X12682682Y-14889389D01*
X12768396Y-15089389D02*
X12768396Y-14984627D01*
X12768396Y-14984627D02*
X12758872Y-14965579D01*
X12758872Y-14965579D02*
X12739825Y-14956055D01*
X12739825Y-14956055D02*
X12711253Y-14956055D01*
X12711253Y-14956055D02*
X12692205Y-14965579D01*
X12692205Y-14965579D02*
X12682682Y-14975103D01*
X12892205Y-15089389D02*
X12873158Y-15079865D01*
X12873158Y-15079865D02*
X12863634Y-15070341D01*
X12863634Y-15070341D02*
X12854110Y-15051293D01*
X12854110Y-15051293D02*
X12854110Y-14994151D01*
X12854110Y-14994151D02*
X12863634Y-14975103D01*
X12863634Y-14975103D02*
X12873158Y-14965579D01*
X12873158Y-14965579D02*
X12892205Y-14956055D01*
X12892205Y-14956055D02*
X12920777Y-14956055D01*
X12920777Y-14956055D02*
X12939825Y-14965579D01*
X12939825Y-14965579D02*
X12949348Y-14975103D01*
X12949348Y-14975103D02*
X12958872Y-14994151D01*
X12958872Y-14994151D02*
X12958872Y-15051293D01*
X12958872Y-15051293D02*
X12949348Y-15070341D01*
X12949348Y-15070341D02*
X12939825Y-15079865D01*
X12939825Y-15079865D02*
X12920777Y-15089389D01*
X12920777Y-15089389D02*
X12892205Y-15089389D01*
X13073158Y-15089389D02*
X13054110Y-15079865D01*
X13054110Y-15079865D02*
X13044586Y-15060817D01*
X13044586Y-15060817D02*
X13044586Y-14889389D01*
X13225539Y-15079865D02*
X13206491Y-15089389D01*
X13206491Y-15089389D02*
X13168396Y-15089389D01*
X13168396Y-15089389D02*
X13149348Y-15079865D01*
X13149348Y-15079865D02*
X13139825Y-15060817D01*
X13139825Y-15060817D02*
X13139825Y-14984627D01*
X13139825Y-14984627D02*
X13149348Y-14965579D01*
X13149348Y-14965579D02*
X13168396Y-14956055D01*
X13168396Y-14956055D02*
X13206491Y-14956055D01*
X13206491Y-14956055D02*
X13225539Y-14965579D01*
X13225539Y-14965579D02*
X13235063Y-14984627D01*
X13235063Y-14984627D02*
X13235063Y-15003674D01*
X13235063Y-15003674D02*
X13139825Y-15022722D01*
X13311253Y-15079865D02*
X13330301Y-15089389D01*
X13330301Y-15089389D02*
X13368396Y-15089389D01*
X13368396Y-15089389D02*
X13387444Y-15079865D01*
X13387444Y-15079865D02*
X13396967Y-15060817D01*
X13396967Y-15060817D02*
X13396967Y-15051293D01*
X13396967Y-15051293D02*
X13387444Y-15032246D01*
X13387444Y-15032246D02*
X13368396Y-15022722D01*
X13368396Y-15022722D02*
X13339825Y-15022722D01*
X13339825Y-15022722D02*
X13320777Y-15013198D01*
X13320777Y-15013198D02*
X13311253Y-14994151D01*
X13311253Y-14994151D02*
X13311253Y-14984627D01*
X13311253Y-14984627D02*
X13320777Y-14965579D01*
X13320777Y-14965579D02*
X13339825Y-14956055D01*
X13339825Y-14956055D02*
X13368396Y-14956055D01*
X13368396Y-14956055D02*
X13387444Y-14965579D01*
X13463634Y-15165579D02*
X13473158Y-15156055D01*
X13473158Y-15156055D02*
X13492206Y-15127484D01*
X13492206Y-15127484D02*
X13501729Y-15108436D01*
X13501729Y-15108436D02*
X13511253Y-15079865D01*
X13511253Y-15079865D02*
X13520777Y-15032246D01*
X13520777Y-15032246D02*
X13520777Y-14994151D01*
X13520777Y-14994151D02*
X13511253Y-14946532D01*
X13511253Y-14946532D02*
X13501729Y-14917960D01*
X13501729Y-14917960D02*
X13492206Y-14898913D01*
X13492206Y-14898913D02*
X13473158Y-14870341D01*
X13473158Y-14870341D02*
X13463634Y-14860817D01*
D13*
X8388095Y-15206905D02*
X8498095Y-15316905D01*
X8498095Y-15206905D02*
X8388095Y-15316905D01*
X8498095Y-15261905D02*
G75*
G02*
X8388095Y-15261905I-55000J0D01*
G01*
X8388095Y-15261905D02*
G75*
G02*
X8498095Y-15261905I55000J0D01*
G01*
D11*
X8863634Y-15353389D02*
X8749348Y-15353389D01*
X8806491Y-15353389D02*
X8806491Y-15153389D01*
X8806491Y-15153389D02*
X8787443Y-15181960D01*
X8787443Y-15181960D02*
X8768396Y-15201008D01*
X8768396Y-15201008D02*
X8749348Y-15210532D01*
X8949348Y-15334341D02*
X8958872Y-15343865D01*
X8958872Y-15343865D02*
X8949348Y-15353389D01*
X8949348Y-15353389D02*
X8939824Y-15343865D01*
X8939824Y-15343865D02*
X8949348Y-15334341D01*
X8949348Y-15334341D02*
X8949348Y-15353389D01*
X9149348Y-15353389D02*
X9035062Y-15353389D01*
X9092205Y-15353389D02*
X9092205Y-15153389D01*
X9092205Y-15153389D02*
X9073158Y-15181960D01*
X9073158Y-15181960D02*
X9054110Y-15201008D01*
X9054110Y-15201008D02*
X9035062Y-15210532D01*
X9273158Y-15153389D02*
X9292205Y-15153389D01*
X9292205Y-15153389D02*
X9311253Y-15162913D01*
X9311253Y-15162913D02*
X9320777Y-15172436D01*
X9320777Y-15172436D02*
X9330300Y-15191484D01*
X9330300Y-15191484D02*
X9339824Y-15229579D01*
X9339824Y-15229579D02*
X9339824Y-15277198D01*
X9339824Y-15277198D02*
X9330300Y-15315293D01*
X9330300Y-15315293D02*
X9320777Y-15334341D01*
X9320777Y-15334341D02*
X9311253Y-15343865D01*
X9311253Y-15343865D02*
X9292205Y-15353389D01*
X9292205Y-15353389D02*
X9273158Y-15353389D01*
X9273158Y-15353389D02*
X9254110Y-15343865D01*
X9254110Y-15343865D02*
X9244586Y-15334341D01*
X9244586Y-15334341D02*
X9235062Y-15315293D01*
X9235062Y-15315293D02*
X9225539Y-15277198D01*
X9225539Y-15277198D02*
X9225539Y-15229579D01*
X9225539Y-15229579D02*
X9235062Y-15191484D01*
X9235062Y-15191484D02*
X9244586Y-15172436D01*
X9244586Y-15172436D02*
X9254110Y-15162913D01*
X9254110Y-15162913D02*
X9273158Y-15153389D01*
X9463634Y-15153389D02*
X9482681Y-15153389D01*
X9482681Y-15153389D02*
X9501729Y-15162913D01*
X9501729Y-15162913D02*
X9511253Y-15172436D01*
X9511253Y-15172436D02*
X9520777Y-15191484D01*
X9520777Y-15191484D02*
X9530300Y-15229579D01*
X9530300Y-15229579D02*
X9530300Y-15277198D01*
X9530300Y-15277198D02*
X9520777Y-15315293D01*
X9520777Y-15315293D02*
X9511253Y-15334341D01*
X9511253Y-15334341D02*
X9501729Y-15343865D01*
X9501729Y-15343865D02*
X9482681Y-15353389D01*
X9482681Y-15353389D02*
X9463634Y-15353389D01*
X9463634Y-15353389D02*
X9444586Y-15343865D01*
X9444586Y-15343865D02*
X9435062Y-15334341D01*
X9435062Y-15334341D02*
X9425539Y-15315293D01*
X9425539Y-15315293D02*
X9416015Y-15277198D01*
X9416015Y-15277198D02*
X9416015Y-15229579D01*
X9416015Y-15229579D02*
X9425539Y-15191484D01*
X9425539Y-15191484D02*
X9435062Y-15172436D01*
X9435062Y-15172436D02*
X9444586Y-15162913D01*
X9444586Y-15162913D02*
X9463634Y-15153389D01*
X9616015Y-15353389D02*
X9616015Y-15220055D01*
X9616015Y-15239103D02*
X9625539Y-15229579D01*
X9625539Y-15229579D02*
X9644586Y-15220055D01*
X9644586Y-15220055D02*
X9673158Y-15220055D01*
X9673158Y-15220055D02*
X9692205Y-15229579D01*
X9692205Y-15229579D02*
X9701729Y-15248627D01*
X9701729Y-15248627D02*
X9701729Y-15353389D01*
X9701729Y-15248627D02*
X9711253Y-15229579D01*
X9711253Y-15229579D02*
X9730300Y-15220055D01*
X9730300Y-15220055D02*
X9758872Y-15220055D01*
X9758872Y-15220055D02*
X9777920Y-15229579D01*
X9777920Y-15229579D02*
X9787443Y-15248627D01*
X9787443Y-15248627D02*
X9787443Y-15353389D01*
X9882681Y-15353389D02*
X9882681Y-15220055D01*
X9882681Y-15239103D02*
X9892205Y-15229579D01*
X9892205Y-15229579D02*
X9911253Y-15220055D01*
X9911253Y-15220055D02*
X9939824Y-15220055D01*
X9939824Y-15220055D02*
X9958872Y-15229579D01*
X9958872Y-15229579D02*
X9968396Y-15248627D01*
X9968396Y-15248627D02*
X9968396Y-15353389D01*
X9968396Y-15248627D02*
X9977920Y-15229579D01*
X9977920Y-15229579D02*
X9996967Y-15220055D01*
X9996967Y-15220055D02*
X10025539Y-15220055D01*
X10025539Y-15220055D02*
X10044586Y-15229579D01*
X10044586Y-15229579D02*
X10054110Y-15248627D01*
X10054110Y-15248627D02*
X10054110Y-15353389D01*
X10444586Y-15143865D02*
X10273158Y-15401008D01*
X10701729Y-15153389D02*
X10720777Y-15153389D01*
X10720777Y-15153389D02*
X10739824Y-15162913D01*
X10739824Y-15162913D02*
X10749348Y-15172436D01*
X10749348Y-15172436D02*
X10758872Y-15191484D01*
X10758872Y-15191484D02*
X10768396Y-15229579D01*
X10768396Y-15229579D02*
X10768396Y-15277198D01*
X10768396Y-15277198D02*
X10758872Y-15315293D01*
X10758872Y-15315293D02*
X10749348Y-15334341D01*
X10749348Y-15334341D02*
X10739824Y-15343865D01*
X10739824Y-15343865D02*
X10720777Y-15353389D01*
X10720777Y-15353389D02*
X10701729Y-15353389D01*
X10701729Y-15353389D02*
X10682682Y-15343865D01*
X10682682Y-15343865D02*
X10673158Y-15334341D01*
X10673158Y-15334341D02*
X10663634Y-15315293D01*
X10663634Y-15315293D02*
X10654110Y-15277198D01*
X10654110Y-15277198D02*
X10654110Y-15229579D01*
X10654110Y-15229579D02*
X10663634Y-15191484D01*
X10663634Y-15191484D02*
X10673158Y-15172436D01*
X10673158Y-15172436D02*
X10682682Y-15162913D01*
X10682682Y-15162913D02*
X10701729Y-15153389D01*
X10854110Y-15334341D02*
X10863634Y-15343865D01*
X10863634Y-15343865D02*
X10854110Y-15353389D01*
X10854110Y-15353389D02*
X10844586Y-15343865D01*
X10844586Y-15343865D02*
X10854110Y-15334341D01*
X10854110Y-15334341D02*
X10854110Y-15353389D01*
X10987443Y-15153389D02*
X11006491Y-15153389D01*
X11006491Y-15153389D02*
X11025539Y-15162913D01*
X11025539Y-15162913D02*
X11035063Y-15172436D01*
X11035063Y-15172436D02*
X11044586Y-15191484D01*
X11044586Y-15191484D02*
X11054110Y-15229579D01*
X11054110Y-15229579D02*
X11054110Y-15277198D01*
X11054110Y-15277198D02*
X11044586Y-15315293D01*
X11044586Y-15315293D02*
X11035063Y-15334341D01*
X11035063Y-15334341D02*
X11025539Y-15343865D01*
X11025539Y-15343865D02*
X11006491Y-15353389D01*
X11006491Y-15353389D02*
X10987443Y-15353389D01*
X10987443Y-15353389D02*
X10968396Y-15343865D01*
X10968396Y-15343865D02*
X10958872Y-15334341D01*
X10958872Y-15334341D02*
X10949348Y-15315293D01*
X10949348Y-15315293D02*
X10939824Y-15277198D01*
X10939824Y-15277198D02*
X10939824Y-15229579D01*
X10939824Y-15229579D02*
X10949348Y-15191484D01*
X10949348Y-15191484D02*
X10958872Y-15172436D01*
X10958872Y-15172436D02*
X10968396Y-15162913D01*
X10968396Y-15162913D02*
X10987443Y-15153389D01*
X11225539Y-15220055D02*
X11225539Y-15353389D01*
X11177920Y-15143865D02*
X11130301Y-15286722D01*
X11130301Y-15286722D02*
X11254110Y-15286722D01*
X11311253Y-15153389D02*
X11435062Y-15153389D01*
X11435062Y-15153389D02*
X11368396Y-15229579D01*
X11368396Y-15229579D02*
X11396967Y-15229579D01*
X11396967Y-15229579D02*
X11416015Y-15239103D01*
X11416015Y-15239103D02*
X11425539Y-15248627D01*
X11425539Y-15248627D02*
X11435062Y-15267674D01*
X11435062Y-15267674D02*
X11435062Y-15315293D01*
X11435062Y-15315293D02*
X11425539Y-15334341D01*
X11425539Y-15334341D02*
X11416015Y-15343865D01*
X11416015Y-15343865D02*
X11396967Y-15353389D01*
X11396967Y-15353389D02*
X11339824Y-15353389D01*
X11339824Y-15353389D02*
X11320777Y-15343865D01*
X11320777Y-15343865D02*
X11311253Y-15334341D01*
X11501729Y-15153389D02*
X11625539Y-15153389D01*
X11625539Y-15153389D02*
X11558872Y-15229579D01*
X11558872Y-15229579D02*
X11587443Y-15229579D01*
X11587443Y-15229579D02*
X11606491Y-15239103D01*
X11606491Y-15239103D02*
X11616015Y-15248627D01*
X11616015Y-15248627D02*
X11625539Y-15267674D01*
X11625539Y-15267674D02*
X11625539Y-15315293D01*
X11625539Y-15315293D02*
X11616015Y-15334341D01*
X11616015Y-15334341D02*
X11606491Y-15343865D01*
X11606491Y-15343865D02*
X11587443Y-15353389D01*
X11587443Y-15353389D02*
X11530301Y-15353389D01*
X11530301Y-15353389D02*
X11511253Y-15343865D01*
X11511253Y-15343865D02*
X11501729Y-15334341D01*
X11701729Y-15153389D02*
X11701729Y-15191484D01*
X11777920Y-15153389D02*
X11777920Y-15191484D01*
X12073158Y-15429579D02*
X12063634Y-15420055D01*
X12063634Y-15420055D02*
X12044586Y-15391484D01*
X12044586Y-15391484D02*
X12035063Y-15372436D01*
X12035063Y-15372436D02*
X12025539Y-15343865D01*
X12025539Y-15343865D02*
X12016015Y-15296246D01*
X12016015Y-15296246D02*
X12016015Y-15258151D01*
X12016015Y-15258151D02*
X12025539Y-15210532D01*
X12025539Y-15210532D02*
X12035063Y-15181960D01*
X12035063Y-15181960D02*
X12044586Y-15162913D01*
X12044586Y-15162913D02*
X12063634Y-15134341D01*
X12063634Y-15134341D02*
X12073158Y-15124817D01*
X12254110Y-15353389D02*
X12139824Y-15353389D01*
X12196967Y-15353389D02*
X12196967Y-15153389D01*
X12196967Y-15153389D02*
X12177920Y-15181960D01*
X12177920Y-15181960D02*
X12158872Y-15201008D01*
X12158872Y-15201008D02*
X12139824Y-15210532D01*
X12330301Y-15172436D02*
X12339824Y-15162913D01*
X12339824Y-15162913D02*
X12358872Y-15153389D01*
X12358872Y-15153389D02*
X12406491Y-15153389D01*
X12406491Y-15153389D02*
X12425539Y-15162913D01*
X12425539Y-15162913D02*
X12435063Y-15172436D01*
X12435063Y-15172436D02*
X12444586Y-15191484D01*
X12444586Y-15191484D02*
X12444586Y-15210532D01*
X12444586Y-15210532D02*
X12435063Y-15239103D01*
X12435063Y-15239103D02*
X12320777Y-15353389D01*
X12320777Y-15353389D02*
X12444586Y-15353389D01*
X12682682Y-15353389D02*
X12682682Y-15153389D01*
X12768396Y-15353389D02*
X12768396Y-15248627D01*
X12768396Y-15248627D02*
X12758872Y-15229579D01*
X12758872Y-15229579D02*
X12739825Y-15220055D01*
X12739825Y-15220055D02*
X12711253Y-15220055D01*
X12711253Y-15220055D02*
X12692205Y-15229579D01*
X12692205Y-15229579D02*
X12682682Y-15239103D01*
X12892205Y-15353389D02*
X12873158Y-15343865D01*
X12873158Y-15343865D02*
X12863634Y-15334341D01*
X12863634Y-15334341D02*
X12854110Y-15315293D01*
X12854110Y-15315293D02*
X12854110Y-15258151D01*
X12854110Y-15258151D02*
X12863634Y-15239103D01*
X12863634Y-15239103D02*
X12873158Y-15229579D01*
X12873158Y-15229579D02*
X12892205Y-15220055D01*
X12892205Y-15220055D02*
X12920777Y-15220055D01*
X12920777Y-15220055D02*
X12939825Y-15229579D01*
X12939825Y-15229579D02*
X12949348Y-15239103D01*
X12949348Y-15239103D02*
X12958872Y-15258151D01*
X12958872Y-15258151D02*
X12958872Y-15315293D01*
X12958872Y-15315293D02*
X12949348Y-15334341D01*
X12949348Y-15334341D02*
X12939825Y-15343865D01*
X12939825Y-15343865D02*
X12920777Y-15353389D01*
X12920777Y-15353389D02*
X12892205Y-15353389D01*
X13073158Y-15353389D02*
X13054110Y-15343865D01*
X13054110Y-15343865D02*
X13044586Y-15324817D01*
X13044586Y-15324817D02*
X13044586Y-15153389D01*
X13225539Y-15343865D02*
X13206491Y-15353389D01*
X13206491Y-15353389D02*
X13168396Y-15353389D01*
X13168396Y-15353389D02*
X13149348Y-15343865D01*
X13149348Y-15343865D02*
X13139825Y-15324817D01*
X13139825Y-15324817D02*
X13139825Y-15248627D01*
X13139825Y-15248627D02*
X13149348Y-15229579D01*
X13149348Y-15229579D02*
X13168396Y-15220055D01*
X13168396Y-15220055D02*
X13206491Y-15220055D01*
X13206491Y-15220055D02*
X13225539Y-15229579D01*
X13225539Y-15229579D02*
X13235063Y-15248627D01*
X13235063Y-15248627D02*
X13235063Y-15267674D01*
X13235063Y-15267674D02*
X13139825Y-15286722D01*
X13311253Y-15343865D02*
X13330301Y-15353389D01*
X13330301Y-15353389D02*
X13368396Y-15353389D01*
X13368396Y-15353389D02*
X13387444Y-15343865D01*
X13387444Y-15343865D02*
X13396967Y-15324817D01*
X13396967Y-15324817D02*
X13396967Y-15315293D01*
X13396967Y-15315293D02*
X13387444Y-15296246D01*
X13387444Y-15296246D02*
X13368396Y-15286722D01*
X13368396Y-15286722D02*
X13339825Y-15286722D01*
X13339825Y-15286722D02*
X13320777Y-15277198D01*
X13320777Y-15277198D02*
X13311253Y-15258151D01*
X13311253Y-15258151D02*
X13311253Y-15248627D01*
X13311253Y-15248627D02*
X13320777Y-15229579D01*
X13320777Y-15229579D02*
X13339825Y-15220055D01*
X13339825Y-15220055D02*
X13368396Y-15220055D01*
X13368396Y-15220055D02*
X13387444Y-15229579D01*
X13463634Y-15429579D02*
X13473158Y-15420055D01*
X13473158Y-15420055D02*
X13492206Y-15391484D01*
X13492206Y-15391484D02*
X13501729Y-15372436D01*
X13501729Y-15372436D02*
X13511253Y-15343865D01*
X13511253Y-15343865D02*
X13520777Y-15296246D01*
X13520777Y-15296246D02*
X13520777Y-15258151D01*
X13520777Y-15258151D02*
X13511253Y-15210532D01*
X13511253Y-15210532D02*
X13501729Y-15181960D01*
X13501729Y-15181960D02*
X13492206Y-15162913D01*
X13492206Y-15162913D02*
X13473158Y-15134341D01*
X13473158Y-15134341D02*
X13463634Y-15124817D01*
M02*
