M48
; DRILL file {KiCad 9.0.6} date 2025-12-25T14:27:43+0530
; FORMAT={-:-/ absolute / metric / decimal}
; #@! TF.CreationDate,2025-12-25T14:27:43+05:30
; #@! TF.GenerationSoftware,Kicad,Pcbnew,9.0.6
; #@! TF.FileFunction,Plated,1,4,PTH
FMAT,2
METRIC
; #@! TA.AperFunction,Plated,PTH,ViaDrill
T1C0.300
; #@! TA.AperFunction,Plated,PTH,ComponentDrill
T2C0.762
; #@! TA.AperFunction,Plated,PTH,ComponentDrill
T3C0.800
; #@! TA.AperFunction,Plated,PTH,ComponentDrill
T4C0.900
; #@! TA.AperFunction,Plated,PTH,ComponentDrill
T5C1.000
; #@! TA.AperFunction,Plated,PTH,ComponentDrill
T6C1.100
%
G90
G05
T1
X101.7Y-108.7
X105.3Y-106.2
X137.8Y-108.9
X138.5Y-115.9
T2
X88.42Y-117.92
X90.96Y-117.92
X93.5Y-117.92
X96.04Y-117.92
X96.38Y-83.18
X98.58Y-117.92
X98.92Y-83.18
X101.46Y-83.18
X104.0Y-83.18
T3
X137.88Y-88.5
X140.716Y-97.576
X140.716Y-102.576
X140.716Y-109.768
X140.716Y-114.768
X141.224Y-121.96
X141.224Y-126.96
X145.5Y-88.5
X146.812Y-94.996
X146.812Y-102.616
X147.0Y-119.5
X147.0Y-127.12
X147.5Y-107.0
X147.5Y-114.62
T4
X150.368Y-88.392
X152.908Y-88.392
T5
X117.76Y-88.44
X117.76Y-90.98
X117.76Y-93.52
X117.76Y-96.06
X117.76Y-98.6
X117.76Y-101.14
X117.76Y-103.68
X117.76Y-106.22
X117.76Y-108.76
X117.76Y-111.3
X117.76Y-113.84
X117.76Y-116.38
X117.76Y-118.92
X117.76Y-121.46
X117.76Y-124.0
X133.0Y-88.44
X133.0Y-90.98
X133.0Y-93.52
X133.0Y-96.06
X133.0Y-98.6
X133.0Y-101.14
X133.0Y-103.68
X133.0Y-106.22
X133.0Y-108.76
X133.0Y-111.3
X133.0Y-113.84
X133.0Y-116.38
X133.0Y-118.92
X133.0Y-121.46
X133.0Y-124.0
T6
X151.892Y-97.028
X151.892Y-101.528
X151.892Y-122.428
X151.892Y-126.928
X152.4Y-109.728
X152.4Y-114.228
X158.392Y-97.028
X158.392Y-101.528
X158.392Y-122.428
X158.392Y-126.928
X158.9Y-109.728
X158.9Y-114.228
M30
