G04 #@! TF.GenerationSoftware,KiCad,Pcbnew,9.0.6*
G04 #@! TF.CreationDate,2025-12-25T14:29:32+05:30*
G04 #@! TF.ProjectId,new_first_pcb,6e65775f-6669-4727-9374-5f7063622e6b,rev?*
G04 #@! TF.SameCoordinates,Original*
G04 #@! TF.FileFunction,Legend,Top*
G04 #@! TF.FilePolarity,Positive*
%FSLAX46Y46*%
G04 Gerber Fmt 4.6, Leading zero omitted, Abs format (unit mm)*
G04 Created by KiCad (PCBNEW 9.0.6) date 2025-12-25 14:29:32*
%MOMM*%
%LPD*%
G01*
G04 APERTURE LIST*
%ADD10C,0.152400*%
%ADD11C,0.150000*%
%ADD12C,0.100000*%
%ADD13C,0.120000*%
G04 APERTURE END LIST*
D10*
X96526015Y-90779803D02*
X96526015Y-91360375D01*
X96526015Y-91360375D02*
X96487310Y-91476489D01*
X96487310Y-91476489D02*
X96409901Y-91553899D01*
X96409901Y-91553899D02*
X96293786Y-91592603D01*
X96293786Y-91592603D02*
X96216377Y-91592603D01*
X97300110Y-91592603D02*
X96913062Y-91592603D01*
X96913062Y-91592603D02*
X96913062Y-90779803D01*
X98035500Y-91515194D02*
X97996796Y-91553899D01*
X97996796Y-91553899D02*
X97880681Y-91592603D01*
X97880681Y-91592603D02*
X97803272Y-91592603D01*
X97803272Y-91592603D02*
X97687158Y-91553899D01*
X97687158Y-91553899D02*
X97609748Y-91476489D01*
X97609748Y-91476489D02*
X97571043Y-91399079D01*
X97571043Y-91399079D02*
X97532339Y-91244260D01*
X97532339Y-91244260D02*
X97532339Y-91128146D01*
X97532339Y-91128146D02*
X97571043Y-90973327D01*
X97571043Y-90973327D02*
X97609748Y-90895918D01*
X97609748Y-90895918D02*
X97687158Y-90818508D01*
X97687158Y-90818508D02*
X97803272Y-90779803D01*
X97803272Y-90779803D02*
X97880681Y-90779803D01*
X97880681Y-90779803D02*
X97996796Y-90818508D01*
X97996796Y-90818508D02*
X98035500Y-90857213D01*
X98616072Y-90779803D02*
X98616072Y-91360375D01*
X98616072Y-91360375D02*
X98577367Y-91476489D01*
X98577367Y-91476489D02*
X98499958Y-91553899D01*
X98499958Y-91553899D02*
X98383843Y-91592603D01*
X98383843Y-91592603D02*
X98306434Y-91592603D01*
X99390167Y-91592603D02*
X99003119Y-91592603D01*
X99003119Y-91592603D02*
X99003119Y-90779803D01*
X100125557Y-91515194D02*
X100086853Y-91553899D01*
X100086853Y-91553899D02*
X99970738Y-91592603D01*
X99970738Y-91592603D02*
X99893329Y-91592603D01*
X99893329Y-91592603D02*
X99777215Y-91553899D01*
X99777215Y-91553899D02*
X99699805Y-91476489D01*
X99699805Y-91476489D02*
X99661100Y-91399079D01*
X99661100Y-91399079D02*
X99622396Y-91244260D01*
X99622396Y-91244260D02*
X99622396Y-91128146D01*
X99622396Y-91128146D02*
X99661100Y-90973327D01*
X99661100Y-90973327D02*
X99699805Y-90895918D01*
X99699805Y-90895918D02*
X99777215Y-90818508D01*
X99777215Y-90818508D02*
X99893329Y-90779803D01*
X99893329Y-90779803D02*
X99970738Y-90779803D01*
X99970738Y-90779803D02*
X100086853Y-90818508D01*
X100086853Y-90818508D02*
X100125557Y-90857213D01*
X100706129Y-90779803D02*
X100706129Y-91360375D01*
X100706129Y-91360375D02*
X100667424Y-91476489D01*
X100667424Y-91476489D02*
X100590015Y-91553899D01*
X100590015Y-91553899D02*
X100473900Y-91592603D01*
X100473900Y-91592603D02*
X100396491Y-91592603D01*
X101480224Y-91592603D02*
X101093176Y-91592603D01*
X101093176Y-91592603D02*
X101093176Y-90779803D01*
X102215614Y-91515194D02*
X102176910Y-91553899D01*
X102176910Y-91553899D02*
X102060795Y-91592603D01*
X102060795Y-91592603D02*
X101983386Y-91592603D01*
X101983386Y-91592603D02*
X101867272Y-91553899D01*
X101867272Y-91553899D02*
X101789862Y-91476489D01*
X101789862Y-91476489D02*
X101751157Y-91399079D01*
X101751157Y-91399079D02*
X101712453Y-91244260D01*
X101712453Y-91244260D02*
X101712453Y-91128146D01*
X101712453Y-91128146D02*
X101751157Y-90973327D01*
X101751157Y-90973327D02*
X101789862Y-90895918D01*
X101789862Y-90895918D02*
X101867272Y-90818508D01*
X101867272Y-90818508D02*
X101983386Y-90779803D01*
X101983386Y-90779803D02*
X102060795Y-90779803D01*
X102060795Y-90779803D02*
X102176910Y-90818508D01*
X102176910Y-90818508D02*
X102215614Y-90857213D01*
X102796186Y-90779803D02*
X102796186Y-91360375D01*
X102796186Y-91360375D02*
X102757481Y-91476489D01*
X102757481Y-91476489D02*
X102680072Y-91553899D01*
X102680072Y-91553899D02*
X102563957Y-91592603D01*
X102563957Y-91592603D02*
X102486548Y-91592603D01*
X103570281Y-91592603D02*
X103183233Y-91592603D01*
X103183233Y-91592603D02*
X103183233Y-90779803D01*
X104305671Y-91515194D02*
X104266967Y-91553899D01*
X104266967Y-91553899D02*
X104150852Y-91592603D01*
X104150852Y-91592603D02*
X104073443Y-91592603D01*
X104073443Y-91592603D02*
X103957329Y-91553899D01*
X103957329Y-91553899D02*
X103879919Y-91476489D01*
X103879919Y-91476489D02*
X103841214Y-91399079D01*
X103841214Y-91399079D02*
X103802510Y-91244260D01*
X103802510Y-91244260D02*
X103802510Y-91128146D01*
X103802510Y-91128146D02*
X103841214Y-90973327D01*
X103841214Y-90973327D02*
X103879919Y-90895918D01*
X103879919Y-90895918D02*
X103957329Y-90818508D01*
X103957329Y-90818508D02*
X104073443Y-90779803D01*
X104073443Y-90779803D02*
X104150852Y-90779803D01*
X104150852Y-90779803D02*
X104266967Y-90818508D01*
X104266967Y-90818508D02*
X104305671Y-90857213D01*
D11*
X139083580Y-124626666D02*
X139131200Y-124674285D01*
X139131200Y-124674285D02*
X139178819Y-124817142D01*
X139178819Y-124817142D02*
X139178819Y-124912380D01*
X139178819Y-124912380D02*
X139131200Y-125055237D01*
X139131200Y-125055237D02*
X139035961Y-125150475D01*
X139035961Y-125150475D02*
X138940723Y-125198094D01*
X138940723Y-125198094D02*
X138750247Y-125245713D01*
X138750247Y-125245713D02*
X138607390Y-125245713D01*
X138607390Y-125245713D02*
X138416914Y-125198094D01*
X138416914Y-125198094D02*
X138321676Y-125150475D01*
X138321676Y-125150475D02*
X138226438Y-125055237D01*
X138226438Y-125055237D02*
X138178819Y-124912380D01*
X138178819Y-124912380D02*
X138178819Y-124817142D01*
X138178819Y-124817142D02*
X138226438Y-124674285D01*
X138226438Y-124674285D02*
X138274057Y-124626666D01*
X138178819Y-124293332D02*
X138178819Y-123674285D01*
X138178819Y-123674285D02*
X138559771Y-124007618D01*
X138559771Y-124007618D02*
X138559771Y-123864761D01*
X138559771Y-123864761D02*
X138607390Y-123769523D01*
X138607390Y-123769523D02*
X138655009Y-123721904D01*
X138655009Y-123721904D02*
X138750247Y-123674285D01*
X138750247Y-123674285D02*
X138988342Y-123674285D01*
X138988342Y-123674285D02*
X139083580Y-123721904D01*
X139083580Y-123721904D02*
X139131200Y-123769523D01*
X139131200Y-123769523D02*
X139178819Y-123864761D01*
X139178819Y-123864761D02*
X139178819Y-124150475D01*
X139178819Y-124150475D02*
X139131200Y-124245713D01*
X139131200Y-124245713D02*
X139083580Y-124293332D01*
X141523333Y-86584819D02*
X141190000Y-86108628D01*
X140951905Y-86584819D02*
X140951905Y-85584819D01*
X140951905Y-85584819D02*
X141332857Y-85584819D01*
X141332857Y-85584819D02*
X141428095Y-85632438D01*
X141428095Y-85632438D02*
X141475714Y-85680057D01*
X141475714Y-85680057D02*
X141523333Y-85775295D01*
X141523333Y-85775295D02*
X141523333Y-85918152D01*
X141523333Y-85918152D02*
X141475714Y-86013390D01*
X141475714Y-86013390D02*
X141428095Y-86061009D01*
X141428095Y-86061009D02*
X141332857Y-86108628D01*
X141332857Y-86108628D02*
X140951905Y-86108628D01*
X142380476Y-85918152D02*
X142380476Y-86584819D01*
X142142381Y-85537200D02*
X141904286Y-86251485D01*
X141904286Y-86251485D02*
X142523333Y-86251485D01*
X149636819Y-98972666D02*
X149160628Y-99305999D01*
X149636819Y-99544094D02*
X148636819Y-99544094D01*
X148636819Y-99544094D02*
X148636819Y-99163142D01*
X148636819Y-99163142D02*
X148684438Y-99067904D01*
X148684438Y-99067904D02*
X148732057Y-99020285D01*
X148732057Y-99020285D02*
X148827295Y-98972666D01*
X148827295Y-98972666D02*
X148970152Y-98972666D01*
X148970152Y-98972666D02*
X149065390Y-99020285D01*
X149065390Y-99020285D02*
X149113009Y-99067904D01*
X149113009Y-99067904D02*
X149160628Y-99163142D01*
X149160628Y-99163142D02*
X149160628Y-99544094D01*
X149636819Y-98020285D02*
X149636819Y-98591713D01*
X149636819Y-98305999D02*
X148636819Y-98305999D01*
X148636819Y-98305999D02*
X148779676Y-98401237D01*
X148779676Y-98401237D02*
X148874914Y-98496475D01*
X148874914Y-98496475D02*
X148922533Y-98591713D01*
D12*
X97738095Y-130957419D02*
X97738095Y-131766942D01*
X97738095Y-131766942D02*
X97785714Y-131862180D01*
X97785714Y-131862180D02*
X97833333Y-131909800D01*
X97833333Y-131909800D02*
X97928571Y-131957419D01*
X97928571Y-131957419D02*
X98119047Y-131957419D01*
X98119047Y-131957419D02*
X98214285Y-131909800D01*
X98214285Y-131909800D02*
X98261904Y-131862180D01*
X98261904Y-131862180D02*
X98309523Y-131766942D01*
X98309523Y-131766942D02*
X98309523Y-130957419D01*
X99309523Y-131957419D02*
X98738095Y-131957419D01*
X99023809Y-131957419D02*
X99023809Y-130957419D01*
X99023809Y-130957419D02*
X98928571Y-131100276D01*
X98928571Y-131100276D02*
X98833333Y-131195514D01*
X98833333Y-131195514D02*
X98738095Y-131243133D01*
X91390800Y-122305639D02*
X91447942Y-122134211D01*
X91447942Y-122134211D02*
X91447942Y-121848496D01*
X91447942Y-121848496D02*
X91390800Y-121734211D01*
X91390800Y-121734211D02*
X91333657Y-121677068D01*
X91333657Y-121677068D02*
X91219371Y-121619925D01*
X91219371Y-121619925D02*
X91105085Y-121619925D01*
X91105085Y-121619925D02*
X90990800Y-121677068D01*
X90990800Y-121677068D02*
X90933657Y-121734211D01*
X90933657Y-121734211D02*
X90876514Y-121848496D01*
X90876514Y-121848496D02*
X90819371Y-122077068D01*
X90819371Y-122077068D02*
X90762228Y-122191353D01*
X90762228Y-122191353D02*
X90705085Y-122248496D01*
X90705085Y-122248496D02*
X90590800Y-122305639D01*
X90590800Y-122305639D02*
X90476514Y-122305639D01*
X90476514Y-122305639D02*
X90362228Y-122248496D01*
X90362228Y-122248496D02*
X90305085Y-122191353D01*
X90305085Y-122191353D02*
X90247942Y-122077068D01*
X90247942Y-122077068D02*
X90247942Y-121791353D01*
X90247942Y-121791353D02*
X90305085Y-121619925D01*
X91447942Y-121105639D02*
X90247942Y-121105639D01*
X90247942Y-121105639D02*
X90247942Y-120819925D01*
X90247942Y-120819925D02*
X90305085Y-120648496D01*
X90305085Y-120648496D02*
X90419371Y-120534211D01*
X90419371Y-120534211D02*
X90533657Y-120477068D01*
X90533657Y-120477068D02*
X90762228Y-120419925D01*
X90762228Y-120419925D02*
X90933657Y-120419925D01*
X90933657Y-120419925D02*
X91162228Y-120477068D01*
X91162228Y-120477068D02*
X91276514Y-120534211D01*
X91276514Y-120534211D02*
X91390800Y-120648496D01*
X91390800Y-120648496D02*
X91447942Y-120819925D01*
X91447942Y-120819925D02*
X91447942Y-121105639D01*
X91105085Y-119962782D02*
X91105085Y-119391354D01*
X91447942Y-120077068D02*
X90247942Y-119677068D01*
X90247942Y-119677068D02*
X91447942Y-119277068D01*
X89147942Y-121648496D02*
X87947942Y-121648496D01*
X89147942Y-121077067D02*
X87947942Y-121077067D01*
X87947942Y-121077067D02*
X89147942Y-120391353D01*
X89147942Y-120391353D02*
X87947942Y-120391353D01*
X87947942Y-119991353D02*
X87947942Y-119305639D01*
X89147942Y-119648496D02*
X87947942Y-119648496D01*
X95505085Y-121719925D02*
X95447942Y-121834211D01*
X95447942Y-121834211D02*
X95447942Y-122005639D01*
X95447942Y-122005639D02*
X95505085Y-122177068D01*
X95505085Y-122177068D02*
X95619371Y-122291353D01*
X95619371Y-122291353D02*
X95733657Y-122348496D01*
X95733657Y-122348496D02*
X95962228Y-122405639D01*
X95962228Y-122405639D02*
X96133657Y-122405639D01*
X96133657Y-122405639D02*
X96362228Y-122348496D01*
X96362228Y-122348496D02*
X96476514Y-122291353D01*
X96476514Y-122291353D02*
X96590800Y-122177068D01*
X96590800Y-122177068D02*
X96647942Y-122005639D01*
X96647942Y-122005639D02*
X96647942Y-121891353D01*
X96647942Y-121891353D02*
X96590800Y-121719925D01*
X96590800Y-121719925D02*
X96533657Y-121662782D01*
X96533657Y-121662782D02*
X96133657Y-121662782D01*
X96133657Y-121662782D02*
X96133657Y-121891353D01*
X96647942Y-121148496D02*
X95447942Y-121148496D01*
X95447942Y-121148496D02*
X96647942Y-120462782D01*
X96647942Y-120462782D02*
X95447942Y-120462782D01*
X96647942Y-119891353D02*
X95447942Y-119891353D01*
X95447942Y-119891353D02*
X95447942Y-119605639D01*
X95447942Y-119605639D02*
X95505085Y-119434210D01*
X95505085Y-119434210D02*
X95619371Y-119319925D01*
X95619371Y-119319925D02*
X95733657Y-119262782D01*
X95733657Y-119262782D02*
X95962228Y-119205639D01*
X95962228Y-119205639D02*
X96133657Y-119205639D01*
X96133657Y-119205639D02*
X96362228Y-119262782D01*
X96362228Y-119262782D02*
X96476514Y-119319925D01*
X96476514Y-119319925D02*
X96590800Y-119434210D01*
X96590800Y-119434210D02*
X96647942Y-119605639D01*
X96647942Y-119605639D02*
X96647942Y-119891353D01*
X97947942Y-122419925D02*
X99147942Y-122019925D01*
X99147942Y-122019925D02*
X97947942Y-121619925D01*
X99033657Y-120534211D02*
X99090800Y-120591354D01*
X99090800Y-120591354D02*
X99147942Y-120762782D01*
X99147942Y-120762782D02*
X99147942Y-120877068D01*
X99147942Y-120877068D02*
X99090800Y-121048497D01*
X99090800Y-121048497D02*
X98976514Y-121162782D01*
X98976514Y-121162782D02*
X98862228Y-121219925D01*
X98862228Y-121219925D02*
X98633657Y-121277068D01*
X98633657Y-121277068D02*
X98462228Y-121277068D01*
X98462228Y-121277068D02*
X98233657Y-121219925D01*
X98233657Y-121219925D02*
X98119371Y-121162782D01*
X98119371Y-121162782D02*
X98005085Y-121048497D01*
X98005085Y-121048497D02*
X97947942Y-120877068D01*
X97947942Y-120877068D02*
X97947942Y-120762782D01*
X97947942Y-120762782D02*
X98005085Y-120591354D01*
X98005085Y-120591354D02*
X98062228Y-120534211D01*
X99033657Y-119334211D02*
X99090800Y-119391354D01*
X99090800Y-119391354D02*
X99147942Y-119562782D01*
X99147942Y-119562782D02*
X99147942Y-119677068D01*
X99147942Y-119677068D02*
X99090800Y-119848497D01*
X99090800Y-119848497D02*
X98976514Y-119962782D01*
X98976514Y-119962782D02*
X98862228Y-120019925D01*
X98862228Y-120019925D02*
X98633657Y-120077068D01*
X98633657Y-120077068D02*
X98462228Y-120077068D01*
X98462228Y-120077068D02*
X98233657Y-120019925D01*
X98233657Y-120019925D02*
X98119371Y-119962782D01*
X98119371Y-119962782D02*
X98005085Y-119848497D01*
X98005085Y-119848497D02*
X97947942Y-119677068D01*
X97947942Y-119677068D02*
X97947942Y-119562782D01*
X97947942Y-119562782D02*
X98005085Y-119391354D01*
X98005085Y-119391354D02*
X98062228Y-119334211D01*
X93890800Y-122305639D02*
X93947942Y-122134211D01*
X93947942Y-122134211D02*
X93947942Y-121848496D01*
X93947942Y-121848496D02*
X93890800Y-121734211D01*
X93890800Y-121734211D02*
X93833657Y-121677068D01*
X93833657Y-121677068D02*
X93719371Y-121619925D01*
X93719371Y-121619925D02*
X93605085Y-121619925D01*
X93605085Y-121619925D02*
X93490800Y-121677068D01*
X93490800Y-121677068D02*
X93433657Y-121734211D01*
X93433657Y-121734211D02*
X93376514Y-121848496D01*
X93376514Y-121848496D02*
X93319371Y-122077068D01*
X93319371Y-122077068D02*
X93262228Y-122191353D01*
X93262228Y-122191353D02*
X93205085Y-122248496D01*
X93205085Y-122248496D02*
X93090800Y-122305639D01*
X93090800Y-122305639D02*
X92976514Y-122305639D01*
X92976514Y-122305639D02*
X92862228Y-122248496D01*
X92862228Y-122248496D02*
X92805085Y-122191353D01*
X92805085Y-122191353D02*
X92747942Y-122077068D01*
X92747942Y-122077068D02*
X92747942Y-121791353D01*
X92747942Y-121791353D02*
X92805085Y-121619925D01*
X93833657Y-120419925D02*
X93890800Y-120477068D01*
X93890800Y-120477068D02*
X93947942Y-120648496D01*
X93947942Y-120648496D02*
X93947942Y-120762782D01*
X93947942Y-120762782D02*
X93890800Y-120934211D01*
X93890800Y-120934211D02*
X93776514Y-121048496D01*
X93776514Y-121048496D02*
X93662228Y-121105639D01*
X93662228Y-121105639D02*
X93433657Y-121162782D01*
X93433657Y-121162782D02*
X93262228Y-121162782D01*
X93262228Y-121162782D02*
X93033657Y-121105639D01*
X93033657Y-121105639D02*
X92919371Y-121048496D01*
X92919371Y-121048496D02*
X92805085Y-120934211D01*
X92805085Y-120934211D02*
X92747942Y-120762782D01*
X92747942Y-120762782D02*
X92747942Y-120648496D01*
X92747942Y-120648496D02*
X92805085Y-120477068D01*
X92805085Y-120477068D02*
X92862228Y-120419925D01*
X93947942Y-119334211D02*
X93947942Y-119905639D01*
X93947942Y-119905639D02*
X92747942Y-119905639D01*
X111366095Y-110373419D02*
X111366095Y-111182942D01*
X111366095Y-111182942D02*
X111413714Y-111278180D01*
X111413714Y-111278180D02*
X111461333Y-111325800D01*
X111461333Y-111325800D02*
X111556571Y-111373419D01*
X111556571Y-111373419D02*
X111747047Y-111373419D01*
X111747047Y-111373419D02*
X111842285Y-111325800D01*
X111842285Y-111325800D02*
X111889904Y-111278180D01*
X111889904Y-111278180D02*
X111937523Y-111182942D01*
X111937523Y-111182942D02*
X111937523Y-110373419D01*
X112366095Y-110468657D02*
X112413714Y-110421038D01*
X112413714Y-110421038D02*
X112508952Y-110373419D01*
X112508952Y-110373419D02*
X112747047Y-110373419D01*
X112747047Y-110373419D02*
X112842285Y-110421038D01*
X112842285Y-110421038D02*
X112889904Y-110468657D01*
X112889904Y-110468657D02*
X112937523Y-110563895D01*
X112937523Y-110563895D02*
X112937523Y-110659133D01*
X112937523Y-110659133D02*
X112889904Y-110801990D01*
X112889904Y-110801990D02*
X112318476Y-111373419D01*
X112318476Y-111373419D02*
X112937523Y-111373419D01*
X104580800Y-88015639D02*
X104637942Y-87844211D01*
X104637942Y-87844211D02*
X104637942Y-87558496D01*
X104637942Y-87558496D02*
X104580800Y-87444211D01*
X104580800Y-87444211D02*
X104523657Y-87387068D01*
X104523657Y-87387068D02*
X104409371Y-87329925D01*
X104409371Y-87329925D02*
X104295085Y-87329925D01*
X104295085Y-87329925D02*
X104180800Y-87387068D01*
X104180800Y-87387068D02*
X104123657Y-87444211D01*
X104123657Y-87444211D02*
X104066514Y-87558496D01*
X104066514Y-87558496D02*
X104009371Y-87787068D01*
X104009371Y-87787068D02*
X103952228Y-87901353D01*
X103952228Y-87901353D02*
X103895085Y-87958496D01*
X103895085Y-87958496D02*
X103780800Y-88015639D01*
X103780800Y-88015639D02*
X103666514Y-88015639D01*
X103666514Y-88015639D02*
X103552228Y-87958496D01*
X103552228Y-87958496D02*
X103495085Y-87901353D01*
X103495085Y-87901353D02*
X103437942Y-87787068D01*
X103437942Y-87787068D02*
X103437942Y-87501353D01*
X103437942Y-87501353D02*
X103495085Y-87329925D01*
X104637942Y-86815639D02*
X103437942Y-86815639D01*
X103437942Y-86815639D02*
X103437942Y-86529925D01*
X103437942Y-86529925D02*
X103495085Y-86358496D01*
X103495085Y-86358496D02*
X103609371Y-86244211D01*
X103609371Y-86244211D02*
X103723657Y-86187068D01*
X103723657Y-86187068D02*
X103952228Y-86129925D01*
X103952228Y-86129925D02*
X104123657Y-86129925D01*
X104123657Y-86129925D02*
X104352228Y-86187068D01*
X104352228Y-86187068D02*
X104466514Y-86244211D01*
X104466514Y-86244211D02*
X104580800Y-86358496D01*
X104580800Y-86358496D02*
X104637942Y-86529925D01*
X104637942Y-86529925D02*
X104637942Y-86815639D01*
X104295085Y-85672782D02*
X104295085Y-85101354D01*
X104637942Y-85787068D02*
X103437942Y-85387068D01*
X103437942Y-85387068D02*
X104637942Y-84987068D01*
X101980800Y-87965639D02*
X102037942Y-87794211D01*
X102037942Y-87794211D02*
X102037942Y-87508496D01*
X102037942Y-87508496D02*
X101980800Y-87394211D01*
X101980800Y-87394211D02*
X101923657Y-87337068D01*
X101923657Y-87337068D02*
X101809371Y-87279925D01*
X101809371Y-87279925D02*
X101695085Y-87279925D01*
X101695085Y-87279925D02*
X101580800Y-87337068D01*
X101580800Y-87337068D02*
X101523657Y-87394211D01*
X101523657Y-87394211D02*
X101466514Y-87508496D01*
X101466514Y-87508496D02*
X101409371Y-87737068D01*
X101409371Y-87737068D02*
X101352228Y-87851353D01*
X101352228Y-87851353D02*
X101295085Y-87908496D01*
X101295085Y-87908496D02*
X101180800Y-87965639D01*
X101180800Y-87965639D02*
X101066514Y-87965639D01*
X101066514Y-87965639D02*
X100952228Y-87908496D01*
X100952228Y-87908496D02*
X100895085Y-87851353D01*
X100895085Y-87851353D02*
X100837942Y-87737068D01*
X100837942Y-87737068D02*
X100837942Y-87451353D01*
X100837942Y-87451353D02*
X100895085Y-87279925D01*
X101923657Y-86079925D02*
X101980800Y-86137068D01*
X101980800Y-86137068D02*
X102037942Y-86308496D01*
X102037942Y-86308496D02*
X102037942Y-86422782D01*
X102037942Y-86422782D02*
X101980800Y-86594211D01*
X101980800Y-86594211D02*
X101866514Y-86708496D01*
X101866514Y-86708496D02*
X101752228Y-86765639D01*
X101752228Y-86765639D02*
X101523657Y-86822782D01*
X101523657Y-86822782D02*
X101352228Y-86822782D01*
X101352228Y-86822782D02*
X101123657Y-86765639D01*
X101123657Y-86765639D02*
X101009371Y-86708496D01*
X101009371Y-86708496D02*
X100895085Y-86594211D01*
X100895085Y-86594211D02*
X100837942Y-86422782D01*
X100837942Y-86422782D02*
X100837942Y-86308496D01*
X100837942Y-86308496D02*
X100895085Y-86137068D01*
X100895085Y-86137068D02*
X100952228Y-86079925D01*
X102037942Y-84994211D02*
X102037942Y-85565639D01*
X102037942Y-85565639D02*
X100837942Y-85565639D01*
X98337942Y-88079925D02*
X99537942Y-87679925D01*
X99537942Y-87679925D02*
X98337942Y-87279925D01*
X99423657Y-86194211D02*
X99480800Y-86251354D01*
X99480800Y-86251354D02*
X99537942Y-86422782D01*
X99537942Y-86422782D02*
X99537942Y-86537068D01*
X99537942Y-86537068D02*
X99480800Y-86708497D01*
X99480800Y-86708497D02*
X99366514Y-86822782D01*
X99366514Y-86822782D02*
X99252228Y-86879925D01*
X99252228Y-86879925D02*
X99023657Y-86937068D01*
X99023657Y-86937068D02*
X98852228Y-86937068D01*
X98852228Y-86937068D02*
X98623657Y-86879925D01*
X98623657Y-86879925D02*
X98509371Y-86822782D01*
X98509371Y-86822782D02*
X98395085Y-86708497D01*
X98395085Y-86708497D02*
X98337942Y-86537068D01*
X98337942Y-86537068D02*
X98337942Y-86422782D01*
X98337942Y-86422782D02*
X98395085Y-86251354D01*
X98395085Y-86251354D02*
X98452228Y-86194211D01*
X99423657Y-84994211D02*
X99480800Y-85051354D01*
X99480800Y-85051354D02*
X99537942Y-85222782D01*
X99537942Y-85222782D02*
X99537942Y-85337068D01*
X99537942Y-85337068D02*
X99480800Y-85508497D01*
X99480800Y-85508497D02*
X99366514Y-85622782D01*
X99366514Y-85622782D02*
X99252228Y-85679925D01*
X99252228Y-85679925D02*
X99023657Y-85737068D01*
X99023657Y-85737068D02*
X98852228Y-85737068D01*
X98852228Y-85737068D02*
X98623657Y-85679925D01*
X98623657Y-85679925D02*
X98509371Y-85622782D01*
X98509371Y-85622782D02*
X98395085Y-85508497D01*
X98395085Y-85508497D02*
X98337942Y-85337068D01*
X98337942Y-85337068D02*
X98337942Y-85222782D01*
X98337942Y-85222782D02*
X98395085Y-85051354D01*
X98395085Y-85051354D02*
X98452228Y-84994211D01*
X95895085Y-87429925D02*
X95837942Y-87544211D01*
X95837942Y-87544211D02*
X95837942Y-87715639D01*
X95837942Y-87715639D02*
X95895085Y-87887068D01*
X95895085Y-87887068D02*
X96009371Y-88001353D01*
X96009371Y-88001353D02*
X96123657Y-88058496D01*
X96123657Y-88058496D02*
X96352228Y-88115639D01*
X96352228Y-88115639D02*
X96523657Y-88115639D01*
X96523657Y-88115639D02*
X96752228Y-88058496D01*
X96752228Y-88058496D02*
X96866514Y-88001353D01*
X96866514Y-88001353D02*
X96980800Y-87887068D01*
X96980800Y-87887068D02*
X97037942Y-87715639D01*
X97037942Y-87715639D02*
X97037942Y-87601353D01*
X97037942Y-87601353D02*
X96980800Y-87429925D01*
X96980800Y-87429925D02*
X96923657Y-87372782D01*
X96923657Y-87372782D02*
X96523657Y-87372782D01*
X96523657Y-87372782D02*
X96523657Y-87601353D01*
X97037942Y-86858496D02*
X95837942Y-86858496D01*
X95837942Y-86858496D02*
X97037942Y-86172782D01*
X97037942Y-86172782D02*
X95837942Y-86172782D01*
X97037942Y-85601353D02*
X95837942Y-85601353D01*
X95837942Y-85601353D02*
X95837942Y-85315639D01*
X95837942Y-85315639D02*
X95895085Y-85144210D01*
X95895085Y-85144210D02*
X96009371Y-85029925D01*
X96009371Y-85029925D02*
X96123657Y-84972782D01*
X96123657Y-84972782D02*
X96352228Y-84915639D01*
X96352228Y-84915639D02*
X96523657Y-84915639D01*
X96523657Y-84915639D02*
X96752228Y-84972782D01*
X96752228Y-84972782D02*
X96866514Y-85029925D01*
X96866514Y-85029925D02*
X96980800Y-85144210D01*
X96980800Y-85144210D02*
X97037942Y-85315639D01*
X97037942Y-85315639D02*
X97037942Y-85601353D01*
D11*
X138575580Y-112434666D02*
X138623200Y-112482285D01*
X138623200Y-112482285D02*
X138670819Y-112625142D01*
X138670819Y-112625142D02*
X138670819Y-112720380D01*
X138670819Y-112720380D02*
X138623200Y-112863237D01*
X138623200Y-112863237D02*
X138527961Y-112958475D01*
X138527961Y-112958475D02*
X138432723Y-113006094D01*
X138432723Y-113006094D02*
X138242247Y-113053713D01*
X138242247Y-113053713D02*
X138099390Y-113053713D01*
X138099390Y-113053713D02*
X137908914Y-113006094D01*
X137908914Y-113006094D02*
X137813676Y-112958475D01*
X137813676Y-112958475D02*
X137718438Y-112863237D01*
X137718438Y-112863237D02*
X137670819Y-112720380D01*
X137670819Y-112720380D02*
X137670819Y-112625142D01*
X137670819Y-112625142D02*
X137718438Y-112482285D01*
X137718438Y-112482285D02*
X137766057Y-112434666D01*
X137766057Y-112053713D02*
X137718438Y-112006094D01*
X137718438Y-112006094D02*
X137670819Y-111910856D01*
X137670819Y-111910856D02*
X137670819Y-111672761D01*
X137670819Y-111672761D02*
X137718438Y-111577523D01*
X137718438Y-111577523D02*
X137766057Y-111529904D01*
X137766057Y-111529904D02*
X137861295Y-111482285D01*
X137861295Y-111482285D02*
X137956533Y-111482285D01*
X137956533Y-111482285D02*
X138099390Y-111529904D01*
X138099390Y-111529904D02*
X138670819Y-112101332D01*
X138670819Y-112101332D02*
X138670819Y-111482285D01*
X153808667Y-95435200D02*
X153951524Y-95482819D01*
X153951524Y-95482819D02*
X154189619Y-95482819D01*
X154189619Y-95482819D02*
X154284857Y-95435200D01*
X154284857Y-95435200D02*
X154332476Y-95387580D01*
X154332476Y-95387580D02*
X154380095Y-95292342D01*
X154380095Y-95292342D02*
X154380095Y-95197104D01*
X154380095Y-95197104D02*
X154332476Y-95101866D01*
X154332476Y-95101866D02*
X154284857Y-95054247D01*
X154284857Y-95054247D02*
X154189619Y-95006628D01*
X154189619Y-95006628D02*
X153999143Y-94959009D01*
X153999143Y-94959009D02*
X153903905Y-94911390D01*
X153903905Y-94911390D02*
X153856286Y-94863771D01*
X153856286Y-94863771D02*
X153808667Y-94768533D01*
X153808667Y-94768533D02*
X153808667Y-94673295D01*
X153808667Y-94673295D02*
X153856286Y-94578057D01*
X153856286Y-94578057D02*
X153903905Y-94530438D01*
X153903905Y-94530438D02*
X153999143Y-94482819D01*
X153999143Y-94482819D02*
X154237238Y-94482819D01*
X154237238Y-94482819D02*
X154380095Y-94530438D01*
X154713429Y-94482819D02*
X154951524Y-95482819D01*
X154951524Y-95482819D02*
X155142000Y-94768533D01*
X155142000Y-94768533D02*
X155332476Y-95482819D01*
X155332476Y-95482819D02*
X155570572Y-94482819D01*
X156475333Y-95482819D02*
X155903905Y-95482819D01*
X156189619Y-95482819D02*
X156189619Y-94482819D01*
X156189619Y-94482819D02*
X156094381Y-94625676D01*
X156094381Y-94625676D02*
X155999143Y-94720914D01*
X155999143Y-94720914D02*
X155903905Y-94768533D01*
X149824819Y-123476666D02*
X149348628Y-123809999D01*
X149824819Y-124048094D02*
X148824819Y-124048094D01*
X148824819Y-124048094D02*
X148824819Y-123667142D01*
X148824819Y-123667142D02*
X148872438Y-123571904D01*
X148872438Y-123571904D02*
X148920057Y-123524285D01*
X148920057Y-123524285D02*
X149015295Y-123476666D01*
X149015295Y-123476666D02*
X149158152Y-123476666D01*
X149158152Y-123476666D02*
X149253390Y-123524285D01*
X149253390Y-123524285D02*
X149301009Y-123571904D01*
X149301009Y-123571904D02*
X149348628Y-123667142D01*
X149348628Y-123667142D02*
X149348628Y-124048094D01*
X148824819Y-123143332D02*
X148824819Y-122524285D01*
X148824819Y-122524285D02*
X149205771Y-122857618D01*
X149205771Y-122857618D02*
X149205771Y-122714761D01*
X149205771Y-122714761D02*
X149253390Y-122619523D01*
X149253390Y-122619523D02*
X149301009Y-122571904D01*
X149301009Y-122571904D02*
X149396247Y-122524285D01*
X149396247Y-122524285D02*
X149634342Y-122524285D01*
X149634342Y-122524285D02*
X149729580Y-122571904D01*
X149729580Y-122571904D02*
X149777200Y-122619523D01*
X149777200Y-122619523D02*
X149824819Y-122714761D01*
X149824819Y-122714761D02*
X149824819Y-123000475D01*
X149824819Y-123000475D02*
X149777200Y-123095713D01*
X149777200Y-123095713D02*
X149729580Y-123143332D01*
X153808667Y-120835200D02*
X153951524Y-120882819D01*
X153951524Y-120882819D02*
X154189619Y-120882819D01*
X154189619Y-120882819D02*
X154284857Y-120835200D01*
X154284857Y-120835200D02*
X154332476Y-120787580D01*
X154332476Y-120787580D02*
X154380095Y-120692342D01*
X154380095Y-120692342D02*
X154380095Y-120597104D01*
X154380095Y-120597104D02*
X154332476Y-120501866D01*
X154332476Y-120501866D02*
X154284857Y-120454247D01*
X154284857Y-120454247D02*
X154189619Y-120406628D01*
X154189619Y-120406628D02*
X153999143Y-120359009D01*
X153999143Y-120359009D02*
X153903905Y-120311390D01*
X153903905Y-120311390D02*
X153856286Y-120263771D01*
X153856286Y-120263771D02*
X153808667Y-120168533D01*
X153808667Y-120168533D02*
X153808667Y-120073295D01*
X153808667Y-120073295D02*
X153856286Y-119978057D01*
X153856286Y-119978057D02*
X153903905Y-119930438D01*
X153903905Y-119930438D02*
X153999143Y-119882819D01*
X153999143Y-119882819D02*
X154237238Y-119882819D01*
X154237238Y-119882819D02*
X154380095Y-119930438D01*
X154713429Y-119882819D02*
X154951524Y-120882819D01*
X154951524Y-120882819D02*
X155142000Y-120168533D01*
X155142000Y-120168533D02*
X155332476Y-120882819D01*
X155332476Y-120882819D02*
X155570572Y-119882819D01*
X155856286Y-119882819D02*
X156475333Y-119882819D01*
X156475333Y-119882819D02*
X156142000Y-120263771D01*
X156142000Y-120263771D02*
X156284857Y-120263771D01*
X156284857Y-120263771D02*
X156380095Y-120311390D01*
X156380095Y-120311390D02*
X156427714Y-120359009D01*
X156427714Y-120359009D02*
X156475333Y-120454247D01*
X156475333Y-120454247D02*
X156475333Y-120692342D01*
X156475333Y-120692342D02*
X156427714Y-120787580D01*
X156427714Y-120787580D02*
X156380095Y-120835200D01*
X156380095Y-120835200D02*
X156284857Y-120882819D01*
X156284857Y-120882819D02*
X155999143Y-120882819D01*
X155999143Y-120882819D02*
X155903905Y-120835200D01*
X155903905Y-120835200D02*
X155856286Y-120787580D01*
X154114667Y-107595200D02*
X154257524Y-107642819D01*
X154257524Y-107642819D02*
X154495619Y-107642819D01*
X154495619Y-107642819D02*
X154590857Y-107595200D01*
X154590857Y-107595200D02*
X154638476Y-107547580D01*
X154638476Y-107547580D02*
X154686095Y-107452342D01*
X154686095Y-107452342D02*
X154686095Y-107357104D01*
X154686095Y-107357104D02*
X154638476Y-107261866D01*
X154638476Y-107261866D02*
X154590857Y-107214247D01*
X154590857Y-107214247D02*
X154495619Y-107166628D01*
X154495619Y-107166628D02*
X154305143Y-107119009D01*
X154305143Y-107119009D02*
X154209905Y-107071390D01*
X154209905Y-107071390D02*
X154162286Y-107023771D01*
X154162286Y-107023771D02*
X154114667Y-106928533D01*
X154114667Y-106928533D02*
X154114667Y-106833295D01*
X154114667Y-106833295D02*
X154162286Y-106738057D01*
X154162286Y-106738057D02*
X154209905Y-106690438D01*
X154209905Y-106690438D02*
X154305143Y-106642819D01*
X154305143Y-106642819D02*
X154543238Y-106642819D01*
X154543238Y-106642819D02*
X154686095Y-106690438D01*
X155019429Y-106642819D02*
X155257524Y-107642819D01*
X155257524Y-107642819D02*
X155448000Y-106928533D01*
X155448000Y-106928533D02*
X155638476Y-107642819D01*
X155638476Y-107642819D02*
X155876572Y-106642819D01*
X156209905Y-106738057D02*
X156257524Y-106690438D01*
X156257524Y-106690438D02*
X156352762Y-106642819D01*
X156352762Y-106642819D02*
X156590857Y-106642819D01*
X156590857Y-106642819D02*
X156686095Y-106690438D01*
X156686095Y-106690438D02*
X156733714Y-106738057D01*
X156733714Y-106738057D02*
X156781333Y-106833295D01*
X156781333Y-106833295D02*
X156781333Y-106928533D01*
X156781333Y-106928533D02*
X156733714Y-107071390D01*
X156733714Y-107071390D02*
X156162286Y-107642819D01*
X156162286Y-107642819D02*
X156781333Y-107642819D01*
X150324819Y-110976666D02*
X149848628Y-111309999D01*
X150324819Y-111548094D02*
X149324819Y-111548094D01*
X149324819Y-111548094D02*
X149324819Y-111167142D01*
X149324819Y-111167142D02*
X149372438Y-111071904D01*
X149372438Y-111071904D02*
X149420057Y-111024285D01*
X149420057Y-111024285D02*
X149515295Y-110976666D01*
X149515295Y-110976666D02*
X149658152Y-110976666D01*
X149658152Y-110976666D02*
X149753390Y-111024285D01*
X149753390Y-111024285D02*
X149801009Y-111071904D01*
X149801009Y-111071904D02*
X149848628Y-111167142D01*
X149848628Y-111167142D02*
X149848628Y-111548094D01*
X149420057Y-110595713D02*
X149372438Y-110548094D01*
X149372438Y-110548094D02*
X149324819Y-110452856D01*
X149324819Y-110452856D02*
X149324819Y-110214761D01*
X149324819Y-110214761D02*
X149372438Y-110119523D01*
X149372438Y-110119523D02*
X149420057Y-110071904D01*
X149420057Y-110071904D02*
X149515295Y-110024285D01*
X149515295Y-110024285D02*
X149610533Y-110024285D01*
X149610533Y-110024285D02*
X149753390Y-110071904D01*
X149753390Y-110071904D02*
X150324819Y-110643332D01*
X150324819Y-110643332D02*
X150324819Y-110024285D01*
X150899905Y-92806819D02*
X150899905Y-91806819D01*
X150899905Y-91806819D02*
X151138000Y-91806819D01*
X151138000Y-91806819D02*
X151280857Y-91854438D01*
X151280857Y-91854438D02*
X151376095Y-91949676D01*
X151376095Y-91949676D02*
X151423714Y-92044914D01*
X151423714Y-92044914D02*
X151471333Y-92235390D01*
X151471333Y-92235390D02*
X151471333Y-92378247D01*
X151471333Y-92378247D02*
X151423714Y-92568723D01*
X151423714Y-92568723D02*
X151376095Y-92663961D01*
X151376095Y-92663961D02*
X151280857Y-92759200D01*
X151280857Y-92759200D02*
X151138000Y-92806819D01*
X151138000Y-92806819D02*
X150899905Y-92806819D01*
X152423714Y-92806819D02*
X151852286Y-92806819D01*
X152138000Y-92806819D02*
X152138000Y-91806819D01*
X152138000Y-91806819D02*
X152042762Y-91949676D01*
X152042762Y-91949676D02*
X151947524Y-92044914D01*
X151947524Y-92044914D02*
X151852286Y-92092533D01*
X124665714Y-129249104D02*
X125141904Y-129249104D01*
X124570476Y-129534819D02*
X124903809Y-128534819D01*
X124903809Y-128534819D02*
X125237142Y-129534819D01*
X126094285Y-129534819D02*
X125522857Y-129534819D01*
X125808571Y-129534819D02*
X125808571Y-128534819D01*
X125808571Y-128534819D02*
X125713333Y-128677676D01*
X125713333Y-128677676D02*
X125618095Y-128772914D01*
X125618095Y-128772914D02*
X125522857Y-128820533D01*
X126641904Y-88985180D02*
X126641904Y-88175657D01*
X126641904Y-88175657D02*
X126594285Y-88080419D01*
X126594285Y-88080419D02*
X126546666Y-88032800D01*
X126546666Y-88032800D02*
X126451428Y-87985180D01*
X126451428Y-87985180D02*
X126260952Y-87985180D01*
X126260952Y-87985180D02*
X126165714Y-88032800D01*
X126165714Y-88032800D02*
X126118095Y-88080419D01*
X126118095Y-88080419D02*
X126070476Y-88175657D01*
X126070476Y-88175657D02*
X126070476Y-88985180D01*
X125641904Y-88032800D02*
X125499047Y-87985180D01*
X125499047Y-87985180D02*
X125260952Y-87985180D01*
X125260952Y-87985180D02*
X125165714Y-88032800D01*
X125165714Y-88032800D02*
X125118095Y-88080419D01*
X125118095Y-88080419D02*
X125070476Y-88175657D01*
X125070476Y-88175657D02*
X125070476Y-88270895D01*
X125070476Y-88270895D02*
X125118095Y-88366133D01*
X125118095Y-88366133D02*
X125165714Y-88413752D01*
X125165714Y-88413752D02*
X125260952Y-88461371D01*
X125260952Y-88461371D02*
X125451428Y-88508990D01*
X125451428Y-88508990D02*
X125546666Y-88556609D01*
X125546666Y-88556609D02*
X125594285Y-88604228D01*
X125594285Y-88604228D02*
X125641904Y-88699466D01*
X125641904Y-88699466D02*
X125641904Y-88794704D01*
X125641904Y-88794704D02*
X125594285Y-88889942D01*
X125594285Y-88889942D02*
X125546666Y-88937561D01*
X125546666Y-88937561D02*
X125451428Y-88985180D01*
X125451428Y-88985180D02*
X125213333Y-88985180D01*
X125213333Y-88985180D02*
X125070476Y-88937561D01*
X124308571Y-88508990D02*
X124165714Y-88461371D01*
X124165714Y-88461371D02*
X124118095Y-88413752D01*
X124118095Y-88413752D02*
X124070476Y-88318514D01*
X124070476Y-88318514D02*
X124070476Y-88175657D01*
X124070476Y-88175657D02*
X124118095Y-88080419D01*
X124118095Y-88080419D02*
X124165714Y-88032800D01*
X124165714Y-88032800D02*
X124260952Y-87985180D01*
X124260952Y-87985180D02*
X124641904Y-87985180D01*
X124641904Y-87985180D02*
X124641904Y-88985180D01*
X124641904Y-88985180D02*
X124308571Y-88985180D01*
X124308571Y-88985180D02*
X124213333Y-88937561D01*
X124213333Y-88937561D02*
X124165714Y-88889942D01*
X124165714Y-88889942D02*
X124118095Y-88794704D01*
X124118095Y-88794704D02*
X124118095Y-88699466D01*
X124118095Y-88699466D02*
X124165714Y-88604228D01*
X124165714Y-88604228D02*
X124213333Y-88556609D01*
X124213333Y-88556609D02*
X124308571Y-88508990D01*
X124308571Y-88508990D02*
X124641904Y-88508990D01*
X138575580Y-100242666D02*
X138623200Y-100290285D01*
X138623200Y-100290285D02*
X138670819Y-100433142D01*
X138670819Y-100433142D02*
X138670819Y-100528380D01*
X138670819Y-100528380D02*
X138623200Y-100671237D01*
X138623200Y-100671237D02*
X138527961Y-100766475D01*
X138527961Y-100766475D02*
X138432723Y-100814094D01*
X138432723Y-100814094D02*
X138242247Y-100861713D01*
X138242247Y-100861713D02*
X138099390Y-100861713D01*
X138099390Y-100861713D02*
X137908914Y-100814094D01*
X137908914Y-100814094D02*
X137813676Y-100766475D01*
X137813676Y-100766475D02*
X137718438Y-100671237D01*
X137718438Y-100671237D02*
X137670819Y-100528380D01*
X137670819Y-100528380D02*
X137670819Y-100433142D01*
X137670819Y-100433142D02*
X137718438Y-100290285D01*
X137718438Y-100290285D02*
X137766057Y-100242666D01*
X138670819Y-99290285D02*
X138670819Y-99861713D01*
X138670819Y-99575999D02*
X137670819Y-99575999D01*
X137670819Y-99575999D02*
X137813676Y-99671237D01*
X137813676Y-99671237D02*
X137908914Y-99766475D01*
X137908914Y-99766475D02*
X137956533Y-99861713D01*
D13*
X139854000Y-121990000D02*
X140184000Y-121990000D01*
X139854000Y-126930000D02*
X139854000Y-121990000D01*
X140184000Y-126930000D02*
X139854000Y-126930000D01*
X142264000Y-121990000D02*
X142594000Y-121990000D01*
X142594000Y-121990000D02*
X142594000Y-126930000D01*
X142594000Y-126930000D02*
X142264000Y-126930000D01*
X138420000Y-87130000D02*
X144960000Y-87130000D01*
X138420000Y-87460000D02*
X138420000Y-87130000D01*
X138420000Y-89540000D02*
X138420000Y-89870000D01*
X138420000Y-89870000D02*
X144960000Y-89870000D01*
X144960000Y-87130000D02*
X144960000Y-87460000D01*
X144960000Y-89870000D02*
X144960000Y-89540000D01*
X145442000Y-95536000D02*
X145442000Y-102076000D01*
X145442000Y-102076000D02*
X145772000Y-102076000D01*
X145772000Y-95536000D02*
X145442000Y-95536000D01*
X147852000Y-95536000D02*
X148182000Y-95536000D01*
X148182000Y-95536000D02*
X148182000Y-102076000D01*
X148182000Y-102076000D02*
X147852000Y-102076000D01*
D12*
X86500000Y-116000000D02*
X100500000Y-116000000D01*
X86500000Y-130000000D02*
X86500000Y-116000000D01*
X100500000Y-116000000D02*
X100500000Y-130000000D01*
X100500000Y-130000000D02*
X86500000Y-130000000D01*
X86190000Y-81930000D02*
X114190000Y-81930000D01*
X86190000Y-109930000D02*
X86190000Y-81930000D01*
X114190000Y-81930000D02*
X114190000Y-109930000D01*
X114190000Y-109930000D02*
X86190000Y-109930000D01*
X86190000Y-81930000D02*
X114190000Y-81930000D01*
X114190000Y-109930000D01*
X86190000Y-109930000D01*
X86190000Y-81930000D01*
D13*
X139346000Y-109798000D02*
X139676000Y-109798000D01*
X139346000Y-114738000D02*
X139346000Y-109798000D01*
X139676000Y-114738000D02*
X139346000Y-114738000D01*
X141756000Y-109798000D02*
X142086000Y-109798000D01*
X142086000Y-109798000D02*
X142086000Y-114738000D01*
X142086000Y-114738000D02*
X141756000Y-114738000D01*
X151642000Y-98528000D02*
X151642000Y-100028000D01*
X152892000Y-102528000D02*
X157392000Y-102528000D01*
X157392000Y-96028000D02*
X152892000Y-96028000D01*
X158642000Y-100028000D02*
X158642000Y-98528000D01*
X145630000Y-120040000D02*
X145630000Y-126580000D01*
X145630000Y-126580000D02*
X145960000Y-126580000D01*
X145960000Y-120040000D02*
X145630000Y-120040000D01*
X148040000Y-120040000D02*
X148370000Y-120040000D01*
X148370000Y-120040000D02*
X148370000Y-126580000D01*
X148370000Y-126580000D02*
X148040000Y-126580000D01*
X151642000Y-123928000D02*
X151642000Y-125428000D01*
X152892000Y-127928000D02*
X157392000Y-127928000D01*
X157392000Y-121428000D02*
X152892000Y-121428000D01*
X158642000Y-125428000D02*
X158642000Y-123928000D01*
X152150000Y-111228000D02*
X152150000Y-112728000D01*
X153400000Y-115228000D02*
X157900000Y-115228000D01*
X157900000Y-108728000D02*
X153400000Y-108728000D01*
X159150000Y-112728000D02*
X159150000Y-111228000D01*
X146130000Y-107540000D02*
X146130000Y-114080000D01*
X146130000Y-114080000D02*
X146460000Y-114080000D01*
X146460000Y-107540000D02*
X146130000Y-107540000D01*
X148540000Y-107540000D02*
X148870000Y-107540000D01*
X148870000Y-107540000D02*
X148870000Y-114080000D01*
X148870000Y-114080000D02*
X148540000Y-114080000D01*
X154198000Y-89937000D02*
X154198000Y-86847000D01*
X148648000Y-88392000D02*
G75*
G02*
X154198000Y-86847170I2990000J0D01*
G01*
X154198000Y-89936830D02*
G75*
G02*
X148648000Y-88392000I-2560000J1544830D01*
G01*
X154138000Y-88392000D02*
G75*
G02*
X149138000Y-88392000I-2500000J0D01*
G01*
X149138000Y-88392000D02*
G75*
G02*
X154138000Y-88392000I2500000J0D01*
G01*
X116360000Y-84500000D02*
X116360000Y-127940000D01*
X116360000Y-84500000D02*
X121440000Y-84500000D01*
X116360000Y-127940000D02*
X134400000Y-127940000D01*
X119030000Y-87170000D02*
X116360000Y-87170000D01*
X119030000Y-125270000D02*
X116360000Y-125270000D01*
X119030000Y-125270000D02*
X119030000Y-87170000D01*
X121440000Y-81960000D02*
X129320000Y-81960000D01*
X121440000Y-92380000D02*
X121440000Y-81960000D01*
X129320000Y-81960000D02*
X129320000Y-92380000D01*
X129320000Y-92380000D02*
X121440000Y-92380000D01*
X131730000Y-87170000D02*
X134400000Y-87170000D01*
X131730000Y-122730000D02*
X131730000Y-87170000D01*
X131730000Y-122730000D02*
X131730000Y-125270000D01*
X131730000Y-122730000D02*
X134400000Y-122730000D01*
X131730000Y-125270000D02*
X134400000Y-125270000D01*
X134400000Y-84500000D02*
X129320000Y-84500000D01*
X134400000Y-122730000D02*
X134400000Y-84500000D01*
X134400000Y-127940000D02*
X134400000Y-125270000D01*
X139346000Y-97606000D02*
X139676000Y-97606000D01*
X139346000Y-102546000D02*
X139346000Y-97606000D01*
X139676000Y-102546000D02*
X139346000Y-102546000D01*
X141756000Y-97606000D02*
X142086000Y-97606000D01*
X142086000Y-97606000D02*
X142086000Y-102546000D01*
X142086000Y-102546000D02*
X141756000Y-102546000D01*
%LPC*%
G36*
X152182285Y-125971060D02*
G01*
X152363397Y-126046079D01*
X152526393Y-126154990D01*
X152665010Y-126293607D01*
X152773921Y-126456603D01*
X152848940Y-126637715D01*
X152887185Y-126829983D01*
X152887185Y-127026017D01*
X152848940Y-127218285D01*
X152773921Y-127399397D01*
X152665010Y-127562393D01*
X152526393Y-127701010D01*
X152363397Y-127809921D01*
X152182285Y-127884940D01*
X151990017Y-127923185D01*
X151793983Y-127923185D01*
X151601715Y-127884940D01*
X151420603Y-127809921D01*
X151257607Y-127701010D01*
X151118990Y-127562393D01*
X151010079Y-127399397D01*
X150935060Y-127218285D01*
X150896815Y-127026017D01*
X150896815Y-126829983D01*
X150935060Y-126637715D01*
X151010079Y-126456603D01*
X151118990Y-126293607D01*
X151257607Y-126154990D01*
X151420603Y-126046079D01*
X151601715Y-125971060D01*
X151793983Y-125932815D01*
X151990017Y-125932815D01*
X152182285Y-125971060D01*
G37*
G36*
X158682285Y-125971060D02*
G01*
X158863397Y-126046079D01*
X159026393Y-126154990D01*
X159165010Y-126293607D01*
X159273921Y-126456603D01*
X159348940Y-126637715D01*
X159387185Y-126829983D01*
X159387185Y-127026017D01*
X159348940Y-127218285D01*
X159273921Y-127399397D01*
X159165010Y-127562393D01*
X159026393Y-127701010D01*
X158863397Y-127809921D01*
X158682285Y-127884940D01*
X158490017Y-127923185D01*
X158293983Y-127923185D01*
X158101715Y-127884940D01*
X157920603Y-127809921D01*
X157757607Y-127701010D01*
X157618990Y-127562393D01*
X157510079Y-127399397D01*
X157435060Y-127218285D01*
X157396815Y-127026017D01*
X157396815Y-126829983D01*
X157435060Y-126637715D01*
X157510079Y-126456603D01*
X157618990Y-126293607D01*
X157757607Y-126154990D01*
X157920603Y-126046079D01*
X158101715Y-125971060D01*
X158293983Y-125932815D01*
X158490017Y-125932815D01*
X158682285Y-125971060D01*
G37*
G36*
X147232228Y-126354448D02*
G01*
X147377117Y-126414463D01*
X147507515Y-126501592D01*
X147618408Y-126612485D01*
X147705537Y-126742883D01*
X147765552Y-126887772D01*
X147796148Y-127041586D01*
X147796148Y-127198414D01*
X147765552Y-127352228D01*
X147705537Y-127497117D01*
X147618408Y-127627515D01*
X147507515Y-127738408D01*
X147377117Y-127825537D01*
X147232228Y-127885552D01*
X147078414Y-127916148D01*
X146921586Y-127916148D01*
X146767772Y-127885552D01*
X146622883Y-127825537D01*
X146492485Y-127738408D01*
X146381592Y-127627515D01*
X146294463Y-127497117D01*
X146234448Y-127352228D01*
X146203852Y-127198414D01*
X146203852Y-127041586D01*
X146234448Y-126887772D01*
X146294463Y-126742883D01*
X146381592Y-126612485D01*
X146492485Y-126501592D01*
X146622883Y-126414463D01*
X146767772Y-126354448D01*
X146921586Y-126323852D01*
X147078414Y-126323852D01*
X147232228Y-126354448D01*
G37*
G36*
X141456228Y-126194448D02*
G01*
X141601117Y-126254463D01*
X141731515Y-126341592D01*
X141842408Y-126452485D01*
X141929537Y-126582883D01*
X141989552Y-126727772D01*
X142020148Y-126881586D01*
X142020148Y-127038414D01*
X141989552Y-127192228D01*
X141929537Y-127337117D01*
X141842408Y-127467515D01*
X141731515Y-127578408D01*
X141601117Y-127665537D01*
X141456228Y-127725552D01*
X141302414Y-127756148D01*
X141145586Y-127756148D01*
X140991772Y-127725552D01*
X140846883Y-127665537D01*
X140716485Y-127578408D01*
X140605592Y-127467515D01*
X140518463Y-127337117D01*
X140458448Y-127192228D01*
X140427852Y-127038414D01*
X140427852Y-126881586D01*
X140458448Y-126727772D01*
X140518463Y-126582883D01*
X140605592Y-126452485D01*
X140716485Y-126341592D01*
X140846883Y-126254463D01*
X140991772Y-126194448D01*
X141145586Y-126163852D01*
X141302414Y-126163852D01*
X141456228Y-126194448D01*
G37*
G36*
X133800000Y-124800000D02*
G01*
X132200000Y-124800000D01*
X132200000Y-123200000D01*
X133800000Y-123200000D01*
X133800000Y-124800000D01*
G37*
G36*
X117992228Y-123234448D02*
G01*
X118137117Y-123294463D01*
X118267515Y-123381592D01*
X118378408Y-123492485D01*
X118465537Y-123622883D01*
X118525552Y-123767772D01*
X118556148Y-123921586D01*
X118556148Y-124078414D01*
X118525552Y-124232228D01*
X118465537Y-124377117D01*
X118378408Y-124507515D01*
X118267515Y-124618408D01*
X118137117Y-124705537D01*
X117992228Y-124765552D01*
X117838414Y-124796148D01*
X117681586Y-124796148D01*
X117527772Y-124765552D01*
X117382883Y-124705537D01*
X117252485Y-124618408D01*
X117141592Y-124507515D01*
X117054463Y-124377117D01*
X116994448Y-124232228D01*
X116963852Y-124078414D01*
X116963852Y-123921586D01*
X116994448Y-123767772D01*
X117054463Y-123622883D01*
X117141592Y-123492485D01*
X117252485Y-123381592D01*
X117382883Y-123294463D01*
X117527772Y-123234448D01*
X117681586Y-123203852D01*
X117838414Y-123203852D01*
X117992228Y-123234448D01*
G37*
G36*
X152182285Y-121471060D02*
G01*
X152363397Y-121546079D01*
X152526393Y-121654990D01*
X152665010Y-121793607D01*
X152773921Y-121956603D01*
X152848940Y-122137715D01*
X152887185Y-122329983D01*
X152887185Y-122526017D01*
X152848940Y-122718285D01*
X152773921Y-122899397D01*
X152665010Y-123062393D01*
X152526393Y-123201010D01*
X152363397Y-123309921D01*
X152182285Y-123384940D01*
X151990017Y-123423185D01*
X151793983Y-123423185D01*
X151601715Y-123384940D01*
X151420603Y-123309921D01*
X151257607Y-123201010D01*
X151118990Y-123062393D01*
X151010079Y-122899397D01*
X150935060Y-122718285D01*
X150896815Y-122526017D01*
X150896815Y-122329983D01*
X150935060Y-122137715D01*
X151010079Y-121956603D01*
X151118990Y-121793607D01*
X151257607Y-121654990D01*
X151420603Y-121546079D01*
X151601715Y-121471060D01*
X151793983Y-121432815D01*
X151990017Y-121432815D01*
X152182285Y-121471060D01*
G37*
G36*
X158682285Y-121471060D02*
G01*
X158863397Y-121546079D01*
X159026393Y-121654990D01*
X159165010Y-121793607D01*
X159273921Y-121956603D01*
X159348940Y-122137715D01*
X159387185Y-122329983D01*
X159387185Y-122526017D01*
X159348940Y-122718285D01*
X159273921Y-122899397D01*
X159165010Y-123062393D01*
X159026393Y-123201010D01*
X158863397Y-123309921D01*
X158682285Y-123384940D01*
X158490017Y-123423185D01*
X158293983Y-123423185D01*
X158101715Y-123384940D01*
X157920603Y-123309921D01*
X157757607Y-123201010D01*
X157618990Y-123062393D01*
X157510079Y-122899397D01*
X157435060Y-122718285D01*
X157396815Y-122526017D01*
X157396815Y-122329983D01*
X157435060Y-122137715D01*
X157510079Y-121956603D01*
X157618990Y-121793607D01*
X157757607Y-121654990D01*
X157920603Y-121546079D01*
X158101715Y-121471060D01*
X158293983Y-121432815D01*
X158490017Y-121432815D01*
X158682285Y-121471060D01*
G37*
G36*
X141456228Y-121194448D02*
G01*
X141601117Y-121254463D01*
X141731515Y-121341592D01*
X141842408Y-121452485D01*
X141929537Y-121582883D01*
X141989552Y-121727772D01*
X142020148Y-121881586D01*
X142020148Y-122038414D01*
X141989552Y-122192228D01*
X141929537Y-122337117D01*
X141842408Y-122467515D01*
X141731515Y-122578408D01*
X141601117Y-122665537D01*
X141456228Y-122725552D01*
X141302414Y-122756148D01*
X141145586Y-122756148D01*
X140991772Y-122725552D01*
X140846883Y-122665537D01*
X140716485Y-122578408D01*
X140605592Y-122467515D01*
X140518463Y-122337117D01*
X140458448Y-122192228D01*
X140427852Y-122038414D01*
X140427852Y-121881586D01*
X140458448Y-121727772D01*
X140518463Y-121582883D01*
X140605592Y-121452485D01*
X140716485Y-121341592D01*
X140846883Y-121254463D01*
X140991772Y-121194448D01*
X141145586Y-121163852D01*
X141302414Y-121163852D01*
X141456228Y-121194448D01*
G37*
G36*
X117992228Y-120694448D02*
G01*
X118137117Y-120754463D01*
X118267515Y-120841592D01*
X118378408Y-120952485D01*
X118465537Y-121082883D01*
X118525552Y-121227772D01*
X118556148Y-121381586D01*
X118556148Y-121538414D01*
X118525552Y-121692228D01*
X118465537Y-121837117D01*
X118378408Y-121967515D01*
X118267515Y-122078408D01*
X118137117Y-122165537D01*
X117992228Y-122225552D01*
X117838414Y-122256148D01*
X117681586Y-122256148D01*
X117527772Y-122225552D01*
X117382883Y-122165537D01*
X117252485Y-122078408D01*
X117141592Y-121967515D01*
X117054463Y-121837117D01*
X116994448Y-121692228D01*
X116963852Y-121538414D01*
X116963852Y-121381586D01*
X116994448Y-121227772D01*
X117054463Y-121082883D01*
X117141592Y-120952485D01*
X117252485Y-120841592D01*
X117382883Y-120754463D01*
X117527772Y-120694448D01*
X117681586Y-120663852D01*
X117838414Y-120663852D01*
X117992228Y-120694448D01*
G37*
G36*
X133232228Y-120694448D02*
G01*
X133377117Y-120754463D01*
X133507515Y-120841592D01*
X133618408Y-120952485D01*
X133705537Y-121082883D01*
X133765552Y-121227772D01*
X133796148Y-121381586D01*
X133796148Y-121538414D01*
X133765552Y-121692228D01*
X133705537Y-121837117D01*
X133618408Y-121967515D01*
X133507515Y-122078408D01*
X133377117Y-122165537D01*
X133232228Y-122225552D01*
X133078414Y-122256148D01*
X132921586Y-122256148D01*
X132767772Y-122225552D01*
X132622883Y-122165537D01*
X132492485Y-122078408D01*
X132381592Y-121967515D01*
X132294463Y-121837117D01*
X132234448Y-121692228D01*
X132203852Y-121538414D01*
X132203852Y-121381586D01*
X132234448Y-121227772D01*
X132294463Y-121082883D01*
X132381592Y-120952485D01*
X132492485Y-120841592D01*
X132622883Y-120754463D01*
X132767772Y-120694448D01*
X132921586Y-120663852D01*
X133078414Y-120663852D01*
X133232228Y-120694448D01*
G37*
G36*
X147232228Y-118734448D02*
G01*
X147377117Y-118794463D01*
X147507515Y-118881592D01*
X147618408Y-118992485D01*
X147705537Y-119122883D01*
X147765552Y-119267772D01*
X147796148Y-119421586D01*
X147796148Y-119578414D01*
X147765552Y-119732228D01*
X147705537Y-119877117D01*
X147618408Y-120007515D01*
X147507515Y-120118408D01*
X147377117Y-120205537D01*
X147232228Y-120265552D01*
X147078414Y-120296148D01*
X146921586Y-120296148D01*
X146767772Y-120265552D01*
X146622883Y-120205537D01*
X146492485Y-120118408D01*
X146381592Y-120007515D01*
X146294463Y-119877117D01*
X146234448Y-119732228D01*
X146203852Y-119578414D01*
X146203852Y-119421586D01*
X146234448Y-119267772D01*
X146294463Y-119122883D01*
X146381592Y-118992485D01*
X146492485Y-118881592D01*
X146622883Y-118794463D01*
X146767772Y-118734448D01*
X146921586Y-118703852D01*
X147078414Y-118703852D01*
X147232228Y-118734448D01*
G37*
G36*
X117992228Y-118154448D02*
G01*
X118137117Y-118214463D01*
X118267515Y-118301592D01*
X118378408Y-118412485D01*
X118465537Y-118542883D01*
X118525552Y-118687772D01*
X118556148Y-118841586D01*
X118556148Y-118998414D01*
X118525552Y-119152228D01*
X118465537Y-119297117D01*
X118378408Y-119427515D01*
X118267515Y-119538408D01*
X118137117Y-119625537D01*
X117992228Y-119685552D01*
X117838414Y-119716148D01*
X117681586Y-119716148D01*
X117527772Y-119685552D01*
X117382883Y-119625537D01*
X117252485Y-119538408D01*
X117141592Y-119427515D01*
X117054463Y-119297117D01*
X116994448Y-119152228D01*
X116963852Y-118998414D01*
X116963852Y-118841586D01*
X116994448Y-118687772D01*
X117054463Y-118542883D01*
X117141592Y-118412485D01*
X117252485Y-118301592D01*
X117382883Y-118214463D01*
X117527772Y-118154448D01*
X117681586Y-118123852D01*
X117838414Y-118123852D01*
X117992228Y-118154448D01*
G37*
G36*
X133232228Y-118154448D02*
G01*
X133377117Y-118214463D01*
X133507515Y-118301592D01*
X133618408Y-118412485D01*
X133705537Y-118542883D01*
X133765552Y-118687772D01*
X133796148Y-118841586D01*
X133796148Y-118998414D01*
X133765552Y-119152228D01*
X133705537Y-119297117D01*
X133618408Y-119427515D01*
X133507515Y-119538408D01*
X133377117Y-119625537D01*
X133232228Y-119685552D01*
X133078414Y-119716148D01*
X132921586Y-119716148D01*
X132767772Y-119685552D01*
X132622883Y-119625537D01*
X132492485Y-119538408D01*
X132381592Y-119427515D01*
X132294463Y-119297117D01*
X132234448Y-119152228D01*
X132203852Y-118998414D01*
X132203852Y-118841586D01*
X132234448Y-118687772D01*
X132294463Y-118542883D01*
X132381592Y-118412485D01*
X132492485Y-118301592D01*
X132622883Y-118214463D01*
X132767772Y-118154448D01*
X132921586Y-118123852D01*
X133078414Y-118123852D01*
X133232228Y-118154448D01*
G37*
G36*
X89182000Y-118682000D02*
G01*
X87658000Y-118682000D01*
X87658000Y-117158000D01*
X89182000Y-117158000D01*
X89182000Y-118682000D01*
G37*
G36*
X91181197Y-117190811D02*
G01*
X91319204Y-117247976D01*
X91443408Y-117330966D01*
X91549034Y-117436592D01*
X91632024Y-117560796D01*
X91689189Y-117698803D01*
X91718331Y-117845311D01*
X91718331Y-117994689D01*
X91689189Y-118141197D01*
X91632024Y-118279204D01*
X91549034Y-118403408D01*
X91443408Y-118509034D01*
X91319204Y-118592024D01*
X91181197Y-118649189D01*
X91034689Y-118678331D01*
X90885311Y-118678331D01*
X90738803Y-118649189D01*
X90600796Y-118592024D01*
X90476592Y-118509034D01*
X90370966Y-118403408D01*
X90287976Y-118279204D01*
X90230811Y-118141197D01*
X90201669Y-117994689D01*
X90201669Y-117845311D01*
X90230811Y-117698803D01*
X90287976Y-117560796D01*
X90370966Y-117436592D01*
X90476592Y-117330966D01*
X90600796Y-117247976D01*
X90738803Y-117190811D01*
X90885311Y-117161669D01*
X91034689Y-117161669D01*
X91181197Y-117190811D01*
G37*
G36*
X93721197Y-117190811D02*
G01*
X93859204Y-117247976D01*
X93983408Y-117330966D01*
X94089034Y-117436592D01*
X94172024Y-117560796D01*
X94229189Y-117698803D01*
X94258331Y-117845311D01*
X94258331Y-117994689D01*
X94229189Y-118141197D01*
X94172024Y-118279204D01*
X94089034Y-118403408D01*
X93983408Y-118509034D01*
X93859204Y-118592024D01*
X93721197Y-118649189D01*
X93574689Y-118678331D01*
X93425311Y-118678331D01*
X93278803Y-118649189D01*
X93140796Y-118592024D01*
X93016592Y-118509034D01*
X92910966Y-118403408D01*
X92827976Y-118279204D01*
X92770811Y-118141197D01*
X92741669Y-117994689D01*
X92741669Y-117845311D01*
X92770811Y-117698803D01*
X92827976Y-117560796D01*
X92910966Y-117436592D01*
X93016592Y-117330966D01*
X93140796Y-117247976D01*
X93278803Y-117190811D01*
X93425311Y-117161669D01*
X93574689Y-117161669D01*
X93721197Y-117190811D01*
G37*
G36*
X96261197Y-117190811D02*
G01*
X96399204Y-117247976D01*
X96523408Y-117330966D01*
X96629034Y-117436592D01*
X96712024Y-117560796D01*
X96769189Y-117698803D01*
X96798331Y-117845311D01*
X96798331Y-117994689D01*
X96769189Y-118141197D01*
X96712024Y-118279204D01*
X96629034Y-118403408D01*
X96523408Y-118509034D01*
X96399204Y-118592024D01*
X96261197Y-118649189D01*
X96114689Y-118678331D01*
X95965311Y-118678331D01*
X95818803Y-118649189D01*
X95680796Y-118592024D01*
X95556592Y-118509034D01*
X95450966Y-118403408D01*
X95367976Y-118279204D01*
X95310811Y-118141197D01*
X95281669Y-117994689D01*
X95281669Y-117845311D01*
X95310811Y-117698803D01*
X95367976Y-117560796D01*
X95450966Y-117436592D01*
X95556592Y-117330966D01*
X95680796Y-117247976D01*
X95818803Y-117190811D01*
X95965311Y-117161669D01*
X96114689Y-117161669D01*
X96261197Y-117190811D01*
G37*
G36*
X98801197Y-117190811D02*
G01*
X98939204Y-117247976D01*
X99063408Y-117330966D01*
X99169034Y-117436592D01*
X99252024Y-117560796D01*
X99309189Y-117698803D01*
X99338331Y-117845311D01*
X99338331Y-117994689D01*
X99309189Y-118141197D01*
X99252024Y-118279204D01*
X99169034Y-118403408D01*
X99063408Y-118509034D01*
X98939204Y-118592024D01*
X98801197Y-118649189D01*
X98654689Y-118678331D01*
X98505311Y-118678331D01*
X98358803Y-118649189D01*
X98220796Y-118592024D01*
X98096592Y-118509034D01*
X97990966Y-118403408D01*
X97907976Y-118279204D01*
X97850811Y-118141197D01*
X97821669Y-117994689D01*
X97821669Y-117845311D01*
X97850811Y-117698803D01*
X97907976Y-117560796D01*
X97990966Y-117436592D01*
X98096592Y-117330966D01*
X98220796Y-117247976D01*
X98358803Y-117190811D01*
X98505311Y-117161669D01*
X98654689Y-117161669D01*
X98801197Y-117190811D01*
G37*
G36*
X117992228Y-115614448D02*
G01*
X118137117Y-115674463D01*
X118267515Y-115761592D01*
X118378408Y-115872485D01*
X118465537Y-116002883D01*
X118525552Y-116147772D01*
X118556148Y-116301586D01*
X118556148Y-116458414D01*
X118525552Y-116612228D01*
X118465537Y-116757117D01*
X118378408Y-116887515D01*
X118267515Y-116998408D01*
X118137117Y-117085537D01*
X117992228Y-117145552D01*
X117838414Y-117176148D01*
X117681586Y-117176148D01*
X117527772Y-117145552D01*
X117382883Y-117085537D01*
X117252485Y-116998408D01*
X117141592Y-116887515D01*
X117054463Y-116757117D01*
X116994448Y-116612228D01*
X116963852Y-116458414D01*
X116963852Y-116301586D01*
X116994448Y-116147772D01*
X117054463Y-116002883D01*
X117141592Y-115872485D01*
X117252485Y-115761592D01*
X117382883Y-115674463D01*
X117527772Y-115614448D01*
X117681586Y-115583852D01*
X117838414Y-115583852D01*
X117992228Y-115614448D01*
G37*
G36*
X133232228Y-115614448D02*
G01*
X133377117Y-115674463D01*
X133507515Y-115761592D01*
X133618408Y-115872485D01*
X133705537Y-116002883D01*
X133765552Y-116147772D01*
X133796148Y-116301586D01*
X133796148Y-116458414D01*
X133765552Y-116612228D01*
X133705537Y-116757117D01*
X133618408Y-116887515D01*
X133507515Y-116998408D01*
X133377117Y-117085537D01*
X133232228Y-117145552D01*
X133078414Y-117176148D01*
X132921586Y-117176148D01*
X132767772Y-117145552D01*
X132622883Y-117085537D01*
X132492485Y-116998408D01*
X132381592Y-116887515D01*
X132294463Y-116757117D01*
X132234448Y-116612228D01*
X132203852Y-116458414D01*
X132203852Y-116301586D01*
X132234448Y-116147772D01*
X132294463Y-116002883D01*
X132381592Y-115872485D01*
X132492485Y-115761592D01*
X132622883Y-115674463D01*
X132767772Y-115614448D01*
X132921586Y-115583852D01*
X133078414Y-115583852D01*
X133232228Y-115614448D01*
G37*
G36*
X140948228Y-114002448D02*
G01*
X141093117Y-114062463D01*
X141223515Y-114149592D01*
X141334408Y-114260485D01*
X141421537Y-114390883D01*
X141481552Y-114535772D01*
X141512148Y-114689586D01*
X141512148Y-114846414D01*
X141481552Y-115000228D01*
X141421537Y-115145117D01*
X141334408Y-115275515D01*
X141223515Y-115386408D01*
X141093117Y-115473537D01*
X140948228Y-115533552D01*
X140794414Y-115564148D01*
X140637586Y-115564148D01*
X140483772Y-115533552D01*
X140338883Y-115473537D01*
X140208485Y-115386408D01*
X140097592Y-115275515D01*
X140010463Y-115145117D01*
X139950448Y-115000228D01*
X139919852Y-114846414D01*
X139919852Y-114689586D01*
X139950448Y-114535772D01*
X140010463Y-114390883D01*
X140097592Y-114260485D01*
X140208485Y-114149592D01*
X140338883Y-114062463D01*
X140483772Y-114002448D01*
X140637586Y-113971852D01*
X140794414Y-113971852D01*
X140948228Y-114002448D01*
G37*
G36*
X147732228Y-113854448D02*
G01*
X147877117Y-113914463D01*
X148007515Y-114001592D01*
X148118408Y-114112485D01*
X148205537Y-114242883D01*
X148265552Y-114387772D01*
X148296148Y-114541586D01*
X148296148Y-114698414D01*
X148265552Y-114852228D01*
X148205537Y-114997117D01*
X148118408Y-115127515D01*
X148007515Y-115238408D01*
X147877117Y-115325537D01*
X147732228Y-115385552D01*
X147578414Y-115416148D01*
X147421586Y-115416148D01*
X147267772Y-115385552D01*
X147122883Y-115325537D01*
X146992485Y-115238408D01*
X146881592Y-115127515D01*
X146794463Y-114997117D01*
X146734448Y-114852228D01*
X146703852Y-114698414D01*
X146703852Y-114541586D01*
X146734448Y-114387772D01*
X146794463Y-114242883D01*
X146881592Y-114112485D01*
X146992485Y-114001592D01*
X147122883Y-113914463D01*
X147267772Y-113854448D01*
X147421586Y-113823852D01*
X147578414Y-113823852D01*
X147732228Y-113854448D01*
G37*
G36*
X152690285Y-113271060D02*
G01*
X152871397Y-113346079D01*
X153034393Y-113454990D01*
X153173010Y-113593607D01*
X153281921Y-113756603D01*
X153356940Y-113937715D01*
X153395185Y-114129983D01*
X153395185Y-114326017D01*
X153356940Y-114518285D01*
X153281921Y-114699397D01*
X153173010Y-114862393D01*
X153034393Y-115001010D01*
X152871397Y-115109921D01*
X152690285Y-115184940D01*
X152498017Y-115223185D01*
X152301983Y-115223185D01*
X152109715Y-115184940D01*
X151928603Y-115109921D01*
X151765607Y-115001010D01*
X151626990Y-114862393D01*
X151518079Y-114699397D01*
X151443060Y-114518285D01*
X151404815Y-114326017D01*
X151404815Y-114129983D01*
X151443060Y-113937715D01*
X151518079Y-113756603D01*
X151626990Y-113593607D01*
X151765607Y-113454990D01*
X151928603Y-113346079D01*
X152109715Y-113271060D01*
X152301983Y-113232815D01*
X152498017Y-113232815D01*
X152690285Y-113271060D01*
G37*
G36*
X159190285Y-113271060D02*
G01*
X159371397Y-113346079D01*
X159534393Y-113454990D01*
X159673010Y-113593607D01*
X159781921Y-113756603D01*
X159856940Y-113937715D01*
X159895185Y-114129983D01*
X159895185Y-114326017D01*
X159856940Y-114518285D01*
X159781921Y-114699397D01*
X159673010Y-114862393D01*
X159534393Y-115001010D01*
X159371397Y-115109921D01*
X159190285Y-115184940D01*
X158998017Y-115223185D01*
X158801983Y-115223185D01*
X158609715Y-115184940D01*
X158428603Y-115109921D01*
X158265607Y-115001010D01*
X158126990Y-114862393D01*
X158018079Y-114699397D01*
X157943060Y-114518285D01*
X157904815Y-114326017D01*
X157904815Y-114129983D01*
X157943060Y-113937715D01*
X158018079Y-113756603D01*
X158126990Y-113593607D01*
X158265607Y-113454990D01*
X158428603Y-113346079D01*
X158609715Y-113271060D01*
X158801983Y-113232815D01*
X158998017Y-113232815D01*
X159190285Y-113271060D01*
G37*
G36*
X117992228Y-113074448D02*
G01*
X118137117Y-113134463D01*
X118267515Y-113221592D01*
X118378408Y-113332485D01*
X118465537Y-113462883D01*
X118525552Y-113607772D01*
X118556148Y-113761586D01*
X118556148Y-113918414D01*
X118525552Y-114072228D01*
X118465537Y-114217117D01*
X118378408Y-114347515D01*
X118267515Y-114458408D01*
X118137117Y-114545537D01*
X117992228Y-114605552D01*
X117838414Y-114636148D01*
X117681586Y-114636148D01*
X117527772Y-114605552D01*
X117382883Y-114545537D01*
X117252485Y-114458408D01*
X117141592Y-114347515D01*
X117054463Y-114217117D01*
X116994448Y-114072228D01*
X116963852Y-113918414D01*
X116963852Y-113761586D01*
X116994448Y-113607772D01*
X117054463Y-113462883D01*
X117141592Y-113332485D01*
X117252485Y-113221592D01*
X117382883Y-113134463D01*
X117527772Y-113074448D01*
X117681586Y-113043852D01*
X117838414Y-113043852D01*
X117992228Y-113074448D01*
G37*
G36*
X133232228Y-113074448D02*
G01*
X133377117Y-113134463D01*
X133507515Y-113221592D01*
X133618408Y-113332485D01*
X133705537Y-113462883D01*
X133765552Y-113607772D01*
X133796148Y-113761586D01*
X133796148Y-113918414D01*
X133765552Y-114072228D01*
X133705537Y-114217117D01*
X133618408Y-114347515D01*
X133507515Y-114458408D01*
X133377117Y-114545537D01*
X133232228Y-114605552D01*
X133078414Y-114636148D01*
X132921586Y-114636148D01*
X132767772Y-114605552D01*
X132622883Y-114545537D01*
X132492485Y-114458408D01*
X132381592Y-114347515D01*
X132294463Y-114217117D01*
X132234448Y-114072228D01*
X132203852Y-113918414D01*
X132203852Y-113761586D01*
X132234448Y-113607772D01*
X132294463Y-113462883D01*
X132381592Y-113332485D01*
X132492485Y-113221592D01*
X132622883Y-113134463D01*
X132767772Y-113074448D01*
X132921586Y-113043852D01*
X133078414Y-113043852D01*
X133232228Y-113074448D01*
G37*
G36*
X117992228Y-110534448D02*
G01*
X118137117Y-110594463D01*
X118267515Y-110681592D01*
X118378408Y-110792485D01*
X118465537Y-110922883D01*
X118525552Y-111067772D01*
X118556148Y-111221586D01*
X118556148Y-111378414D01*
X118525552Y-111532228D01*
X118465537Y-111677117D01*
X118378408Y-111807515D01*
X118267515Y-111918408D01*
X118137117Y-112005537D01*
X117992228Y-112065552D01*
X117838414Y-112096148D01*
X117681586Y-112096148D01*
X117527772Y-112065552D01*
X117382883Y-112005537D01*
X117252485Y-111918408D01*
X117141592Y-111807515D01*
X117054463Y-111677117D01*
X116994448Y-111532228D01*
X116963852Y-111378414D01*
X116963852Y-111221586D01*
X116994448Y-111067772D01*
X117054463Y-110922883D01*
X117141592Y-110792485D01*
X117252485Y-110681592D01*
X117382883Y-110594463D01*
X117527772Y-110534448D01*
X117681586Y-110503852D01*
X117838414Y-110503852D01*
X117992228Y-110534448D01*
G37*
G36*
X133232228Y-110534448D02*
G01*
X133377117Y-110594463D01*
X133507515Y-110681592D01*
X133618408Y-110792485D01*
X133705537Y-110922883D01*
X133765552Y-111067772D01*
X133796148Y-111221586D01*
X133796148Y-111378414D01*
X133765552Y-111532228D01*
X133705537Y-111677117D01*
X133618408Y-111807515D01*
X133507515Y-111918408D01*
X133377117Y-112005537D01*
X133232228Y-112065552D01*
X133078414Y-112096148D01*
X132921586Y-112096148D01*
X132767772Y-112065552D01*
X132622883Y-112005537D01*
X132492485Y-111918408D01*
X132381592Y-111807515D01*
X132294463Y-111677117D01*
X132234448Y-111532228D01*
X132203852Y-111378414D01*
X132203852Y-111221586D01*
X132234448Y-111067772D01*
X132294463Y-110922883D01*
X132381592Y-110792485D01*
X132492485Y-110681592D01*
X132622883Y-110594463D01*
X132767772Y-110534448D01*
X132921586Y-110503852D01*
X133078414Y-110503852D01*
X133232228Y-110534448D01*
G37*
G36*
X152690285Y-108771060D02*
G01*
X152871397Y-108846079D01*
X153034393Y-108954990D01*
X153173010Y-109093607D01*
X153281921Y-109256603D01*
X153356940Y-109437715D01*
X153395185Y-109629983D01*
X153395185Y-109826017D01*
X153356940Y-110018285D01*
X153281921Y-110199397D01*
X153173010Y-110362393D01*
X153034393Y-110501010D01*
X152871397Y-110609921D01*
X152690285Y-110684940D01*
X152498017Y-110723185D01*
X152301983Y-110723185D01*
X152109715Y-110684940D01*
X151928603Y-110609921D01*
X151765607Y-110501010D01*
X151626990Y-110362393D01*
X151518079Y-110199397D01*
X151443060Y-110018285D01*
X151404815Y-109826017D01*
X151404815Y-109629983D01*
X151443060Y-109437715D01*
X151518079Y-109256603D01*
X151626990Y-109093607D01*
X151765607Y-108954990D01*
X151928603Y-108846079D01*
X152109715Y-108771060D01*
X152301983Y-108732815D01*
X152498017Y-108732815D01*
X152690285Y-108771060D01*
G37*
G36*
X159190285Y-108771060D02*
G01*
X159371397Y-108846079D01*
X159534393Y-108954990D01*
X159673010Y-109093607D01*
X159781921Y-109256603D01*
X159856940Y-109437715D01*
X159895185Y-109629983D01*
X159895185Y-109826017D01*
X159856940Y-110018285D01*
X159781921Y-110199397D01*
X159673010Y-110362393D01*
X159534393Y-110501010D01*
X159371397Y-110609921D01*
X159190285Y-110684940D01*
X158998017Y-110723185D01*
X158801983Y-110723185D01*
X158609715Y-110684940D01*
X158428603Y-110609921D01*
X158265607Y-110501010D01*
X158126990Y-110362393D01*
X158018079Y-110199397D01*
X157943060Y-110018285D01*
X157904815Y-109826017D01*
X157904815Y-109629983D01*
X157943060Y-109437715D01*
X158018079Y-109256603D01*
X158126990Y-109093607D01*
X158265607Y-108954990D01*
X158428603Y-108846079D01*
X158609715Y-108771060D01*
X158801983Y-108732815D01*
X158998017Y-108732815D01*
X159190285Y-108771060D01*
G37*
G36*
X140948228Y-109002448D02*
G01*
X141093117Y-109062463D01*
X141223515Y-109149592D01*
X141334408Y-109260485D01*
X141421537Y-109390883D01*
X141481552Y-109535772D01*
X141512148Y-109689586D01*
X141512148Y-109846414D01*
X141481552Y-110000228D01*
X141421537Y-110145117D01*
X141334408Y-110275515D01*
X141223515Y-110386408D01*
X141093117Y-110473537D01*
X140948228Y-110533552D01*
X140794414Y-110564148D01*
X140637586Y-110564148D01*
X140483772Y-110533552D01*
X140338883Y-110473537D01*
X140208485Y-110386408D01*
X140097592Y-110275515D01*
X140010463Y-110145117D01*
X139950448Y-110000228D01*
X139919852Y-109846414D01*
X139919852Y-109689586D01*
X139950448Y-109535772D01*
X140010463Y-109390883D01*
X140097592Y-109260485D01*
X140208485Y-109149592D01*
X140338883Y-109062463D01*
X140483772Y-109002448D01*
X140637586Y-108971852D01*
X140794414Y-108971852D01*
X140948228Y-109002448D01*
G37*
G36*
X117992228Y-107994448D02*
G01*
X118137117Y-108054463D01*
X118267515Y-108141592D01*
X118378408Y-108252485D01*
X118465537Y-108382883D01*
X118525552Y-108527772D01*
X118556148Y-108681586D01*
X118556148Y-108838414D01*
X118525552Y-108992228D01*
X118465537Y-109137117D01*
X118378408Y-109267515D01*
X118267515Y-109378408D01*
X118137117Y-109465537D01*
X117992228Y-109525552D01*
X117838414Y-109556148D01*
X117681586Y-109556148D01*
X117527772Y-109525552D01*
X117382883Y-109465537D01*
X117252485Y-109378408D01*
X117141592Y-109267515D01*
X117054463Y-109137117D01*
X116994448Y-108992228D01*
X116963852Y-108838414D01*
X116963852Y-108681586D01*
X116994448Y-108527772D01*
X117054463Y-108382883D01*
X117141592Y-108252485D01*
X117252485Y-108141592D01*
X117382883Y-108054463D01*
X117527772Y-107994448D01*
X117681586Y-107963852D01*
X117838414Y-107963852D01*
X117992228Y-107994448D01*
G37*
G36*
X133232228Y-107994448D02*
G01*
X133377117Y-108054463D01*
X133507515Y-108141592D01*
X133618408Y-108252485D01*
X133705537Y-108382883D01*
X133765552Y-108527772D01*
X133796148Y-108681586D01*
X133796148Y-108838414D01*
X133765552Y-108992228D01*
X133705537Y-109137117D01*
X133618408Y-109267515D01*
X133507515Y-109378408D01*
X133377117Y-109465537D01*
X133232228Y-109525552D01*
X133078414Y-109556148D01*
X132921586Y-109556148D01*
X132767772Y-109525552D01*
X132622883Y-109465537D01*
X132492485Y-109378408D01*
X132381592Y-109267515D01*
X132294463Y-109137117D01*
X132234448Y-108992228D01*
X132203852Y-108838414D01*
X132203852Y-108681586D01*
X132234448Y-108527772D01*
X132294463Y-108382883D01*
X132381592Y-108252485D01*
X132492485Y-108141592D01*
X132622883Y-108054463D01*
X132767772Y-107994448D01*
X132921586Y-107963852D01*
X133078414Y-107963852D01*
X133232228Y-107994448D01*
G37*
G36*
X147732228Y-106234448D02*
G01*
X147877117Y-106294463D01*
X148007515Y-106381592D01*
X148118408Y-106492485D01*
X148205537Y-106622883D01*
X148265552Y-106767772D01*
X148296148Y-106921586D01*
X148296148Y-107078414D01*
X148265552Y-107232228D01*
X148205537Y-107377117D01*
X148118408Y-107507515D01*
X148007515Y-107618408D01*
X147877117Y-107705537D01*
X147732228Y-107765552D01*
X147578414Y-107796148D01*
X147421586Y-107796148D01*
X147267772Y-107765552D01*
X147122883Y-107705537D01*
X146992485Y-107618408D01*
X146881592Y-107507515D01*
X146794463Y-107377117D01*
X146734448Y-107232228D01*
X146703852Y-107078414D01*
X146703852Y-106921586D01*
X146734448Y-106767772D01*
X146794463Y-106622883D01*
X146881592Y-106492485D01*
X146992485Y-106381592D01*
X147122883Y-106294463D01*
X147267772Y-106234448D01*
X147421586Y-106203852D01*
X147578414Y-106203852D01*
X147732228Y-106234448D01*
G37*
G36*
X117992228Y-105454448D02*
G01*
X118137117Y-105514463D01*
X118267515Y-105601592D01*
X118378408Y-105712485D01*
X118465537Y-105842883D01*
X118525552Y-105987772D01*
X118556148Y-106141586D01*
X118556148Y-106298414D01*
X118525552Y-106452228D01*
X118465537Y-106597117D01*
X118378408Y-106727515D01*
X118267515Y-106838408D01*
X118137117Y-106925537D01*
X117992228Y-106985552D01*
X117838414Y-107016148D01*
X117681586Y-107016148D01*
X117527772Y-106985552D01*
X117382883Y-106925537D01*
X117252485Y-106838408D01*
X117141592Y-106727515D01*
X117054463Y-106597117D01*
X116994448Y-106452228D01*
X116963852Y-106298414D01*
X116963852Y-106141586D01*
X116994448Y-105987772D01*
X117054463Y-105842883D01*
X117141592Y-105712485D01*
X117252485Y-105601592D01*
X117382883Y-105514463D01*
X117527772Y-105454448D01*
X117681586Y-105423852D01*
X117838414Y-105423852D01*
X117992228Y-105454448D01*
G37*
G36*
X133232228Y-105454448D02*
G01*
X133377117Y-105514463D01*
X133507515Y-105601592D01*
X133618408Y-105712485D01*
X133705537Y-105842883D01*
X133765552Y-105987772D01*
X133796148Y-106141586D01*
X133796148Y-106298414D01*
X133765552Y-106452228D01*
X133705537Y-106597117D01*
X133618408Y-106727515D01*
X133507515Y-106838408D01*
X133377117Y-106925537D01*
X133232228Y-106985552D01*
X133078414Y-107016148D01*
X132921586Y-107016148D01*
X132767772Y-106985552D01*
X132622883Y-106925537D01*
X132492485Y-106838408D01*
X132381592Y-106727515D01*
X132294463Y-106597117D01*
X132234448Y-106452228D01*
X132203852Y-106298414D01*
X132203852Y-106141586D01*
X132234448Y-105987772D01*
X132294463Y-105842883D01*
X132381592Y-105712485D01*
X132492485Y-105601592D01*
X132622883Y-105514463D01*
X132767772Y-105454448D01*
X132921586Y-105423852D01*
X133078414Y-105423852D01*
X133232228Y-105454448D01*
G37*
G36*
X117992228Y-102914448D02*
G01*
X118137117Y-102974463D01*
X118267515Y-103061592D01*
X118378408Y-103172485D01*
X118465537Y-103302883D01*
X118525552Y-103447772D01*
X118556148Y-103601586D01*
X118556148Y-103758414D01*
X118525552Y-103912228D01*
X118465537Y-104057117D01*
X118378408Y-104187515D01*
X118267515Y-104298408D01*
X118137117Y-104385537D01*
X117992228Y-104445552D01*
X117838414Y-104476148D01*
X117681586Y-104476148D01*
X117527772Y-104445552D01*
X117382883Y-104385537D01*
X117252485Y-104298408D01*
X117141592Y-104187515D01*
X117054463Y-104057117D01*
X116994448Y-103912228D01*
X116963852Y-103758414D01*
X116963852Y-103601586D01*
X116994448Y-103447772D01*
X117054463Y-103302883D01*
X117141592Y-103172485D01*
X117252485Y-103061592D01*
X117382883Y-102974463D01*
X117527772Y-102914448D01*
X117681586Y-102883852D01*
X117838414Y-102883852D01*
X117992228Y-102914448D01*
G37*
G36*
X133232228Y-102914448D02*
G01*
X133377117Y-102974463D01*
X133507515Y-103061592D01*
X133618408Y-103172485D01*
X133705537Y-103302883D01*
X133765552Y-103447772D01*
X133796148Y-103601586D01*
X133796148Y-103758414D01*
X133765552Y-103912228D01*
X133705537Y-104057117D01*
X133618408Y-104187515D01*
X133507515Y-104298408D01*
X133377117Y-104385537D01*
X133232228Y-104445552D01*
X133078414Y-104476148D01*
X132921586Y-104476148D01*
X132767772Y-104445552D01*
X132622883Y-104385537D01*
X132492485Y-104298408D01*
X132381592Y-104187515D01*
X132294463Y-104057117D01*
X132234448Y-103912228D01*
X132203852Y-103758414D01*
X132203852Y-103601586D01*
X132234448Y-103447772D01*
X132294463Y-103302883D01*
X132381592Y-103172485D01*
X132492485Y-103061592D01*
X132622883Y-102974463D01*
X132767772Y-102914448D01*
X132921586Y-102883852D01*
X133078414Y-102883852D01*
X133232228Y-102914448D01*
G37*
G36*
X147044228Y-101850448D02*
G01*
X147189117Y-101910463D01*
X147319515Y-101997592D01*
X147430408Y-102108485D01*
X147517537Y-102238883D01*
X147577552Y-102383772D01*
X147608148Y-102537586D01*
X147608148Y-102694414D01*
X147577552Y-102848228D01*
X147517537Y-102993117D01*
X147430408Y-103123515D01*
X147319515Y-103234408D01*
X147189117Y-103321537D01*
X147044228Y-103381552D01*
X146890414Y-103412148D01*
X146733586Y-103412148D01*
X146579772Y-103381552D01*
X146434883Y-103321537D01*
X146304485Y-103234408D01*
X146193592Y-103123515D01*
X146106463Y-102993117D01*
X146046448Y-102848228D01*
X146015852Y-102694414D01*
X146015852Y-102537586D01*
X146046448Y-102383772D01*
X146106463Y-102238883D01*
X146193592Y-102108485D01*
X146304485Y-101997592D01*
X146434883Y-101910463D01*
X146579772Y-101850448D01*
X146733586Y-101819852D01*
X146890414Y-101819852D01*
X147044228Y-101850448D01*
G37*
G36*
X140948228Y-101810448D02*
G01*
X141093117Y-101870463D01*
X141223515Y-101957592D01*
X141334408Y-102068485D01*
X141421537Y-102198883D01*
X141481552Y-102343772D01*
X141512148Y-102497586D01*
X141512148Y-102654414D01*
X141481552Y-102808228D01*
X141421537Y-102953117D01*
X141334408Y-103083515D01*
X141223515Y-103194408D01*
X141093117Y-103281537D01*
X140948228Y-103341552D01*
X140794414Y-103372148D01*
X140637586Y-103372148D01*
X140483772Y-103341552D01*
X140338883Y-103281537D01*
X140208485Y-103194408D01*
X140097592Y-103083515D01*
X140010463Y-102953117D01*
X139950448Y-102808228D01*
X139919852Y-102654414D01*
X139919852Y-102497586D01*
X139950448Y-102343772D01*
X140010463Y-102198883D01*
X140097592Y-102068485D01*
X140208485Y-101957592D01*
X140338883Y-101870463D01*
X140483772Y-101810448D01*
X140637586Y-101779852D01*
X140794414Y-101779852D01*
X140948228Y-101810448D01*
G37*
G36*
X152182285Y-100571060D02*
G01*
X152363397Y-100646079D01*
X152526393Y-100754990D01*
X152665010Y-100893607D01*
X152773921Y-101056603D01*
X152848940Y-101237715D01*
X152887185Y-101429983D01*
X152887185Y-101626017D01*
X152848940Y-101818285D01*
X152773921Y-101999397D01*
X152665010Y-102162393D01*
X152526393Y-102301010D01*
X152363397Y-102409921D01*
X152182285Y-102484940D01*
X151990017Y-102523185D01*
X151793983Y-102523185D01*
X151601715Y-102484940D01*
X151420603Y-102409921D01*
X151257607Y-102301010D01*
X151118990Y-102162393D01*
X151010079Y-101999397D01*
X150935060Y-101818285D01*
X150896815Y-101626017D01*
X150896815Y-101429983D01*
X150935060Y-101237715D01*
X151010079Y-101056603D01*
X151118990Y-100893607D01*
X151257607Y-100754990D01*
X151420603Y-100646079D01*
X151601715Y-100571060D01*
X151793983Y-100532815D01*
X151990017Y-100532815D01*
X152182285Y-100571060D01*
G37*
G36*
X158682285Y-100571060D02*
G01*
X158863397Y-100646079D01*
X159026393Y-100754990D01*
X159165010Y-100893607D01*
X159273921Y-101056603D01*
X159348940Y-101237715D01*
X159387185Y-101429983D01*
X159387185Y-101626017D01*
X159348940Y-101818285D01*
X159273921Y-101999397D01*
X159165010Y-102162393D01*
X159026393Y-102301010D01*
X158863397Y-102409921D01*
X158682285Y-102484940D01*
X158490017Y-102523185D01*
X158293983Y-102523185D01*
X158101715Y-102484940D01*
X157920603Y-102409921D01*
X157757607Y-102301010D01*
X157618990Y-102162393D01*
X157510079Y-101999397D01*
X157435060Y-101818285D01*
X157396815Y-101626017D01*
X157396815Y-101429983D01*
X157435060Y-101237715D01*
X157510079Y-101056603D01*
X157618990Y-100893607D01*
X157757607Y-100754990D01*
X157920603Y-100646079D01*
X158101715Y-100571060D01*
X158293983Y-100532815D01*
X158490017Y-100532815D01*
X158682285Y-100571060D01*
G37*
G36*
X117992228Y-100374448D02*
G01*
X118137117Y-100434463D01*
X118267515Y-100521592D01*
X118378408Y-100632485D01*
X118465537Y-100762883D01*
X118525552Y-100907772D01*
X118556148Y-101061586D01*
X118556148Y-101218414D01*
X118525552Y-101372228D01*
X118465537Y-101517117D01*
X118378408Y-101647515D01*
X118267515Y-101758408D01*
X118137117Y-101845537D01*
X117992228Y-101905552D01*
X117838414Y-101936148D01*
X117681586Y-101936148D01*
X117527772Y-101905552D01*
X117382883Y-101845537D01*
X117252485Y-101758408D01*
X117141592Y-101647515D01*
X117054463Y-101517117D01*
X116994448Y-101372228D01*
X116963852Y-101218414D01*
X116963852Y-101061586D01*
X116994448Y-100907772D01*
X117054463Y-100762883D01*
X117141592Y-100632485D01*
X117252485Y-100521592D01*
X117382883Y-100434463D01*
X117527772Y-100374448D01*
X117681586Y-100343852D01*
X117838414Y-100343852D01*
X117992228Y-100374448D01*
G37*
G36*
X133232228Y-100374448D02*
G01*
X133377117Y-100434463D01*
X133507515Y-100521592D01*
X133618408Y-100632485D01*
X133705537Y-100762883D01*
X133765552Y-100907772D01*
X133796148Y-101061586D01*
X133796148Y-101218414D01*
X133765552Y-101372228D01*
X133705537Y-101517117D01*
X133618408Y-101647515D01*
X133507515Y-101758408D01*
X133377117Y-101845537D01*
X133232228Y-101905552D01*
X133078414Y-101936148D01*
X132921586Y-101936148D01*
X132767772Y-101905552D01*
X132622883Y-101845537D01*
X132492485Y-101758408D01*
X132381592Y-101647515D01*
X132294463Y-101517117D01*
X132234448Y-101372228D01*
X132203852Y-101218414D01*
X132203852Y-101061586D01*
X132234448Y-100907772D01*
X132294463Y-100762883D01*
X132381592Y-100632485D01*
X132492485Y-100521592D01*
X132622883Y-100434463D01*
X132767772Y-100374448D01*
X132921586Y-100343852D01*
X133078414Y-100343852D01*
X133232228Y-100374448D01*
G37*
G36*
X117992228Y-97834448D02*
G01*
X118137117Y-97894463D01*
X118267515Y-97981592D01*
X118378408Y-98092485D01*
X118465537Y-98222883D01*
X118525552Y-98367772D01*
X118556148Y-98521586D01*
X118556148Y-98678414D01*
X118525552Y-98832228D01*
X118465537Y-98977117D01*
X118378408Y-99107515D01*
X118267515Y-99218408D01*
X118137117Y-99305537D01*
X117992228Y-99365552D01*
X117838414Y-99396148D01*
X117681586Y-99396148D01*
X117527772Y-99365552D01*
X117382883Y-99305537D01*
X117252485Y-99218408D01*
X117141592Y-99107515D01*
X117054463Y-98977117D01*
X116994448Y-98832228D01*
X116963852Y-98678414D01*
X116963852Y-98521586D01*
X116994448Y-98367772D01*
X117054463Y-98222883D01*
X117141592Y-98092485D01*
X117252485Y-97981592D01*
X117382883Y-97894463D01*
X117527772Y-97834448D01*
X117681586Y-97803852D01*
X117838414Y-97803852D01*
X117992228Y-97834448D01*
G37*
G36*
X133232228Y-97834448D02*
G01*
X133377117Y-97894463D01*
X133507515Y-97981592D01*
X133618408Y-98092485D01*
X133705537Y-98222883D01*
X133765552Y-98367772D01*
X133796148Y-98521586D01*
X133796148Y-98678414D01*
X133765552Y-98832228D01*
X133705537Y-98977117D01*
X133618408Y-99107515D01*
X133507515Y-99218408D01*
X133377117Y-99305537D01*
X133232228Y-99365552D01*
X133078414Y-99396148D01*
X132921586Y-99396148D01*
X132767772Y-99365552D01*
X132622883Y-99305537D01*
X132492485Y-99218408D01*
X132381592Y-99107515D01*
X132294463Y-98977117D01*
X132234448Y-98832228D01*
X132203852Y-98678414D01*
X132203852Y-98521586D01*
X132234448Y-98367772D01*
X132294463Y-98222883D01*
X132381592Y-98092485D01*
X132492485Y-97981592D01*
X132622883Y-97894463D01*
X132767772Y-97834448D01*
X132921586Y-97803852D01*
X133078414Y-97803852D01*
X133232228Y-97834448D01*
G37*
G36*
X140948228Y-96810448D02*
G01*
X141093117Y-96870463D01*
X141223515Y-96957592D01*
X141334408Y-97068485D01*
X141421537Y-97198883D01*
X141481552Y-97343772D01*
X141512148Y-97497586D01*
X141512148Y-97654414D01*
X141481552Y-97808228D01*
X141421537Y-97953117D01*
X141334408Y-98083515D01*
X141223515Y-98194408D01*
X141093117Y-98281537D01*
X140948228Y-98341552D01*
X140794414Y-98372148D01*
X140637586Y-98372148D01*
X140483772Y-98341552D01*
X140338883Y-98281537D01*
X140208485Y-98194408D01*
X140097592Y-98083515D01*
X140010463Y-97953117D01*
X139950448Y-97808228D01*
X139919852Y-97654414D01*
X139919852Y-97497586D01*
X139950448Y-97343772D01*
X140010463Y-97198883D01*
X140097592Y-97068485D01*
X140208485Y-96957592D01*
X140338883Y-96870463D01*
X140483772Y-96810448D01*
X140637586Y-96779852D01*
X140794414Y-96779852D01*
X140948228Y-96810448D01*
G37*
G36*
X152182285Y-96071060D02*
G01*
X152363397Y-96146079D01*
X152526393Y-96254990D01*
X152665010Y-96393607D01*
X152773921Y-96556603D01*
X152848940Y-96737715D01*
X152887185Y-96929983D01*
X152887185Y-97126017D01*
X152848940Y-97318285D01*
X152773921Y-97499397D01*
X152665010Y-97662393D01*
X152526393Y-97801010D01*
X152363397Y-97909921D01*
X152182285Y-97984940D01*
X151990017Y-98023185D01*
X151793983Y-98023185D01*
X151601715Y-97984940D01*
X151420603Y-97909921D01*
X151257607Y-97801010D01*
X151118990Y-97662393D01*
X151010079Y-97499397D01*
X150935060Y-97318285D01*
X150896815Y-97126017D01*
X150896815Y-96929983D01*
X150935060Y-96737715D01*
X151010079Y-96556603D01*
X151118990Y-96393607D01*
X151257607Y-96254990D01*
X151420603Y-96146079D01*
X151601715Y-96071060D01*
X151793983Y-96032815D01*
X151990017Y-96032815D01*
X152182285Y-96071060D01*
G37*
G36*
X158682285Y-96071060D02*
G01*
X158863397Y-96146079D01*
X159026393Y-96254990D01*
X159165010Y-96393607D01*
X159273921Y-96556603D01*
X159348940Y-96737715D01*
X159387185Y-96929983D01*
X159387185Y-97126017D01*
X159348940Y-97318285D01*
X159273921Y-97499397D01*
X159165010Y-97662393D01*
X159026393Y-97801010D01*
X158863397Y-97909921D01*
X158682285Y-97984940D01*
X158490017Y-98023185D01*
X158293983Y-98023185D01*
X158101715Y-97984940D01*
X157920603Y-97909921D01*
X157757607Y-97801010D01*
X157618990Y-97662393D01*
X157510079Y-97499397D01*
X157435060Y-97318285D01*
X157396815Y-97126017D01*
X157396815Y-96929983D01*
X157435060Y-96737715D01*
X157510079Y-96556603D01*
X157618990Y-96393607D01*
X157757607Y-96254990D01*
X157920603Y-96146079D01*
X158101715Y-96071060D01*
X158293983Y-96032815D01*
X158490017Y-96032815D01*
X158682285Y-96071060D01*
G37*
G36*
X117992228Y-95294448D02*
G01*
X118137117Y-95354463D01*
X118267515Y-95441592D01*
X118378408Y-95552485D01*
X118465537Y-95682883D01*
X118525552Y-95827772D01*
X118556148Y-95981586D01*
X118556148Y-96138414D01*
X118525552Y-96292228D01*
X118465537Y-96437117D01*
X118378408Y-96567515D01*
X118267515Y-96678408D01*
X118137117Y-96765537D01*
X117992228Y-96825552D01*
X117838414Y-96856148D01*
X117681586Y-96856148D01*
X117527772Y-96825552D01*
X117382883Y-96765537D01*
X117252485Y-96678408D01*
X117141592Y-96567515D01*
X117054463Y-96437117D01*
X116994448Y-96292228D01*
X116963852Y-96138414D01*
X116963852Y-95981586D01*
X116994448Y-95827772D01*
X117054463Y-95682883D01*
X117141592Y-95552485D01*
X117252485Y-95441592D01*
X117382883Y-95354463D01*
X117527772Y-95294448D01*
X117681586Y-95263852D01*
X117838414Y-95263852D01*
X117992228Y-95294448D01*
G37*
G36*
X133232228Y-95294448D02*
G01*
X133377117Y-95354463D01*
X133507515Y-95441592D01*
X133618408Y-95552485D01*
X133705537Y-95682883D01*
X133765552Y-95827772D01*
X133796148Y-95981586D01*
X133796148Y-96138414D01*
X133765552Y-96292228D01*
X133705537Y-96437117D01*
X133618408Y-96567515D01*
X133507515Y-96678408D01*
X133377117Y-96765537D01*
X133232228Y-96825552D01*
X133078414Y-96856148D01*
X132921586Y-96856148D01*
X132767772Y-96825552D01*
X132622883Y-96765537D01*
X132492485Y-96678408D01*
X132381592Y-96567515D01*
X132294463Y-96437117D01*
X132234448Y-96292228D01*
X132203852Y-96138414D01*
X132203852Y-95981586D01*
X132234448Y-95827772D01*
X132294463Y-95682883D01*
X132381592Y-95552485D01*
X132492485Y-95441592D01*
X132622883Y-95354463D01*
X132767772Y-95294448D01*
X132921586Y-95263852D01*
X133078414Y-95263852D01*
X133232228Y-95294448D01*
G37*
G36*
X147044228Y-94230448D02*
G01*
X147189117Y-94290463D01*
X147319515Y-94377592D01*
X147430408Y-94488485D01*
X147517537Y-94618883D01*
X147577552Y-94763772D01*
X147608148Y-94917586D01*
X147608148Y-95074414D01*
X147577552Y-95228228D01*
X147517537Y-95373117D01*
X147430408Y-95503515D01*
X147319515Y-95614408D01*
X147189117Y-95701537D01*
X147044228Y-95761552D01*
X146890414Y-95792148D01*
X146733586Y-95792148D01*
X146579772Y-95761552D01*
X146434883Y-95701537D01*
X146304485Y-95614408D01*
X146193592Y-95503515D01*
X146106463Y-95373117D01*
X146046448Y-95228228D01*
X146015852Y-95074414D01*
X146015852Y-94917586D01*
X146046448Y-94763772D01*
X146106463Y-94618883D01*
X146193592Y-94488485D01*
X146304485Y-94377592D01*
X146434883Y-94290463D01*
X146579772Y-94230448D01*
X146733586Y-94199852D01*
X146890414Y-94199852D01*
X147044228Y-94230448D01*
G37*
G36*
X117992228Y-92754448D02*
G01*
X118137117Y-92814463D01*
X118267515Y-92901592D01*
X118378408Y-93012485D01*
X118465537Y-93142883D01*
X118525552Y-93287772D01*
X118556148Y-93441586D01*
X118556148Y-93598414D01*
X118525552Y-93752228D01*
X118465537Y-93897117D01*
X118378408Y-94027515D01*
X118267515Y-94138408D01*
X118137117Y-94225537D01*
X117992228Y-94285552D01*
X117838414Y-94316148D01*
X117681586Y-94316148D01*
X117527772Y-94285552D01*
X117382883Y-94225537D01*
X117252485Y-94138408D01*
X117141592Y-94027515D01*
X117054463Y-93897117D01*
X116994448Y-93752228D01*
X116963852Y-93598414D01*
X116963852Y-93441586D01*
X116994448Y-93287772D01*
X117054463Y-93142883D01*
X117141592Y-93012485D01*
X117252485Y-92901592D01*
X117382883Y-92814463D01*
X117527772Y-92754448D01*
X117681586Y-92723852D01*
X117838414Y-92723852D01*
X117992228Y-92754448D01*
G37*
G36*
X133232228Y-92754448D02*
G01*
X133377117Y-92814463D01*
X133507515Y-92901592D01*
X133618408Y-93012485D01*
X133705537Y-93142883D01*
X133765552Y-93287772D01*
X133796148Y-93441586D01*
X133796148Y-93598414D01*
X133765552Y-93752228D01*
X133705537Y-93897117D01*
X133618408Y-94027515D01*
X133507515Y-94138408D01*
X133377117Y-94225537D01*
X133232228Y-94285552D01*
X133078414Y-94316148D01*
X132921586Y-94316148D01*
X132767772Y-94285552D01*
X132622883Y-94225537D01*
X132492485Y-94138408D01*
X132381592Y-94027515D01*
X132294463Y-93897117D01*
X132234448Y-93752228D01*
X132203852Y-93598414D01*
X132203852Y-93441586D01*
X132234448Y-93287772D01*
X132294463Y-93142883D01*
X132381592Y-93012485D01*
X132492485Y-92901592D01*
X132622883Y-92814463D01*
X132767772Y-92754448D01*
X132921586Y-92723852D01*
X133078414Y-92723852D01*
X133232228Y-92754448D01*
G37*
G36*
X117992228Y-90214448D02*
G01*
X118137117Y-90274463D01*
X118267515Y-90361592D01*
X118378408Y-90472485D01*
X118465537Y-90602883D01*
X118525552Y-90747772D01*
X118556148Y-90901586D01*
X118556148Y-91058414D01*
X118525552Y-91212228D01*
X118465537Y-91357117D01*
X118378408Y-91487515D01*
X118267515Y-91598408D01*
X118137117Y-91685537D01*
X117992228Y-91745552D01*
X117838414Y-91776148D01*
X117681586Y-91776148D01*
X117527772Y-91745552D01*
X117382883Y-91685537D01*
X117252485Y-91598408D01*
X117141592Y-91487515D01*
X117054463Y-91357117D01*
X116994448Y-91212228D01*
X116963852Y-91058414D01*
X116963852Y-90901586D01*
X116994448Y-90747772D01*
X117054463Y-90602883D01*
X117141592Y-90472485D01*
X117252485Y-90361592D01*
X117382883Y-90274463D01*
X117527772Y-90214448D01*
X117681586Y-90183852D01*
X117838414Y-90183852D01*
X117992228Y-90214448D01*
G37*
G36*
X133232228Y-90214448D02*
G01*
X133377117Y-90274463D01*
X133507515Y-90361592D01*
X133618408Y-90472485D01*
X133705537Y-90602883D01*
X133765552Y-90747772D01*
X133796148Y-90901586D01*
X133796148Y-91058414D01*
X133765552Y-91212228D01*
X133705537Y-91357117D01*
X133618408Y-91487515D01*
X133507515Y-91598408D01*
X133377117Y-91685537D01*
X133232228Y-91745552D01*
X133078414Y-91776148D01*
X132921586Y-91776148D01*
X132767772Y-91745552D01*
X132622883Y-91685537D01*
X132492485Y-91598408D01*
X132381592Y-91487515D01*
X132294463Y-91357117D01*
X132234448Y-91212228D01*
X132203852Y-91058414D01*
X132203852Y-90901586D01*
X132234448Y-90747772D01*
X132294463Y-90602883D01*
X132381592Y-90472485D01*
X132492485Y-90361592D01*
X132622883Y-90274463D01*
X132767772Y-90214448D01*
X132921586Y-90183852D01*
X133078414Y-90183852D01*
X133232228Y-90214448D01*
G37*
G36*
X138112228Y-87734448D02*
G01*
X138257117Y-87794463D01*
X138387515Y-87881592D01*
X138498408Y-87992485D01*
X138585537Y-88122883D01*
X138645552Y-88267772D01*
X138676148Y-88421586D01*
X138676148Y-88578414D01*
X138645552Y-88732228D01*
X138585537Y-88877117D01*
X138498408Y-89007515D01*
X138387515Y-89118408D01*
X138257117Y-89205537D01*
X138112228Y-89265552D01*
X137958414Y-89296148D01*
X137801586Y-89296148D01*
X137647772Y-89265552D01*
X137502883Y-89205537D01*
X137372485Y-89118408D01*
X137261592Y-89007515D01*
X137174463Y-88877117D01*
X137114448Y-88732228D01*
X137083852Y-88578414D01*
X137083852Y-88421586D01*
X137114448Y-88267772D01*
X137174463Y-88122883D01*
X137261592Y-87992485D01*
X137372485Y-87881592D01*
X137502883Y-87794463D01*
X137647772Y-87734448D01*
X137801586Y-87703852D01*
X137958414Y-87703852D01*
X138112228Y-87734448D01*
G37*
G36*
X145732228Y-87734448D02*
G01*
X145877117Y-87794463D01*
X146007515Y-87881592D01*
X146118408Y-87992485D01*
X146205537Y-88122883D01*
X146265552Y-88267772D01*
X146296148Y-88421586D01*
X146296148Y-88578414D01*
X146265552Y-88732228D01*
X146205537Y-88877117D01*
X146118408Y-89007515D01*
X146007515Y-89118408D01*
X145877117Y-89205537D01*
X145732228Y-89265552D01*
X145578414Y-89296148D01*
X145421586Y-89296148D01*
X145267772Y-89265552D01*
X145122883Y-89205537D01*
X144992485Y-89118408D01*
X144881592Y-89007515D01*
X144794463Y-88877117D01*
X144734448Y-88732228D01*
X144703852Y-88578414D01*
X144703852Y-88421586D01*
X144734448Y-88267772D01*
X144794463Y-88122883D01*
X144881592Y-87992485D01*
X144992485Y-87881592D01*
X145122883Y-87794463D01*
X145267772Y-87734448D01*
X145421586Y-87703852D01*
X145578414Y-87703852D01*
X145732228Y-87734448D01*
G37*
G36*
X153808000Y-89292000D02*
G01*
X152008000Y-89292000D01*
X152008000Y-87492000D01*
X153808000Y-87492000D01*
X153808000Y-89292000D01*
G37*
G36*
X150629256Y-87530754D02*
G01*
X150792257Y-87598271D01*
X150938954Y-87696291D01*
X151063709Y-87821046D01*
X151161729Y-87967743D01*
X151229246Y-88130744D01*
X151263666Y-88303785D01*
X151263666Y-88480215D01*
X151229246Y-88653256D01*
X151161729Y-88816257D01*
X151063709Y-88962954D01*
X150938954Y-89087709D01*
X150792257Y-89185729D01*
X150629256Y-89253246D01*
X150456215Y-89287666D01*
X150279785Y-89287666D01*
X150106744Y-89253246D01*
X149943743Y-89185729D01*
X149797046Y-89087709D01*
X149672291Y-88962954D01*
X149574271Y-88816257D01*
X149506754Y-88653256D01*
X149472334Y-88480215D01*
X149472334Y-88303785D01*
X149506754Y-88130744D01*
X149574271Y-87967743D01*
X149672291Y-87821046D01*
X149797046Y-87696291D01*
X149943743Y-87598271D01*
X150106744Y-87530754D01*
X150279785Y-87496334D01*
X150456215Y-87496334D01*
X150629256Y-87530754D01*
G37*
G36*
X117992228Y-87674448D02*
G01*
X118137117Y-87734463D01*
X118267515Y-87821592D01*
X118378408Y-87932485D01*
X118465537Y-88062883D01*
X118525552Y-88207772D01*
X118556148Y-88361586D01*
X118556148Y-88518414D01*
X118525552Y-88672228D01*
X118465537Y-88817117D01*
X118378408Y-88947515D01*
X118267515Y-89058408D01*
X118137117Y-89145537D01*
X117992228Y-89205552D01*
X117838414Y-89236148D01*
X117681586Y-89236148D01*
X117527772Y-89205552D01*
X117382883Y-89145537D01*
X117252485Y-89058408D01*
X117141592Y-88947515D01*
X117054463Y-88817117D01*
X116994448Y-88672228D01*
X116963852Y-88518414D01*
X116963852Y-88361586D01*
X116994448Y-88207772D01*
X117054463Y-88062883D01*
X117141592Y-87932485D01*
X117252485Y-87821592D01*
X117382883Y-87734463D01*
X117527772Y-87674448D01*
X117681586Y-87643852D01*
X117838414Y-87643852D01*
X117992228Y-87674448D01*
G37*
G36*
X133232228Y-87674448D02*
G01*
X133377117Y-87734463D01*
X133507515Y-87821592D01*
X133618408Y-87932485D01*
X133705537Y-88062883D01*
X133765552Y-88207772D01*
X133796148Y-88361586D01*
X133796148Y-88518414D01*
X133765552Y-88672228D01*
X133705537Y-88817117D01*
X133618408Y-88947515D01*
X133507515Y-89058408D01*
X133377117Y-89145537D01*
X133232228Y-89205552D01*
X133078414Y-89236148D01*
X132921586Y-89236148D01*
X132767772Y-89205552D01*
X132622883Y-89145537D01*
X132492485Y-89058408D01*
X132381592Y-88947515D01*
X132294463Y-88817117D01*
X132234448Y-88672228D01*
X132203852Y-88518414D01*
X132203852Y-88361586D01*
X132234448Y-88207772D01*
X132294463Y-88062883D01*
X132381592Y-87932485D01*
X132492485Y-87821592D01*
X132622883Y-87734463D01*
X132767772Y-87674448D01*
X132921586Y-87643852D01*
X133078414Y-87643852D01*
X133232228Y-87674448D01*
G37*
G36*
X97142000Y-83942000D02*
G01*
X95618000Y-83942000D01*
X95618000Y-82418000D01*
X97142000Y-82418000D01*
X97142000Y-83942000D01*
G37*
G36*
X99141197Y-82450811D02*
G01*
X99279204Y-82507976D01*
X99403408Y-82590966D01*
X99509034Y-82696592D01*
X99592024Y-82820796D01*
X99649189Y-82958803D01*
X99678331Y-83105311D01*
X99678331Y-83254689D01*
X99649189Y-83401197D01*
X99592024Y-83539204D01*
X99509034Y-83663408D01*
X99403408Y-83769034D01*
X99279204Y-83852024D01*
X99141197Y-83909189D01*
X98994689Y-83938331D01*
X98845311Y-83938331D01*
X98698803Y-83909189D01*
X98560796Y-83852024D01*
X98436592Y-83769034D01*
X98330966Y-83663408D01*
X98247976Y-83539204D01*
X98190811Y-83401197D01*
X98161669Y-83254689D01*
X98161669Y-83105311D01*
X98190811Y-82958803D01*
X98247976Y-82820796D01*
X98330966Y-82696592D01*
X98436592Y-82590966D01*
X98560796Y-82507976D01*
X98698803Y-82450811D01*
X98845311Y-82421669D01*
X98994689Y-82421669D01*
X99141197Y-82450811D01*
G37*
G36*
X101681197Y-82450811D02*
G01*
X101819204Y-82507976D01*
X101943408Y-82590966D01*
X102049034Y-82696592D01*
X102132024Y-82820796D01*
X102189189Y-82958803D01*
X102218331Y-83105311D01*
X102218331Y-83254689D01*
X102189189Y-83401197D01*
X102132024Y-83539204D01*
X102049034Y-83663408D01*
X101943408Y-83769034D01*
X101819204Y-83852024D01*
X101681197Y-83909189D01*
X101534689Y-83938331D01*
X101385311Y-83938331D01*
X101238803Y-83909189D01*
X101100796Y-83852024D01*
X100976592Y-83769034D01*
X100870966Y-83663408D01*
X100787976Y-83539204D01*
X100730811Y-83401197D01*
X100701669Y-83254689D01*
X100701669Y-83105311D01*
X100730811Y-82958803D01*
X100787976Y-82820796D01*
X100870966Y-82696592D01*
X100976592Y-82590966D01*
X101100796Y-82507976D01*
X101238803Y-82450811D01*
X101385311Y-82421669D01*
X101534689Y-82421669D01*
X101681197Y-82450811D01*
G37*
G36*
X104221197Y-82450811D02*
G01*
X104359204Y-82507976D01*
X104483408Y-82590966D01*
X104589034Y-82696592D01*
X104672024Y-82820796D01*
X104729189Y-82958803D01*
X104758331Y-83105311D01*
X104758331Y-83254689D01*
X104729189Y-83401197D01*
X104672024Y-83539204D01*
X104589034Y-83663408D01*
X104483408Y-83769034D01*
X104359204Y-83852024D01*
X104221197Y-83909189D01*
X104074689Y-83938331D01*
X103925311Y-83938331D01*
X103778803Y-83909189D01*
X103640796Y-83852024D01*
X103516592Y-83769034D01*
X103410966Y-83663408D01*
X103327976Y-83539204D01*
X103270811Y-83401197D01*
X103241669Y-83254689D01*
X103241669Y-83105311D01*
X103270811Y-82958803D01*
X103327976Y-82820796D01*
X103410966Y-82696592D01*
X103516592Y-82590966D01*
X103640796Y-82507976D01*
X103778803Y-82450811D01*
X103925311Y-82421669D01*
X104074689Y-82421669D01*
X104221197Y-82450811D01*
G37*
%LPD*%
M02*
