%TF.GenerationSoftware,KiCad,Pcbnew,9.0.6*%
%TF.CreationDate,2025-12-25T14:27:43+05:30*%
%TF.ProjectId,new_first_pcb,6e65775f-6669-4727-9374-5f7063622e6b,rev?*%
%TF.SameCoordinates,Original*%
%TF.FileFunction,Drillmap*%
%TF.FilePolarity,Positive*%
%FSLAX45Y45*%
G04 Gerber Fmt 4.5, Leading zero omitted, Abs format (unit mm)*
G04 Created by KiCad (PCBNEW 9.0.6) date 2025-12-25 14:27:43*
%MOMM*%
%LPD*%
G01*
G04 APERTURE LIST*
%ADD10C,0.038100*%
%ADD11C,0.200000*%
G04 APERTURE END LIST*
D10*
X8500000Y-13300000D02*
X16100000Y-13300000D01*
X16100000Y-8100000D02*
X8500000Y-8100000D01*
X8500000Y-8100000D02*
X8500000Y-13300000D01*
X16100000Y-13300000D02*
X16100000Y-8100000D01*
D11*
X8758872Y-13613389D02*
X8758872Y-13413389D01*
X8758872Y-13413389D02*
X8806491Y-13413389D01*
X8806491Y-13413389D02*
X8835062Y-13422913D01*
X8835062Y-13422913D02*
X8854110Y-13441960D01*
X8854110Y-13441960D02*
X8863634Y-13461008D01*
X8863634Y-13461008D02*
X8873158Y-13499103D01*
X8873158Y-13499103D02*
X8873158Y-13527674D01*
X8873158Y-13527674D02*
X8863634Y-13565770D01*
X8863634Y-13565770D02*
X8854110Y-13584817D01*
X8854110Y-13584817D02*
X8835062Y-13603865D01*
X8835062Y-13603865D02*
X8806491Y-13613389D01*
X8806491Y-13613389D02*
X8758872Y-13613389D01*
X8958872Y-13613389D02*
X8958872Y-13480055D01*
X8958872Y-13518151D02*
X8968396Y-13499103D01*
X8968396Y-13499103D02*
X8977919Y-13489579D01*
X8977919Y-13489579D02*
X8996967Y-13480055D01*
X8996967Y-13480055D02*
X9016015Y-13480055D01*
X9082681Y-13613389D02*
X9082681Y-13480055D01*
X9082681Y-13413389D02*
X9073158Y-13422913D01*
X9073158Y-13422913D02*
X9082681Y-13432436D01*
X9082681Y-13432436D02*
X9092205Y-13422913D01*
X9092205Y-13422913D02*
X9082681Y-13413389D01*
X9082681Y-13413389D02*
X9082681Y-13432436D01*
X9206491Y-13613389D02*
X9187443Y-13603865D01*
X9187443Y-13603865D02*
X9177919Y-13584817D01*
X9177919Y-13584817D02*
X9177919Y-13413389D01*
X9311253Y-13613389D02*
X9292205Y-13603865D01*
X9292205Y-13603865D02*
X9282681Y-13584817D01*
X9282681Y-13584817D02*
X9282681Y-13413389D01*
X9539824Y-13613389D02*
X9539824Y-13413389D01*
X9539824Y-13413389D02*
X9606491Y-13556246D01*
X9606491Y-13556246D02*
X9673158Y-13413389D01*
X9673158Y-13413389D02*
X9673158Y-13613389D01*
X9854110Y-13613389D02*
X9854110Y-13508627D01*
X9854110Y-13508627D02*
X9844586Y-13489579D01*
X9844586Y-13489579D02*
X9825539Y-13480055D01*
X9825539Y-13480055D02*
X9787443Y-13480055D01*
X9787443Y-13480055D02*
X9768396Y-13489579D01*
X9854110Y-13603865D02*
X9835062Y-13613389D01*
X9835062Y-13613389D02*
X9787443Y-13613389D01*
X9787443Y-13613389D02*
X9768396Y-13603865D01*
X9768396Y-13603865D02*
X9758872Y-13584817D01*
X9758872Y-13584817D02*
X9758872Y-13565770D01*
X9758872Y-13565770D02*
X9768396Y-13546722D01*
X9768396Y-13546722D02*
X9787443Y-13537198D01*
X9787443Y-13537198D02*
X9835062Y-13537198D01*
X9835062Y-13537198D02*
X9854110Y-13527674D01*
X9949348Y-13480055D02*
X9949348Y-13680055D01*
X9949348Y-13489579D02*
X9968396Y-13480055D01*
X9968396Y-13480055D02*
X10006491Y-13480055D01*
X10006491Y-13480055D02*
X10025539Y-13489579D01*
X10025539Y-13489579D02*
X10035062Y-13499103D01*
X10035062Y-13499103D02*
X10044586Y-13518151D01*
X10044586Y-13518151D02*
X10044586Y-13575293D01*
X10044586Y-13575293D02*
X10035062Y-13594341D01*
X10035062Y-13594341D02*
X10025539Y-13603865D01*
X10025539Y-13603865D02*
X10006491Y-13613389D01*
X10006491Y-13613389D02*
X9968396Y-13613389D01*
X9968396Y-13613389D02*
X9949348Y-13603865D01*
X10130300Y-13594341D02*
X10139824Y-13603865D01*
X10139824Y-13603865D02*
X10130300Y-13613389D01*
X10130300Y-13613389D02*
X10120777Y-13603865D01*
X10120777Y-13603865D02*
X10130300Y-13594341D01*
X10130300Y-13594341D02*
X10130300Y-13613389D01*
X10130300Y-13489579D02*
X10139824Y-13499103D01*
X10139824Y-13499103D02*
X10130300Y-13508627D01*
X10130300Y-13508627D02*
X10120777Y-13499103D01*
X10120777Y-13499103D02*
X10130300Y-13489579D01*
X10130300Y-13489579D02*
X10130300Y-13508627D01*
M02*
